  0
SECTION
  2
HEADER
  9
$ACADVER
  1
AC1015
  9
$ACADMAINTVER
 70
     6
  9
$DWGCODEPAGE
  3
ANSI_1252
  9
$INSBASE
 10
0.0
 20
0.0
 30
0.0
  9
$EXTMIN
 10
-695.0344230674
 20
8.9792345404
 30
0.0
  9
$EXTMAX
 10
-1.8211144447
 20
1153.6746448054
 30
0.0
  9
$LIMMIN
 10
0.0
 20
0.0
  9
$LIMMAX
 10
420.0
 20
297.0
  9
$ORTHOMODE
 70
     0
  9
$REGENMODE
 70
     1
  9
$FILLMODE
 70
     1
  9
$QTEXTMODE
 70
     0
  9
$MIRRTEXT
 70
     1
  9
$LTSCALE
 40
1.0
  9
$ATTMODE
 70
     1
  9
$TEXTSIZE
 40
3.5
  9
$TRACEWID
 40
1.0
  9
$TEXTSTYLE
  7
Standard
  9
$CLAYER
  8
0
  9
$CELTYPE
  6
ByLayer
  9
$CECOLOR
 62
   256
  9
$CELTSCALE
 40
1.0
  9
$DISPSILH
 70
     0
  9
$DIMSCALE
 40
1.0
  9
$DIMASZ
 40
3.302
  9
$DIMEXO
 40
0.0
  9
$DIMDLI
 40
3.75
  9
$DIMRND
 40
0.0
  9
$DIMDLE
 40
0.0
  9
$DIMEXE
 40
1.0
  9
$DIMTP
 40
0.0
  9
$DIMTM
 40
0.0
  9
$DIMTXT
 40
3.5
  9
$DIMCEN
 40
2.5
  9
$DIMTSZ
 40
0.0
  9
$DIMTOL
 70
     0
  9
$DIMLIM
 70
     0
  9
$DIMTIH
 70
     1
  9
$DIMTOH
 70
     1
  9
$DIMSE1
 70
     0
  9
$DIMSE2
 70
     0
  9
$DIMTAD
 70
     1
  9
$DIMZIN
 70
     0
  9
$DIMBLK
  1

  9
$DIMASO
 70
     1
  9
$DIMSHO
 70
     1
  9
$DIMPOST
  1

  9
$DIMAPOST
  1

  9
$DIMALT
 70
     0
  9
$DIMALTD
 70
     3
  9
$DIMALTF
 40
0.0393700787
  9
$DIMLFAC
 40
1.0
  9
$DIMTOFL
 70
     1
  9
$DIMTVP
 40
0.0
  9
$DIMTIX
 70
     0
  9
$DIMSOXD
 70
     0
  9
$DIMSAH
 70
     0
  9
$DIMBLK1
  1

  9
$DIMBLK2
  1

  9
$DIMSTYLE
  2
ISO-25
  9
$DIMCLRD
 70
     0
  9
$DIMCLRE
 70
     0
  9
$DIMCLRT
 70
     0
  9
$DIMTFAC
 40
1.0
  9
$DIMGAP
 40
1.524
  9
$DIMJUST
 70
     0
  9
$DIMSD1
 70
     0
  9
$DIMSD2
 70
     0
  9
$DIMTOLJ
 70
     0
  9
$DIMTZIN
 70
     0
  9
$DIMALTZ
 70
     0
  9
$DIMALTTZ
 70
     0
  9
$DIMUPT
 70
     0
  9
$DIMDEC
 70
     2
  9
$DIMTDEC
 70
     2
  9
$DIMALTU
 70
     2
  9
$DIMALTTD
 70
     3
  9
$DIMTXSTY
  7
Standard
  9
$DIMAUNIT
 70
     0
  9
$DIMADEC
 70
     2
  9
$DIMALTRND
 40
0.0
  9
$DIMAZIN
 70
     0
  9
$DIMDSEP
 70
    44
  9
$DIMATFIT
 70
     3
  9
$DIMFRAC
 70
     0
  9
$DIMLDRBLK
  1

  9
$DIMLUNIT
 70
     2
  9
$DIMLWD
 70
    -2
  9
$DIMLWE
 70
    -2
  9
$DIMTMOVE
 70
     0
  9
$LUNITS
 70
     2
  9
$LUPREC
 70
     2
  9
$SKETCHINC
 40
1.0
  9
$FILLETRAD
 40
0.0
  9
$AUNITS
 70
     0
  9
$AUPREC
 70
     2
  9
$MENU
  1
.
  9
$ELEVATION
 40
0.0
  9
$PELEVATION
 40
0.0
  9
$THICKNESS
 40
0.0
  9
$LIMCHECK
 70
     0
  9
$CHAMFERA
 40
0.0
  9
$CHAMFERB
 40
0.0
  9
$CHAMFERC
 40
0.0
  9
$CHAMFERD
 40
0.0
  9
$SKPOLY
 70
     0
  9
$TDCREATE
 40
2460532.544526088
  9
$TDUCREATE
 40
2460532.461192755
  9
$TDUPDATE
 40
2460532.544552489
  9
$TDUUPDATE
 40
2460532.461219155
  9
$TDINDWG
 40
0.0000000116
  9
$TDUSRTIMER
 40
0.0000000116
  9
$USRTIMER
 70
     1
  9
$ANGBASE
 50
0.0
  9
$ANGDIR
 70
     0
  9
$PDMODE
 70
     0
  9
$PDSIZE
 40
-1.0
  9
$PLINEWID
 40
0.0
  9
$SPLFRAME
 70
     0
  9
$SPLINETYPE
 70
     6
  9
$SPLINESEGS
 70
     8
  9
$HANDSEED
  5
713
  9
$SURFTAB1
 70
     6
  9
$SURFTAB2
 70
     6
  9
$SURFTYPE
 70
     6
  9
$SURFU
 70
     6
  9
$SURFV
 70
     6
  9
$UCSBASE
  2

  9
$UCSNAME
  2

  9
$UCSORG
 10
0.0
 20
0.0
 30
0.0
  9
$UCSXDIR
 10
1.0
 20
0.0
 30
0.0
  9
$UCSYDIR
 10
0.0
 20
1.0
 30
0.0
  9
$UCSORTHOREF
  2

  9
$UCSORTHOVIEW
 70
     0
  9
$UCSORGTOP
 10
0.0
 20
0.0
 30
0.0
  9
$UCSORGBOTTOM
 10
0.0
 20
0.0
 30
0.0
  9
$UCSORGLEFT
 10
0.0
 20
0.0
 30
0.0
  9
$UCSORGRIGHT
 10
0.0
 20
0.0
 30
0.0
  9
$UCSORGFRONT
 10
0.0
 20
0.0
 30
0.0
  9
$UCSORGBACK
 10
0.0
 20
0.0
 30
0.0
  9
$PUCSBASE
  2

  9
$PUCSNAME
  2

  9
$PUCSORG
 10
0.0
 20
0.0
 30
0.0
  9
$PUCSXDIR
 10
1.0
 20
0.0
 30
0.0
  9
$PUCSYDIR
 10
0.0
 20
1.0
 30
0.0
  9
$PUCSORTHOREF
  2

  9
$PUCSORTHOVIEW
 70
     0
  9
$PUCSORGTOP
 10
0.0
 20
0.0
 30
0.0
  9
$PUCSORGBOTTOM
 10
0.0
 20
0.0
 30
0.0
  9
$PUCSORGLEFT
 10
0.0
 20
0.0
 30
0.0
  9
$PUCSORGRIGHT
 10
0.0
 20
0.0
 30
0.0
  9
$PUCSORGFRONT
 10
0.0
 20
0.0
 30
0.0
  9
$PUCSORGBACK
 10
0.0
 20
0.0
 30
0.0
  9
$USERI1
 70
     0
  9
$USERI2
 70
     0
  9
$USERI3
 70
     0
  9
$USERI4
 70
     0
  9
$USERI5
 70
     0
  9
$USERR1
 40
0.0
  9
$USERR2
 40
0.0
  9
$USERR3
 40
0.0
  9
$USERR4
 40
0.0
  9
$USERR5
 40
0.0
  9
$WORLDVIEW
 70
     1
  9
$SHADEDGE
 70
     3
  9
$SHADEDIF
 70
    70
  9
$TILEMODE
 70
     1
  9
$MAXACTVP
 70
    64
  9
$PINSBASE
 10
0.0
 20
0.0
 30
0.0
  9
$PLIMCHECK
 70
     0
  9
$PEXTMIN
 10
1.0000000000E+20
 20
1.0000000000E+20
 30
1.0000000000E+20
  9
$PEXTMAX
 10
-1.0000000000E+20
 20
-1.0000000000E+20
 30
-1.0000000000E+20
  9
$PLIMMIN
 10
0.0
 20
0.0
  9
$PLIMMAX
 10
420.0
 20
297.0
  9
$UNITMODE
 70
     0
  9
$VISRETAIN
 70
     1
  9
$PLINEGEN
 70
     0
  9
$PSLTSCALE
 70
     1
  9
$TREEDEPTH
 70
  3020
  9
$CMLSTYLE
  2
Standard
  9
$CMLJUST
 70
     0
  9
$CMLSCALE
 40
20.0
  9
$PROXYGRAPHICS
 70
     1
  9
$MEASUREMENT
 70
     1
  9
$CELWEIGHT
370
    -1
  9
$ENDCAPS
280
     0
  9
$JOINSTYLE
280
     0
  9
$LWDISPLAY
290
     1
  9
$INSUNITS
 70
     4
  9
$HYPERLINKBASE
  1

  9
$STYLESHEET
  1

  9
$XEDIT
290
     1
  9
$CEPSNTYPE
380
     0
  9
$PSTYLEMODE
290
     1
  9
$FINGERPRINTGUID
  2
{2f3f8edb-f45e-4395-be7d-84f5bbb725cc}
  9
$VERSIONGUID
  2
{FAEB1C32-E019-11D5-929B-00C0DF256EC4}
  9
$EXTNAMES
290
     1
  9
$PSVPSCALE
 40
0.0
  9
$OLESTARTUP
290
     0
  0
ENDSEC
  0
SECTION
  2
CLASSES
  0
CLASS
  1
ACDBDICTIONARYWDFLT
  2
AcDbDictionaryWithDefault
  3
ObjectDBX Classes
 90
        0
280
     0
281
     0
  0
CLASS
  1
VISUALSTYLE
  2
AcDbVisualStyle
  3
ObjectDBX Classes
 90
     4095
280
     0
281
     0
  0
CLASS
  1
MATERIAL
  2
AcDbMaterial
  3
ObjectDBX Classes
 90
     1153
280
     0
281
     0
  0
CLASS
  1
SCALE
  2
AcDbScale
  3
ObjectDBX Classes
 90
     1153
280
     0
281
     0
  0
CLASS
  1
TABLESTYLE
  2
AcDbTableStyle
  3
ObjectDBX Classes
 90
     4095
280
     0
281
     0
  0
CLASS
  1
MLEADERSTYLE
  2
AcDbMLeaderStyle
  3
ACDB_MLEADERSTYLE_CLASS
 90
     4095
280
     0
281
     0
  0
CLASS
  1
SUN
  2
AcDbSun
  3
SCENEOE
 90
     1153
280
     0
281
     0
  0
CLASS
  1
ACDBPLACEHOLDER
  2
AcDbPlaceHolder
  3
ObjectDBX Classes
 90
        0
280
     0
281
     0
  0
CLASS
  1
LAYOUT
  2
AcDbLayout
  3
ObjectDBX Classes
 90
        0
280
     0
281
     0
  0
ENDSEC
  0
SECTION
  2
TABLES
  0
TABLE
  2
VPORT
  5
8
330
0
100
AcDbSymbolTable
 70
     1
  0
VPORT
  5
29
330
8
100
AcDbSymbolTableRecord
100
AcDbViewportTableRecord
  2
*Active
 70
     0
 10
0.0
 20
0.0
 11
1.0
 21
1.0
 12
-348.4277687561
 22
581.3269396729
 13
0.0
 23
0.0
 14
10.0
 24
10.0
 15
10.0
 25
10.0
 16
0.0
 26
0.0
 36
1.0
 17
0.0
 27
0.0
 37
0.0
 40
1167.5893184703
 41
0.6055875671
 42
50.0
 43
0.0
 44
0.0
 50
0.0
 51
0.0
 71
     0
 72
   100
 73
     1
 74
     3
 75
     0
 76
     0
 77
     0
 78
     0
281
     0
 65
     1
110
0.0
120
0.0
130
0.0
111
1.0
121
0.0
131
0.0
112
0.0
122
1.0
132
0.0
 79
     0
146
0.0
  0
ENDTAB
  0
TABLE
  2
LTYPE
  5
5
330
0
100
AcDbSymbolTable
 70
     6
  0
LTYPE
  5
14
330
5
100
AcDbSymbolTableRecord
100
AcDbLinetypeTableRecord
  2
ByBlock
 70
     0
  3

 72
    65
 73
     0
 40
0.0
  0
LTYPE
  5
15
330
5
100
AcDbSymbolTableRecord
100
AcDbLinetypeTableRecord
  2
ByLayer
 70
     0
  3

 72
    65
 73
     0
 40
0.0
  0
LTYPE
  5
16
330
5
100
AcDbSymbolTableRecord
100
AcDbLinetypeTableRecord
  2
Continuous
 70
     0
  3
Solid line
 72
    65
 73
     0
 40
0.0
  0
LTYPE
  5
5E
330
5
100
AcDbSymbolTableRecord
100
AcDbLinetypeTableRecord
  2
HIDDEN
 70
     0
  3
Hidden __ __ __ __ __ __ __ __ __ __ __ __ __ __
 72
    65
 73
     2
 40
1.905
 49
1.27
 74
     0
 49
-0.635
 74
     0
  0
LTYPE
  5
5F
330
5
100
AcDbSymbolTableRecord
100
AcDbLinetypeTableRecord
  2
PHANTOM
 70
     0
  3
Phantom ______  __  __  ______  __  __  ______
 72
    65
 73
     6
 40
12.7
 49
6.35
 74
     0
 49
-1.27
 74
     0
 49
1.27
 74
     0
 49
-1.27
 74
     0
 49
1.27
 74
     0
 49
-1.27
 74
     0
  0
LTYPE
  5
60
330
5
100
AcDbSymbolTableRecord
100
AcDbLinetypeTableRecord
  2
CENTER
 70
     0
  3
Center ____ _ ____ _ ____ _ ____ _ ____ _ ____
 72
    65
 73
     4
 40
10.16
 49
6.35
 74
     0
 49
-1.27
 74
     0
 49
1.27
 74
     0
 49
-1.27
 74
     0
  0
LTYPE
  5
61
330
5
100
AcDbSymbolTableRecord
100
AcDbLinetypeTableRecord
  2
CENTERX2
 70
     0
  3
Center (2x) ________  __  ________  __  _____
 72
    65
 73
     4
 40
20.32
 49
12.7
 74
     0
 49
-2.54
 74
     0
 49
2.54
 74
     0
 49
-2.54
 74
     0
  0
LTYPE
  5
62
330
5
100
AcDbSymbolTableRecord
100
AcDbLinetypeTableRecord
  2
DOT2
 70
     0
  3
Dot (.5x) ........................................
 72
    65
 73
     2
 40
0.635
 49
0.0
 74
     0
 49
-0.635
 74
     0
  0
ENDTAB
  0
TABLE
  2
LAYER
  5
2
330
0
100
AcDbSymbolTable
 70
     1
  0
LAYER
  5
10
330
2
100
AcDbSymbolTableRecord
100
AcDbLayerTableRecord
  2
0
 70
     0
 62
     7
  6
Continuous
370
    -3
390
F
  0
ENDTAB
  0
TABLE
  2
STYLE
  5
3
330
0
100
AcDbSymbolTable
 70
     1
  0
STYLE
  5
11
330
3
100
AcDbSymbolTableRecord
100
AcDbTextStyleTableRecord
  2
Standard
 70
     0
 40
0.0
 41
1.0
 50
0.0
 71
     0
 42
3.5
  3
txt
  4

  0
ENDTAB
  0
TABLE
  2
VIEW
  5
6
330
0
100
AcDbSymbolTable
 70
     0
  0
ENDTAB
  0
TABLE
  2
UCS
  5
7
330
0
100
AcDbSymbolTable
 70
     0
  0
ENDTAB
  0
TABLE
  2
APPID
  5
9
330
0
100
AcDbSymbolTable
 70
     1
  0
APPID
  5
12
330
9
100
AcDbSymbolTableRecord
100
AcDbRegAppTableRecord
  2
ACAD
 70
     0
  0
ENDTAB
  0
TABLE
  2
DIMSTYLE
  5
A
330
0
100
AcDbSymbolTable
 70
     1
100
AcDbDimStyleTable
  0
DIMSTYLE
105
27
330
A
100
AcDbSymbolTableRecord
100
AcDbDimStyleTableRecord
  2
ISO-25
 70
     0
 41
2.5
 42
0.625
 43
3.75
 44
1.25
 73
     0
 74
     0
 77
     1
 78
     8
140
2.5
141
2.5
143
0.0393700787
147
0.625
171
     3
172
     1
178
     0
271
     2
272
     2
274
     3
278
    44
283
     0
284
     8
340
11
  0
ENDTAB
  0
TABLE
  2
BLOCK_RECORD
  5
1
330
0
100
AcDbSymbolTable
 70
     1
  0
BLOCK_RECORD
  5
1F
330
1
100
AcDbSymbolTableRecord
100
AcDbBlockTableRecord
  2
*Model_Space
340
22
  0
BLOCK_RECORD
  5
1B
330
1
100
AcDbSymbolTableRecord
100
AcDbBlockTableRecord
  2
*Paper_Space
340
1E
  0
BLOCK_RECORD
  5
23
330
1
100
AcDbSymbolTableRecord
100
AcDbBlockTableRecord
  2
*Paper_Space0
340
26
  0
ENDTAB
  0
ENDSEC
  0
SECTION
  2
BLOCKS
  0
BLOCK
  5
20
330
1F
100
AcDbEntity
  8
0
100
AcDbBlockBegin
  2
*Model_Space
 70
     0
 10
0.0
 20
0.0
 30
0.0
  3
*Model_Space
  1

  0
ENDBLK
  5
21
330
1F
100
AcDbEntity
  8
0
100
AcDbBlockEnd
  0
BLOCK
  5
1C
330
1B
100
AcDbEntity
 67
     1
  8
0
100
AcDbBlockBegin
  2
*Paper_Space
 70
     0
 10
0.0
 20
0.0
 30
0.0
  3
*Paper_Space
  1

  0
ENDBLK
  5
1D
330
1B
100
AcDbEntity
 67
     1
  8
0
100
AcDbBlockEnd
  0
BLOCK
  5
24
330
23
100
AcDbEntity
  8
0
100
AcDbBlockBegin
  2
*Paper_Space0
 70
     0
 10
0.0
 20
0.0
 30
0.0
  3
*Paper_Space0
  1

  0
ENDBLK
  5
25
330
23
100
AcDbEntity
  8
0
100
AcDbBlockEnd
  0
ENDSEC
  0
SECTION
  2
ENTITIES
  0
CIRCLE
  5
177
330
1F
100
AcDbEntity
  8
0
  6
Continuous
 62
     7
370
    25
100
AcDbCircle
 10
-332.2211144447
 20
930.5751507058
 30
0.0
 40
15.00000000000034
  0
CIRCLE
  5
17C
330
1F
100
AcDbEntity
  8
0
  6
Continuous
 62
     7
370
    25
100
AcDbCircle
 10
-437.4206765436
 20
914.7750087776
 30
0.0
 40
1.400000000000205
  0
CIRCLE
  5
17F
330
1F
100
AcDbEntity
  8
0
  6
Continuous
 62
     7
370
    25
100
AcDbCircle
 10
-437.4206765436
 20
905.7750087776
 30
0.0
 40
1.399999999999864
  0
CIRCLE
  5
180
330
1F
100
AcDbEntity
  8
0
  6
Continuous
 62
     7
370
    25
100
AcDbCircle
 10
-466.8618020405
 20
910.2750087776
 30
0.0
 40
10.00000000000011
  0
CIRCLE
  5
181
330
1F
100
AcDbEntity
  8
0
  6
Continuous
 62
     7
370
    25
100
AcDbCircle
 10
-449.891239292
 20
910.2750087776
 30
0.0
 40
30.97056274847728
  0
CIRCLE
  5
183
330
1F
100
AcDbEntity
  8
0
  6
Continuous
 62
     7
370
    25
100
AcDbCircle
 10
-428.4206765436
 20
905.7750087776
 30
0.0
 40
1.399999999999864
  0
CIRCLE
  5
184
330
1F
100
AcDbEntity
  8
0
  6
Continuous
 62
     7
370
    25
100
AcDbCircle
 10
-428.4206765436
 20
914.7750087776
 30
0.0
 40
1.400000000000205
  0
CIRCLE
  5
185
330
1F
100
AcDbEntity
  8
0
  6
Continuous
 62
     7
370
    25
100
AcDbCircle
 10
-432.9206765436
 20
914.7750087776
 30
0.0
 40
1.400000000000205
  0
CIRCLE
  5
186
330
1F
100
AcDbEntity
  8
0
  6
Continuous
 62
     7
370
    25
100
AcDbCircle
 10
-432.9206765436
 20
910.2750087776
 30
0.0
 40
1.399999999999977
  0
CIRCLE
  5
187
330
1F
100
AcDbEntity
  8
0
  6
Continuous
 62
     7
370
    25
100
AcDbCircle
 10
-432.9206765436
 20
905.7750087776
 30
0.0
 40
1.399999999999864
  0
CIRCLE
  5
188
330
1F
100
AcDbEntity
  8
0
  6
Continuous
 62
     7
370
    25
100
AcDbCircle
 10
-428.4206765436
 20
910.2750087776
 30
0.0
 40
1.399999999999977
  0
CIRCLE
  5
18A
330
1F
100
AcDbEntity
  8
0
  6
Continuous
 62
     7
370
    25
100
AcDbCircle
 10
-437.4206765436
 20
910.2750087776
 30
0.0
 40
1.399999999999977
  0
CIRCLE
  5
18B
330
1F
100
AcDbEntity
  8
0
  6
Continuous
 62
     7
370
    25
100
AcDbCircle
 10
-449.891239292
 20
910.2750087776
 30
0.0
 40
1.749999999999886
  0
CIRCLE
  5
34B
330
1F
100
AcDbEntity
  8
0
  6
Continuous
 62
     7
370
    25
100
AcDbCircle
 10
-644.063860319
 20
72.2976827108
 30
0.0
 40
0.7499999999999858
  0
CIRCLE
  5
34C
330
1F
100
AcDbEntity
  8
0
  6
Continuous
 62
     7
370
    25
100
AcDbCircle
 10
-661.0344230674
 20
72.2976827108
 30
0.0
 40
10.0000000000002
  0
LINE
  5
3C2
330
1F
100
AcDbEntity
  8
0
  6
Continuous
 62
     7
370
    25
100
AcDbLine
 10
-144.5891821431
 20
1097.1832492469
 30
0.0
 11
-144.5891821431
 21
1103.1832492469
 31
0.0
  0
LINE
  5
3C3
330
1F
100
AcDbEntity
  8
0
  6
Continuous
 62
     7
370
    25
100
AcDbLine
 10
-144.5891821431
 20
1097.1832492469
 30
0.0
 11
-210.732039286
 21
1097.1832492469
 31
0.0
  0
LINE
  5
3C4
330
1F
100
AcDbEntity
  8
0
  6
Continuous
 62
     7
370
    25
100
AcDbLine
 10
-210.732039286
 20
1097.1832492469
 30
0.0
 11
-210.732039286
 21
1103.1832492469
 31
0.0
  0
LINE
  5
3C5
330
1F
100
AcDbEntity
  8
0
  6
Continuous
 62
     7
370
    25
100
AcDbLine
 10
-210.732039286
 20
1103.1832492469
 30
0.0
 11
-276.8748964288
 21
1103.1832492469
 31
0.0
  0
LINE
  5
3C6
330
1F
100
AcDbEntity
  8
0
  6
Continuous
 62
     7
370
    25
100
AcDbLine
 10
-276.8748964288
 20
1097.1832492469
 30
0.0
 11
-276.8748964288
 21
1103.1832492469
 31
0.0
  0
LINE
  5
3C7
330
1F
100
AcDbEntity
  8
0
  6
Continuous
 62
     7
370
    25
100
AcDbLine
 10
-276.8748964288
 20
1097.1832492469
 30
0.0
 11
-343.0177535717
 21
1097.1832492469
 31
0.0
  0
LINE
  5
3C8
330
1F
100
AcDbEntity
  8
0
  6
Continuous
 62
     7
370
    25
100
AcDbLine
 10
-343.0177535717
 20
1097.1832492469
 30
0.0
 11
-343.0177535717
 21
1103.1832492469
 31
0.0
  0
LINE
  5
3C9
330
1F
100
AcDbEntity
  8
0
  6
Continuous
 62
     7
370
    25
100
AcDbLine
 10
-343.0177535717
 20
1103.1832492469
 30
0.0
 11
-409.1606107145
 21
1103.1832492469
 31
0.0
  0
LINE
  5
3CA
330
1F
100
AcDbEntity
  8
0
  6
Continuous
 62
     7
370
    25
100
AcDbLine
 10
-409.1606107145
 20
1097.1832492469
 30
0.0
 11
-409.1606107145
 21
1103.1832492469
 31
0.0
  0
LINE
  5
3CB
330
1F
100
AcDbEntity
  8
0
  6
Continuous
 62
     7
370
    25
100
AcDbLine
 10
-409.1606107145
 20
1097.1832492469
 30
0.0
 11
-475.3034678574
 21
1097.1832492469
 31
0.0
  0
LINE
  5
3CC
330
1F
100
AcDbEntity
  8
0
  6
Continuous
 62
     7
370
    25
100
AcDbLine
 10
-475.3034678574
 20
1109.8499159136
 30
0.0
 11
-475.3034678574
 21
1097.1832492469
 31
0.0
  0
LINE
  5
3CD
330
1F
100
AcDbEntity
  8
0
  6
Continuous
 62
     7
370
    25
100
AcDbLine
 10
-481.3034678574
 20
1109.8499159136
 30
0.0
 11
-475.3034678574
 21
1109.8499159136
 31
0.0
  0
LINE
  5
3CE
330
1F
100
AcDbEntity
  8
0
  6
Continuous
 62
     7
370
    25
100
AcDbLine
 10
-481.3034678574
 20
1109.8499159136
 30
0.0
 11
-481.3034678574
 21
1116.5165825803
 31
0.0
  0
LINE
  5
3CF
330
1F
100
AcDbEntity
  8
0
  6
Continuous
 62
     7
370
    25
100
AcDbLine
 10
-481.3034678574
 20
1116.5165825803
 30
0.0
 11
-475.3034678574
 21
1116.5165825803
 31
0.0
  0
LINE
  5
3D0
330
1F
100
AcDbEntity
  8
0
  6
Continuous
 62
     7
370
    25
100
AcDbLine
 10
-475.3034678574
 20
1123.1832492469
 30
0.0
 11
-475.3034678574
 21
1116.5165825803
 31
0.0
  0
LINE
  5
3D1
330
1F
100
AcDbEntity
  8
0
  6
Continuous
 62
     7
370
    25
100
AcDbLine
 10
-12.3034678574
 20
1123.1832492469
 30
0.0
 11
-475.3034678574
 21
1123.1832492469
 31
0.0
  0
LINE
  5
3D2
330
1F
100
AcDbEntity
  8
0
  6
Continuous
 62
     7
370
    25
100
AcDbLine
 10
-12.3034678574
 20
1123.1832492469
 30
0.0
 11
-12.3034678574
 21
1116.5165825803
 31
0.0
  0
LINE
  5
3D3
330
1F
100
AcDbEntity
  8
0
  6
Continuous
 62
     7
370
    25
100
AcDbLine
 10
-6.3034678574
 20
1116.5165825803
 30
0.0
 11
-12.3034678574
 21
1116.5165825803
 31
0.0
  0
LINE
  5
3D4
330
1F
100
AcDbEntity
  8
0
  6
Continuous
 62
     7
370
    25
100
AcDbLine
 10
-6.3034678574
 20
1109.8499159136
 30
0.0
 11
-6.3034678574
 21
1116.5165825803
 31
0.0
  0
LINE
  5
3D5
330
1F
100
AcDbEntity
  8
0
  6
Continuous
 62
     7
370
    25
100
AcDbLine
 10
-6.3034678574
 20
1109.8499159136
 30
0.0
 11
-12.3034678574
 21
1109.8499159136
 31
0.0
  0
LINE
  5
3D6
330
1F
100
AcDbEntity
  8
0
  6
Continuous
 62
     7
370
    25
100
AcDbLine
 10
-12.3034678574
 20
1109.8499159136
 30
0.0
 11
-12.3034678574
 21
1097.1832492469
 31
0.0
  0
LINE
  5
3D7
330
1F
100
AcDbEntity
  8
0
  6
Continuous
 62
     7
370
    25
100
AcDbLine
 10
-12.3034678574
 20
1097.1832492469
 30
0.0
 11
-78.4463250003
 21
1097.1832492469
 31
0.0
  0
LINE
  5
3D8
330
1F
100
AcDbEntity
  8
0
  6
Continuous
 62
     7
370
    25
100
AcDbLine
 10
-78.4463250003
 20
1097.1832492469
 30
0.0
 11
-78.4463250003
 21
1103.1832492469
 31
0.0
  0
LINE
  5
3D9
330
1F
100
AcDbEntity
  8
0
  6
Continuous
 62
     7
370
    25
100
AcDbLine
 10
-78.4463250003
 20
1103.1832492469
 30
0.0
 11
-144.5891821431
 21
1103.1832492469
 31
0.0
  0
LINE
  5
3DA
330
1F
100
AcDbEntity
  8
0
  6
Continuous
 62
     7
370
    25
100
AcDbLine
 10
-144.3121660172
 20
1127.6746448054
 30
0.0
 11
-144.3121660172
 21
1133.6746448054
 31
0.0
  0
LINE
  5
3DB
330
1F
100
AcDbEntity
  8
0
  6
Continuous
 62
     7
370
    25
100
AcDbLine
 10
-144.3121660172
 20
1127.6746448054
 30
0.0
 11
-210.4550231601
 21
1127.6746448054
 31
0.0
  0
LINE
  5
3DC
330
1F
100
AcDbEntity
  8
0
  6
Continuous
 62
     7
370
    25
100
AcDbLine
 10
-210.4550231601
 20
1127.6746448054
 30
0.0
 11
-210.4550231601
 21
1133.6746448054
 31
0.0
  0
LINE
  5
3DD
330
1F
100
AcDbEntity
  8
0
  6
Continuous
 62
     7
370
    25
100
AcDbLine
 10
-210.4550231601
 20
1133.6746448054
 30
0.0
 11
-276.597880303
 21
1133.6746448054
 31
0.0
  0
LINE
  5
3DE
330
1F
100
AcDbEntity
  8
0
  6
Continuous
 62
     7
370
    25
100
AcDbLine
 10
-276.597880303
 20
1127.6746448054
 30
0.0
 11
-276.597880303
 21
1133.6746448054
 31
0.0
  0
LINE
  5
3DF
330
1F
100
AcDbEntity
  8
0
  6
Continuous
 62
     7
370
    25
100
AcDbLine
 10
-276.597880303
 20
1127.6746448054
 30
0.0
 11
-342.7407374458
 21
1127.6746448054
 31
0.0
  0
LINE
  5
3E0
330
1F
100
AcDbEntity
  8
0
  6
Continuous
 62
     7
370
    25
100
AcDbLine
 10
-342.7407374458
 20
1127.6746448054
 30
0.0
 11
-342.7407374458
 21
1133.6746448054
 31
0.0
  0
LINE
  5
3E1
330
1F
100
AcDbEntity
  8
0
  6
Continuous
 62
     7
370
    25
100
AcDbLine
 10
-342.7407374458
 20
1133.6746448054
 30
0.0
 11
-408.8835945887
 21
1133.6746448054
 31
0.0
  0
LINE
  5
3E2
330
1F
100
AcDbEntity
  8
0
  6
Continuous
 62
     7
370
    25
100
AcDbLine
 10
-408.8835945887
 20
1127.6746448054
 30
0.0
 11
-408.8835945887
 21
1133.6746448054
 31
0.0
  0
LINE
  5
3E3
330
1F
100
AcDbEntity
  8
0
  6
Continuous
 62
     7
370
    25
100
AcDbLine
 10
-408.8835945887
 20
1127.6746448054
 30
0.0
 11
-475.0264517315
 21
1127.6746448054
 31
0.0
  0
LINE
  5
3E4
330
1F
100
AcDbEntity
  8
0
  6
Continuous
 62
     7
370
    25
100
AcDbLine
 10
-475.0264517315
 20
1140.341311472
 30
0.0
 11
-475.0264517315
 21
1127.6746448054
 31
0.0
  0
LINE
  5
3E5
330
1F
100
AcDbEntity
  8
0
  6
Continuous
 62
     7
370
    25
100
AcDbLine
 10
-481.0264517315
 20
1140.341311472
 30
0.0
 11
-475.0264517315
 21
1140.341311472
 31
0.0
  0
LINE
  5
3E6
330
1F
100
AcDbEntity
  8
0
  6
Continuous
 62
     7
370
    25
100
AcDbLine
 10
-481.0264517315
 20
1140.341311472
 30
0.0
 11
-481.0264517315
 21
1147.0079781387
 31
0.0
  0
LINE
  5
3E7
330
1F
100
AcDbEntity
  8
0
  6
Continuous
 62
     7
370
    25
100
AcDbLine
 10
-481.0264517315
 20
1147.0079781387
 30
0.0
 11
-475.0264517315
 21
1147.0079781387
 31
0.0
  0
LINE
  5
3E8
330
1F
100
AcDbEntity
  8
0
  6
Continuous
 62
     7
370
    25
100
AcDbLine
 10
-475.0264517315
 20
1153.6746448054
 30
0.0
 11
-475.0264517315
 21
1147.0079781387
 31
0.0
  0
LINE
  5
3E9
330
1F
100
AcDbEntity
  8
0
  6
Continuous
 62
     7
370
    25
100
AcDbLine
 10
-12.0264517315
 20
1153.6746448054
 30
0.0
 11
-475.0264517315
 21
1153.6746448054
 31
0.0
  0
LINE
  5
3EA
330
1F
100
AcDbEntity
  8
0
  6
Continuous
 62
     7
370
    25
100
AcDbLine
 10
-12.0264517315
 20
1153.6746448054
 30
0.0
 11
-12.0264517315
 21
1147.0079781387
 31
0.0
  0
LINE
  5
3EB
330
1F
100
AcDbEntity
  8
0
  6
Continuous
 62
     7
370
    25
100
AcDbLine
 10
-6.0264517315
 20
1147.0079781387
 30
0.0
 11
-12.0264517315
 21
1147.0079781387
 31
0.0
  0
LINE
  5
3EC
330
1F
100
AcDbEntity
  8
0
  6
Continuous
 62
     7
370
    25
100
AcDbLine
 10
-6.0264517315
 20
1140.341311472
 30
0.0
 11
-6.0264517315
 21
1147.0079781387
 31
0.0
  0
LINE
  5
3ED
330
1F
100
AcDbEntity
  8
0
  6
Continuous
 62
     7
370
    25
100
AcDbLine
 10
-6.0264517315
 20
1140.341311472
 30
0.0
 11
-12.0264517315
 21
1140.341311472
 31
0.0
  0
LINE
  5
3EE
330
1F
100
AcDbEntity
  8
0
  6
Continuous
 62
     7
370
    25
100
AcDbLine
 10
-12.0264517315
 20
1140.341311472
 30
0.0
 11
-12.0264517315
 21
1127.6746448054
 31
0.0
  0
LINE
  5
3EF
330
1F
100
AcDbEntity
  8
0
  6
Continuous
 62
     7
370
    25
100
AcDbLine
 10
-12.0264517315
 20
1127.6746448054
 30
0.0
 11
-78.1693088744
 21
1127.6746448054
 31
0.0
  0
LINE
  5
3F0
330
1F
100
AcDbEntity
  8
0
  6
Continuous
 62
     7
370
    25
100
AcDbLine
 10
-78.1693088744
 20
1127.6746448054
 30
0.0
 11
-78.1693088744
 21
1133.6746448054
 31
0.0
  0
LINE
  5
3F1
330
1F
100
AcDbEntity
  8
0
  6
Continuous
 62
     7
370
    25
100
AcDbLine
 10
-78.1693088744
 20
1133.6746448054
 30
0.0
 11
-144.3121660172
 21
1133.6746448054
 31
0.0
  0
LINE
  5
3F2
330
1F
100
AcDbEntity
  8
0
  6
Continuous
 62
     7
370
    25
100
AcDbLine
 10
-64.0131452886
 20
993.9868370817
 30
0.0
 11
-3.0131452886
 21
993.9868370817
 31
0.0
  0
LINE
  5
3F3
330
1F
100
AcDbEntity
  8
0
  6
Continuous
 62
     7
370
    25
100
AcDbLine
 10
-64.0131452886
 20
993.9868370817
 30
0.0
 11
-64.0131452886
 21
999.9868370817
 31
0.0
  0
LINE
  5
3F4
330
1F
100
AcDbEntity
  8
0
  6
Continuous
 62
     7
370
    25
100
AcDbLine
 10
-64.0131452886
 20
999.9868370817
 30
0.0
 11
-125.0131452886
 21
999.9868370817
 31
0.0
  0
LINE
  5
3F5
330
1F
100
AcDbEntity
  8
0
  6
Continuous
 62
     7
370
    25
100
AcDbLine
 10
-125.0131452886
 20
993.9868370817
 30
0.0
 11
-125.0131452886
 21
999.9868370817
 31
0.0
  0
LINE
  5
3F6
330
1F
100
AcDbEntity
  8
0
  6
Continuous
 62
     7
370
    25
100
AcDbLine
 10
-125.0131452886
 20
993.9868370817
 30
0.0
 11
-186.0131452886
 21
993.9868370817
 31
0.0
  0
LINE
  5
3F7
330
1F
100
AcDbEntity
  8
0
  6
Continuous
 62
     7
370
    25
100
AcDbLine
 10
-186.0131452886
 20
993.9868370817
 30
0.0
 11
-186.0131452886
 21
999.9868370817
 31
0.0
  0
LINE
  5
3F8
330
1F
100
AcDbEntity
  8
0
  6
Continuous
 62
     7
370
    25
100
AcDbLine
 10
-186.0131452886
 20
999.9868370817
 30
0.0
 11
-247.0131452886
 21
999.9868370817
 31
0.0
  0
LINE
  5
3F9
330
1F
100
AcDbEntity
  8
0
  6
Continuous
 62
     7
370
    25
100
AcDbLine
 10
-247.0131452886
 20
993.9868370817
 30
0.0
 11
-247.0131452886
 21
999.9868370817
 31
0.0
  0
LINE
  5
3FA
330
1F
100
AcDbEntity
  8
0
  6
Continuous
 62
     7
370
    25
100
AcDbLine
 10
-247.0131452886
 20
993.9868370817
 30
0.0
 11
-308.0131452886
 21
993.9868370817
 31
0.0
  0
LINE
  5
3FB
330
1F
100
AcDbEntity
  8
0
  6
Continuous
 62
     7
370
    25
100
AcDbLine
 10
-308.0131452886
 20
993.9868370817
 30
0.0
 11
-308.0131452886
 21
999.9868370817
 31
0.0
  0
LINE
  5
3FC
330
1F
100
AcDbEntity
  8
0
  6
Continuous
 62
     7
370
    25
100
AcDbLine
 10
-308.0131452886
 20
999.9868370817
 30
0.0
 11
-369.0131452886
 21
999.9868370817
 31
0.0
  0
LINE
  5
3FD
330
1F
100
AcDbEntity
  8
0
  6
Continuous
 62
     7
370
    25
100
AcDbLine
 10
-369.0131452886
 20
993.9868370817
 30
0.0
 11
-369.0131452886
 21
999.9868370817
 31
0.0
  0
LINE
  5
3FE
330
1F
100
AcDbEntity
  8
0
  6
Continuous
 62
     7
370
    25
100
AcDbLine
 10
-369.0131452886
 20
993.9868370817
 30
0.0
 11
-430.0131452886
 21
993.9868370817
 31
0.0
  0
LINE
  5
3FF
330
1F
100
AcDbEntity
  8
0
  6
Continuous
 62
     7
370
    25
100
AcDbLine
 10
-430.0131452886
 20
1013.3201704151
 30
0.0
 11
-430.0131452886
 21
993.9868370817
 31
0.0
  0
LINE
  5
400
330
1F
100
AcDbEntity
  8
0
  6
Continuous
 62
     7
370
    25
100
AcDbLine
 10
-424.0131452886
 20
1013.320170415
 30
0.0
 11
-430.0131452886
 21
1013.3201704151
 31
0.0
  0
LINE
  5
401
330
1F
100
AcDbEntity
  8
0
  6
Continuous
 62
     7
370
    25
100
AcDbLine
 10
-424.0131452886
 20
1026.6535037484
 30
0.0
 11
-424.0131452886
 21
1013.320170415
 31
0.0
  0
LINE
  5
402
330
1F
100
AcDbEntity
  8
0
  6
Continuous
 62
     7
370
    25
100
AcDbLine
 10
-430.0131452886
 20
1026.6535037484
 30
0.0
 11
-424.0131452886
 21
1026.6535037484
 31
0.0
  0
LINE
  5
403
330
1F
100
AcDbEntity
  8
0
  6
Continuous
 62
     7
370
    25
100
AcDbLine
 10
-430.0131452886
 20
1039.9868370817
 30
0.0
 11
-430.0131452886
 21
1026.6535037484
 31
0.0
  0
LINE
  5
404
330
1F
100
AcDbEntity
  8
0
  6
Continuous
 62
     7
370
    25
100
AcDbLine
 10
-3.0131452886
 20
1039.9868370817
 30
0.0
 11
-3.0131452886
 21
1026.6535037484
 31
0.0
  0
LINE
  5
405
330
1F
100
AcDbEntity
  8
0
  6
Continuous
 62
     7
370
    25
100
AcDbLine
 10
-3.0131452886
 20
1026.6535037484
 30
0.0
 11
-9.0131452886
 21
1026.6535037484
 31
0.0
  0
LINE
  5
406
330
1F
100
AcDbEntity
  8
0
  6
Continuous
 62
     7
370
    25
100
AcDbLine
 10
-9.0131452886
 20
1026.6535037484
 30
0.0
 11
-9.0131452886
 21
1013.320170415
 31
0.0
  0
LINE
  5
407
330
1F
100
AcDbEntity
  8
0
  6
Continuous
 62
     7
370
    25
100
AcDbLine
 10
-9.0131452886
 20
1013.320170415
 30
0.0
 11
-3.0131452886
 21
1013.320170415
 31
0.0
  0
LINE
  5
408
330
1F
100
AcDbEntity
  8
0
  6
Continuous
 62
     7
370
    25
100
AcDbLine
 10
-3.0131452886
 20
1013.320170415
 30
0.0
 11
-3.0131452886
 21
993.9868370817
 31
0.0
  0
LINE
  5
409
330
1F
100
AcDbEntity
  8
0
  6
Continuous
 62
     7
370
    25
100
AcDbLine
 10
-3.0131452886
 20
1039.9868370817
 30
0.0
 11
-430.0131452886
 21
1039.9868370817
 31
0.0
  0
LINE
  5
40A
330
1F
100
AcDbEntity
  8
0
  6
Continuous
 62
     7
370
    25
100
AcDbLine
 10
-66.4017352503
 20
1043.4409824139
 30
0.0
 11
-5.4017352503
 21
1043.4409824139
 31
0.0
  0
LINE
  5
40B
330
1F
100
AcDbEntity
  8
0
  6
Continuous
 62
     7
370
    25
100
AcDbLine
 10
-66.4017352503
 20
1043.4409824139
 30
0.0
 11
-66.4017352503
 21
1049.4409824139
 31
0.0
  0
LINE
  5
40C
330
1F
100
AcDbEntity
  8
0
  6
Continuous
 62
     7
370
    25
100
AcDbLine
 10
-66.4017352503
 20
1049.4409824139
 30
0.0
 11
-127.4017352503
 21
1049.4409824139
 31
0.0
  0
LINE
  5
40D
330
1F
100
AcDbEntity
  8
0
  6
Continuous
 62
     7
370
    25
100
AcDbLine
 10
-127.4017352503
 20
1043.4409824139
 30
0.0
 11
-127.4017352503
 21
1049.4409824139
 31
0.0
  0
LINE
  5
40E
330
1F
100
AcDbEntity
  8
0
  6
Continuous
 62
     7
370
    25
100
AcDbLine
 10
-127.4017352503
 20
1043.4409824139
 30
0.0
 11
-188.4017352503
 21
1043.4409824139
 31
0.0
  0
LINE
  5
40F
330
1F
100
AcDbEntity
  8
0
  6
Continuous
 62
     7
370
    25
100
AcDbLine
 10
-188.4017352503
 20
1043.4409824139
 30
0.0
 11
-188.4017352503
 21
1049.4409824139
 31
0.0
  0
LINE
  5
410
330
1F
100
AcDbEntity
  8
0
  6
Continuous
 62
     7
370
    25
100
AcDbLine
 10
-188.4017352503
 20
1049.4409824139
 30
0.0
 11
-249.4017352503
 21
1049.4409824139
 31
0.0
  0
LINE
  5
411
330
1F
100
AcDbEntity
  8
0
  6
Continuous
 62
     7
370
    25
100
AcDbLine
 10
-249.4017352503
 20
1043.4409824139
 30
0.0
 11
-249.4017352503
 21
1049.4409824139
 31
0.0
  0
LINE
  5
412
330
1F
100
AcDbEntity
  8
0
  6
Continuous
 62
     7
370
    25
100
AcDbLine
 10
-249.4017352503
 20
1043.4409824139
 30
0.0
 11
-310.4017352503
 21
1043.4409824139
 31
0.0
  0
LINE
  5
413
330
1F
100
AcDbEntity
  8
0
  6
Continuous
 62
     7
370
    25
100
AcDbLine
 10
-310.4017352503
 20
1043.4409824139
 30
0.0
 11
-310.4017352503
 21
1049.4409824139
 31
0.0
  0
LINE
  5
414
330
1F
100
AcDbEntity
  8
0
  6
Continuous
 62
     7
370
    25
100
AcDbLine
 10
-310.4017352503
 20
1049.4409824139
 30
0.0
 11
-371.4017352503
 21
1049.4409824139
 31
0.0
  0
LINE
  5
415
330
1F
100
AcDbEntity
  8
0
  6
Continuous
 62
     7
370
    25
100
AcDbLine
 10
-371.4017352503
 20
1043.4409824139
 30
0.0
 11
-371.4017352503
 21
1049.4409824139
 31
0.0
  0
LINE
  5
416
330
1F
100
AcDbEntity
  8
0
  6
Continuous
 62
     7
370
    25
100
AcDbLine
 10
-371.4017352503
 20
1043.4409824139
 30
0.0
 11
-432.4017352503
 21
1043.4409824139
 31
0.0
  0
LINE
  5
417
330
1F
100
AcDbEntity
  8
0
  6
Continuous
 62
     7
370
    25
100
AcDbLine
 10
-432.4017352503
 20
1062.7743157472
 30
0.0
 11
-432.4017352503
 21
1043.4409824139
 31
0.0
  0
LINE
  5
418
330
1F
100
AcDbEntity
  8
0
  6
Continuous
 62
     7
370
    25
100
AcDbLine
 10
-426.4017352503
 20
1062.7743157472
 30
0.0
 11
-432.4017352503
 21
1062.7743157472
 31
0.0
  0
LINE
  5
419
330
1F
100
AcDbEntity
  8
0
  6
Continuous
 62
     7
370
    25
100
AcDbLine
 10
-426.4017352503
 20
1076.1076490806
 30
0.0
 11
-426.4017352503
 21
1062.7743157472
 31
0.0
  0
LINE
  5
41A
330
1F
100
AcDbEntity
  8
0
  6
Continuous
 62
     7
370
    25
100
AcDbLine
 10
-432.4017352503
 20
1076.1076490806
 30
0.0
 11
-426.4017352503
 21
1076.1076490806
 31
0.0
  0
LINE
  5
41B
330
1F
100
AcDbEntity
  8
0
  6
Continuous
 62
     7
370
    25
100
AcDbLine
 10
-432.4017352503
 20
1089.4409824139
 30
0.0
 11
-432.4017352503
 21
1076.1076490806
 31
0.0
  0
LINE
  5
41C
330
1F
100
AcDbEntity
  8
0
  6
Continuous
 62
     7
370
    25
100
AcDbLine
 10
-5.4017352503
 20
1089.4409824139
 30
0.0
 11
-5.4017352503
 21
1076.1076490806
 31
0.0
  0
LINE
  5
41D
330
1F
100
AcDbEntity
  8
0
  6
Continuous
 62
     7
370
    25
100
AcDbLine
 10
-5.4017352503
 20
1076.1076490806
 30
0.0
 11
-11.4017352503
 21
1076.1076490806
 31
0.0
  0
LINE
  5
41E
330
1F
100
AcDbEntity
  8
0
  6
Continuous
 62
     7
370
    25
100
AcDbLine
 10
-11.4017352503
 20
1076.1076490806
 30
0.0
 11
-11.4017352503
 21
1062.7743157472
 31
0.0
  0
LINE
  5
41F
330
1F
100
AcDbEntity
  8
0
  6
Continuous
 62
     7
370
    25
100
AcDbLine
 10
-11.4017352503
 20
1062.7743157472
 30
0.0
 11
-5.4017352503
 21
1062.7743157472
 31
0.0
  0
LINE
  5
420
330
1F
100
AcDbEntity
  8
0
  6
Continuous
 62
     7
370
    25
100
AcDbLine
 10
-5.4017352503
 20
1062.7743157472
 30
0.0
 11
-5.4017352503
 21
1043.4409824139
 31
0.0
  0
LINE
  5
421
330
1F
100
AcDbEntity
  8
0
  6
Continuous
 62
     7
370
    25
100
AcDbLine
 10
-5.4017352503
 20
1089.4409824139
 30
0.0
 11
-432.4017352503
 21
1089.4409824139
 31
0.0
  0
LINE
  5
422
330
1F
100
AcDbEntity
  8
0
  6
Continuous
 62
     7
370
    25
100
AcDbLine
 10
-502.3812020532
 20
733.7934736653
 30
0.0
 11
-495.7145353866
 21
733.7934736653
 31
0.0
  0
LINE
  5
423
330
1F
100
AcDbEntity
  8
0
  6
Continuous
 62
     7
370
    25
100
AcDbLine
 10
-495.7145353866
 20
733.7934736653
 30
0.0
 11
-495.7145353866
 21
696.4934736653
 31
0.0
  0
LINE
  5
424
330
1F
100
AcDbEntity
  8
0
  6
Continuous
 62
     7
370
    25
100
AcDbLine
 10
-489.7145353866
 20
696.4934736653
 30
0.0
 11
-495.7145353866
 21
696.4934736653
 31
0.0
  0
LINE
  5
425
330
1F
100
AcDbEntity
  8
0
  6
Continuous
 62
     7
370
    25
100
AcDbLine
 10
-489.7145353866
 20
696.4934736653
 30
0.0
 11
-489.7145353866
 21
659.1934736653
 31
0.0
  0
LINE
  5
426
330
1F
100
AcDbEntity
  8
0
  6
Continuous
 62
     7
370
    25
100
AcDbLine
 10
-489.7145353866
 20
659.1934736653
 30
0.0
 11
-495.7145353866
 21
659.1934736653
 31
0.0
  0
LINE
  5
427
330
1F
100
AcDbEntity
  8
0
  6
Continuous
 62
     7
370
    25
100
AcDbLine
 10
-495.7145353866
 20
659.1934736653
 30
0.0
 11
-495.7145353866
 21
621.8934736653
 31
0.0
  0
LINE
  5
428
330
1F
100
AcDbEntity
  8
0
  6
Continuous
 62
     7
370
    25
100
AcDbLine
 10
-489.7145353866
 20
621.8934736653
 30
0.0
 11
-495.7145353866
 21
621.8934736653
 31
0.0
  0
LINE
  5
429
330
1F
100
AcDbEntity
  8
0
  6
Continuous
 62
     7
370
    25
100
AcDbLine
 10
-489.7145353866
 20
621.8934736653
 30
0.0
 11
-489.7145353866
 21
584.5934736653
 31
0.0
  0
LINE
  5
42A
330
1F
100
AcDbEntity
  8
0
  6
Continuous
 62
     7
370
    25
100
AcDbLine
 10
-489.7145353866
 20
584.5934736653
 30
0.0
 11
-495.7145353866
 21
584.5934736653
 31
0.0
  0
LINE
  5
42B
330
1F
100
AcDbEntity
  8
0
  6
Continuous
 62
     7
370
    25
100
AcDbLine
 10
-502.3812020532
 20
547.2934736653
 30
0.0
 11
-495.7145353866
 21
547.2934736653
 31
0.0
  0
LINE
  5
42C
330
1F
100
AcDbEntity
  8
0
  6
Continuous
 62
     7
370
    25
100
AcDbLine
 10
-502.3812020532
 20
553.2934736653
 30
0.0
 11
-509.0478687199
 21
553.2934736653
 31
0.0
  0
LINE
  5
42D
330
1F
100
AcDbEntity
  8
0
  6
Continuous
 62
     7
370
    25
100
AcDbLine
 10
-509.0478687199
 20
553.2934736653
 30
0.0
 11
-509.0478687199
 21
547.2934736653
 31
0.0
  0
LINE
  5
42E
330
1F
100
AcDbEntity
  8
0
  6
Continuous
 62
     7
370
    25
100
AcDbLine
 10
-515.7145353866
 20
547.2934736653
 30
0.0
 11
-509.0478687199
 21
547.2934736653
 31
0.0
  0
LINE
  5
42F
330
1F
100
AcDbEntity
  8
0
  6
Continuous
 62
     7
370
    25
100
AcDbLine
 10
-515.7145353866
 20
733.7934736653
 30
0.0
 11
-515.7145353866
 21
547.2934736653
 31
0.0
  0
LINE
  5
430
330
1F
100
AcDbEntity
  8
0
  6
Continuous
 62
     7
370
    25
100
AcDbLine
 10
-515.7145353866
 20
733.7934736653
 30
0.0
 11
-509.0478687199
 21
733.7934736653
 31
0.0
  0
LINE
  5
431
330
1F
100
AcDbEntity
  8
0
  6
Continuous
 62
     7
370
    25
100
AcDbLine
 10
-509.0478687199
 20
727.7934736653
 30
0.0
 11
-509.0478687199
 21
733.7934736653
 31
0.0
  0
LINE
  5
432
330
1F
100
AcDbEntity
  8
0
  6
Continuous
 62
     7
370
    25
100
AcDbLine
 10
-502.3812020532
 20
727.7934736653
 30
0.0
 11
-509.0478687199
 21
727.7934736653
 31
0.0
  0
LINE
  5
433
330
1F
100
AcDbEntity
  8
0
  6
Continuous
 62
     7
370
    25
100
AcDbLine
 10
-502.3812020532
 20
727.7934736653
 30
0.0
 11
-502.3812020532
 21
733.7934736653
 31
0.0
  0
LINE
  5
434
330
1F
100
AcDbEntity
  8
0
  6
Continuous
 62
     7
370
    25
100
AcDbLine
 10
-495.7145353866
 20
584.5934736653
 30
0.0
 11
-495.7145353866
 21
547.2934736653
 31
0.0
  0
LINE
  5
435
330
1F
100
AcDbEntity
  8
0
  6
Continuous
 62
     7
370
    25
100
AcDbLine
 10
-502.3812020532
 20
553.2934736653
 30
0.0
 11
-502.3812020532
 21
547.2934736653
 31
0.0
  0
LINE
  5
436
330
1F
100
AcDbEntity
  8
0
  6
Continuous
 62
     7
370
    25
100
AcDbLine
 10
-494.3106930593
 20
929.2657481985
 30
0.0
 11
-487.6440263927
 21
929.2657481985
 31
0.0
  0
LINE
  5
437
330
1F
100
AcDbEntity
  8
0
  6
Continuous
 62
     7
370
    25
100
AcDbLine
 10
-487.6440263927
 20
929.2657481985
 30
0.0
 11
-487.6440263927
 21
891.9657481985
 31
0.0
  0
LINE
  5
438
330
1F
100
AcDbEntity
  8
0
  6
Continuous
 62
     7
370
    25
100
AcDbLine
 10
-481.6440263927
 20
891.9657481985
 30
0.0
 11
-487.6440263927
 21
891.9657481985
 31
0.0
  0
LINE
  5
439
330
1F
100
AcDbEntity
  8
0
  6
Continuous
 62
     7
370
    25
100
AcDbLine
 10
-481.6440263927
 20
891.9657481985
 30
0.0
 11
-481.6440263927
 21
854.6657481985
 31
0.0
  0
LINE
  5
43A
330
1F
100
AcDbEntity
  8
0
  6
Continuous
 62
     7
370
    25
100
AcDbLine
 10
-481.6440263927
 20
854.6657481985
 30
0.0
 11
-487.6440263927
 21
854.6657481985
 31
0.0
  0
LINE
  5
43B
330
1F
100
AcDbEntity
  8
0
  6
Continuous
 62
     7
370
    25
100
AcDbLine
 10
-487.6440263927
 20
854.6657481985
 30
0.0
 11
-487.6440263927
 21
817.3657481985
 31
0.0
  0
LINE
  5
43C
330
1F
100
AcDbEntity
  8
0
  6
Continuous
 62
     7
370
    25
100
AcDbLine
 10
-481.6440263927
 20
817.3657481985
 30
0.0
 11
-487.6440263927
 21
817.3657481985
 31
0.0
  0
LINE
  5
43D
330
1F
100
AcDbEntity
  8
0
  6
Continuous
 62
     7
370
    25
100
AcDbLine
 10
-481.6440263927
 20
817.3657481985
 30
0.0
 11
-481.6440263927
 21
780.0657481985
 31
0.0
  0
LINE
  5
43E
330
1F
100
AcDbEntity
  8
0
  6
Continuous
 62
     7
370
    25
100
AcDbLine
 10
-481.6440263927
 20
780.0657481985
 30
0.0
 11
-487.6440263927
 21
780.0657481985
 31
0.0
  0
LINE
  5
43F
330
1F
100
AcDbEntity
  8
0
  6
Continuous
 62
     7
370
    25
100
AcDbLine
 10
-487.6440263927
 20
780.0657481985
 30
0.0
 11
-487.6440263927
 21
742.7657481985
 31
0.0
  0
LINE
  5
440
330
1F
100
AcDbEntity
  8
0
  6
Continuous
 62
     7
370
    25
100
AcDbLine
 10
-494.3106930593
 20
742.7657481985
 30
0.0
 11
-487.6440263927
 21
742.7657481985
 31
0.0
  0
LINE
  5
441
330
1F
100
AcDbEntity
  8
0
  6
Continuous
 62
     7
370
    25
100
AcDbLine
 10
-494.3106930593
 20
748.7657481985
 30
0.0
 11
-500.977359726
 21
748.7657481985
 31
0.0
  0
LINE
  5
442
330
1F
100
AcDbEntity
  8
0
  6
Continuous
 62
     7
370
    25
100
AcDbLine
 10
-500.977359726
 20
748.7657481985
 30
0.0
 11
-500.977359726
 21
742.7657481985
 31
0.0
  0
LINE
  5
443
330
1F
100
AcDbEntity
  8
0
  6
Continuous
 62
     7
370
    25
100
AcDbLine
 10
-507.6440263927
 20
742.7657481985
 30
0.0
 11
-500.977359726
 21
742.7657481985
 31
0.0
  0
LINE
  5
444
330
1F
100
AcDbEntity
  8
0
  6
Continuous
 62
     7
370
    25
100
AcDbLine
 10
-507.6440263927
 20
929.2657481985
 30
0.0
 11
-507.6440263927
 21
742.7657481985
 31
0.0
  0
LINE
  5
445
330
1F
100
AcDbEntity
  8
0
  6
Continuous
 62
     7
370
    25
100
AcDbLine
 10
-507.6440263927
 20
929.2657481985
 30
0.0
 11
-500.977359726
 21
929.2657481985
 31
0.0
  0
LINE
  5
446
330
1F
100
AcDbEntity
  8
0
  6
Continuous
 62
     7
370
    25
100
AcDbLine
 10
-500.977359726
 20
923.2657481985
 30
0.0
 11
-500.977359726
 21
929.2657481985
 31
0.0
  0
LINE
  5
447
330
1F
100
AcDbEntity
  8
0
  6
Continuous
 62
     7
370
    25
100
AcDbLine
 10
-494.3106930593
 20
923.2657481985
 30
0.0
 11
-500.977359726
 21
923.2657481985
 31
0.0
  0
LINE
  5
448
330
1F
100
AcDbEntity
  8
0
  6
Continuous
 62
     7
370
    25
100
AcDbLine
 10
-494.3106930593
 20
923.2657481985
 30
0.0
 11
-494.3106930593
 21
929.2657481985
 31
0.0
  0
LINE
  5
449
330
1F
100
AcDbEntity
  8
0
  6
Continuous
 62
     7
370
    25
100
AcDbLine
 10
-494.3106930593
 20
748.7657481985
 30
0.0
 11
-494.3106930593
 21
742.7657481985
 31
0.0
  0
LINE
  5
44A
330
1F
100
AcDbEntity
  8
0
  6
Continuous
 62
     7
370
    25
100
AcDbLine
 10
-416.2456613297
 20
844.2610090468
 30
0.0
 11
-422.2456613297
 21
844.2610090468
 31
0.0
  0
LINE
  5
44B
330
1F
100
AcDbEntity
  8
0
  6
Continuous
 62
     7
370
    25
100
AcDbLine
 10
-416.2456613297
 20
793.6610090468
 30
0.0
 11
-422.2456613297
 21
793.6610090468
 31
0.0
  0
LINE
  5
44C
330
1F
100
AcDbEntity
  8
0
  6
Continuous
 62
     7
370
    25
100
AcDbLine
 10
-416.2456613297
 20
793.6610090468
 30
0.0
 11
-416.2456613297
 21
768.3610090468
 31
0.0
  0
LINE
  5
44D
330
1F
100
AcDbEntity
  8
0
  6
Continuous
 62
     7
370
    25
100
AcDbLine
 10
-416.2456613297
 20
768.3610090468
 30
0.0
 11
-422.2456613297
 21
768.3610090468
 31
0.0
  0
LINE
  5
44E
330
1F
100
AcDbEntity
  8
0
  6
Continuous
 62
     7
370
    25
100
AcDbLine
 10
-462.2456613297
 20
869.5610090468
 30
0.0
 11
-462.2456613297
 21
743.0610090468
 31
0.0
  0
LINE
  5
44F
330
1F
100
AcDbEntity
  8
0
  6
Continuous
 62
     7
370
    25
100
AcDbLine
 10
-422.2456613297
 20
768.3610090468
 30
0.0
 11
-422.2456613297
 21
743.0610090468
 31
0.0
  0
LINE
  5
450
330
1F
100
AcDbEntity
  8
0
  6
Continuous
 62
     7
370
    25
100
AcDbLine
 10
-435.578994663
 20
869.5610090468
 30
0.0
 11
-422.2456613297
 21
869.5610090468
 31
0.0
  0
LINE
  5
451
330
1F
100
AcDbEntity
  8
0
  6
Continuous
 62
     7
370
    25
100
AcDbLine
 10
-422.2456613297
 20
818.9610090468
 30
0.0
 11
-422.2456613297
 21
793.6610090468
 31
0.0
  0
LINE
  5
452
330
1F
100
AcDbEntity
  8
0
  6
Continuous
 62
     7
370
    25
100
AcDbLine
 10
-422.2456613297
 20
869.5610090468
 30
0.0
 11
-422.2456613297
 21
844.2610090468
 31
0.0
  0
LINE
  5
453
330
1F
100
AcDbEntity
  8
0
  6
Continuous
 62
     7
370
    25
100
AcDbLine
 10
-462.2456613297
 20
743.0610090468
 30
0.0
 11
-448.9123279964
 21
743.0610090468
 31
0.0
  0
LINE
  5
454
330
1F
100
AcDbEntity
  8
0
  6
Continuous
 62
     7
370
    25
100
AcDbLine
 10
-462.2456613297
 20
869.5610090468
 30
0.0
 11
-448.9123279964
 21
869.5610090468
 31
0.0
  0
LINE
  5
455
330
1F
100
AcDbEntity
  8
0
  6
Continuous
 62
     7
370
    25
100
AcDbLine
 10
-416.2456613297
 20
818.9610090468
 30
0.0
 11
-422.2456613297
 21
818.9610090468
 31
0.0
  0
LINE
  5
456
330
1F
100
AcDbEntity
  8
0
  6
Continuous
 62
     7
370
    25
100
AcDbLine
 10
-435.578994663
 20
875.5610090468
 30
0.0
 11
-448.9123279964
 21
875.5610090468
 31
0.0
  0
LINE
  5
457
330
1F
100
AcDbEntity
  8
0
  6
Continuous
 62
     7
370
    25
100
AcDbLine
 10
-435.578994663
 20
875.5610090468
 30
0.0
 11
-435.578994663
 21
869.5610090468
 31
0.0
  0
LINE
  5
458
330
1F
100
AcDbEntity
  8
0
  6
Continuous
 62
     7
370
    25
100
AcDbLine
 10
-435.578994663
 20
737.0610090468
 30
0.0
 11
-448.9123279964
 21
737.0610090468
 31
0.0
  0
LINE
  5
459
330
1F
100
AcDbEntity
  8
0
  6
Continuous
 62
     7
370
    25
100
AcDbLine
 10
-448.9123279964
 20
737.0610090468
 30
0.0
 11
-448.9123279964
 21
743.0610090468
 31
0.0
  0
LINE
  5
45A
330
1F
100
AcDbEntity
  8
0
  6
Continuous
 62
     7
370
    25
100
AcDbLine
 10
-416.2456613297
 20
844.2610090468
 30
0.0
 11
-416.2456613297
 21
818.9610090468
 31
0.0
  0
LINE
  5
45B
330
1F
100
AcDbEntity
  8
0
  6
Continuous
 62
     7
370
    25
100
AcDbLine
 10
-435.578994663
 20
743.0610090468
 30
0.0
 11
-422.2456613297
 21
743.0610090468
 31
0.0
  0
LINE
  5
45C
330
1F
100
AcDbEntity
  8
0
  6
Continuous
 62
     7
370
    25
100
AcDbLine
 10
-448.9123279964
 20
875.5610090468
 30
0.0
 11
-448.9123279964
 21
869.5610090468
 31
0.0
  0
LINE
  5
45D
330
1F
100
AcDbEntity
  8
0
  6
Continuous
 62
     7
370
    25
100
AcDbLine
 10
-435.578994663
 20
737.0610090468
 30
0.0
 11
-435.578994663
 21
743.0610090468
 31
0.0
  0
LINE
  5
45E
330
1F
100
AcDbEntity
  8
0
  6
Continuous
 62
     7
370
    25
100
AcDbLine
 10
-441.2743513363
 20
1029.7888896716
 30
0.0
 11
-441.2743513363
 21
1004.4888896716
 31
0.0
  0
LINE
  5
45F
330
1F
100
AcDbEntity
  8
0
  6
Continuous
 62
     7
370
    25
100
AcDbLine
 10
-441.2743513363
 20
979.1888896716
 30
0.0
 11
-441.2743513363
 21
953.8888896716
 31
0.0
  0
LINE
  5
460
330
1F
100
AcDbEntity
  8
0
  6
Continuous
 62
     7
370
    25
100
AcDbLine
 10
-454.6076846697
 20
1086.3888896716
 30
0.0
 11
-467.941018003
 21
1086.3888896716
 31
0.0
  0
LINE
  5
461
330
1F
100
AcDbEntity
  8
0
  6
Continuous
 62
     7
370
    25
100
AcDbLine
 10
-441.2743513363
 20
1080.3888896716
 30
0.0
 11
-441.2743513363
 21
1055.0888896716
 31
0.0
  0
LINE
  5
462
330
1F
100
AcDbEntity
  8
0
  6
Continuous
 62
     7
370
    25
100
AcDbLine
 10
-454.6076846697
 20
947.8888896716
 30
0.0
 11
-467.941018003
 21
947.8888896716
 31
0.0
  0
LINE
  5
463
330
1F
100
AcDbEntity
  8
0
  6
Continuous
 62
     7
370
    25
100
AcDbLine
 10
-481.2743513363
 20
1080.3888896716
 30
0.0
 11
-467.941018003
 21
1080.3888896716
 31
0.0
  0
LINE
  5
464
330
1F
100
AcDbEntity
  8
0
  6
Continuous
 62
     7
370
    25
100
AcDbLine
 10
-467.941018003
 20
1086.3888896716
 30
0.0
 11
-467.941018003
 21
1080.3888896716
 31
0.0
  0
LINE
  5
465
330
1F
100
AcDbEntity
  8
0
  6
Continuous
 62
     7
370
    25
100
AcDbLine
 10
-454.6076846697
 20
953.8888896716
 30
0.0
 11
-441.2743513363
 21
953.8888896716
 31
0.0
  0
LINE
  5
466
330
1F
100
AcDbEntity
  8
0
  6
Continuous
 62
     7
370
    25
100
AcDbLine
 10
-435.2743513363
 20
979.1888896716
 30
0.0
 11
-441.2743513363
 21
979.1888896716
 31
0.0
  0
LINE
  5
467
330
1F
100
AcDbEntity
  8
0
  6
Continuous
 62
     7
370
    25
100
AcDbLine
 10
-435.2743513363
 20
1004.4888896716
 30
0.0
 11
-441.2743513363
 21
1004.4888896716
 31
0.0
  0
LINE
  5
468
330
1F
100
AcDbEntity
  8
0
  6
Continuous
 62
     7
370
    25
100
AcDbLine
 10
-481.2743513363
 20
1080.3888896716
 30
0.0
 11
-481.2743513363
 21
953.8888896716
 31
0.0
  0
LINE
  5
469
330
1F
100
AcDbEntity
  8
0
  6
Continuous
 62
     7
370
    25
100
AcDbLine
 10
-467.941018003
 20
947.8888896716
 30
0.0
 11
-467.941018003
 21
953.8888896716
 31
0.0
  0
LINE
  5
46A
330
1F
100
AcDbEntity
  8
0
  6
Continuous
 62
     7
370
    25
100
AcDbLine
 10
-435.2743513363
 20
1055.0888896716
 30
0.0
 11
-441.2743513363
 21
1055.0888896716
 31
0.0
  0
LINE
  5
46B
330
1F
100
AcDbEntity
  8
0
  6
Continuous
 62
     7
370
    25
100
AcDbLine
 10
-454.6076846697
 20
1086.3888896716
 30
0.0
 11
-454.6076846697
 21
1080.3888896716
 31
0.0
  0
LINE
  5
46C
330
1F
100
AcDbEntity
  8
0
  6
Continuous
 62
     7
370
    25
100
AcDbLine
 10
-435.2743513363
 20
1029.7888896716
 30
0.0
 11
-441.2743513363
 21
1029.7888896716
 31
0.0
  0
LINE
  5
46D
330
1F
100
AcDbEntity
  8
0
  6
Continuous
 62
     7
370
    25
100
AcDbLine
 10
-481.2743513363
 20
953.8888896716
 30
0.0
 11
-467.941018003
 21
953.8888896716
 31
0.0
  0
LINE
  5
46E
330
1F
100
AcDbEntity
  8
0
  6
Continuous
 62
     7
370
    25
100
AcDbLine
 10
-435.2743513363
 20
1055.0888896716
 30
0.0
 11
-435.2743513363
 21
1029.7888896716
 31
0.0
  0
LINE
  5
46F
330
1F
100
AcDbEntity
  8
0
  6
Continuous
 62
     7
370
    25
100
AcDbLine
 10
-454.6076846697
 20
1080.3888896716
 30
0.0
 11
-441.2743513363
 21
1080.3888896716
 31
0.0
  0
LINE
  5
470
330
1F
100
AcDbEntity
  8
0
  6
Continuous
 62
     7
370
    25
100
AcDbLine
 10
-454.6076846697
 20
947.8888896716
 30
0.0
 11
-454.6076846697
 21
953.8888896716
 31
0.0
  0
LINE
  5
471
330
1F
100
AcDbEntity
  8
0
  6
Continuous
 62
     7
370
    25
100
AcDbLine
 10
-435.2743513363
 20
1004.4888896716
 30
0.0
 11
-435.2743513363
 21
979.1888896716
 31
0.0
  0
LINE
  5
472
330
1F
100
AcDbEntity
  8
0
  6
Continuous
 62
     7
370
    25
100
AcDbLine
 10
-481.471249533
 20
557.5304440979
 30
0.0
 11
-481.471249533
 21
551.5304440979
 31
0.0
  0
LINE
  5
473
330
1F
100
AcDbEntity
  8
0
  6
Continuous
 62
     7
370
    25
100
AcDbLine
 10
-487.471249533
 20
626.1304440979
 30
0.0
 11
-481.471249533
 21
626.1304440979
 31
0.0
  0
LINE
  5
474
330
1F
100
AcDbEntity
  8
0
  6
Continuous
 62
     7
370
    25
100
AcDbLine
 10
-487.471249533
 20
663.4304440979
 30
0.0
 11
-487.471249533
 21
626.1304440979
 31
0.0
  0
LINE
  5
475
330
1F
100
AcDbEntity
  8
0
  6
Continuous
 62
     7
370
    25
100
AcDbLine
 10
-481.471249533
 20
663.4304440979
 30
0.0
 11
-487.471249533
 21
663.4304440979
 31
0.0
  0
LINE
  5
476
330
1F
100
AcDbEntity
  8
0
  6
Continuous
 62
     7
370
    25
100
AcDbLine
 10
-481.471249533
 20
700.7304440979
 30
0.0
 11
-481.471249533
 21
663.4304440979
 31
0.0
  0
LINE
  5
477
330
1F
100
AcDbEntity
  8
0
  6
Continuous
 62
     7
370
    25
100
AcDbLine
 10
-487.471249533
 20
700.7304440979
 30
0.0
 11
-481.471249533
 21
700.7304440979
 31
0.0
  0
LINE
  5
478
330
1F
100
AcDbEntity
  8
0
  6
Continuous
 62
     7
370
    25
100
AcDbLine
 10
-487.471249533
 20
738.0304440979
 30
0.0
 11
-487.471249533
 21
700.7304440979
 31
0.0
  0
LINE
  5
479
330
1F
100
AcDbEntity
  8
0
  6
Continuous
 62
     7
370
    25
100
AcDbLine
 10
-487.471249533
 20
738.0304440979
 30
0.0
 11
-481.471249533
 21
738.0304440979
 31
0.0
  0
LINE
  5
47A
330
1F
100
AcDbEntity
  8
0
  6
Continuous
 62
     7
370
    25
100
AcDbLine
 10
-481.471249533
 20
738.0304440979
 30
0.0
 11
-481.471249533
 21
732.0304440979
 31
0.0
  0
LINE
  5
47B
330
1F
100
AcDbEntity
  8
0
  6
Continuous
 62
     7
370
    25
100
AcDbLine
 10
-415.3283923902
 20
732.0304440979
 30
0.0
 11
-481.471249533
 21
732.0304440979
 31
0.0
  0
LINE
  5
47C
330
1F
100
AcDbEntity
  8
0
  6
Continuous
 62
     7
370
    25
100
AcDbLine
 10
-415.3283923902
 20
738.0304440979
 30
0.0
 11
-415.3283923902
 21
732.0304440979
 31
0.0
  0
LINE
  5
47D
330
1F
100
AcDbEntity
  8
0
  6
Continuous
 62
     7
370
    25
100
AcDbLine
 10
-349.1855352473
 20
738.0304440979
 30
0.0
 11
-415.3283923902
 21
738.0304440979
 31
0.0
  0
LINE
  5
47E
330
1F
100
AcDbEntity
  8
0
  6
Continuous
 62
     7
370
    25
100
AcDbLine
 10
-283.0426781045
 20
738.0304440979
 30
0.0
 11
-283.0426781045
 21
732.0304440979
 31
0.0
  0
LINE
  5
47F
330
1F
100
AcDbEntity
  8
0
  6
Continuous
 62
     7
370
    25
100
AcDbLine
 10
-84.6141066759
 20
738.0304440979
 30
0.0
 11
-150.7569638187
 21
738.0304440979
 31
0.0
  0
LINE
  5
480
330
1F
100
AcDbEntity
  8
0
  6
Continuous
 62
     7
370
    25
100
AcDbLine
 10
-18.471249533
 20
663.4304440979
 30
0.0
 11
-18.471249533
 21
700.7304440979
 31
0.0
  0
LINE
  5
481
330
1F
100
AcDbEntity
  8
0
  6
Continuous
 62
     7
370
    25
100
AcDbLine
 10
-18.471249533
 20
588.8304440979
 30
0.0
 11
-18.471249533
 21
626.1304440979
 31
0.0
  0
LINE
  5
482
330
1F
100
AcDbEntity
  8
0
  6
Continuous
 62
     7
370
    25
100
AcDbLine
 10
-84.6141066759
 20
557.5304440979
 30
0.0
 11
-18.471249533
 21
557.5304440979
 31
0.0
  0
LINE
  5
483
330
1F
100
AcDbEntity
  8
0
  6
Continuous
 62
     7
370
    25
100
AcDbLine
 10
-84.6141066759
 20
557.5304440979
 30
0.0
 11
-84.6141066759
 21
551.5304440979
 31
0.0
  0
LINE
  5
484
330
1F
100
AcDbEntity
  8
0
  6
Continuous
 62
     7
370
    25
100
AcDbLine
 10
-216.8998209616
 20
557.5304440979
 30
0.0
 11
-150.7569638187
 21
557.5304440979
 31
0.0
  0
LINE
  5
485
330
1F
100
AcDbEntity
  8
0
  6
Continuous
 62
     7
370
    25
100
AcDbLine
 10
-216.8998209616
 20
551.5304440979
 30
0.0
 11
-283.0426781045
 21
551.5304440979
 31
0.0
  0
LINE
  5
486
330
1F
100
AcDbEntity
  8
0
  6
Continuous
 62
     7
370
    25
100
AcDbLine
 10
-283.0426781045
 20
551.5304440979
 30
0.0
 11
-283.0426781045
 21
557.5304440979
 31
0.0
  0
LINE
  5
487
330
1F
100
AcDbEntity
  8
0
  6
Continuous
 62
     7
370
    25
100
AcDbLine
 10
-349.1855352473
 20
557.5304440979
 30
0.0
 11
-283.0426781045
 21
557.5304440979
 31
0.0
  0
LINE
  5
488
330
1F
100
AcDbEntity
  8
0
  6
Continuous
 62
     7
370
    25
100
AcDbLine
 10
-349.1855352473
 20
557.5304440979
 30
0.0
 11
-349.1855352473
 21
551.5304440979
 31
0.0
  0
LINE
  5
489
330
1F
100
AcDbEntity
  8
0
  6
Continuous
 62
     7
370
    25
100
AcDbLine
 10
-349.1855352473
 20
551.5304440979
 30
0.0
 11
-415.3283923902
 21
551.5304440979
 31
0.0
  0
LINE
  5
48A
330
1F
100
AcDbEntity
  8
0
  6
Continuous
 62
     7
370
    25
100
AcDbLine
 10
-415.3283923902
 20
551.5304440979
 30
0.0
 11
-415.3283923902
 21
557.5304440979
 31
0.0
  0
LINE
  5
48B
330
1F
100
AcDbEntity
  8
0
  6
Continuous
 62
     7
370
    25
100
AcDbLine
 10
-481.471249533
 20
557.5304440979
 30
0.0
 11
-415.3283923902
 21
557.5304440979
 31
0.0
  0
LINE
  5
48C
330
1F
100
AcDbEntity
  8
0
  6
Continuous
 62
     7
370
    25
100
AcDbLine
 10
-36.471249533
 20
714.0304440979
 30
0.0
 11
-97.471249533
 21
714.0304440979
 31
0.0
  0
LINE
  5
48D
330
1F
100
AcDbEntity
  8
0
  6
Continuous
 62
     7
370
    25
100
AcDbLine
 10
-97.471249533
 20
714.0304440979
 30
0.0
 11
-97.471249533
 21
708.0304440979
 31
0.0
  0
LINE
  5
48E
330
1F
100
AcDbEntity
  8
0
  6
Continuous
 62
     7
370
    25
100
AcDbLine
 10
-36.471249533
 20
708.0304440979
 30
0.0
 11
-97.471249533
 21
708.0304440979
 31
0.0
  0
LINE
  5
48F
330
1F
100
AcDbEntity
  8
0
  6
Continuous
 62
     7
370
    25
100
AcDbLine
 10
-36.471249533
 20
708.0304440979
 30
0.0
 11
-36.471249533
 21
714.0304440979
 31
0.0
  0
LINE
  5
490
330
1F
100
AcDbEntity
  8
0
  6
Continuous
 62
     7
370
    25
100
AcDbLine
 10
-280.471249533
 20
714.0304440979
 30
0.0
 11
-341.471249533
 21
714.0304440979
 31
0.0
  0
LINE
  5
491
330
1F
100
AcDbEntity
  8
0
  6
Continuous
 62
     7
370
    25
100
AcDbLine
 10
-341.471249533
 20
714.0304440979
 30
0.0
 11
-341.471249533
 21
708.0304440979
 31
0.0
  0
LINE
  5
492
330
1F
100
AcDbEntity
  8
0
  6
Continuous
 62
     7
370
    25
100
AcDbLine
 10
-280.471249533
 20
708.0304440979
 30
0.0
 11
-341.471249533
 21
708.0304440979
 31
0.0
  0
LINE
  5
493
330
1F
100
AcDbEntity
  8
0
  6
Continuous
 62
     7
370
    25
100
AcDbLine
 10
-280.471249533
 20
714.0304440979
 30
0.0
 11
-280.471249533
 21
708.0304440979
 31
0.0
  0
LINE
  5
494
330
1F
100
AcDbEntity
  8
0
  6
Continuous
 62
     7
370
    25
100
AcDbLine
 10
-158.471249533
 20
714.0304440979
 30
0.0
 11
-219.471249533
 21
714.0304440979
 31
0.0
  0
LINE
  5
495
330
1F
100
AcDbEntity
  8
0
  6
Continuous
 62
     7
370
    25
100
AcDbLine
 10
-219.471249533
 20
714.0304440979
 30
0.0
 11
-219.471249533
 21
708.0304440979
 31
0.0
  0
LINE
  5
496
330
1F
100
AcDbEntity
  8
0
  6
Continuous
 62
     7
370
    25
100
AcDbLine
 10
-158.471249533
 20
708.0304440979
 30
0.0
 11
-219.471249533
 21
708.0304440979
 31
0.0
  0
LINE
  5
497
330
1F
100
AcDbEntity
  8
0
  6
Continuous
 62
     7
370
    25
100
AcDbLine
 10
-158.471249533
 20
714.0304440979
 30
0.0
 11
-158.471249533
 21
708.0304440979
 31
0.0
  0
LINE
  5
498
330
1F
100
AcDbEntity
  8
0
  6
Continuous
 62
     7
370
    25
100
AcDbLine
 10
-36.471249533
 20
657.4304440979
 30
0.0
 11
-36.471249533
 21
682.7304440979
 31
0.0
  0
LINE
  5
499
330
1F
100
AcDbEntity
  8
0
  6
Continuous
 62
     7
370
    25
100
AcDbLine
 10
-42.471249533
 20
657.4304440979
 30
0.0
 11
-42.471249533
 21
682.7304440979
 31
0.0
  0
LINE
  5
49A
330
1F
100
AcDbEntity
  8
0
  6
Continuous
 62
     7
370
    25
100
AcDbLine
 10
-402.471249533
 20
714.0304440979
 30
0.0
 11
-402.471249533
 21
708.0304440979
 31
0.0
  0
LINE
  5
49B
330
1F
100
AcDbEntity
  8
0
  6
Continuous
 62
     7
370
    25
100
AcDbLine
 10
-402.471249533
 20
714.0304440979
 30
0.0
 11
-463.471249533
 21
714.0304440979
 31
0.0
  0
LINE
  5
49C
330
1F
100
AcDbEntity
  8
0
  6
Continuous
 62
     7
370
    25
100
AcDbLine
 10
-463.471249533
 20
708.0304440979
 30
0.0
 11
-463.471249533
 21
714.0304440979
 31
0.0
  0
LINE
  5
49D
330
1F
100
AcDbEntity
  8
0
  6
Continuous
 62
     7
370
    25
100
AcDbLine
 10
-402.471249533
 20
708.0304440979
 30
0.0
 11
-463.471249533
 21
708.0304440979
 31
0.0
  0
LINE
  5
49E
330
1F
100
AcDbEntity
  8
0
  6
Continuous
 62
     7
370
    25
100
AcDbLine
 10
-36.471249533
 20
606.8304440979
 30
0.0
 11
-36.471249533
 21
632.1304440979
 31
0.0
  0
LINE
  5
49F
330
1F
100
AcDbEntity
  8
0
  6
Continuous
 62
     7
370
    25
100
AcDbLine
 10
-42.471249533
 20
606.8304440979
 30
0.0
 11
-42.471249533
 21
632.1304440979
 31
0.0
  0
LINE
  5
4A0
330
1F
100
AcDbEntity
  8
0
  6
Continuous
 62
     7
370
    25
100
AcDbLine
 10
-36.471249533
 20
575.5304440979
 30
0.0
 11
-36.471249533
 21
581.5304440979
 31
0.0
  0
LINE
  5
4A1
330
1F
100
AcDbEntity
  8
0
  6
Continuous
 62
     7
370
    25
100
AcDbLine
 10
-97.471249533
 20
581.5304440979
 30
0.0
 11
-36.471249533
 21
581.5304440979
 31
0.0
  0
LINE
  5
4A2
330
1F
100
AcDbEntity
  8
0
  6
Continuous
 62
     7
370
    25
100
AcDbLine
 10
-97.471249533
 20
575.5304440979
 30
0.0
 11
-97.471249533
 21
581.5304440979
 31
0.0
  0
LINE
  5
4A3
330
1F
100
AcDbEntity
  8
0
  6
Continuous
 62
     7
370
    25
100
AcDbLine
 10
-97.471249533
 20
575.5304440979
 30
0.0
 11
-36.471249533
 21
575.5304440979
 31
0.0
  0
LINE
  5
4A4
330
1F
100
AcDbEntity
  8
0
  6
Continuous
 62
     7
370
    25
100
AcDbLine
 10
-158.471249533
 20
575.5304440979
 30
0.0
 11
-158.471249533
 21
581.5304440979
 31
0.0
  0
LINE
  5
4A5
330
1F
100
AcDbEntity
  8
0
  6
Continuous
 62
     7
370
    25
100
AcDbLine
 10
-219.471249533
 20
581.5304440979
 30
0.0
 11
-158.471249533
 21
581.5304440979
 31
0.0
  0
LINE
  5
4A6
330
1F
100
AcDbEntity
  8
0
  6
Continuous
 62
     7
370
    25
100
AcDbLine
 10
-219.471249533
 20
575.5304440979
 30
0.0
 11
-219.471249533
 21
581.5304440979
 31
0.0
  0
LINE
  5
4A7
330
1F
100
AcDbEntity
  8
0
  6
Continuous
 62
     7
370
    25
100
AcDbLine
 10
-219.471249533
 20
575.5304440979
 30
0.0
 11
-158.471249533
 21
575.5304440979
 31
0.0
  0
LINE
  5
4A8
330
1F
100
AcDbEntity
  8
0
  6
Continuous
 62
     7
370
    25
100
AcDbLine
 10
-280.471249533
 20
575.5304440979
 30
0.0
 11
-280.471249533
 21
581.5304440979
 31
0.0
  0
LINE
  5
4A9
330
1F
100
AcDbEntity
  8
0
  6
Continuous
 62
     7
370
    25
100
AcDbLine
 10
-341.471249533
 20
581.5304440979
 30
0.0
 11
-280.471249533
 21
581.5304440979
 31
0.0
  0
LINE
  5
4AA
330
1F
100
AcDbEntity
  8
0
  6
Continuous
 62
     7
370
    25
100
AcDbLine
 10
-341.471249533
 20
575.5304440979
 30
0.0
 11
-341.471249533
 21
581.5304440979
 31
0.0
  0
LINE
  5
4AB
330
1F
100
AcDbEntity
  8
0
  6
Continuous
 62
     7
370
    25
100
AcDbLine
 10
-341.471249533
 20
575.5304440979
 30
0.0
 11
-280.471249533
 21
575.5304440979
 31
0.0
  0
LINE
  5
4AC
330
1F
100
AcDbEntity
  8
0
  6
Continuous
 62
     7
370
    25
100
AcDbLine
 10
-463.471249533
 20
575.5304440979
 30
0.0
 11
-402.471249533
 21
575.5304440979
 31
0.0
  0
LINE
  5
4AD
330
1F
100
AcDbEntity
  8
0
  6
Continuous
 62
     7
370
    25
100
AcDbLine
 10
-402.471249533
 20
575.5304440979
 30
0.0
 11
-402.471249533
 21
581.5304440979
 31
0.0
  0
LINE
  5
4AE
330
1F
100
AcDbEntity
  8
0
  6
Continuous
 62
     7
370
    25
100
AcDbLine
 10
-463.471249533
 20
581.5304440979
 30
0.0
 11
-402.471249533
 21
581.5304440979
 31
0.0
  0
LINE
  5
4AF
330
1F
100
AcDbEntity
  8
0
  6
Continuous
 62
     7
370
    25
100
AcDbLine
 10
-463.471249533
 20
575.5304440979
 30
0.0
 11
-463.471249533
 21
581.5304440979
 31
0.0
  0
LINE
  5
4B0
330
1F
100
AcDbEntity
  8
0
  6
Continuous
 62
     7
370
    25
100
AcDbLine
 10
-457.471249533
 20
606.8304440979
 30
0.0
 11
-463.471249533
 21
606.8304440979
 31
0.0
  0
LINE
  5
4B1
330
1F
100
AcDbEntity
  8
0
  6
Continuous
 62
     7
370
    25
100
AcDbLine
 10
-457.471249533
 20
632.1304440979
 30
0.0
 11
-457.471249533
 21
606.8304440979
 31
0.0
  0
LINE
  5
4B2
330
1F
100
AcDbEntity
  8
0
  6
Continuous
 62
     7
370
    25
100
AcDbLine
 10
-463.471249533
 20
632.1304440979
 30
0.0
 11
-457.471249533
 21
632.1304440979
 31
0.0
  0
LINE
  5
4B3
330
1F
100
AcDbEntity
  8
0
  6
Continuous
 62
     7
370
    25
100
AcDbLine
 10
-463.471249533
 20
606.8304440979
 30
0.0
 11
-463.471249533
 21
632.1304440979
 31
0.0
  0
LINE
  5
4B4
330
1F
100
AcDbEntity
  8
0
  6
Continuous
 62
     7
370
    25
100
AcDbLine
 10
-457.471249533
 20
657.4304440979
 30
0.0
 11
-463.471249533
 21
657.4304440979
 31
0.0
  0
LINE
  5
4B5
330
1F
100
AcDbEntity
  8
0
  6
Continuous
 62
     7
370
    25
100
AcDbLine
 10
-457.471249533
 20
682.7304440979
 30
0.0
 11
-457.471249533
 21
657.4304440979
 31
0.0
  0
LINE
  5
4B6
330
1F
100
AcDbEntity
  8
0
  6
Continuous
 62
     7
370
    25
100
AcDbLine
 10
-463.471249533
 20
682.7304440979
 30
0.0
 11
-457.471249533
 21
682.7304440979
 31
0.0
  0
LINE
  5
4B7
330
1F
100
AcDbEntity
  8
0
  6
Continuous
 62
     7
370
    25
100
AcDbLine
 10
-463.471249533
 20
657.4304440979
 30
0.0
 11
-463.471249533
 21
682.7304440979
 31
0.0
  0
LINE
  5
4B8
330
1F
100
AcDbEntity
  8
0
  6
Continuous
 62
     7
370
    25
100
AcDbLine
 10
-18.471249533
 20
588.8304440979
 30
0.0
 11
-12.471249533
 21
588.8304440979
 31
0.0
  0
LINE
  5
4B9
330
1F
100
AcDbEntity
  8
0
  6
Continuous
 62
     7
370
    25
100
AcDbLine
 10
-487.471249533
 20
551.5304440979
 30
0.0
 11
-481.471249533
 21
551.5304440979
 31
0.0
  0
LINE
  5
4BA
330
1F
100
AcDbEntity
  8
0
  6
Continuous
 62
     7
370
    25
100
AcDbLine
 10
-18.471249533
 20
732.0304440979
 30
0.0
 11
-84.6141066759
 21
732.0304440979
 31
0.0
  0
LINE
  5
4BB
330
1F
100
AcDbEntity
  8
0
  6
Continuous
 62
     7
370
    25
100
AcDbLine
 10
-150.7569638187
 20
738.0304440979
 30
0.0
 11
-150.7569638187
 21
732.0304440979
 31
0.0
  0
LINE
  5
4BC
330
1F
100
AcDbEntity
  8
0
  6
Continuous
 62
     7
370
    25
100
AcDbLine
 10
-150.7569638187
 20
732.0304440979
 30
0.0
 11
-216.8998209616
 21
732.0304440979
 31
0.0
  0
LINE
  5
4BD
330
1F
100
AcDbEntity
  8
0
  6
Continuous
 62
     7
370
    25
100
AcDbLine
 10
-216.8998209616
 20
732.0304440979
 30
0.0
 11
-216.8998209616
 21
738.0304440979
 31
0.0
  0
LINE
  5
4BE
330
1F
100
AcDbEntity
  8
0
  6
Continuous
 62
     7
370
    25
100
AcDbLine
 10
-283.0426781045
 20
732.0304440979
 30
0.0
 11
-349.1855352473
 21
732.0304440979
 31
0.0
  0
LINE
  5
4BF
330
1F
100
AcDbEntity
  8
0
  6
Continuous
 62
     7
370
    25
100
AcDbLine
 10
-349.1855352473
 20
732.0304440979
 30
0.0
 11
-349.1855352473
 21
738.0304440979
 31
0.0
  0
LINE
  5
4C0
330
1F
100
AcDbEntity
  8
0
  6
Continuous
 62
     7
370
    25
100
AcDbLine
 10
-12.471249533
 20
588.8304440979
 30
0.0
 11
-12.471249533
 21
551.5304440979
 31
0.0
  0
LINE
  5
4C1
330
1F
100
AcDbEntity
  8
0
  6
Continuous
 62
     7
370
    25
100
AcDbLine
 10
-12.471249533
 20
700.7304440979
 30
0.0
 11
-18.471249533
 21
700.7304440979
 31
0.0
  0
LINE
  5
4C2
330
1F
100
AcDbEntity
  8
0
  6
Continuous
 62
     7
370
    25
100
AcDbLine
 10
-84.6141066759
 20
551.5304440979
 30
0.0
 11
-150.7569638187
 21
551.5304440979
 31
0.0
  0
LINE
  5
4C3
330
1F
100
AcDbEntity
  8
0
  6
Continuous
 62
     7
370
    25
100
AcDbLine
 10
-18.471249533
 20
738.0304440979
 30
0.0
 11
-18.471249533
 21
732.0304440979
 31
0.0
  0
LINE
  5
4C4
330
1F
100
AcDbEntity
  8
0
  6
Continuous
 62
     7
370
    25
100
AcDbLine
 10
-216.8998209616
 20
557.5304440979
 30
0.0
 11
-216.8998209616
 21
551.5304440979
 31
0.0
  0
LINE
  5
4C5
330
1F
100
AcDbEntity
  8
0
  6
Continuous
 62
     7
370
    25
100
AcDbLine
 10
-12.471249533
 20
626.1304440979
 30
0.0
 11
-18.471249533
 21
626.1304440979
 31
0.0
  0
LINE
  5
4C6
330
1F
100
AcDbEntity
  8
0
  6
Continuous
 62
     7
370
    25
100
AcDbLine
 10
-216.8998209616
 20
738.0304440979
 30
0.0
 11
-283.0426781045
 21
738.0304440979
 31
0.0
  0
LINE
  5
4C7
330
1F
100
AcDbEntity
  8
0
  6
Continuous
 62
     7
370
    25
100
AcDbLine
 10
-42.471249533
 20
606.8304440979
 30
0.0
 11
-36.471249533
 21
606.8304440979
 31
0.0
  0
LINE
  5
4C8
330
1F
100
AcDbEntity
  8
0
  6
Continuous
 62
     7
370
    25
100
AcDbLine
 10
-18.471249533
 20
557.5304440979
 30
0.0
 11
-18.471249533
 21
551.5304440979
 31
0.0
  0
LINE
  5
4C9
330
1F
100
AcDbEntity
  8
0
  6
Continuous
 62
     7
370
    25
100
AcDbLine
 10
-481.471249533
 20
626.1304440979
 30
0.0
 11
-481.471249533
 21
588.8304440979
 31
0.0
  0
LINE
  5
4CA
330
1F
100
AcDbEntity
  8
0
  6
Continuous
 62
     7
370
    25
100
AcDbLine
 10
-487.471249533
 20
588.8304440979
 30
0.0
 11
-487.471249533
 21
551.5304440979
 31
0.0
  0
LINE
  5
4CB
330
1F
100
AcDbEntity
  8
0
  6
Continuous
 62
     7
370
    25
100
AcDbLine
 10
-42.471249533
 20
657.4304440979
 30
0.0
 11
-36.471249533
 21
657.4304440979
 31
0.0
  0
LINE
  5
4CC
330
1F
100
AcDbEntity
  8
0
  6
Continuous
 62
     7
370
    25
100
AcDbLine
 10
-481.471249533
 20
588.8304440979
 30
0.0
 11
-487.471249533
 21
588.8304440979
 31
0.0
  0
LINE
  5
4CD
330
1F
100
AcDbEntity
  8
0
  6
Continuous
 62
     7
370
    25
100
AcDbLine
 10
-84.6141066759
 20
732.0304440979
 30
0.0
 11
-84.6141066759
 21
738.0304440979
 31
0.0
  0
LINE
  5
4CE
330
1F
100
AcDbEntity
  8
0
  6
Continuous
 62
     7
370
    25
100
AcDbLine
 10
-12.471249533
 20
738.0304440979
 30
0.0
 11
-18.471249533
 21
738.0304440979
 31
0.0
  0
LINE
  5
4CF
330
1F
100
AcDbEntity
  8
0
  6
Continuous
 62
     7
370
    25
100
AcDbLine
 10
-12.471249533
 20
663.4304440979
 30
0.0
 11
-12.471249533
 21
626.1304440979
 31
0.0
  0
LINE
  5
4D0
330
1F
100
AcDbEntity
  8
0
  6
Continuous
 62
     7
370
    25
100
AcDbLine
 10
-18.471249533
 20
663.4304440979
 30
0.0
 11
-12.471249533
 21
663.4304440979
 31
0.0
  0
LINE
  5
4D1
330
1F
100
AcDbEntity
  8
0
  6
Continuous
 62
     7
370
    25
100
AcDbLine
 10
-36.471249533
 20
632.1304440979
 30
0.0
 11
-42.471249533
 21
632.1304440979
 31
0.0
  0
LINE
  5
4D2
330
1F
100
AcDbEntity
  8
0
  6
Continuous
 62
     7
370
    25
100
AcDbLine
 10
-12.471249533
 20
551.5304440979
 30
0.0
 11
-18.471249533
 21
551.5304440979
 31
0.0
  0
LINE
  5
4D3
330
1F
100
AcDbEntity
  8
0
  6
Continuous
 62
     7
370
    25
100
AcDbLine
 10
-150.7569638187
 20
551.5304440979
 30
0.0
 11
-150.7569638187
 21
557.5304440979
 31
0.0
  0
LINE
  5
4D4
330
1F
100
AcDbEntity
  8
0
  6
Continuous
 62
     7
370
    25
100
AcDbLine
 10
-12.471249533
 20
738.0304440979
 30
0.0
 11
-12.471249533
 21
700.7304440979
 31
0.0
  0
LINE
  5
4D5
330
1F
100
AcDbEntity
  8
0
  6
Continuous
 62
     7
370
    25
100
AcDbLine
 10
-36.471249533
 20
682.7304440979
 30
0.0
 11
-42.471249533
 21
682.7304440979
 31
0.0
  0
LINE
  5
4D6
330
1F
100
AcDbEntity
  8
0
  6
Continuous
 62
     7
370
    25
100
AcDbLine
 10
-1.8211144447
 20
992.8251507058
 30
0.0
 11
-414.8211144447
 21
992.8251507058
 31
0.0
  0
LINE
  5
4D7
330
1F
100
AcDbEntity
  8
0
  6
Continuous
 62
     7
370
    25
100
AcDbLine
 10
-1.8211144447
 20
868.3251507058
 30
0.0
 11
-1.8211144447
 21
992.8251507058
 31
0.0
  0
LINE
  5
4D8
330
1F
100
AcDbEntity
  8
0
  6
Continuous
 62
     7
370
    25
100
AcDbLine
 10
-414.8211144447
 20
868.3251507058
 30
0.0
 11
-1.8211144447
 21
868.3251507058
 31
0.0
  0
LINE
  5
4D9
330
1F
100
AcDbEntity
  8
0
  6
Continuous
 62
     7
370
    25
100
AcDbLine
 10
-414.8211144447
 20
992.8251507058
 30
0.0
 11
-414.8211144447
 21
868.3251507058
 31
0.0
  0
LINE
  5
4DA
330
1F
100
AcDbEntity
  8
0
  6
Continuous
 62
     7
370
    25
100
AcDbLine
 10
-441.891239292
 20
889.8044460291
 30
0.0
 11
-457.891239292
 21
889.8044460291
 31
0.0
  0
LINE
  5
4DB
330
1F
100
AcDbEntity
  8
0
  6
Continuous
 62
     7
370
    25
100
AcDbLine
 10
-457.891239292
 20
896.8044460291
 30
0.0
 11
-441.891239292
 21
896.8044460291
 31
0.0
  0
LINE
  5
4DC
330
1F
100
AcDbEntity
  8
0
  6
Continuous
 62
     7
370
    25
100
AcDbLine
 10
-464.8326022727
 20
232.2602759285
 30
0.0
 11
-458.8326022727
 21
232.2602759285
 31
0.0
  0
LINE
  5
4DD
330
1F
100
AcDbEntity
  8
0
  6
Continuous
 62
     7
370
    25
100
AcDbLine
 10
-458.8326022727
 20
244.2602759285
 30
0.0
 11
-458.8326022727
 21
232.2602759285
 31
0.0
  0
LINE
  5
4DE
330
1F
100
AcDbEntity
  8
0
  6
Continuous
 62
     7
370
    25
100
AcDbLine
 10
-464.8326022727
 20
244.2602759285
 30
0.0
 11
-464.8326022727
 21
232.2602759285
 31
0.0
  0
LINE
  5
4DF
330
1F
100
AcDbEntity
  8
0
  6
Continuous
 62
     7
370
    25
100
AcDbLine
 10
-679.8326022727
 20
166.2602759285
 30
0.0
 11
-673.8326022727
 21
166.2602759285
 31
0.0
  0
LINE
  5
4E0
330
1F
100
AcDbEntity
  8
0
  6
Continuous
 62
     7
370
    25
100
AcDbLine
 10
-673.8326022727
 20
166.2602759285
 30
0.0
 11
-673.8326022727
 21
188.7602759285
 31
0.0
  0
LINE
  5
4E1
330
1F
100
AcDbEntity
  8
0
  6
Continuous
 62
     7
370
    25
100
AcDbLine
 10
-679.8326022727
 20
188.7602759285
 30
0.0
 11
-673.8326022727
 21
188.7602759285
 31
0.0
  0
LINE
  5
4E2
330
1F
100
AcDbEntity
  8
0
  6
Continuous
 62
     7
370
    25
100
AcDbLine
 10
-679.8326022727
 20
166.2602759285
 30
0.0
 11
-679.8326022727
 21
188.7602759285
 31
0.0
  0
LINE
  5
4E3
330
1F
100
AcDbEntity
  8
0
  6
Continuous
 62
     7
370
    25
100
AcDbLine
 10
-458.8326022727
 20
155.7602759285
 30
0.0
 11
-464.8326022727
 21
155.7602759285
 31
0.0
  0
LINE
  5
4E4
330
1F
100
AcDbEntity
  8
0
  6
Continuous
 62
     7
370
    25
100
AcDbLine
 10
-458.8326022727
 20
167.7602759285
 30
0.0
 11
-458.8326022727
 21
155.7602759285
 31
0.0
  0
LINE
  5
4E5
330
1F
100
AcDbEntity
  8
0
  6
Continuous
 62
     7
370
    25
100
AcDbLine
 10
-458.8326022727
 20
167.7602759285
 30
0.0
 11
-464.8326022727
 21
167.7602759285
 31
0.0
  0
LINE
  5
4E6
330
1F
100
AcDbEntity
  8
0
  6
Continuous
 62
     7
370
    25
100
AcDbLine
 10
-464.8326022727
 20
167.7602759285
 30
0.0
 11
-464.8326022727
 21
155.7602759285
 31
0.0
  0
LINE
  5
4E7
330
1F
100
AcDbEntity
  8
0
  6
Continuous
 62
     7
370
    25
100
AcDbLine
 10
-673.8326022727
 20
211.2602759285
 30
0.0
 11
-673.8326022727
 21
233.7602759285
 31
0.0
  0
LINE
  5
4E8
330
1F
100
AcDbEntity
  8
0
  6
Continuous
 62
     7
370
    25
100
AcDbLine
 10
-679.8326022727
 20
233.7602759285
 30
0.0
 11
-673.8326022727
 21
233.7602759285
 31
0.0
  0
LINE
  5
4E9
330
1F
100
AcDbEntity
  8
0
  6
Continuous
 62
     7
370
    25
100
AcDbLine
 10
-679.8326022727
 20
211.2602759285
 30
0.0
 11
-679.8326022727
 21
233.7602759285
 31
0.0
  0
LINE
  5
4EA
330
1F
100
AcDbEntity
  8
0
  6
Continuous
 62
     7
370
    25
100
AcDbLine
 10
-679.8326022727
 20
211.2602759285
 30
0.0
 11
-673.8326022727
 21
211.2602759285
 31
0.0
  0
LINE
  5
4EB
330
1F
100
AcDbEntity
  8
0
  6
Continuous
 62
     7
370
    25
100
AcDbLine
 10
-639.8326022727
 20
262.2602759285
 30
0.0
 11
-639.8326022727
 21
256.2602759285
 31
0.0
  0
LINE
  5
4EC
330
1F
100
AcDbEntity
  8
0
  6
Continuous
 62
     7
370
    25
100
AcDbLine
 10
-639.8326022727
 20
262.2602759285
 30
0.0
 11
-605.8326022727
 21
262.2602759285
 31
0.0
  0
LINE
  5
4ED
330
1F
100
AcDbEntity
  8
0
  6
Continuous
 62
     7
370
    25
100
AcDbLine
 10
-605.8326022727
 20
262.2602759285
 30
0.0
 11
-605.8326022727
 21
256.2602759285
 31
0.0
  0
LINE
  5
4EE
330
1F
100
AcDbEntity
  8
0
  6
Continuous
 62
     7
370
    25
100
AcDbLine
 10
-605.8326022727
 20
256.2602759285
 30
0.0
 11
-571.8326022727
 21
256.2602759285
 31
0.0
  0
LINE
  5
4EF
330
1F
100
AcDbEntity
  8
0
  6
Continuous
 62
     7
370
    25
100
AcDbLine
 10
-537.8326022727
 20
262.2602759285
 30
0.0
 11
-537.8326022727
 21
256.2602759285
 31
0.0
  0
LINE
  5
4F0
330
1F
100
AcDbEntity
  8
0
  6
Continuous
 62
     7
370
    25
100
AcDbLine
 10
-537.8326022727
 20
256.2602759285
 30
0.0
 11
-503.8326022727
 21
256.2602759285
 31
0.0
  0
LINE
  5
4F1
330
1F
100
AcDbEntity
  8
0
  6
Continuous
 62
     7
370
    25
100
AcDbLine
 10
-469.8326022727
 20
262.2602759285
 30
0.0
 11
-469.8326022727
 21
256.2602759285
 31
0.0
  0
LINE
  5
4F2
330
1F
100
AcDbEntity
  8
0
  6
Continuous
 62
     7
370
    25
100
AcDbLine
 10
-469.8326022727
 20
256.2602759285
 30
0.0
 11
-435.8326022727
 21
256.2602759285
 31
0.0
  0
LINE
  5
4F3
330
1F
100
AcDbEntity
  8
0
  6
Continuous
 62
     7
370
    25
100
AcDbLine
 10
-435.8326022727
 20
256.2602759285
 30
0.0
 11
-435.8326022727
 21
143.7602759285
 31
0.0
  0
LINE
  5
4F4
330
1F
100
AcDbEntity
  8
0
  6
Continuous
 62
     7
370
    25
100
AcDbLine
 10
-435.8326022727
 20
143.7602759285
 30
0.0
 11
-469.8326022727
 21
143.7602759285
 31
0.0
  0
LINE
  5
4F5
330
1F
100
AcDbEntity
  8
0
  6
Continuous
 62
     7
370
    25
100
AcDbLine
 10
-503.8326022727
 20
143.7602759285
 30
0.0
 11
-537.8326022727
 21
143.7602759285
 31
0.0
  0
LINE
  5
4F6
330
1F
100
AcDbEntity
  8
0
  6
Continuous
 62
     7
370
    25
100
AcDbLine
 10
-571.8326022727
 20
137.7602759285
 30
0.0
 11
-537.8326022727
 21
137.7602759285
 31
0.0
  0
LINE
  5
4F7
330
1F
100
AcDbEntity
  8
0
  6
Continuous
 62
     7
370
    25
100
AcDbLine
 10
-571.8326022727
 20
143.7602759285
 30
0.0
 11
-605.8326022727
 21
143.7602759285
 31
0.0
  0
LINE
  5
4F8
330
1F
100
AcDbEntity
  8
0
  6
Continuous
 62
     7
370
    25
100
AcDbLine
 10
-639.8326022727
 20
137.7602759285
 30
0.0
 11
-605.8326022727
 21
137.7602759285
 31
0.0
  0
LINE
  5
4F9
330
1F
100
AcDbEntity
  8
0
  6
Continuous
 62
     7
370
    25
100
AcDbLine
 10
-639.8326022727
 20
143.7602759285
 30
0.0
 11
-687.8326022727
 21
143.7602759285
 31
0.0
  0
LINE
  5
4FA
330
1F
100
AcDbEntity
  8
0
  6
Continuous
 62
     7
370
    25
100
AcDbLine
 10
-687.8326022727
 20
143.7602759285
 30
0.0
 11
-687.8326022727
 21
256.2602759285
 31
0.0
  0
LINE
  5
4FB
330
1F
100
AcDbEntity
  8
0
  6
Continuous
 62
     7
370
    25
100
AcDbLine
 10
-687.8326022727
 20
256.2602759285
 30
0.0
 11
-639.8326022727
 21
256.2602759285
 31
0.0
  0
LINE
  5
4FC
330
1F
100
AcDbEntity
  8
0
  6
Continuous
 62
     7
370
    25
100
AcDbLine
 10
-639.8326022727
 20
137.7602759285
 30
0.0
 11
-639.8326022727
 21
143.7602759285
 31
0.0
  0
LINE
  5
4FD
330
1F
100
AcDbEntity
  8
0
  6
Continuous
 62
     7
370
    25
100
AcDbLine
 10
-503.8326022727
 20
262.2602759285
 30
0.0
 11
-469.8326022727
 21
262.2602759285
 31
0.0
  0
LINE
  5
4FE
330
1F
100
AcDbEntity
  8
0
  6
Continuous
 62
     7
370
    25
100
AcDbLine
 10
-503.8326022727
 20
262.2602759285
 30
0.0
 11
-503.8326022727
 21
256.2602759285
 31
0.0
  0
LINE
  5
4FF
330
1F
100
AcDbEntity
  8
0
  6
Continuous
 62
     7
370
    25
100
AcDbLine
 10
-571.8326022727
 20
262.2602759285
 30
0.0
 11
-537.8326022727
 21
262.2602759285
 31
0.0
  0
LINE
  5
500
330
1F
100
AcDbEntity
  8
0
  6
Continuous
 62
     7
370
    25
100
AcDbLine
 10
-571.8326022727
 20
262.2602759285
 30
0.0
 11
-571.8326022727
 21
256.2602759285
 31
0.0
  0
LINE
  5
501
330
1F
100
AcDbEntity
  8
0
  6
Continuous
 62
     7
370
    25
100
AcDbLine
 10
-537.8326022727
 20
137.7602759285
 30
0.0
 11
-537.8326022727
 21
143.7602759285
 31
0.0
  0
LINE
  5
502
330
1F
100
AcDbEntity
  8
0
  6
Continuous
 62
     7
370
    25
100
AcDbLine
 10
-464.8326022727
 20
244.2602759285
 30
0.0
 11
-458.8326022727
 21
244.2602759285
 31
0.0
  0
LINE
  5
503
330
1F
100
AcDbEntity
  8
0
  6
Continuous
 62
     7
370
    25
100
AcDbLine
 10
-503.8326022727
 20
137.7602759285
 30
0.0
 11
-469.8326022727
 21
137.7602759285
 31
0.0
  0
LINE
  5
504
330
1F
100
AcDbEntity
  8
0
  6
Continuous
 62
     7
370
    25
100
AcDbLine
 10
-469.8326022727
 20
137.7602759285
 30
0.0
 11
-469.8326022727
 21
143.7602759285
 31
0.0
  0
LINE
  5
505
330
1F
100
AcDbEntity
  8
0
  6
Continuous
 62
     7
370
    25
100
AcDbLine
 10
-503.8326022727
 20
137.7602759285
 30
0.0
 11
-503.8326022727
 21
143.7602759285
 31
0.0
  0
LINE
  5
506
330
1F
100
AcDbEntity
  8
0
  6
Continuous
 62
     7
370
    25
100
AcDbLine
 10
-571.8326022727
 20
137.7602759285
 30
0.0
 11
-571.8326022727
 21
143.7602759285
 31
0.0
  0
LINE
  5
507
330
1F
100
AcDbEntity
  8
0
  6
Continuous
 62
     7
370
    25
100
AcDbLine
 10
-605.8326022727
 20
137.7602759285
 30
0.0
 11
-605.8326022727
 21
143.7602759285
 31
0.0
  0
LINE
  5
508
330
1F
100
AcDbEntity
  8
0
  6
Continuous
 62
     7
370
    25
100
AcDbLine
 10
-444.3098176728
 20
296.932316563
 30
0.0
 11
-444.3098176728
 21
302.932316563
 31
0.0
  0
LINE
  5
509
330
1F
100
AcDbEntity
  8
0
  6
Continuous
 62
     7
370
    25
100
AcDbLine
 10
-449.3098176728
 20
295.932316563
 30
0.0
 11
-445.3098176728
 21
295.932316563
 31
0.0
  0
LINE
  5
50A
330
1F
100
AcDbEntity
  8
0
  6
Continuous
 62
     7
370
    25
100
AcDbLine
 10
-450.3098176728
 20
288.932316563
 30
0.0
 11
-450.3098176728
 21
294.932316563
 31
0.0
  0
LINE
  5
50B
330
1F
100
AcDbEntity
  8
0
  6
Continuous
 62
     7
370
    25
100
AcDbLine
 10
-449.3098176728
 20
287.932316563
 30
0.0
 11
-445.3098176728
 21
287.932316563
 31
0.0
  0
LINE
  5
50C
330
1F
100
AcDbEntity
  8
0
  6
Continuous
 62
     7
370
    25
100
AcDbLine
 10
-444.3098176728
 20
280.932316563
 30
0.0
 11
-444.3098176728
 21
286.932316563
 31
0.0
  0
LINE
  5
50D
330
1F
100
AcDbEntity
  8
0
  6
Continuous
 62
     7
370
    25
100
AcDbLine
 10
-435.2103139538
 20
280.0223661911
 30
0.0
 11
-444.3098176728
 21
280.932316563
 31
0.0
  0
LINE
  5
50E
330
1F
100
AcDbEntity
  8
0
  6
Continuous
 62
     7
370
    25
100
AcDbLine
 10
-434.3098176728
 20
273.182316563
 30
0.0
 11
-434.3098176728
 21
279.0273290009
 31
0.0
  0
LINE
  5
50F
330
1F
100
AcDbEntity
  8
0
  6
Continuous
 62
     7
370
    25
100
AcDbLine
 10
-454.3098176728
 20
273.182316563
 30
0.0
 11
-434.3098176728
 21
273.182316563
 31
0.0
  0
LINE
  5
510
330
1F
100
AcDbEntity
  8
0
  6
Continuous
 62
     7
370
    25
100
AcDbLine
 10
-665.3098176728
 20
363.182316563
 30
0.0
 11
-665.3098176728
 21
385.682316563
 31
0.0
  0
LINE
  5
511
330
1F
100
AcDbEntity
  8
0
  6
Continuous
 62
     7
370
    25
100
AcDbLine
 10
-665.3098176728
 20
385.682316563
 30
0.0
 11
-645.3098176728
 21
385.682316563
 31
0.0
  0
LINE
  5
512
330
1F
100
AcDbEntity
  8
0
  6
Continuous
 62
     7
370
    25
100
AcDbLine
 10
-633.3098176728
 20
385.682316563
 30
0.0
 11
-555.8098176728
 21
385.682316563
 31
0.0
  0
LINE
  5
513
330
1F
100
AcDbEntity
  8
0
  6
Continuous
 62
     7
370
    25
100
AcDbLine
 10
-543.8098176728
 20
385.682316563
 30
0.0
 11
-466.3098176728
 21
385.682316563
 31
0.0
  0
LINE
  5
514
330
1F
100
AcDbEntity
  8
0
  6
Continuous
 62
     7
370
    25
100
AcDbLine
 10
-454.3098176728
 20
385.682316563
 30
0.0
 11
-434.3098176728
 21
385.682316563
 31
0.0
  0
LINE
  5
515
330
1F
100
AcDbEntity
  8
0
  6
Continuous
 62
     7
370
    25
100
AcDbLine
 10
-434.3098176728
 20
379.8373041251
 30
0.0
 11
-434.3098176728
 21
385.682316563
 31
0.0
  0
LINE
  5
516
330
1F
100
AcDbEntity
  8
0
  6
Continuous
 62
     7
370
    25
100
AcDbLine
 10
-444.3098176728
 20
377.932316563
 30
0.0
 11
-435.2103139538
 21
378.8422669349
 31
0.0
  0
LINE
  5
517
330
1F
100
AcDbEntity
  8
0
  6
Continuous
 62
     7
370
    25
100
AcDbLine
 10
-444.3098176728
 20
371.932316563
 30
0.0
 11
-444.3098176728
 21
377.932316563
 31
0.0
  0
LINE
  5
518
330
1F
100
AcDbEntity
  8
0
  6
Continuous
 62
     7
370
    25
100
AcDbLine
 10
-449.3098176728
 20
370.932316563
 30
0.0
 11
-445.3098176728
 21
370.932316563
 31
0.0
  0
LINE
  5
519
330
1F
100
AcDbEntity
  8
0
  6
Continuous
 62
     7
370
    25
100
AcDbLine
 10
-450.3098176728
 20
363.932316563
 30
0.0
 11
-450.3098176728
 21
369.932316563
 31
0.0
  0
LINE
  5
51A
330
1F
100
AcDbEntity
  8
0
  6
Continuous
 62
     7
370
    25
100
AcDbLine
 10
-449.3098176728
 20
362.932316563
 30
0.0
 11
-445.3098176728
 21
362.932316563
 31
0.0
  0
LINE
  5
51B
330
1F
100
AcDbEntity
  8
0
  6
Continuous
 62
     7
370
    25
100
AcDbLine
 10
-444.3098176728
 20
355.932316563
 30
0.0
 11
-444.3098176728
 21
361.932316563
 31
0.0
  0
LINE
  5
51C
330
1F
100
AcDbEntity
  8
0
  6
Continuous
 62
     7
370
    25
100
AcDbLine
 10
-435.2103139538
 20
355.0223661911
 30
0.0
 11
-444.3098176728
 21
355.932316563
 31
0.0
  0
LINE
  5
51D
330
1F
100
AcDbEntity
  8
0
  6
Continuous
 62
     7
370
    25
100
AcDbLine
 10
-434.3098176728
 20
342.3373041251
 30
0.0
 11
-434.3098176728
 21
354.0273290009
 31
0.0
  0
LINE
  5
51E
330
1F
100
AcDbEntity
  8
0
  6
Continuous
 62
     7
370
    25
100
AcDbLine
 10
-444.3098176728
 20
340.432316563
 30
0.0
 11
-435.2103139538
 21
341.3422669349
 31
0.0
  0
LINE
  5
51F
330
1F
100
AcDbEntity
  8
0
  6
Continuous
 62
     7
370
    25
100
AcDbLine
 10
-444.3098176728
 20
334.432316563
 30
0.0
 11
-444.3098176728
 21
340.432316563
 31
0.0
  0
LINE
  5
520
330
1F
100
AcDbEntity
  8
0
  6
Continuous
 62
     7
370
    25
100
AcDbLine
 10
-449.3098176728
 20
333.432316563
 30
0.0
 11
-445.3098176728
 21
333.432316563
 31
0.0
  0
LINE
  5
521
330
1F
100
AcDbEntity
  8
0
  6
Continuous
 62
     7
370
    25
100
AcDbLine
 10
-450.3098176728
 20
326.432316563
 30
0.0
 11
-450.3098176728
 21
332.432316563
 31
0.0
  0
LINE
  5
522
330
1F
100
AcDbEntity
  8
0
  6
Continuous
 62
     7
370
    25
100
AcDbLine
 10
-449.3098176728
 20
325.432316563
 30
0.0
 11
-445.3098176728
 21
325.432316563
 31
0.0
  0
LINE
  5
523
330
1F
100
AcDbEntity
  8
0
  6
Continuous
 62
     7
370
    25
100
AcDbLine
 10
-444.3098176728
 20
318.432316563
 30
0.0
 11
-444.3098176728
 21
324.432316563
 31
0.0
  0
LINE
  5
524
330
1F
100
AcDbEntity
  8
0
  6
Continuous
 62
     7
370
    25
100
AcDbLine
 10
-435.2103139538
 20
317.5223661911
 30
0.0
 11
-444.3098176728
 21
318.432316563
 31
0.0
  0
LINE
  5
525
330
1F
100
AcDbEntity
  8
0
  6
Continuous
 62
     7
370
    25
100
AcDbLine
 10
-434.3098176728
 20
304.8373041251
 30
0.0
 11
-434.3098176728
 21
316.5273290009
 31
0.0
  0
LINE
  5
526
330
1F
100
AcDbEntity
  8
0
  6
Continuous
 62
     7
370
    25
100
AcDbLine
 10
-444.3098176728
 20
302.932316563
 30
0.0
 11
-435.2103139538
 21
303.8422669349
 31
0.0
  0
LINE
  5
527
330
1F
100
AcDbEntity
  8
0
  6
Continuous
 62
     7
370
    25
100
AcDbLine
 10
-633.3098176728
 20
273.182316563
 30
0.0
 11
-555.8098176728
 21
273.182316563
 31
0.0
  0
LINE
  5
528
330
1F
100
AcDbEntity
  8
0
  6
Continuous
 62
     7
370
    25
100
AcDbLine
 10
-543.8098176728
 20
273.182316563
 30
0.0
 11
-466.3098176728
 21
273.182316563
 31
0.0
  0
LINE
  5
529
330
1F
100
AcDbEntity
  8
0
  6
Continuous
 62
     7
370
    25
100
AcDbLine
 10
-665.3098176728
 20
273.182316563
 30
0.0
 11
-645.3098176728
 21
273.182316563
 31
0.0
  0
LINE
  5
52A
330
1F
100
AcDbEntity
  8
0
  6
Continuous
 62
     7
370
    25
100
AcDbLine
 10
-665.3098176728
 20
318.182316563
 30
0.0
 11
-665.3098176728
 21
340.682316563
 31
0.0
  0
LINE
  5
52B
330
1F
100
AcDbEntity
  8
0
  6
Continuous
 62
     7
370
    25
100
AcDbLine
 10
-665.3098176728
 20
273.182316563
 30
0.0
 11
-665.3098176728
 21
295.682316563
 31
0.0
  0
LINE
  5
52C
330
1F
100
AcDbEntity
  8
0
  6
Continuous
 62
     7
370
    25
100
AcDbLine
 10
-456.3098176728
 20
352.182316563
 30
0.0
 11
-450.3098176728
 21
352.182316563
 31
0.0
  0
LINE
  5
52D
330
1F
100
AcDbEntity
  8
0
  6
Continuous
 62
     7
370
    25
100
AcDbLine
 10
-456.3098176728
 20
344.182316563
 30
0.0
 11
-456.3098176728
 21
352.182316563
 31
0.0
  0
LINE
  5
52E
330
1F
100
AcDbEntity
  8
0
  6
Continuous
 62
     7
370
    25
100
AcDbLine
 10
-645.3098176728
 20
391.682316563
 30
0.0
 11
-633.3098176728
 21
391.682316563
 31
0.0
  0
LINE
  5
52F
330
1F
100
AcDbEntity
  8
0
  6
Continuous
 62
     7
370
    25
100
AcDbLine
 10
-633.3098176728
 20
391.682316563
 30
0.0
 11
-633.3098176728
 21
385.682316563
 31
0.0
  0
LINE
  5
530
330
1F
100
AcDbEntity
  8
0
  6
Continuous
 62
     7
370
    25
100
AcDbLine
 10
-645.3098176728
 20
391.682316563
 30
0.0
 11
-645.3098176728
 21
385.682316563
 31
0.0
  0
LINE
  5
531
330
1F
100
AcDbEntity
  8
0
  6
Continuous
 62
     7
370
    25
100
AcDbLine
 10
-555.8098176728
 20
391.682316563
 30
0.0
 11
-543.8098176728
 21
391.682316563
 31
0.0
  0
LINE
  5
532
330
1F
100
AcDbEntity
  8
0
  6
Continuous
 62
     7
370
    25
100
AcDbLine
 10
-555.8098176728
 20
391.682316563
 30
0.0
 11
-555.8098176728
 21
385.682316563
 31
0.0
  0
LINE
  5
533
330
1F
100
AcDbEntity
  8
0
  6
Continuous
 62
     7
370
    25
100
AcDbLine
 10
-543.8098176728
 20
391.682316563
 30
0.0
 11
-543.8098176728
 21
385.682316563
 31
0.0
  0
LINE
  5
534
330
1F
100
AcDbEntity
  8
0
  6
Continuous
 62
     7
370
    25
100
AcDbLine
 10
-466.3098176728
 20
391.682316563
 30
0.0
 11
-454.3098176728
 21
391.682316563
 31
0.0
  0
LINE
  5
535
330
1F
100
AcDbEntity
  8
0
  6
Continuous
 62
     7
370
    25
100
AcDbLine
 10
-466.3098176728
 20
391.682316563
 30
0.0
 11
-466.3098176728
 21
385.682316563
 31
0.0
  0
LINE
  5
536
330
1F
100
AcDbEntity
  8
0
  6
Continuous
 62
     7
370
    25
100
AcDbLine
 10
-454.3098176728
 20
391.682316563
 30
0.0
 11
-454.3098176728
 21
385.682316563
 31
0.0
  0
LINE
  5
537
330
1F
100
AcDbEntity
  8
0
  6
Continuous
 62
     7
370
    25
100
AcDbLine
 10
-645.3098176728
 20
267.182316563
 30
0.0
 11
-645.3098176728
 21
273.182316563
 31
0.0
  0
LINE
  5
538
330
1F
100
AcDbEntity
  8
0
  6
Continuous
 62
     7
370
    25
100
AcDbLine
 10
-555.8098176728
 20
267.182316563
 30
0.0
 11
-555.8098176728
 21
273.182316563
 31
0.0
  0
LINE
  5
539
330
1F
100
AcDbEntity
  8
0
  6
Continuous
 62
     7
370
    25
100
AcDbLine
 10
-671.3098176728
 20
295.682316563
 30
0.0
 11
-671.3098176728
 21
318.182316563
 31
0.0
  0
LINE
  5
53A
330
1F
100
AcDbEntity
  8
0
  6
Continuous
 62
     7
370
    25
100
AcDbLine
 10
-671.3098176728
 20
318.182316563
 30
0.0
 11
-665.3098176728
 21
318.182316563
 31
0.0
  0
LINE
  5
53B
330
1F
100
AcDbEntity
  8
0
  6
Continuous
 62
     7
370
    25
100
AcDbLine
 10
-645.3098176728
 20
267.182316563
 30
0.0
 11
-633.3098176728
 21
267.182316563
 31
0.0
  0
LINE
  5
53C
330
1F
100
AcDbEntity
  8
0
  6
Continuous
 62
     7
370
    25
100
AcDbLine
 10
-633.3098176728
 20
267.182316563
 30
0.0
 11
-633.3098176728
 21
273.182316563
 31
0.0
  0
LINE
  5
53D
330
1F
100
AcDbEntity
  8
0
  6
Continuous
 62
     7
370
    25
100
AcDbLine
 10
-555.8098176728
 20
267.182316563
 30
0.0
 11
-543.8098176728
 21
267.182316563
 31
0.0
  0
LINE
  5
53E
330
1F
100
AcDbEntity
  8
0
  6
Continuous
 62
     7
370
    25
100
AcDbLine
 10
-543.8098176728
 20
267.182316563
 30
0.0
 11
-543.8098176728
 21
273.182316563
 31
0.0
  0
LINE
  5
53F
330
1F
100
AcDbEntity
  8
0
  6
Continuous
 62
     7
370
    25
100
AcDbLine
 10
-466.3098176728
 20
267.182316563
 30
0.0
 11
-454.3098176728
 21
267.182316563
 31
0.0
  0
LINE
  5
540
330
1F
100
AcDbEntity
  8
0
  6
Continuous
 62
     7
370
    25
100
AcDbLine
 10
-456.3098176728
 20
314.682316563
 30
0.0
 11
-450.3098176728
 21
314.682316563
 31
0.0
  0
LINE
  5
541
330
1F
100
AcDbEntity
  8
0
  6
Continuous
 62
     7
370
    25
100
AcDbLine
 10
-671.3098176728
 20
363.182316563
 30
0.0
 11
-665.3098176728
 21
363.182316563
 31
0.0
  0
LINE
  5
542
330
1F
100
AcDbEntity
  8
0
  6
Continuous
 62
     7
370
    25
100
AcDbLine
 10
-450.3098176728
 20
344.182316563
 30
0.0
 11
-450.3098176728
 21
352.182316563
 31
0.0
  0
LINE
  5
543
330
1F
100
AcDbEntity
  8
0
  6
Continuous
 62
     7
370
    25
100
AcDbLine
 10
-671.3098176728
 20
295.682316563
 30
0.0
 11
-665.3098176728
 21
295.682316563
 31
0.0
  0
LINE
  5
544
330
1F
100
AcDbEntity
  8
0
  6
Continuous
 62
     7
370
    25
100
AcDbLine
 10
-671.3098176728
 20
340.682316563
 30
0.0
 11
-671.3098176728
 21
363.182316563
 31
0.0
  0
LINE
  5
545
330
1F
100
AcDbEntity
  8
0
  6
Continuous
 62
     7
370
    25
100
AcDbLine
 10
-456.3098176728
 20
306.682316563
 30
0.0
 11
-456.3098176728
 21
314.682316563
 31
0.0
  0
LINE
  5
546
330
1F
100
AcDbEntity
  8
0
  6
Continuous
 62
     7
370
    25
100
AcDbLine
 10
-671.3098176728
 20
340.682316563
 30
0.0
 11
-665.3098176728
 21
340.682316563
 31
0.0
  0
LINE
  5
547
330
1F
100
AcDbEntity
  8
0
  6
Continuous
 62
     7
370
    25
100
AcDbLine
 10
-466.3098176728
 20
267.182316563
 30
0.0
 11
-466.3098176728
 21
273.182316563
 31
0.0
  0
LINE
  5
548
330
1F
100
AcDbEntity
  8
0
  6
Continuous
 62
     7
370
    25
100
AcDbLine
 10
-454.3098176728
 20
267.182316563
 30
0.0
 11
-454.3098176728
 21
273.182316563
 31
0.0
  0
LINE
  5
549
330
1F
100
AcDbEntity
  8
0
  6
Continuous
 62
     7
370
    25
100
AcDbLine
 10
-456.3098176728
 20
306.682316563
 30
0.0
 11
-450.3098176728
 21
306.682316563
 31
0.0
  0
LINE
  5
54A
330
1F
100
AcDbEntity
  8
0
  6
Continuous
 62
     7
370
    25
100
AcDbLine
 10
-450.3098176728
 20
306.682316563
 30
0.0
 11
-450.3098176728
 21
314.682316563
 31
0.0
  0
LINE
  5
54B
330
1F
100
AcDbEntity
  8
0
  6
Continuous
 62
     7
370
    25
100
AcDbLine
 10
-456.3098176728
 20
344.182316563
 30
0.0
 11
-450.3098176728
 21
344.182316563
 31
0.0
  0
LINE
  5
54C
330
1F
100
AcDbEntity
  8
0
  6
Continuous
 62
     7
370
    25
100
AcDbLine
 10
-574.5044839828
 20
513.931175639
 30
0.0
 11
-574.5044839828
 21
519.931175639
 31
0.0
  0
LINE
  5
54D
330
1F
100
AcDbEntity
  8
0
  6
Continuous
 62
     7
370
    25
100
AcDbLine
 10
-597.0044839828
 20
519.931175639
 30
0.0
 11
-574.5044839828
 21
519.931175639
 31
0.0
  0
LINE
  5
54E
330
1F
100
AcDbEntity
  8
0
  6
Continuous
 62
     7
370
    25
100
AcDbLine
 10
-597.0044839828
 20
513.931175639
 30
0.0
 11
-597.0044839828
 21
519.931175639
 31
0.0
  0
LINE
  5
54F
330
1F
100
AcDbEntity
  8
0
  6
Continuous
 62
     7
370
    25
100
AcDbLine
 10
-597.0044839828
 20
513.931175639
 30
0.0
 11
-619.5044839828
 21
513.931175639
 31
0.0
  0
LINE
  5
550
330
1F
100
AcDbEntity
  8
0
  6
Continuous
 62
     7
370
    25
100
AcDbLine
 10
-619.5044839828
 20
513.931175639
 30
0.0
 11
-619.5044839828
 21
519.931175639
 31
0.0
  0
LINE
  5
551
330
1F
100
AcDbEntity
  8
0
  6
Continuous
 62
     7
370
    25
100
AcDbLine
 10
-642.0044839828
 20
519.931175639
 30
0.0
 11
-619.5044839828
 21
519.931175639
 31
0.0
  0
LINE
  5
552
330
1F
100
AcDbEntity
  8
0
  6
Continuous
 62
     7
370
    25
100
AcDbLine
 10
-642.0044839828
 20
513.931175639
 30
0.0
 11
-642.0044839828
 21
519.931175639
 31
0.0
  0
LINE
  5
553
330
1F
100
AcDbEntity
  8
0
  6
Continuous
 62
     7
370
    25
100
AcDbLine
 10
-664.5044839828
 20
543.931175639
 30
0.0
 11
-664.5044839828
 21
523.931175639
 31
0.0
  0
LINE
  5
554
330
1F
100
AcDbEntity
  8
0
  6
Continuous
 62
     7
370
    25
100
AcDbLine
 10
-652.5044839828
 20
543.931175639
 30
0.0
 11
-664.5044839828
 21
543.931175639
 31
0.0
  0
LINE
  5
555
330
1F
100
AcDbEntity
  8
0
  6
Continuous
 62
     7
370
    25
100
AcDbLine
 10
-652.5044839828
 20
549.931175639
 30
0.0
 11
-652.5044839828
 21
543.931175639
 31
0.0
  0
LINE
  5
556
330
1F
100
AcDbEntity
  8
0
  6
Continuous
 62
     7
370
    25
100
AcDbLine
 10
-652.5044839828
 20
549.931175639
 30
0.0
 11
-640.5044839828
 21
549.931175639
 31
0.0
  0
LINE
  5
557
330
1F
100
AcDbEntity
  8
0
  6
Continuous
 62
     7
370
    25
100
AcDbLine
 10
-640.5044839828
 20
549.931175639
 30
0.0
 11
-640.5044839828
 21
543.931175639
 31
0.0
  0
LINE
  5
558
330
1F
100
AcDbEntity
  8
0
  6
Continuous
 62
     7
370
    25
100
AcDbLine
 10
-576.0044839828
 20
543.931175639
 30
0.0
 11
-640.5044839828
 21
543.931175639
 31
0.0
  0
LINE
  5
559
330
1F
100
AcDbEntity
  8
0
  6
Continuous
 62
     7
370
    25
100
AcDbLine
 10
-576.0044839828
 20
549.931175639
 30
0.0
 11
-576.0044839828
 21
543.931175639
 31
0.0
  0
LINE
  5
55A
330
1F
100
AcDbEntity
  8
0
  6
Continuous
 62
     7
370
    25
100
AcDbLine
 10
-576.0044839828
 20
549.931175639
 30
0.0
 11
-564.0044839828
 21
549.931175639
 31
0.0
  0
LINE
  5
55B
330
1F
100
AcDbEntity
  8
0
  6
Continuous
 62
     7
370
    25
100
AcDbLine
 10
-564.0044839828
 20
549.931175639
 30
0.0
 11
-564.0044839828
 21
543.931175639
 31
0.0
  0
LINE
  5
55C
330
1F
100
AcDbEntity
  8
0
  6
Continuous
 62
     7
370
    25
100
AcDbLine
 10
-552.0044839828
 20
543.931175639
 30
0.0
 11
-564.0044839828
 21
543.931175639
 31
0.0
  0
LINE
  5
55D
330
1F
100
AcDbEntity
  8
0
  6
Continuous
 62
     7
370
    25
100
AcDbLine
 10
-546.0044839828
 20
523.931175639
 30
0.0
 11
-546.0044839828
 21
513.931175639
 31
0.0
  0
LINE
  5
55E
330
1F
100
AcDbEntity
  8
0
  6
Continuous
 62
     7
370
    25
100
AcDbLine
 10
-552.0044839828
 20
523.931175639
 30
0.0
 11
-552.0044839828
 21
543.931175639
 31
0.0
  0
LINE
  5
55F
330
1F
100
AcDbEntity
  8
0
  6
Continuous
 62
     7
370
    25
100
AcDbLine
 10
-670.5044839828
 20
523.931175639
 30
0.0
 11
-670.5044839828
 21
513.931175639
 31
0.0
  0
LINE
  5
560
330
1F
100
AcDbEntity
  8
0
  6
Continuous
 62
     7
370
    25
100
AcDbLine
 10
-670.5044839828
 20
523.931175639
 30
0.0
 11
-664.5044839828
 21
523.931175639
 31
0.0
  0
LINE
  5
561
330
1F
100
AcDbEntity
  8
0
  6
Continuous
 62
     7
370
    25
100
AcDbLine
 10
-642.0044839828
 20
513.931175639
 30
0.0
 11
-670.5044839828
 21
513.931175639
 31
0.0
  0
LINE
  5
562
330
1F
100
AcDbEntity
  8
0
  6
Continuous
 62
     7
370
    25
100
AcDbLine
 10
-546.0044839828
 20
523.931175639
 30
0.0
 11
-552.0044839828
 21
523.931175639
 31
0.0
  0
LINE
  5
563
330
1F
100
AcDbEntity
  8
0
  6
Continuous
 62
     7
370
    25
100
AcDbLine
 10
-546.0044839828
 20
513.931175639
 30
0.0
 11
-574.5044839828
 21
513.931175639
 31
0.0
  0
LINE
  5
564
330
1F
100
AcDbEntity
  8
0
  6
Continuous
 62
     7
370
    25
100
AcDbLine
 10
-455.7124696158
 20
510.5490345025
 30
0.0
 11
-455.7124696158
 21
516.5490345025
 31
0.0
  0
LINE
  5
565
330
1F
100
AcDbEntity
  8
0
  6
Continuous
 62
     7
370
    25
100
AcDbLine
 10
-544.2124696158
 20
516.5490345025
 30
0.0
 11
-532.2124696158
 21
516.5490345025
 31
0.0
  0
LINE
  5
566
330
1F
100
AcDbEntity
  8
0
  6
Continuous
 62
     7
370
    25
100
AcDbLine
 10
-544.2124696158
 20
540.5490345025
 30
0.0
 11
-544.2124696158
 21
516.5490345025
 31
0.0
  0
LINE
  5
567
330
1F
100
AcDbEntity
  8
0
  6
Continuous
 62
     7
370
    25
100
AcDbLine
 10
-510.7124696158
 20
540.5490345025
 30
0.0
 11
-544.2124696158
 21
540.5490345025
 31
0.0
  0
LINE
  5
568
330
1F
100
AcDbEntity
  8
0
  6
Continuous
 62
     7
370
    25
100
AcDbLine
 10
-473.2124696158
 20
540.5490345025
 30
0.0
 11
-502.7124696158
 21
540.5490345025
 31
0.0
  0
LINE
  5
569
330
1F
100
AcDbEntity
  8
0
  6
Continuous
 62
     7
370
    25
100
AcDbLine
 10
-431.7124696158
 20
516.5490345025
 30
0.0
 11
-431.7124696158
 21
540.5490345025
 31
0.0
  0
LINE
  5
56A
330
1F
100
AcDbEntity
  8
0
  6
Continuous
 62
     7
370
    25
100
AcDbLine
 10
-431.7124696158
 20
540.5490345025
 30
0.0
 11
-465.2124696158
 21
540.5490345025
 31
0.0
  0
LINE
  5
56B
330
1F
100
AcDbEntity
  8
0
  6
Continuous
 62
     7
370
    25
100
AcDbLine
 10
-465.2124696158
 20
546.5490345025
 30
0.0
 11
-465.2124696158
 21
540.5490345025
 31
0.0
  0
LINE
  5
56C
330
1F
100
AcDbEntity
  8
0
  6
Continuous
 62
     7
370
    25
100
AcDbLine
 10
-443.7124696158
 20
510.5490345025
 30
0.0
 11
-443.7124696158
 21
516.5490345025
 31
0.0
  0
LINE
  5
56D
330
1F
100
AcDbEntity
  8
0
  6
Continuous
 62
     7
370
    25
100
AcDbLine
 10
-443.7124696158
 20
516.5490345025
 30
0.0
 11
-431.7124696158
 21
516.5490345025
 31
0.0
  0
LINE
  5
56E
330
1F
100
AcDbEntity
  8
0
  6
Continuous
 62
     7
370
    25
100
AcDbLine
 10
-443.7124696158
 20
510.5490345025
 30
0.0
 11
-455.7124696158
 21
510.5490345025
 31
0.0
  0
LINE
  5
56F
330
1F
100
AcDbEntity
  8
0
  6
Continuous
 62
     7
370
    25
100
AcDbLine
 10
-502.7124696158
 20
546.5490345025
 30
0.0
 11
-502.7124696158
 21
540.5490345025
 31
0.0
  0
LINE
  5
570
330
1F
100
AcDbEntity
  8
0
  6
Continuous
 62
     7
370
    25
100
AcDbLine
 10
-473.2124696158
 20
546.5490345025
 30
0.0
 11
-465.2124696158
 21
546.5490345025
 31
0.0
  0
LINE
  5
571
330
1F
100
AcDbEntity
  8
0
  6
Continuous
 62
     7
370
    25
100
AcDbLine
 10
-520.2124696158
 20
510.5490345025
 30
0.0
 11
-532.2124696158
 21
510.5490345025
 31
0.0
  0
LINE
  5
572
330
1F
100
AcDbEntity
  8
0
  6
Continuous
 62
     7
370
    25
100
AcDbLine
 10
-520.2124696158
 20
510.5490345025
 30
0.0
 11
-520.2124696158
 21
516.5490345025
 31
0.0
  0
LINE
  5
573
330
1F
100
AcDbEntity
  8
0
  6
Continuous
 62
     7
370
    25
100
AcDbLine
 10
-520.2124696158
 20
516.5490345025
 30
0.0
 11
-455.7124696158
 21
516.5490345025
 31
0.0
  0
LINE
  5
574
330
1F
100
AcDbEntity
  8
0
  6
Continuous
 62
     7
370
    25
100
AcDbLine
 10
-510.7124696158
 20
546.5490345025
 30
0.0
 11
-502.7124696158
 21
546.5490345025
 31
0.0
  0
LINE
  5
575
330
1F
100
AcDbEntity
  8
0
  6
Continuous
 62
     7
370
    25
100
AcDbLine
 10
-510.7124696158
 20
546.5490345025
 30
0.0
 11
-510.7124696158
 21
540.5490345025
 31
0.0
  0
LINE
  5
576
330
1F
100
AcDbEntity
  8
0
  6
Continuous
 62
     7
370
    25
100
AcDbLine
 10
-532.2124696158
 20
510.5490345025
 30
0.0
 11
-532.2124696158
 21
516.5490345025
 31
0.0
  0
LINE
  5
577
330
1F
100
AcDbEntity
  8
0
  6
Continuous
 62
     7
370
    25
100
AcDbLine
 10
-473.2124696158
 20
546.5490345025
 30
0.0
 11
-473.2124696158
 21
540.5490345025
 31
0.0
  0
LINE
  5
578
330
1F
100
AcDbEntity
  8
0
  6
Continuous
 62
     7
370
    25
100
AcDbLine
 10
-268.0537358474
 20
793.417344414
 30
0.0
 11
-256.0537358474
 21
793.417344414
 31
0.0
  0
LINE
  5
579
330
1F
100
AcDbEntity
  8
0
  6
Continuous
 62
     7
370
    25
100
AcDbLine
 10
-197.0537358474
 20
817.417344414
 30
0.0
 11
-226.5537358474
 21
817.417344414
 31
0.0
  0
LINE
  5
57A
330
1F
100
AcDbEntity
  8
0
  6
Continuous
 62
     7
370
    25
100
AcDbLine
 10
-197.0537358474
 20
823.417344414
 30
0.0
 11
-197.0537358474
 21
817.417344414
 31
0.0
  0
LINE
  5
57B
330
1F
100
AcDbEntity
  8
0
  6
Continuous
 62
     7
370
    25
100
AcDbLine
 10
-155.5537358474
 20
793.417344414
 30
0.0
 11
-155.5537358474
 21
817.417344414
 31
0.0
  0
LINE
  5
57C
330
1F
100
AcDbEntity
  8
0
  6
Continuous
 62
     7
370
    25
100
AcDbLine
 10
-244.0537358474
 20
787.417344414
 30
0.0
 11
-256.0537358474
 21
787.417344414
 31
0.0
  0
LINE
  5
57D
330
1F
100
AcDbEntity
  8
0
  6
Continuous
 62
     7
370
    25
100
AcDbLine
 10
-155.5537358474
 20
817.417344414
 30
0.0
 11
-189.0537358474
 21
817.417344414
 31
0.0
  0
LINE
  5
57E
330
1F
100
AcDbEntity
  8
0
  6
Continuous
 62
     7
370
    25
100
AcDbLine
 10
-167.5537358474
 20
787.417344414
 30
0.0
 11
-167.5537358474
 21
793.417344414
 31
0.0
  0
LINE
  5
57F
330
1F
100
AcDbEntity
  8
0
  6
Continuous
 62
     7
370
    25
100
AcDbLine
 10
-244.0537358474
 20
793.417344414
 30
0.0
 11
-179.5537358474
 21
793.417344414
 31
0.0
  0
LINE
  5
580
330
1F
100
AcDbEntity
  8
0
  6
Continuous
 62
     7
370
    25
100
AcDbLine
 10
-234.5537358474
 20
823.417344414
 30
0.0
 11
-234.5537358474
 21
817.417344414
 31
0.0
  0
LINE
  5
581
330
1F
100
AcDbEntity
  8
0
  6
Continuous
 62
     7
370
    25
100
AcDbLine
 10
-268.0537358474
 20
817.417344414
 30
0.0
 11
-268.0537358474
 21
793.417344414
 31
0.0
  0
LINE
  5
582
330
1F
100
AcDbEntity
  8
0
  6
Continuous
 62
     7
370
    25
100
AcDbLine
 10
-197.0537358474
 20
823.417344414
 30
0.0
 11
-189.0537358474
 21
823.417344414
 31
0.0
  0
LINE
  5
583
330
1F
100
AcDbEntity
  8
0
  6
Continuous
 62
     7
370
    25
100
AcDbLine
 10
-234.5537358474
 20
823.417344414
 30
0.0
 11
-226.5537358474
 21
823.417344414
 31
0.0
  0
LINE
  5
584
330
1F
100
AcDbEntity
  8
0
  6
Continuous
 62
     7
370
    25
100
AcDbLine
 10
-244.0537358474
 20
787.417344414
 30
0.0
 11
-244.0537358474
 21
793.417344414
 31
0.0
  0
LINE
  5
585
330
1F
100
AcDbEntity
  8
0
  6
Continuous
 62
     7
370
    25
100
AcDbLine
 10
-189.0537358474
 20
823.417344414
 30
0.0
 11
-189.0537358474
 21
817.417344414
 31
0.0
  0
LINE
  5
586
330
1F
100
AcDbEntity
  8
0
  6
Continuous
 62
     7
370
    25
100
AcDbLine
 10
-179.5537358474
 20
787.417344414
 30
0.0
 11
-179.5537358474
 21
793.417344414
 31
0.0
  0
LINE
  5
587
330
1F
100
AcDbEntity
  8
0
  6
Continuous
 62
     7
370
    25
100
AcDbLine
 10
-167.5537358474
 20
787.417344414
 30
0.0
 11
-179.5537358474
 21
787.417344414
 31
0.0
  0
LINE
  5
588
330
1F
100
AcDbEntity
  8
0
  6
Continuous
 62
     7
370
    25
100
AcDbLine
 10
-226.5537358474
 20
823.417344414
 30
0.0
 11
-226.5537358474
 21
817.417344414
 31
0.0
  0
LINE
  5
589
330
1F
100
AcDbEntity
  8
0
  6
Continuous
 62
     7
370
    25
100
AcDbLine
 10
-234.5537358474
 20
817.417344414
 30
0.0
 11
-268.0537358474
 21
817.417344414
 31
0.0
  0
LINE
  5
58A
330
1F
100
AcDbEntity
  8
0
  6
Continuous
 62
     7
370
    25
100
AcDbLine
 10
-256.0537358474
 20
787.417344414
 30
0.0
 11
-256.0537358474
 21
793.417344414
 31
0.0
  0
LINE
  5
58B
330
1F
100
AcDbEntity
  8
0
  6
Continuous
 62
     7
370
    25
100
AcDbLine
 10
-167.5537358474
 20
793.417344414
 30
0.0
 11
-155.5537358474
 21
793.417344414
 31
0.0
  0
LINE
  5
58C
330
1F
100
AcDbEntity
  8
0
  6
Continuous
 62
     7
370
    25
100
AcDbLine
 10
-506.9915496768
 20
427.6210198905
 30
0.0
 11
-500.9915496768
 21
427.6210198905
 31
0.0
  0
LINE
  5
58D
330
1F
100
AcDbEntity
  8
0
  6
Continuous
 62
     7
370
    25
100
AcDbLine
 10
-500.9915496768
 20
427.6210198905
 30
0.0
 11
-500.9915496768
 21
435.6210198905
 31
0.0
  0
LINE
  5
58E
330
1F
100
AcDbEntity
  8
0
  6
Continuous
 62
     7
370
    25
100
AcDbLine
 10
-506.9915496768
 20
435.6210198905
 30
0.0
 11
-500.9915496768
 21
435.6210198905
 31
0.0
  0
LINE
  5
58F
330
1F
100
AcDbEntity
  8
0
  6
Continuous
 62
     7
370
    25
100
AcDbLine
 10
-506.9915496768
 20
427.6210198905
 30
0.0
 11
-506.9915496768
 21
435.6210198905
 31
0.0
  0
LINE
  5
590
330
1F
100
AcDbEntity
  8
0
  6
Continuous
 62
     7
370
    25
100
AcDbLine
 10
-504.9915496768
 20
388.1210198905
 30
0.0
 11
-504.9915496768
 21
394.1210198905
 31
0.0
  0
LINE
  5
591
330
1F
100
AcDbEntity
  8
0
  6
Continuous
 62
     7
370
    25
100
AcDbLine
 10
-516.9915496768
 20
388.1210198905
 30
0.0
 11
-504.9915496768
 21
388.1210198905
 31
0.0
  0
LINE
  5
592
330
1F
100
AcDbEntity
  8
0
  6
Continuous
 62
     7
370
    25
100
AcDbLine
 10
-516.9915496768
 20
388.1210198905
 30
0.0
 11
-516.9915496768
 21
394.1210198905
 31
0.0
  0
LINE
  5
593
330
1F
100
AcDbEntity
  8
0
  6
Continuous
 62
     7
370
    25
100
AcDbLine
 10
-576.4915496768
 20
388.1210198905
 30
0.0
 11
-576.4915496768
 21
394.1210198905
 31
0.0
  0
LINE
  5
594
330
1F
100
AcDbEntity
  8
0
  6
Continuous
 62
     7
370
    25
100
AcDbLine
 10
-588.4915496768
 20
388.1210198905
 30
0.0
 11
-588.4915496768
 21
394.1210198905
 31
0.0
  0
LINE
  5
595
330
1F
100
AcDbEntity
  8
0
  6
Continuous
 62
     7
370
    25
100
AcDbLine
 10
-647.9915496768
 20
388.1210198905
 30
0.0
 11
-647.9915496768
 21
394.1210198905
 31
0.0
  0
LINE
  5
596
330
1F
100
AcDbEntity
  8
0
  6
Continuous
 62
     7
370
    25
100
AcDbLine
 10
-659.9915496768
 20
388.1210198905
 30
0.0
 11
-647.9915496768
 21
388.1210198905
 31
0.0
  0
LINE
  5
597
330
1F
100
AcDbEntity
  8
0
  6
Continuous
 62
     7
370
    25
100
AcDbLine
 10
-659.9915496768
 20
388.1210198905
 30
0.0
 11
-659.9915496768
 21
394.1210198905
 31
0.0
  0
LINE
  5
598
330
1F
100
AcDbEntity
  8
0
  6
Continuous
 62
     7
370
    25
100
AcDbLine
 10
-685.9915496768
 20
416.6210198905
 30
0.0
 11
-679.9915496768
 21
416.6210198905
 31
0.0
  0
LINE
  5
599
330
1F
100
AcDbEntity
  8
0
  6
Continuous
 62
     7
370
    25
100
AcDbLine
 10
-685.9915496768
 20
416.6210198905
 30
0.0
 11
-685.9915496768
 21
439.1210198905
 31
0.0
  0
LINE
  5
59A
330
1F
100
AcDbEntity
  8
0
  6
Continuous
 62
     7
370
    25
100
AcDbLine
 10
-685.9915496768
 20
439.1210198905
 30
0.0
 11
-679.9915496768
 21
439.1210198905
 31
0.0
  0
LINE
  5
59B
330
1F
100
AcDbEntity
  8
0
  6
Continuous
 62
     7
370
    25
100
AcDbLine
 10
-685.9915496768
 20
461.6210198905
 30
0.0
 11
-679.9915496768
 21
461.6210198905
 31
0.0
  0
LINE
  5
59C
330
1F
100
AcDbEntity
  8
0
  6
Continuous
 62
     7
370
    25
100
AcDbLine
 10
-685.9915496768
 20
484.1210198905
 30
0.0
 11
-679.9915496768
 21
484.1210198905
 31
0.0
  0
LINE
  5
59D
330
1F
100
AcDbEntity
  8
0
  6
Continuous
 62
     7
370
    25
100
AcDbLine
 10
-679.9915496768
 20
506.6210198905
 30
0.0
 11
-659.9915496768
 21
506.6210198905
 31
0.0
  0
LINE
  5
59E
330
1F
100
AcDbEntity
  8
0
  6
Continuous
 62
     7
370
    25
100
AcDbLine
 10
-659.9915496768
 20
512.6210198905
 30
0.0
 11
-659.9915496768
 21
506.6210198905
 31
0.0
  0
LINE
  5
59F
330
1F
100
AcDbEntity
  8
0
  6
Continuous
 62
     7
370
    25
100
AcDbLine
 10
-588.4915496768
 20
512.6210198905
 30
0.0
 11
-588.4915496768
 21
506.6210198905
 31
0.0
  0
LINE
  5
5A0
330
1F
100
AcDbEntity
  8
0
  6
Continuous
 62
     7
370
    25
100
AcDbLine
 10
-588.4915496768
 20
512.6210198905
 30
0.0
 11
-576.4915496768
 21
512.6210198905
 31
0.0
  0
LINE
  5
5A1
330
1F
100
AcDbEntity
  8
0
  6
Continuous
 62
     7
370
    25
100
AcDbLine
 10
-576.4915496768
 20
512.6210198905
 30
0.0
 11
-576.4915496768
 21
506.6210198905
 31
0.0
  0
LINE
  5
5A2
330
1F
100
AcDbEntity
  8
0
  6
Continuous
 62
     7
370
    25
100
AcDbLine
 10
-516.9915496768
 20
512.6210198905
 30
0.0
 11
-504.9915496768
 21
512.6210198905
 31
0.0
  0
LINE
  5
5A3
330
1F
100
AcDbEntity
  8
0
  6
Continuous
 62
     7
370
    25
100
AcDbLine
 10
-647.9915496768
 20
394.1210198905
 30
0.0
 11
-588.4915496768
 21
394.1210198905
 31
0.0
  0
LINE
  5
5A4
330
1F
100
AcDbEntity
  8
0
  6
Continuous
 62
     7
370
    25
100
AcDbLine
 10
-576.4915496768
 20
394.1210198905
 30
0.0
 11
-516.9915496768
 21
394.1210198905
 31
0.0
  0
LINE
  5
5A5
330
1F
100
AcDbEntity
  8
0
  6
Continuous
 62
     7
370
    25
100
AcDbLine
 10
-679.9915496768
 20
394.1210198905
 30
0.0
 11
-659.9915496768
 21
394.1210198905
 31
0.0
  0
LINE
  5
5A6
330
1F
100
AcDbEntity
  8
0
  6
Continuous
 62
     7
370
    25
100
AcDbLine
 10
-679.9915496768
 20
439.1210198905
 30
0.0
 11
-679.9915496768
 21
461.6210198905
 31
0.0
  0
LINE
  5
5A7
330
1F
100
AcDbEntity
  8
0
  6
Continuous
 62
     7
370
    25
100
AcDbLine
 10
-679.9915496768
 20
394.1210198905
 30
0.0
 11
-679.9915496768
 21
416.6210198905
 31
0.0
  0
LINE
  5
5A8
330
1F
100
AcDbEntity
  8
0
  6
Continuous
 62
     7
370
    25
100
AcDbLine
 10
-588.4915496768
 20
388.1210198905
 30
0.0
 11
-576.4915496768
 21
388.1210198905
 31
0.0
  0
LINE
  5
5A9
330
1F
100
AcDbEntity
  8
0
  6
Continuous
 62
     7
370
    25
100
AcDbLine
 10
-506.9915496768
 20
465.1210198905
 30
0.0
 11
-500.9915496768
 21
465.1210198905
 31
0.0
  0
LINE
  5
5AA
330
1F
100
AcDbEntity
  8
0
  6
Continuous
 62
     7
370
    25
100
AcDbLine
 10
-500.9915496768
 20
465.1210198905
 30
0.0
 11
-500.9915496768
 21
473.1210198905
 31
0.0
  0
LINE
  5
5AB
330
1F
100
AcDbEntity
  8
0
  6
Continuous
 62
     7
370
    25
100
AcDbLine
 10
-506.9915496768
 20
473.1210198905
 30
0.0
 11
-500.9915496768
 21
473.1210198905
 31
0.0
  0
LINE
  5
5AC
330
1F
100
AcDbEntity
  8
0
  6
Continuous
 62
     7
370
    25
100
AcDbLine
 10
-506.9915496768
 20
465.1210198905
 30
0.0
 11
-506.9915496768
 21
473.1210198905
 31
0.0
  0
LINE
  5
5AD
330
1F
100
AcDbEntity
  8
0
  6
Continuous
 62
     7
370
    25
100
AcDbLine
 10
-659.9915496768
 20
512.6210198905
 30
0.0
 11
-647.9915496768
 21
512.6210198905
 31
0.0
  0
LINE
  5
5AE
330
1F
100
AcDbEntity
  8
0
  6
Continuous
 62
     7
370
    25
100
AcDbLine
 10
-647.9915496768
 20
512.6210198905
 30
0.0
 11
-647.9915496768
 21
506.6210198905
 31
0.0
  0
LINE
  5
5AF
330
1F
100
AcDbEntity
  8
0
  6
Continuous
 62
     7
370
    25
100
AcDbLine
 10
-494.9915496768
 20
423.8710198905
 30
0.0
 11
-485.8920459578
 21
424.7809702624
 31
0.0
  0
LINE
  5
5B0
330
1F
100
AcDbEntity
  8
0
  6
Continuous
 62
     7
370
    25
100
AcDbLine
 10
-504.9915496768
 20
394.1210198905
 30
0.0
 11
-484.9915496768
 21
394.1210198905
 31
0.0
  0
LINE
  5
5B1
330
1F
100
AcDbEntity
  8
0
  6
Continuous
 62
     7
370
    25
100
AcDbLine
 10
-484.9915496768
 20
394.1210198905
 30
0.0
 11
-484.9915496768
 21
399.9660323283
 31
0.0
  0
LINE
  5
5B2
330
1F
100
AcDbEntity
  8
0
  6
Continuous
 62
     7
370
    25
100
AcDbLine
 10
-485.8920459578
 20
400.9610695186
 30
0.0
 11
-494.9915496768
 21
401.8710198905
 31
0.0
  0
LINE
  5
5B3
330
1F
100
AcDbEntity
  8
0
  6
Continuous
 62
     7
370
    25
100
AcDbLine
 10
-494.9915496768
 20
401.8710198905
 30
0.0
 11
-494.9915496768
 21
407.8710198905
 31
0.0
  0
LINE
  5
5B4
330
1F
100
AcDbEntity
  8
0
  6
Continuous
 62
     7
370
    25
100
AcDbLine
 10
-499.9915496768
 20
408.8710198905
 30
0.0
 11
-495.9915496768
 21
408.8710198905
 31
0.0
  0
LINE
  5
5B5
330
1F
100
AcDbEntity
  8
0
  6
Continuous
 62
     7
370
    25
100
AcDbLine
 10
-500.9915496768
 20
409.8710198905
 30
0.0
 11
-500.9915496768
 21
415.8710198905
 31
0.0
  0
LINE
  5
5B6
330
1F
100
AcDbEntity
  8
0
  6
Continuous
 62
     7
370
    25
100
AcDbLine
 10
-499.9915496768
 20
416.8710198905
 30
0.0
 11
-495.9915496768
 21
416.8710198905
 31
0.0
  0
LINE
  5
5B7
330
1F
100
AcDbEntity
  8
0
  6
Continuous
 62
     7
370
    25
100
AcDbLine
 10
-494.9915496768
 20
455.3710198905
 30
0.0
 11
-494.9915496768
 21
461.3710198905
 31
0.0
  0
LINE
  5
5B8
330
1F
100
AcDbEntity
  8
0
  6
Continuous
 62
     7
370
    25
100
AcDbLine
 10
-494.9915496768
 20
461.3710198905
 30
0.0
 11
-485.8920459578
 21
462.2809702624
 31
0.0
  0
LINE
  5
5B9
330
1F
100
AcDbEntity
  8
0
  6
Continuous
 62
     7
370
    25
100
AcDbLine
 10
-484.9915496768
 20
425.7760074526
 30
0.0
 11
-484.9915496768
 21
437.4660323283
 31
0.0
  0
LINE
  5
5BA
330
1F
100
AcDbEntity
  8
0
  6
Continuous
 62
     7
370
    25
100
AcDbLine
 10
-485.8920459578
 20
438.4610695186
 30
0.0
 11
-494.9915496768
 21
439.3710198905
 31
0.0
  0
LINE
  5
5BB
330
1F
100
AcDbEntity
  8
0
  6
Continuous
 62
     7
370
    25
100
AcDbLine
 10
-494.9915496768
 20
439.3710198905
 30
0.0
 11
-494.9915496768
 21
445.3710198905
 31
0.0
  0
LINE
  5
5BC
330
1F
100
AcDbEntity
  8
0
  6
Continuous
 62
     7
370
    25
100
AcDbLine
 10
-499.9915496768
 20
446.3710198905
 30
0.0
 11
-495.9915496768
 21
446.3710198905
 31
0.0
  0
LINE
  5
5BD
330
1F
100
AcDbEntity
  8
0
  6
Continuous
 62
     7
370
    25
100
AcDbLine
 10
-500.9915496768
 20
447.3710198905
 30
0.0
 11
-500.9915496768
 21
453.3710198905
 31
0.0
  0
LINE
  5
5BE
330
1F
100
AcDbEntity
  8
0
  6
Continuous
 62
     7
370
    25
100
AcDbLine
 10
-499.9915496768
 20
454.3710198905
 30
0.0
 11
-495.9915496768
 21
454.3710198905
 31
0.0
  0
LINE
  5
5BF
330
1F
100
AcDbEntity
  8
0
  6
Continuous
 62
     7
370
    25
100
AcDbLine
 10
-494.9915496768
 20
492.8710198905
 30
0.0
 11
-494.9915496768
 21
498.8710198905
 31
0.0
  0
LINE
  5
5C0
330
1F
100
AcDbEntity
  8
0
  6
Continuous
 62
     7
370
    25
100
AcDbLine
 10
-494.9915496768
 20
498.8710198905
 30
0.0
 11
-485.8920459578
 21
499.7809702624
 31
0.0
  0
LINE
  5
5C1
330
1F
100
AcDbEntity
  8
0
  6
Continuous
 62
     7
370
    25
100
AcDbLine
 10
-484.9915496768
 20
500.7760074526
 30
0.0
 11
-484.9915496768
 21
506.6210198905
 31
0.0
  0
LINE
  5
5C2
330
1F
100
AcDbEntity
  8
0
  6
Continuous
 62
     7
370
    25
100
AcDbLine
 10
-679.9915496768
 20
484.1210198905
 30
0.0
 11
-679.9915496768
 21
506.6210198905
 31
0.0
  0
LINE
  5
5C3
330
1F
100
AcDbEntity
  8
0
  6
Continuous
 62
     7
370
    25
100
AcDbLine
 10
-484.9915496768
 20
463.2760074526
 30
0.0
 11
-484.9915496768
 21
474.9660323283
 31
0.0
  0
LINE
  5
5C4
330
1F
100
AcDbEntity
  8
0
  6
Continuous
 62
     7
370
    25
100
AcDbLine
 10
-485.8920459578
 20
475.9610695186
 30
0.0
 11
-494.9915496768
 21
476.8710198905
 31
0.0
  0
LINE
  5
5C5
330
1F
100
AcDbEntity
  8
0
  6
Continuous
 62
     7
370
    25
100
AcDbLine
 10
-494.9915496768
 20
476.8710198905
 30
0.0
 11
-494.9915496768
 21
482.8710198905
 31
0.0
  0
LINE
  5
5C6
330
1F
100
AcDbEntity
  8
0
  6
Continuous
 62
     7
370
    25
100
AcDbLine
 10
-499.9915496768
 20
483.8710198905
 30
0.0
 11
-495.9915496768
 21
483.8710198905
 31
0.0
  0
LINE
  5
5C7
330
1F
100
AcDbEntity
  8
0
  6
Continuous
 62
     7
370
    25
100
AcDbLine
 10
-500.9915496768
 20
484.8710198905
 30
0.0
 11
-500.9915496768
 21
490.8710198905
 31
0.0
  0
LINE
  5
5C8
330
1F
100
AcDbEntity
  8
0
  6
Continuous
 62
     7
370
    25
100
AcDbLine
 10
-499.9915496768
 20
491.8710198905
 30
0.0
 11
-495.9915496768
 21
491.8710198905
 31
0.0
  0
LINE
  5
5C9
330
1F
100
AcDbEntity
  8
0
  6
Continuous
 62
     7
370
    25
100
AcDbLine
 10
-504.9915496768
 20
506.6210198905
 30
0.0
 11
-484.9915496768
 21
506.6210198905
 31
0.0
  0
LINE
  5
5CA
330
1F
100
AcDbEntity
  8
0
  6
Continuous
 62
     7
370
    25
100
AcDbLine
 10
-576.4915496768
 20
506.6210198905
 30
0.0
 11
-516.9915496768
 21
506.6210198905
 31
0.0
  0
LINE
  5
5CB
330
1F
100
AcDbEntity
  8
0
  6
Continuous
 62
     7
370
    25
100
AcDbLine
 10
-647.9915496768
 20
506.6210198905
 30
0.0
 11
-588.4915496768
 21
506.6210198905
 31
0.0
  0
LINE
  5
5CC
330
1F
100
AcDbEntity
  8
0
  6
Continuous
 62
     7
370
    25
100
AcDbLine
 10
-516.9915496768
 20
512.6210198905
 30
0.0
 11
-516.9915496768
 21
506.6210198905
 31
0.0
  0
LINE
  5
5CD
330
1F
100
AcDbEntity
  8
0
  6
Continuous
 62
     7
370
    25
100
AcDbLine
 10
-504.9915496768
 20
512.6210198905
 30
0.0
 11
-504.9915496768
 21
506.6210198905
 31
0.0
  0
LINE
  5
5CE
330
1F
100
AcDbEntity
  8
0
  6
Continuous
 62
     7
370
    25
100
AcDbLine
 10
-494.9915496768
 20
417.8710198905
 30
0.0
 11
-494.9915496768
 21
423.8710198905
 31
0.0
  0
LINE
  5
5CF
330
1F
100
AcDbEntity
  8
0
  6
Continuous
 62
     7
370
    25
100
AcDbLine
 10
-685.9915496768
 20
461.6210198905
 30
0.0
 11
-685.9915496768
 21
484.1210198905
 31
0.0
  0
LINE
  5
5D0
330
1F
100
AcDbEntity
  8
0
  6
Continuous
 62
     7
370
    25
100
AcDbLine
 10
-386.0639005688
 20
35.9792345404
 30
0.0
 11
-386.0639005688
 21
47.9792345404
 31
0.0
  0
LINE
  5
5D1
330
1F
100
AcDbEntity
  8
0
  6
Continuous
 62
     7
370
    25
100
AcDbLine
 10
-386.0639005688
 20
35.9792345404
 30
0.0
 11
-380.0639005688
 21
35.9792345404
 31
0.0
  0
LINE
  5
5D2
330
1F
100
AcDbEntity
  8
0
  6
Continuous
 62
     7
370
    25
100
AcDbLine
 10
-380.0639005688
 20
35.9792345404
 30
0.0
 11
-380.0639005688
 21
47.9792345404
 31
0.0
  0
LINE
  5
5D3
330
1F
100
AcDbEntity
  8
0
  6
Continuous
 62
     7
370
    25
100
AcDbLine
 10
-386.0639005688
 20
47.9792345404
 30
0.0
 11
-380.0639005688
 21
47.9792345404
 31
0.0
  0
LINE
  5
5D4
330
1F
100
AcDbEntity
  8
0
  6
Continuous
 62
     7
370
    25
100
AcDbLine
 10
-386.0639005688
 20
125.4792345404
 30
0.0
 11
-386.0639005688
 21
137.4792345404
 31
0.0
  0
LINE
  5
5D5
330
1F
100
AcDbEntity
  8
0
  6
Continuous
 62
     7
370
    25
100
AcDbLine
 10
-386.0639005688
 20
125.4792345404
 30
0.0
 11
-380.0639005688
 21
125.4792345404
 31
0.0
  0
LINE
  5
5D6
330
1F
100
AcDbEntity
  8
0
  6
Continuous
 62
     7
370
    25
100
AcDbLine
 10
-380.0639005688
 20
125.4792345404
 30
0.0
 11
-380.0639005688
 21
137.4792345404
 31
0.0
  0
LINE
  5
5D7
330
1F
100
AcDbEntity
  8
0
  6
Continuous
 62
     7
370
    25
100
AcDbLine
 10
-386.0639005688
 20
137.4792345404
 30
0.0
 11
-380.0639005688
 21
137.4792345404
 31
0.0
  0
LINE
  5
5D8
330
1F
100
AcDbEntity
  8
0
  6
Continuous
 62
     7
370
    25
100
AcDbLine
 10
-386.0639005688
 20
214.9792345404
 30
0.0
 11
-386.0639005688
 21
226.9792345404
 31
0.0
  0
LINE
  5
5D9
330
1F
100
AcDbEntity
  8
0
  6
Continuous
 62
     7
370
    25
100
AcDbLine
 10
-386.0639005688
 20
214.9792345404
 30
0.0
 11
-380.0639005688
 21
214.9792345404
 31
0.0
  0
LINE
  5
5DA
330
1F
100
AcDbEntity
  8
0
  6
Continuous
 62
     7
370
    25
100
AcDbLine
 10
-380.0639005688
 20
214.9792345404
 30
0.0
 11
-380.0639005688
 21
226.9792345404
 31
0.0
  0
LINE
  5
5DB
330
1F
100
AcDbEntity
  8
0
  6
Continuous
 62
     7
370
    25
100
AcDbLine
 10
-386.0639005688
 20
226.9792345404
 30
0.0
 11
-380.0639005688
 21
226.9792345404
 31
0.0
  0
LINE
  5
5DC
330
1F
100
AcDbEntity
  8
0
  6
Continuous
 62
     7
370
    25
100
AcDbLine
 10
-375.0639005688
 20
252.9792345404
 30
0.0
 11
-375.0639005688
 21
246.9792345404
 31
0.0
  0
LINE
  5
5DD
330
1F
100
AcDbEntity
  8
0
  6
Continuous
 62
     7
370
    25
100
AcDbLine
 10
-340.0639005688
 20
246.9792345404
 30
0.0
 11
-375.0639005688
 21
246.9792345404
 31
0.0
  0
LINE
  5
5DE
330
1F
100
AcDbEntity
  8
0
  6
Continuous
 62
     7
370
    25
100
AcDbLine
 10
-340.0639005688
 20
252.9792345404
 30
0.0
 11
-340.0639005688
 21
246.9792345404
 31
0.0
  0
LINE
  5
5DF
330
1F
100
AcDbEntity
  8
0
  6
Continuous
 62
     7
370
    25
100
AcDbLine
 10
-340.0639005688
 20
252.9792345404
 30
0.0
 11
-375.0639005688
 21
252.9792345404
 31
0.0
  0
LINE
  5
5E0
330
1F
100
AcDbEntity
  8
0
  6
Continuous
 62
     7
370
    25
100
AcDbLine
 10
-45.0639005688
 20
210.9792345404
 30
0.0
 11
-55.0639005688
 21
210.9792345404
 31
0.0
  0
LINE
  5
5E1
330
1F
100
AcDbEntity
  8
0
  6
Continuous
 62
     7
370
    25
100
AcDbLine
 10
-45.0639005688
 20
216.9792345404
 30
0.0
 11
-45.0639005688
 21
210.9792345404
 31
0.0
  0
LINE
  5
5E2
330
1F
100
AcDbEntity
  8
0
  6
Continuous
 62
     7
370
    25
100
AcDbLine
 10
-55.0639005688
 20
216.9792345404
 30
0.0
 11
-45.0639005688
 21
216.9792345404
 31
0.0
  0
LINE
  5
5E3
330
1F
100
AcDbEntity
  8
0
  6
Continuous
 62
     7
370
    25
100
AcDbLine
 10
-49.0639005688
 20
190.9792345404
 30
0.0
 11
-49.0639005688
 21
178.9792345404
 31
0.0
  0
LINE
  5
5E4
330
1F
100
AcDbEntity
  8
0
  6
Continuous
 62
     7
370
    25
100
AcDbLine
 10
-55.0639005688
 20
190.9792345404
 30
0.0
 11
-49.0639005688
 21
190.9792345404
 31
0.0
  0
LINE
  5
5E5
330
1F
100
AcDbEntity
  8
0
  6
Continuous
 62
     7
370
    25
100
AcDbLine
 10
-55.0639005688
 20
107.4792345404
 30
0.0
 11
-55.0639005688
 21
119.4792345404
 31
0.0
  0
LINE
  5
5E6
330
1F
100
AcDbEntity
  8
0
  6
Continuous
 62
     7
370
    25
100
AcDbLine
 10
-49.0639005688
 20
35.9792345404
 30
0.0
 11
-55.0639005688
 21
35.9792345404
 31
0.0
  0
LINE
  5
5E7
330
1F
100
AcDbEntity
  8
0
  6
Continuous
 62
     7
370
    25
100
AcDbLine
 10
-49.0639005688
 20
47.9792345404
 30
0.0
 11
-49.0639005688
 21
35.9792345404
 31
0.0
  0
LINE
  5
5E8
330
1F
100
AcDbEntity
  8
0
  6
Continuous
 62
     7
370
    25
100
AcDbLine
 10
-55.0639005688
 20
47.9792345404
 30
0.0
 11
-49.0639005688
 21
47.9792345404
 31
0.0
  0
LINE
  5
5E9
330
1F
100
AcDbEntity
  8
0
  6
Continuous
 62
     7
370
    25
100
AcDbLine
 10
-270.0639005688
 20
246.9792345404
 30
0.0
 11
-305.0639005688
 21
246.9792345404
 31
0.0
  0
LINE
  5
5EA
330
1F
100
AcDbEntity
  8
0
  6
Continuous
 62
     7
370
    25
100
AcDbLine
 10
-270.0639005688
 20
252.9792345404
 30
0.0
 11
-270.0639005688
 21
246.9792345404
 31
0.0
  0
LINE
  5
5EB
330
1F
100
AcDbEntity
  8
0
  6
Continuous
 62
     7
370
    25
100
AcDbLine
 10
-270.0639005688
 20
252.9792345404
 30
0.0
 11
-305.0639005688
 21
252.9792345404
 31
0.0
  0
LINE
  5
5EC
330
1F
100
AcDbEntity
  8
0
  6
Continuous
 62
     7
370
    25
100
AcDbLine
 10
-305.0639005688
 20
252.9792345404
 30
0.0
 11
-305.0639005688
 21
246.9792345404
 31
0.0
  0
LINE
  5
5ED
330
1F
100
AcDbEntity
  8
0
  6
Continuous
 62
     7
370
    25
100
AcDbLine
 10
-200.0639005688
 20
246.9792345404
 30
0.0
 11
-235.0639005688
 21
246.9792345404
 31
0.0
  0
LINE
  5
5EE
330
1F
100
AcDbEntity
  8
0
  6
Continuous
 62
     7
370
    25
100
AcDbLine
 10
-200.0639005688
 20
252.9792345404
 30
0.0
 11
-200.0639005688
 21
246.9792345404
 31
0.0
  0
LINE
  5
5EF
330
1F
100
AcDbEntity
  8
0
  6
Continuous
 62
     7
370
    25
100
AcDbLine
 10
-200.0639005688
 20
252.9792345404
 30
0.0
 11
-235.0639005688
 21
252.9792345404
 31
0.0
  0
LINE
  5
5F0
330
1F
100
AcDbEntity
  8
0
  6
Continuous
 62
     7
370
    25
100
AcDbLine
 10
-235.0639005688
 20
252.9792345404
 30
0.0
 11
-235.0639005688
 21
246.9792345404
 31
0.0
  0
LINE
  5
5F1
330
1F
100
AcDbEntity
  8
0
  6
Continuous
 62
     7
370
    25
100
AcDbLine
 10
-130.0639005688
 20
252.9792345404
 30
0.0
 11
-130.0639005688
 21
246.9792345404
 31
0.0
  0
LINE
  5
5F2
330
1F
100
AcDbEntity
  8
0
  6
Continuous
 62
     7
370
    25
100
AcDbLine
 10
-130.0639005688
 20
252.9792345404
 30
0.0
 11
-165.0639005688
 21
252.9792345404
 31
0.0
  0
LINE
  5
5F3
330
1F
100
AcDbEntity
  8
0
  6
Continuous
 62
     7
370
    25
100
AcDbLine
 10
-165.0639005688
 20
252.9792345404
 30
0.0
 11
-165.0639005688
 21
246.9792345404
 31
0.0
  0
LINE
  5
5F4
330
1F
100
AcDbEntity
  8
0
  6
Continuous
 62
     7
370
    25
100
AcDbLine
 10
-60.0639005688
 20
252.9792345404
 30
0.0
 11
-60.0639005688
 21
246.9792345404
 31
0.0
  0
LINE
  5
5F5
330
1F
100
AcDbEntity
  8
0
  6
Continuous
 62
     7
370
    25
100
AcDbLine
 10
-60.0639005688
 20
252.9792345404
 30
0.0
 11
-95.0639005688
 21
252.9792345404
 31
0.0
  0
LINE
  5
5F6
330
1F
100
AcDbEntity
  8
0
  6
Continuous
 62
     7
370
    25
100
AcDbLine
 10
-95.0639005688
 20
252.9792345404
 30
0.0
 11
-95.0639005688
 21
246.9792345404
 31
0.0
  0
LINE
  5
5F7
330
1F
100
AcDbEntity
  8
0
  6
Continuous
 62
     7
370
    25
100
AcDbLine
 10
-25.0639005688
 20
212.9792345404
 30
0.0
 11
-25.0639005688
 21
178.9792345404
 31
0.0
  0
LINE
  5
5F8
330
1F
100
AcDbEntity
  8
0
  6
Continuous
 62
     7
370
    25
100
AcDbLine
 10
-19.0639005688
 20
178.9792345404
 30
0.0
 11
-25.0639005688
 21
178.9792345404
 31
0.0
  0
LINE
  5
5F9
330
1F
100
AcDbEntity
  8
0
  6
Continuous
 62
     7
370
    25
100
AcDbLine
 10
-19.0639005688
 20
212.9792345404
 30
0.0
 11
-19.0639005688
 21
178.9792345404
 31
0.0
  0
LINE
  5
5FA
330
1F
100
AcDbEntity
  8
0
  6
Continuous
 62
     7
370
    25
100
AcDbLine
 10
-19.0639005688
 20
212.9792345404
 30
0.0
 11
-25.0639005688
 21
212.9792345404
 31
0.0
  0
LINE
  5
5FB
330
1F
100
AcDbEntity
  8
0
  6
Continuous
 62
     7
370
    25
100
AcDbLine
 10
-25.0639005688
 20
144.9792345404
 30
0.0
 11
-25.0639005688
 21
110.9792345404
 31
0.0
  0
LINE
  5
5FC
330
1F
100
AcDbEntity
  8
0
  6
Continuous
 62
     7
370
    25
100
AcDbLine
 10
-19.0639005688
 20
110.9792345404
 30
0.0
 11
-25.0639005688
 21
110.9792345404
 31
0.0
  0
LINE
  5
5FD
330
1F
100
AcDbEntity
  8
0
  6
Continuous
 62
     7
370
    25
100
AcDbLine
 10
-19.0639005688
 20
144.9792345404
 30
0.0
 11
-19.0639005688
 21
110.9792345404
 31
0.0
  0
LINE
  5
5FE
330
1F
100
AcDbEntity
  8
0
  6
Continuous
 62
     7
370
    25
100
AcDbLine
 10
-19.0639005688
 20
144.9792345404
 30
0.0
 11
-25.0639005688
 21
144.9792345404
 31
0.0
  0
LINE
  5
5FF
330
1F
100
AcDbEntity
  8
0
  6
Continuous
 62
     7
370
    25
100
AcDbLine
 10
-25.0639005688
 20
76.9792345404
 30
0.0
 11
-25.0639005688
 21
42.9792345404
 31
0.0
  0
LINE
  5
600
330
1F
100
AcDbEntity
  8
0
  6
Continuous
 62
     7
370
    25
100
AcDbLine
 10
-19.0639005688
 20
42.9792345404
 30
0.0
 11
-25.0639005688
 21
42.9792345404
 31
0.0
  0
LINE
  5
601
330
1F
100
AcDbEntity
  8
0
  6
Continuous
 62
     7
370
    25
100
AcDbLine
 10
-19.0639005688
 20
76.9792345404
 30
0.0
 11
-19.0639005688
 21
42.9792345404
 31
0.0
  0
LINE
  5
602
330
1F
100
AcDbEntity
  8
0
  6
Continuous
 62
     7
370
    25
100
AcDbLine
 10
-19.0639005688
 20
76.9792345404
 30
0.0
 11
-25.0639005688
 21
76.9792345404
 31
0.0
  0
LINE
  5
603
330
1F
100
AcDbEntity
  8
0
  6
Continuous
 62
     7
370
    25
100
AcDbLine
 10
-416.0639005688
 20
212.9792345404
 30
0.0
 11
-410.0639005688
 21
212.9792345404
 31
0.0
  0
LINE
  5
604
330
1F
100
AcDbEntity
  8
0
  6
Continuous
 62
     7
370
    25
100
AcDbLine
 10
-416.0639005688
 20
212.9792345404
 30
0.0
 11
-416.0639005688
 21
178.9792345404
 31
0.0
  0
LINE
  5
605
330
1F
100
AcDbEntity
  8
0
  6
Continuous
 62
     7
370
    25
100
AcDbLine
 10
-416.0639005688
 20
178.9792345404
 30
0.0
 11
-410.0639005688
 21
178.9792345404
 31
0.0
  0
LINE
  5
606
330
1F
100
AcDbEntity
  8
0
  6
Continuous
 62
     7
370
    25
100
AcDbLine
 10
-416.0639005688
 20
110.9792345404
 30
0.0
 11
-410.0639005688
 21
110.9792345404
 31
0.0
  0
LINE
  5
607
330
1F
100
AcDbEntity
  8
0
  6
Continuous
 62
     7
370
    25
100
AcDbLine
 10
-416.0639005688
 20
144.9792345404
 30
0.0
 11
-410.0639005688
 21
144.9792345404
 31
0.0
  0
LINE
  5
608
330
1F
100
AcDbEntity
  8
0
  6
Continuous
 62
     7
370
    25
100
AcDbLine
 10
-416.0639005688
 20
144.9792345404
 30
0.0
 11
-416.0639005688
 21
110.9792345404
 31
0.0
  0
LINE
  5
609
330
1F
100
AcDbEntity
  8
0
  6
Continuous
 62
     7
370
    25
100
AcDbLine
 10
-416.0639005688
 20
42.9792345404
 30
0.0
 11
-410.0639005688
 21
42.9792345404
 31
0.0
  0
LINE
  5
60A
330
1F
100
AcDbEntity
  8
0
  6
Continuous
 62
     7
370
    25
100
AcDbLine
 10
-416.0639005688
 20
76.9792345404
 30
0.0
 11
-410.0639005688
 21
76.9792345404
 31
0.0
  0
LINE
  5
60B
330
1F
100
AcDbEntity
  8
0
  6
Continuous
 62
     7
370
    25
100
AcDbLine
 10
-416.0639005688
 20
76.9792345404
 30
0.0
 11
-416.0639005688
 21
42.9792345404
 31
0.0
  0
LINE
  5
60C
330
1F
100
AcDbEntity
  8
0
  6
Continuous
 62
     7
370
    25
100
AcDbLine
 10
-424.0639005688
 20
272.9792345404
 30
0.0
 11
-356.0639005688
 21
272.9792345404
 31
0.0
  0
LINE
  5
60D
330
1F
100
AcDbEntity
  8
0
  6
Continuous
 62
     7
370
    25
100
AcDbLine
 10
-97.3942033486
 20
260.9792345404
 30
0.0
 11
-337.733597789
 21
260.9792345404
 31
0.0
  0
LINE
  5
60E
330
1F
100
AcDbEntity
  8
0
  6
Continuous
 62
     7
370
    25
100
AcDbLine
 10
-11.0639005688
 20
272.9792345404
 30
0.0
 11
-79.0639005688
 21
272.9792345404
 31
0.0
  0
LINE
  5
60F
330
1F
100
AcDbEntity
  8
0
  6
Continuous
 62
     7
370
    25
100
AcDbLine
 10
-11.0639005688
 20
272.9792345404
 30
0.0
 11
-11.0639005688
 21
8.9792345404
 31
0.0
  0
LINE
  5
610
330
1F
100
AcDbEntity
  8
0
  6
Continuous
 62
     7
370
    25
100
AcDbLine
 10
-11.0639005688
 20
8.9792345404
 30
0.0
 11
-424.0639005688
 21
8.9792345404
 31
0.0
  0
LINE
  5
611
330
1F
100
AcDbEntity
  8
0
  6
Continuous
 62
     7
370
    25
100
AcDbLine
 10
-424.0639005688
 20
272.9792345404
 30
0.0
 11
-424.0639005688
 21
8.9792345404
 31
0.0
  0
LINE
  5
612
330
1F
100
AcDbEntity
  8
0
  6
Continuous
 62
     7
370
    25
100
AcDbLine
 10
-55.0639005688
 20
35.9792345404
 30
0.0
 11
-55.0639005688
 21
47.9792345404
 31
0.0
  0
LINE
  5
613
330
1F
100
AcDbEntity
  8
0
  6
Continuous
 62
     7
370
    25
100
AcDbLine
 10
-55.0639005688
 20
119.4792345404
 30
0.0
 11
-49.0639005688
 21
119.4792345404
 31
0.0
  0
LINE
  5
614
330
1F
100
AcDbEntity
  8
0
  6
Continuous
 62
     7
370
    25
100
AcDbLine
 10
-49.0639005688
 20
119.4792345404
 30
0.0
 11
-49.0639005688
 21
107.4792345404
 31
0.0
  0
LINE
  5
615
330
1F
100
AcDbEntity
  8
0
  6
Continuous
 62
     7
370
    25
100
AcDbLine
 10
-49.0639005688
 20
178.9792345404
 30
0.0
 11
-55.0639005688
 21
178.9792345404
 31
0.0
  0
LINE
  5
616
330
1F
100
AcDbEntity
  8
0
  6
Continuous
 62
     7
370
    25
100
AcDbLine
 10
-55.0639005688
 20
178.9792345404
 30
0.0
 11
-55.0639005688
 21
190.9792345404
 31
0.0
  0
LINE
  5
617
330
1F
100
AcDbEntity
  8
0
  6
Continuous
 62
     7
370
    25
100
AcDbLine
 10
-55.0639005688
 20
210.9792345404
 30
0.0
 11
-55.0639005688
 21
216.9792345404
 31
0.0
  0
LINE
  5
618
330
1F
100
AcDbEntity
  8
0
  6
Continuous
 62
     7
370
    25
100
AcDbLine
 10
-60.0639005688
 20
246.9792345404
 30
0.0
 11
-95.0639005688
 21
246.9792345404
 31
0.0
  0
LINE
  5
619
330
1F
100
AcDbEntity
  8
0
  6
Continuous
 62
     7
370
    25
100
AcDbLine
 10
-410.0639005688
 20
76.9792345404
 30
0.0
 11
-410.0639005688
 21
42.9792345404
 31
0.0
  0
LINE
  5
61A
330
1F
100
AcDbEntity
  8
0
  6
Continuous
 62
     7
370
    25
100
AcDbLine
 10
-410.0639005688
 20
144.9792345404
 30
0.0
 11
-410.0639005688
 21
110.9792345404
 31
0.0
  0
LINE
  5
61B
330
1F
100
AcDbEntity
  8
0
  6
Continuous
 62
     7
370
    25
100
AcDbLine
 10
-410.0639005688
 20
212.9792345404
 30
0.0
 11
-410.0639005688
 21
178.9792345404
 31
0.0
  0
LINE
  5
61C
330
1F
100
AcDbEntity
  8
0
  6
Continuous
 62
     7
370
    25
100
AcDbLine
 10
-130.0639005688
 20
246.9792345404
 30
0.0
 11
-165.0639005688
 21
246.9792345404
 31
0.0
  0
LINE
  5
61D
330
1F
100
AcDbEntity
  8
0
  6
Continuous
 62
     7
370
    25
100
AcDbLine
 10
-49.0639005688
 20
107.4792345404
 30
0.0
 11
-55.0639005688
 21
107.4792345404
 31
0.0
  0
LINE
  5
61E
330
1F
100
AcDbEntity
  8
0
  6
Continuous
 62
     7
370
    25
100
AcDbLine
 10
-50.6678941602
 20
306.7680705807
 30
0.0
 11
-56.6678941602
 21
306.7680705807
 31
0.0
  0
LINE
  5
61F
330
1F
100
AcDbEntity
  8
0
  6
Continuous
 62
     7
370
    25
100
AcDbLine
 10
-50.6678941602
 20
306.7680705807
 30
0.0
 11
-50.6678941602
 21
318.7680705807
 31
0.0
  0
LINE
  5
620
330
1F
100
AcDbEntity
  8
0
  6
Continuous
 62
     7
370
    25
100
AcDbLine
 10
-50.6678941602
 20
318.7680705807
 30
0.0
 11
-56.6678941602
 21
318.7680705807
 31
0.0
  0
LINE
  5
621
330
1F
100
AcDbEntity
  8
0
  6
Continuous
 62
     7
370
    25
100
AcDbLine
 10
-50.6678941602
 20
485.7680705807
 30
0.0
 11
-56.6678941602
 21
485.7680705807
 31
0.0
  0
LINE
  5
622
330
1F
100
AcDbEntity
  8
0
  6
Continuous
 62
     7
370
    25
100
AcDbLine
 10
-50.6678941602
 20
485.7680705807
 30
0.0
 11
-50.6678941602
 21
497.7680705807
 31
0.0
  0
LINE
  5
623
330
1F
100
AcDbEntity
  8
0
  6
Continuous
 62
     7
370
    25
100
AcDbLine
 10
-50.6678941602
 20
497.7680705807
 30
0.0
 11
-56.6678941602
 21
497.7680705807
 31
0.0
  0
LINE
  5
624
330
1F
100
AcDbEntity
  8
0
  6
Continuous
 62
     7
370
    25
100
AcDbLine
 10
-56.6678941602
 20
485.7680705807
 30
0.0
 11
-56.6678941602
 21
497.7680705807
 31
0.0
  0
LINE
  5
625
330
1F
100
AcDbEntity
  8
0
  6
Continuous
 62
     7
370
    25
100
AcDbLine
 10
-20.6678941602
 20
313.7680705807
 30
0.0
 11
-20.6678941602
 21
347.7680705807
 31
0.0
  0
LINE
  5
626
330
1F
100
AcDbEntity
  8
0
  6
Continuous
 62
     7
370
    25
100
AcDbLine
 10
-20.6678941602
 20
381.7680705807
 30
0.0
 11
-20.6678941602
 21
415.7680705807
 31
0.0
  0
LINE
  5
627
330
1F
100
AcDbEntity
  8
0
  6
Continuous
 62
     7
370
    25
100
AcDbLine
 10
-20.6678941602
 20
449.7680705807
 30
0.0
 11
-20.6678941602
 21
483.7680705807
 31
0.0
  0
LINE
  5
628
330
1F
100
AcDbEntity
  8
0
  6
Continuous
 62
     7
370
    25
100
AcDbLine
 10
-411.6678941602
 20
347.7680705807
 30
0.0
 11
-411.6678941602
 21
313.7680705807
 31
0.0
  0
LINE
  5
629
330
1F
100
AcDbEntity
  8
0
  6
Continuous
 62
     7
370
    25
100
AcDbLine
 10
-417.6678941602
 20
347.7680705807
 30
0.0
 11
-411.6678941602
 21
347.7680705807
 31
0.0
  0
LINE
  5
62A
330
1F
100
AcDbEntity
  8
0
  6
Continuous
 62
     7
370
    25
100
AcDbLine
 10
-417.6678941602
 20
313.7680705807
 30
0.0
 11
-417.6678941602
 21
347.7680705807
 31
0.0
  0
LINE
  5
62B
330
1F
100
AcDbEntity
  8
0
  6
Continuous
 62
     7
370
    25
100
AcDbLine
 10
-417.6678941602
 20
313.7680705807
 30
0.0
 11
-411.6678941602
 21
313.7680705807
 31
0.0
  0
LINE
  5
62C
330
1F
100
AcDbEntity
  8
0
  6
Continuous
 62
     7
370
    25
100
AcDbLine
 10
-417.6678941602
 20
381.7680705807
 30
0.0
 11
-417.6678941602
 21
415.7680705807
 31
0.0
  0
LINE
  5
62D
330
1F
100
AcDbEntity
  8
0
  6
Continuous
 62
     7
370
    25
100
AcDbLine
 10
-417.6678941602
 20
381.7680705807
 30
0.0
 11
-411.6678941602
 21
381.7680705807
 31
0.0
  0
LINE
  5
62E
330
1F
100
AcDbEntity
  8
0
  6
Continuous
 62
     7
370
    25
100
AcDbLine
 10
-417.6678941602
 20
449.7680705807
 30
0.0
 11
-417.6678941602
 21
483.7680705807
 31
0.0
  0
LINE
  5
62F
330
1F
100
AcDbEntity
  8
0
  6
Continuous
 62
     7
370
    25
100
AcDbLine
 10
-417.6678941602
 20
449.7680705807
 30
0.0
 11
-411.6678941602
 21
449.7680705807
 31
0.0
  0
LINE
  5
630
330
1F
100
AcDbEntity
  8
0
  6
Continuous
 62
     7
370
    25
100
AcDbLine
 10
-306.6678941602
 20
517.7680705807
 30
0.0
 11
-271.6678941602
 21
517.7680705807
 31
0.0
  0
LINE
  5
631
330
1F
100
AcDbEntity
  8
0
  6
Continuous
 62
     7
370
    25
100
AcDbLine
 10
-236.6678941602
 20
517.7680705807
 30
0.0
 11
-201.6678941602
 21
517.7680705807
 31
0.0
  0
LINE
  5
632
330
1F
100
AcDbEntity
  8
0
  6
Continuous
 62
     7
370
    25
100
AcDbLine
 10
-166.6678941602
 20
517.7680705807
 30
0.0
 11
-131.6678941602
 21
517.7680705807
 31
0.0
  0
LINE
  5
633
330
1F
100
AcDbEntity
  8
0
  6
Continuous
 62
     7
370
    25
100
AcDbLine
 10
-96.6678941602
 20
517.7680705807
 30
0.0
 11
-61.6678941602
 21
517.7680705807
 31
0.0
  0
LINE
  5
634
330
1F
100
AcDbEntity
  8
0
  6
Continuous
 62
     7
370
    25
100
AcDbLine
 10
-387.6678941602
 20
318.7680705807
 30
0.0
 11
-387.6678941602
 21
306.7680705807
 31
0.0
  0
LINE
  5
635
330
1F
100
AcDbEntity
  8
0
  6
Continuous
 62
     7
370
    25
100
AcDbLine
 10
-387.6678941602
 20
306.7680705807
 30
0.0
 11
-381.6678941602
 21
306.7680705807
 31
0.0
  0
LINE
  5
636
330
1F
100
AcDbEntity
  8
0
  6
Continuous
 62
     7
370
    25
100
AcDbLine
 10
-381.6678941602
 20
306.7680705807
 30
0.0
 11
-381.6678941602
 21
318.7680705807
 31
0.0
  0
LINE
  5
637
330
1F
100
AcDbEntity
  8
0
  6
Continuous
 62
     7
370
    25
100
AcDbLine
 10
-381.6678941602
 20
318.7680705807
 30
0.0
 11
-387.6678941602
 21
318.7680705807
 31
0.0
  0
LINE
  5
638
330
1F
100
AcDbEntity
  8
0
  6
Continuous
 62
     7
370
    25
100
AcDbLine
 10
-387.6678941602
 20
390.2680705807
 30
0.0
 11
-387.6678941602
 21
378.2680705807
 31
0.0
  0
LINE
  5
639
330
1F
100
AcDbEntity
  8
0
  6
Continuous
 62
     7
370
    25
100
AcDbLine
 10
-387.6678941602
 20
378.2680705807
 30
0.0
 11
-381.6678941602
 21
378.2680705807
 31
0.0
  0
LINE
  5
63A
330
1F
100
AcDbEntity
  8
0
  6
Continuous
 62
     7
370
    25
100
AcDbLine
 10
-381.6678941602
 20
378.2680705807
 30
0.0
 11
-381.6678941602
 21
390.2680705807
 31
0.0
  0
LINE
  5
63B
330
1F
100
AcDbEntity
  8
0
  6
Continuous
 62
     7
370
    25
100
AcDbLine
 10
-381.6678941602
 20
390.2680705807
 30
0.0
 11
-387.6678941602
 21
390.2680705807
 31
0.0
  0
LINE
  5
63C
330
1F
100
AcDbEntity
  8
0
  6
Continuous
 62
     7
370
    25
100
AcDbLine
 10
-387.6678941602
 20
461.7680705807
 30
0.0
 11
-387.6678941602
 21
449.7680705807
 31
0.0
  0
LINE
  5
63D
330
1F
100
AcDbEntity
  8
0
  6
Continuous
 62
     7
370
    25
100
AcDbLine
 10
-387.6678941602
 20
449.7680705807
 30
0.0
 11
-381.6678941602
 21
449.7680705807
 31
0.0
  0
LINE
  5
63E
330
1F
100
AcDbEntity
  8
0
  6
Continuous
 62
     7
370
    25
100
AcDbLine
 10
-381.6678941602
 20
449.7680705807
 30
0.0
 11
-381.6678941602
 21
461.7680705807
 31
0.0
  0
LINE
  5
63F
330
1F
100
AcDbEntity
  8
0
  6
Continuous
 62
     7
370
    25
100
AcDbLine
 10
-391.6678941602
 20
487.7680705807
 30
0.0
 11
-391.6678941602
 21
481.7680705807
 31
0.0
  0
LINE
  5
640
330
1F
100
AcDbEntity
  8
0
  6
Continuous
 62
     7
370
    25
100
AcDbLine
 10
-391.6678941602
 20
481.7680705807
 30
0.0
 11
-381.6678941602
 21
481.7680705807
 31
0.0
  0
LINE
  5
641
330
1F
100
AcDbEntity
  8
0
  6
Continuous
 62
     7
370
    25
100
AcDbLine
 10
-381.6678941602
 20
481.7680705807
 30
0.0
 11
-381.6678941602
 21
487.7680705807
 31
0.0
  0
LINE
  5
642
330
1F
100
AcDbEntity
  8
0
  6
Continuous
 62
     7
370
    25
100
AcDbLine
 10
-381.6678941602
 20
487.7680705807
 30
0.0
 11
-391.6678941602
 21
487.7680705807
 31
0.0
  0
LINE
  5
643
330
1F
100
AcDbEntity
  8
0
  6
Continuous
 62
     7
370
    25
100
AcDbLine
 10
-12.6678941602
 20
279.7680705807
 30
0.0
 11
-12.6678941602
 21
543.7680705807
 31
0.0
  0
LINE
  5
644
330
1F
100
AcDbEntity
  8
0
  6
Continuous
 62
     7
370
    25
100
AcDbLine
 10
-425.6678941602
 20
279.7680705807
 30
0.0
 11
-12.6678941602
 21
279.7680705807
 31
0.0
  0
LINE
  5
645
330
1F
100
AcDbEntity
  8
0
  6
Continuous
 62
     7
370
    25
100
AcDbLine
 10
-425.6678941602
 20
279.7680705807
 30
0.0
 11
-425.6678941602
 21
543.7680705807
 31
0.0
  0
LINE
  5
646
330
1F
100
AcDbEntity
  8
0
  6
Continuous
 62
     7
370
    25
100
AcDbLine
 10
-50.6678941602
 20
396.2680705807
 30
0.0
 11
-56.6678941602
 21
396.2680705807
 31
0.0
  0
LINE
  5
647
330
1F
100
AcDbEntity
  8
0
  6
Continuous
 62
     7
370
    25
100
AcDbLine
 10
-50.6678941602
 20
396.2680705807
 30
0.0
 11
-50.6678941602
 21
408.2680705807
 31
0.0
  0
LINE
  5
648
330
1F
100
AcDbEntity
  8
0
  6
Continuous
 62
     7
370
    25
100
AcDbLine
 10
-50.6678941602
 20
408.2680705807
 30
0.0
 11
-56.6678941602
 21
408.2680705807
 31
0.0
  0
LINE
  5
649
330
1F
100
AcDbEntity
  8
0
  6
Continuous
 62
     7
370
    25
100
AcDbLine
 10
-56.6678941602
 20
396.2680705807
 30
0.0
 11
-56.6678941602
 21
408.2680705807
 31
0.0
  0
LINE
  5
64A
330
1F
100
AcDbEntity
  8
0
  6
Continuous
 62
     7
370
    25
100
AcDbLine
 10
-56.6678941602
 20
306.7680705807
 30
0.0
 11
-56.6678941602
 21
318.7680705807
 31
0.0
  0
LINE
  5
64B
330
1F
100
AcDbEntity
  8
0
  6
Continuous
 62
     7
370
    25
100
AcDbLine
 10
-26.6678941602
 20
483.7680705807
 30
0.0
 11
-26.6678941602
 21
449.7680705807
 31
0.0
  0
LINE
  5
64C
330
1F
100
AcDbEntity
  8
0
  6
Continuous
 62
     7
370
    25
100
AcDbLine
 10
-376.6678941602
 20
517.7680705807
 30
0.0
 11
-341.6678941602
 21
517.7680705807
 31
0.0
  0
LINE
  5
64D
330
1F
100
AcDbEntity
  8
0
  6
Continuous
 62
     7
370
    25
100
AcDbLine
 10
-12.6678941602
 20
543.7680705807
 30
0.0
 11
-80.6678941602
 21
543.7680705807
 31
0.0
  0
LINE
  5
64E
330
1F
100
AcDbEntity
  8
0
  6
Continuous
 62
     7
370
    25
100
AcDbLine
 10
-339.3375913804
 20
531.7680705807
 30
0.0
 11
-98.99819694
 21
531.7680705807
 31
0.0
  0
LINE
  5
64F
330
1F
100
AcDbEntity
  8
0
  6
Continuous
 62
     7
370
    25
100
AcDbLine
 10
-425.6678941602
 20
543.7680705807
 30
0.0
 11
-357.6678941602
 21
543.7680705807
 31
0.0
  0
LINE
  5
650
330
1F
100
AcDbEntity
  8
0
  6
Continuous
 62
     7
370
    25
100
AcDbLine
 10
-96.6678941602
 20
523.7680705807
 30
0.0
 11
-61.6678941602
 21
523.7680705807
 31
0.0
  0
LINE
  5
651
330
1F
100
AcDbEntity
  8
0
  6
Continuous
 62
     7
370
    25
100
AcDbLine
 10
-166.6678941602
 20
523.7680705807
 30
0.0
 11
-131.6678941602
 21
523.7680705807
 31
0.0
  0
LINE
  5
652
330
1F
100
AcDbEntity
  8
0
  6
Continuous
 62
     7
370
    25
100
AcDbLine
 10
-236.6678941602
 20
523.7680705807
 30
0.0
 11
-201.6678941602
 21
523.7680705807
 31
0.0
  0
LINE
  5
653
330
1F
100
AcDbEntity
  8
0
  6
Continuous
 62
     7
370
    25
100
AcDbLine
 10
-306.6678941602
 20
523.7680705807
 30
0.0
 11
-271.6678941602
 21
523.7680705807
 31
0.0
  0
LINE
  5
654
330
1F
100
AcDbEntity
  8
0
  6
Continuous
 62
     7
370
    25
100
AcDbLine
 10
-376.6678941602
 20
523.7680705807
 30
0.0
 11
-341.6678941602
 21
523.7680705807
 31
0.0
  0
LINE
  5
655
330
1F
100
AcDbEntity
  8
0
  6
Continuous
 62
     7
370
    25
100
AcDbLine
 10
-61.6678941602
 20
523.7680705807
 30
0.0
 11
-61.6678941602
 21
517.7680705807
 31
0.0
  0
LINE
  5
656
330
1F
100
AcDbEntity
  8
0
  6
Continuous
 62
     7
370
    25
100
AcDbLine
 10
-131.6678941602
 20
523.7680705807
 30
0.0
 11
-131.6678941602
 21
517.7680705807
 31
0.0
  0
LINE
  5
657
330
1F
100
AcDbEntity
  8
0
  6
Continuous
 62
     7
370
    25
100
AcDbLine
 10
-96.6678941602
 20
523.7680705807
 30
0.0
 11
-96.6678941602
 21
517.7680705807
 31
0.0
  0
LINE
  5
658
330
1F
100
AcDbEntity
  8
0
  6
Continuous
 62
     7
370
    25
100
AcDbLine
 10
-201.6678941602
 20
523.7680705807
 30
0.0
 11
-201.6678941602
 21
517.7680705807
 31
0.0
  0
LINE
  5
659
330
1F
100
AcDbEntity
  8
0
  6
Continuous
 62
     7
370
    25
100
AcDbLine
 10
-166.6678941602
 20
523.7680705807
 30
0.0
 11
-166.6678941602
 21
517.7680705807
 31
0.0
  0
LINE
  5
65A
330
1F
100
AcDbEntity
  8
0
  6
Continuous
 62
     7
370
    25
100
AcDbLine
 10
-271.6678941602
 20
523.7680705807
 30
0.0
 11
-271.6678941602
 21
517.7680705807
 31
0.0
  0
LINE
  5
65B
330
1F
100
AcDbEntity
  8
0
  6
Continuous
 62
     7
370
    25
100
AcDbLine
 10
-236.6678941602
 20
523.7680705807
 30
0.0
 11
-236.6678941602
 21
517.7680705807
 31
0.0
  0
LINE
  5
65C
330
1F
100
AcDbEntity
  8
0
  6
Continuous
 62
     7
370
    25
100
AcDbLine
 10
-341.6678941602
 20
523.7680705807
 30
0.0
 11
-341.6678941602
 21
517.7680705807
 31
0.0
  0
LINE
  5
65D
330
1F
100
AcDbEntity
  8
0
  6
Continuous
 62
     7
370
    25
100
AcDbLine
 10
-306.6678941602
 20
523.7680705807
 30
0.0
 11
-306.6678941602
 21
517.7680705807
 31
0.0
  0
LINE
  5
65E
330
1F
100
AcDbEntity
  8
0
  6
Continuous
 62
     7
370
    25
100
AcDbLine
 10
-376.6678941602
 20
523.7680705807
 30
0.0
 11
-376.6678941602
 21
517.7680705807
 31
0.0
  0
LINE
  5
65F
330
1F
100
AcDbEntity
  8
0
  6
Continuous
 62
     7
370
    25
100
AcDbLine
 10
-20.6678941602
 20
483.7680705807
 30
0.0
 11
-26.6678941602
 21
483.7680705807
 31
0.0
  0
LINE
  5
660
330
1F
100
AcDbEntity
  8
0
  6
Continuous
 62
     7
370
    25
100
AcDbLine
 10
-20.6678941602
 20
415.7680705807
 30
0.0
 11
-26.6678941602
 21
415.7680705807
 31
0.0
  0
LINE
  5
661
330
1F
100
AcDbEntity
  8
0
  6
Continuous
 62
     7
370
    25
100
AcDbLine
 10
-20.6678941602
 20
449.7680705807
 30
0.0
 11
-26.6678941602
 21
449.7680705807
 31
0.0
  0
LINE
  5
662
330
1F
100
AcDbEntity
  8
0
  6
Continuous
 62
     7
370
    25
100
AcDbLine
 10
-20.6678941602
 20
347.7680705807
 30
0.0
 11
-26.6678941602
 21
347.7680705807
 31
0.0
  0
LINE
  5
663
330
1F
100
AcDbEntity
  8
0
  6
Continuous
 62
     7
370
    25
100
AcDbLine
 10
-20.6678941602
 20
381.7680705807
 30
0.0
 11
-26.6678941602
 21
381.7680705807
 31
0.0
  0
LINE
  5
664
330
1F
100
AcDbEntity
  8
0
  6
Continuous
 62
     7
370
    25
100
AcDbLine
 10
-20.6678941602
 20
313.7680705807
 30
0.0
 11
-26.6678941602
 21
313.7680705807
 31
0.0
  0
LINE
  5
665
330
1F
100
AcDbEntity
  8
0
  6
Continuous
 62
     7
370
    25
100
AcDbLine
 10
-417.6678941602
 20
483.7680705807
 30
0.0
 11
-411.6678941602
 21
483.7680705807
 31
0.0
  0
LINE
  5
666
330
1F
100
AcDbEntity
  8
0
  6
Continuous
 62
     7
370
    25
100
AcDbLine
 10
-417.6678941602
 20
415.7680705807
 30
0.0
 11
-411.6678941602
 21
415.7680705807
 31
0.0
  0
LINE
  5
667
330
1F
100
AcDbEntity
  8
0
  6
Continuous
 62
     7
370
    25
100
AcDbLine
 10
-381.6678941602
 20
461.7680705807
 30
0.0
 11
-387.6678941602
 21
461.7680705807
 31
0.0
  0
LINE
  5
668
330
1F
100
AcDbEntity
  8
0
  6
Continuous
 62
     7
370
    25
100
AcDbLine
 10
-411.6678941602
 20
415.7680705807
 30
0.0
 11
-411.6678941602
 21
381.7680705807
 31
0.0
  0
LINE
  5
669
330
1F
100
AcDbEntity
  8
0
  6
Continuous
 62
     7
370
    25
100
AcDbLine
 10
-411.6678941602
 20
483.7680705807
 30
0.0
 11
-411.6678941602
 21
449.7680705807
 31
0.0
  0
LINE
  5
66A
330
1F
100
AcDbEntity
  8
0
  6
Continuous
 62
     7
370
    25
100
AcDbLine
 10
-26.6678941602
 20
347.7680705807
 30
0.0
 11
-26.6678941602
 21
313.7680705807
 31
0.0
  0
LINE
  5
66B
330
1F
100
AcDbEntity
  8
0
  6
Continuous
 62
     7
370
    25
100
AcDbLine
 10
-26.6678941602
 20
415.7680705807
 30
0.0
 11
-26.6678941602
 21
381.7680705807
 31
0.0
  0
LINE
  5
66C
330
1F
100
AcDbEntity
  8
0
  6
Continuous
 62
     7
370
    25
100
AcDbLine
 10
-472.0344230674
 20
40.0476827108
 30
0.0
 11
-466.0344230674
 21
40.0476827108
 31
0.0
  0
LINE
  5
66D
330
1F
100
AcDbEntity
  8
0
  6
Continuous
 62
     7
370
    25
100
AcDbLine
 10
-472.0344230674
 20
40.0476827108
 30
0.0
 11
-472.0344230674
 21
28.0476827108
 31
0.0
  0
LINE
  5
66E
330
1F
100
AcDbEntity
  8
0
  6
Continuous
 62
     7
370
    25
100
AcDbLine
 10
-466.0344230674
 20
40.0476827108
 30
0.0
 11
-466.0344230674
 21
28.0476827108
 31
0.0
  0
LINE
  5
66F
330
1F
100
AcDbEntity
  8
0
  6
Continuous
 62
     7
370
    25
100
AcDbLine
 10
-472.0344230674
 20
104.5476827108
 30
0.0
 11
-466.0344230674
 21
104.5476827108
 31
0.0
  0
LINE
  5
670
330
1F
100
AcDbEntity
  8
0
  6
Continuous
 62
     7
370
    25
100
AcDbLine
 10
-645.0344230674
 20
40.0476827108
 30
0.0
 11
-651.0344230674
 21
40.0476827108
 31
0.0
  0
LINE
  5
671
330
1F
100
AcDbEntity
  8
0
  6
Continuous
 62
     7
370
    25
100
AcDbLine
 10
-681.0344230674
 20
38.5476827108
 30
0.0
 11
-681.0344230674
 21
61.0476827108
 31
0.0
  0
LINE
  5
672
330
1F
100
AcDbEntity
  8
0
  6
Continuous
 62
     7
370
    25
100
AcDbLine
 10
-687.0344230674
 20
38.5476827108
 30
0.0
 11
-687.0344230674
 21
61.0476827108
 31
0.0
  0
LINE
  5
673
330
1F
100
AcDbEntity
  8
0
  6
Continuous
 62
     7
370
    25
100
AcDbLine
 10
-651.0344230674
 20
104.5476827108
 30
0.0
 11
-645.0344230674
 21
104.5476827108
 31
0.0
  0
LINE
  5
674
330
1F
100
AcDbEntity
  8
0
  6
Continuous
 62
     7
370
    25
100
AcDbLine
 10
-651.0344230674
 20
104.5476827108
 30
0.0
 11
-651.0344230674
 21
116.5476827108
 31
0.0
  0
LINE
  5
675
330
1F
100
AcDbEntity
  8
0
  6
Continuous
 62
     7
370
    25
100
AcDbLine
 10
-681.0344230674
 20
83.5476827108
 30
0.0
 11
-681.0344230674
 21
106.0476827108
 31
0.0
  0
LINE
  5
676
330
1F
100
AcDbEntity
  8
0
  6
Continuous
 62
     7
370
    25
100
AcDbLine
 10
-687.0344230674
 20
83.5476827108
 30
0.0
 11
-687.0344230674
 21
106.0476827108
 31
0.0
  0
LINE
  5
677
330
1F
100
AcDbEntity
  8
0
  6
Continuous
 62
     7
370
    25
100
AcDbLine
 10
-687.0344230674
 20
83.5476827108
 30
0.0
 11
-681.0344230674
 21
83.5476827108
 31
0.0
  0
LINE
  5
678
330
1F
100
AcDbEntity
  8
0
  6
Continuous
 62
     7
370
    25
100
AcDbLine
 10
-647.0344230674
 20
134.5476827108
 30
0.0
 11
-647.0344230674
 21
128.5476827108
 31
0.0
  0
LINE
  5
679
330
1F
100
AcDbEntity
  8
0
  6
Continuous
 62
     7
370
    25
100
AcDbLine
 10
-647.0344230674
 20
134.5476827108
 30
0.0
 11
-613.0344230674
 21
134.5476827108
 31
0.0
  0
LINE
  5
67A
330
1F
100
AcDbEntity
  8
0
  6
Continuous
 62
     7
370
    25
100
AcDbLine
 10
-613.0344230674
 20
134.5476827108
 30
0.0
 11
-613.0344230674
 21
128.5476827108
 31
0.0
  0
LINE
  5
67B
330
1F
100
AcDbEntity
  8
0
  6
Continuous
 62
     7
370
    25
100
AcDbLine
 10
-613.0344230674
 20
128.5476827108
 30
0.0
 11
-579.0344230674
 21
128.5476827108
 31
0.0
  0
LINE
  5
67C
330
1F
100
AcDbEntity
  8
0
  6
Continuous
 62
     7
370
    25
100
AcDbLine
 10
-579.0344230674
 20
134.5476827108
 30
0.0
 11
-579.0344230674
 21
128.5476827108
 31
0.0
  0
LINE
  5
67D
330
1F
100
AcDbEntity
  8
0
  6
Continuous
 62
     7
370
    25
100
AcDbLine
 10
-579.0344230674
 20
134.5476827108
 30
0.0
 11
-545.0344230674
 21
134.5476827108
 31
0.0
  0
LINE
  5
67E
330
1F
100
AcDbEntity
  8
0
  6
Continuous
 62
     7
370
    25
100
AcDbLine
 10
-545.0344230674
 20
134.5476827108
 30
0.0
 11
-545.0344230674
 21
128.5476827108
 31
0.0
  0
LINE
  5
67F
330
1F
100
AcDbEntity
  8
0
  6
Continuous
 62
     7
370
    25
100
AcDbLine
 10
-545.0344230674
 20
128.5476827108
 30
0.0
 11
-511.0344230674
 21
128.5476827108
 31
0.0
  0
LINE
  5
680
330
1F
100
AcDbEntity
  8
0
  6
Continuous
 62
     7
370
    25
100
AcDbLine
 10
-511.0344230674
 20
134.5476827108
 30
0.0
 11
-511.0344230674
 21
128.5476827108
 31
0.0
  0
LINE
  5
681
330
1F
100
AcDbEntity
  8
0
  6
Continuous
 62
     7
370
    25
100
AcDbLine
 10
-511.0344230674
 20
134.5476827108
 30
0.0
 11
-477.0344230674
 21
134.5476827108
 31
0.0
  0
LINE
  5
682
330
1F
100
AcDbEntity
  8
0
  6
Continuous
 62
     7
370
    25
100
AcDbLine
 10
-477.0344230674
 20
134.5476827108
 30
0.0
 11
-477.0344230674
 21
128.5476827108
 31
0.0
  0
LINE
  5
683
330
1F
100
AcDbEntity
  8
0
  6
Continuous
 62
     7
370
    25
100
AcDbLine
 10
-477.0344230674
 20
128.5476827108
 30
0.0
 11
-443.0344230674
 21
128.5476827108
 31
0.0
  0
LINE
  5
684
330
1F
100
AcDbEntity
  8
0
  6
Continuous
 62
     7
370
    25
100
AcDbLine
 10
-443.0344230674
 20
128.5476827108
 30
0.0
 11
-443.0344230674
 21
16.0476827108
 31
0.0
  0
LINE
  5
685
330
1F
100
AcDbEntity
  8
0
  6
Continuous
 62
     7
370
    25
100
AcDbLine
 10
-443.0344230674
 20
16.0476827108
 30
0.0
 11
-477.0344230674
 21
16.0476827108
 31
0.0
  0
LINE
  5
686
330
1F
100
AcDbEntity
  8
0
  6
Continuous
 62
     7
370
    25
100
AcDbLine
 10
-477.0344230674
 20
10.0476827108
 30
0.0
 11
-477.0344230674
 21
16.0476827108
 31
0.0
  0
LINE
  5
687
330
1F
100
AcDbEntity
  8
0
  6
Continuous
 62
     7
370
    25
100
AcDbLine
 10
-511.0344230674
 20
10.0476827108
 30
0.0
 11
-477.0344230674
 21
10.0476827108
 31
0.0
  0
LINE
  5
688
330
1F
100
AcDbEntity
  8
0
  6
Continuous
 62
     7
370
    25
100
AcDbLine
 10
-511.0344230674
 20
10.0476827108
 30
0.0
 11
-511.0344230674
 21
16.0476827108
 31
0.0
  0
LINE
  5
689
330
1F
100
AcDbEntity
  8
0
  6
Continuous
 62
     7
370
    25
100
AcDbLine
 10
-511.0344230674
 20
16.0476827108
 30
0.0
 11
-545.0344230674
 21
16.0476827108
 31
0.0
  0
LINE
  5
68A
330
1F
100
AcDbEntity
  8
0
  6
Continuous
 62
     7
370
    25
100
AcDbLine
 10
-579.0344230674
 20
10.0476827108
 30
0.0
 11
-545.0344230674
 21
10.0476827108
 31
0.0
  0
LINE
  5
68B
330
1F
100
AcDbEntity
  8
0
  6
Continuous
 62
     7
370
    25
100
AcDbLine
 10
-579.0344230674
 20
10.0476827108
 30
0.0
 11
-579.0344230674
 21
16.0476827108
 31
0.0
  0
LINE
  5
68C
330
1F
100
AcDbEntity
  8
0
  6
Continuous
 62
     7
370
    25
100
AcDbLine
 10
-579.0344230674
 20
16.0476827108
 30
0.0
 11
-613.0344230674
 21
16.0476827108
 31
0.0
  0
LINE
  5
68D
330
1F
100
AcDbEntity
  8
0
  6
Continuous
 62
     7
370
    25
100
AcDbLine
 10
-613.0344230674
 20
10.0476827108
 30
0.0
 11
-613.0344230674
 21
16.0476827108
 31
0.0
  0
LINE
  5
68E
330
1F
100
AcDbEntity
  8
0
  6
Continuous
 62
     7
370
    25
100
AcDbLine
 10
-647.0344230674
 20
10.0476827108
 30
0.0
 11
-613.0344230674
 21
10.0476827108
 31
0.0
  0
LINE
  5
68F
330
1F
100
AcDbEntity
  8
0
  6
Continuous
 62
     7
370
    25
100
AcDbLine
 10
-647.0344230674
 20
10.0476827108
 30
0.0
 11
-647.0344230674
 21
16.0476827108
 31
0.0
  0
LINE
  5
690
330
1F
100
AcDbEntity
  8
0
  6
Continuous
 62
     7
370
    25
100
AcDbLine
 10
-647.0344230674
 20
16.0476827108
 30
0.0
 11
-695.0344230674
 21
16.0476827108
 31
0.0
  0
LINE
  5
691
330
1F
100
AcDbEntity
  8
0
  6
Continuous
 62
     7
370
    25
100
AcDbLine
 10
-695.0344230674
 20
16.0476827108
 30
0.0
 11
-695.0344230674
 21
128.5476827108
 31
0.0
  0
LINE
  5
692
330
1F
100
AcDbEntity
  8
0
  6
Continuous
 62
     7
370
    25
100
AcDbLine
 10
-695.0344230674
 20
128.5476827108
 30
0.0
 11
-647.0344230674
 21
128.5476827108
 31
0.0
  0
LINE
  5
693
330
1F
100
AcDbEntity
  8
0
  6
Continuous
 62
     7
370
    25
100
AcDbLine
 10
-472.0344230674
 20
28.0476827108
 30
0.0
 11
-466.0344230674
 21
28.0476827108
 31
0.0
  0
LINE
  5
694
330
1F
100
AcDbEntity
  8
0
  6
Continuous
 62
     7
370
    25
100
AcDbLine
 10
-472.0344230674
 20
116.5476827108
 30
0.0
 11
-472.0344230674
 21
104.5476827108
 31
0.0
  0
LINE
  5
695
330
1F
100
AcDbEntity
  8
0
  6
Continuous
 62
     7
370
    25
100
AcDbLine
 10
-472.0344230674
 20
116.5476827108
 30
0.0
 11
-466.0344230674
 21
116.5476827108
 31
0.0
  0
LINE
  5
696
330
1F
100
AcDbEntity
  8
0
  6
Continuous
 62
     7
370
    25
100
AcDbLine
 10
-466.0344230674
 20
116.5476827108
 30
0.0
 11
-466.0344230674
 21
104.5476827108
 31
0.0
  0
LINE
  5
697
330
1F
100
AcDbEntity
  8
0
  6
Continuous
 62
     7
370
    25
100
AcDbLine
 10
-687.0344230674
 20
38.5476827108
 30
0.0
 11
-681.0344230674
 21
38.5476827108
 31
0.0
  0
LINE
  5
698
330
1F
100
AcDbEntity
  8
0
  6
Continuous
 62
     7
370
    25
100
AcDbLine
 10
-687.0344230674
 20
61.0476827108
 30
0.0
 11
-681.0344230674
 21
61.0476827108
 31
0.0
  0
LINE
  5
699
330
1F
100
AcDbEntity
  8
0
  6
Continuous
 62
     7
370
    25
100
AcDbLine
 10
-687.0344230674
 20
106.0476827108
 30
0.0
 11
-681.0344230674
 21
106.0476827108
 31
0.0
  0
LINE
  5
69A
330
1F
100
AcDbEntity
  8
0
  6
Continuous
 62
     7
370
    25
100
AcDbLine
 10
-645.0344230674
 20
28.0476827108
 30
0.0
 11
-645.0344230674
 21
40.0476827108
 31
0.0
  0
LINE
  5
69B
330
1F
100
AcDbEntity
  8
0
  6
Continuous
 62
     7
370
    25
100
AcDbLine
 10
-645.0344230674
 20
28.0476827108
 30
0.0
 11
-651.0344230674
 21
28.0476827108
 31
0.0
  0
LINE
  5
69C
330
1F
100
AcDbEntity
  8
0
  6
Continuous
 62
     7
370
    25
100
AcDbLine
 10
-651.0344230674
 20
28.0476827108
 30
0.0
 11
-651.0344230674
 21
40.0476827108
 31
0.0
  0
LINE
  5
69D
330
1F
100
AcDbEntity
  8
0
  6
Continuous
 62
     7
370
    25
100
AcDbLine
 10
-651.0344230674
 20
116.5476827108
 30
0.0
 11
-645.0344230674
 21
116.5476827108
 31
0.0
  0
LINE
  5
69E
330
1F
100
AcDbEntity
  8
0
  6
Continuous
 62
     7
370
    25
100
AcDbLine
 10
-645.0344230674
 20
104.5476827108
 30
0.0
 11
-645.0344230674
 21
116.5476827108
 31
0.0
  0
LINE
  5
69F
330
1F
100
AcDbEntity
  8
0
  6
Continuous
 62
     7
370
    25
100
AcDbLine
 10
-545.0344230674
 20
10.0476827108
 30
0.0
 11
-545.0344230674
 21
16.0476827108
 31
0.0
  0
LINE
  5
6A0
330
1F
100
AcDbEntity
  8
0
  6
Continuous
 62
     7
370
    25
100
AcDbLine
 10
-52.1501513449
 20
748.3466092155
 30
0.0
 11
-17.1501513449
 21
748.3466092155
 31
0.0
  0
LINE
  5
6A1
330
1F
100
AcDbEntity
  8
0
  6
Continuous
 62
     7
370
    25
100
AcDbLine
 10
-52.1501513449
 20
742.3466092155
 30
0.0
 11
-52.1501513449
 21
748.3466092155
 31
0.0
  0
LINE
  5
6A2
330
1F
100
AcDbEntity
  8
0
  6
Continuous
 62
     7
370
    25
100
AcDbLine
 10
-87.1501513449
 20
742.3466092155
 30
0.0
 11
-52.1501513449
 21
742.3466092155
 31
0.0
  0
LINE
  5
6A3
330
1F
100
AcDbEntity
  8
0
  6
Continuous
 62
     7
370
    25
100
AcDbLine
 10
-87.1501513449
 20
742.3466092155
 30
0.0
 11
-87.1501513449
 21
748.3466092155
 31
0.0
  0
LINE
  5
6A4
330
1F
100
AcDbEntity
  8
0
  6
Continuous
 62
     7
370
    25
100
AcDbLine
 10
-122.1501513449
 20
748.3466092155
 30
0.0
 11
-87.1501513449
 21
748.3466092155
 31
0.0
  0
LINE
  5
6A5
330
1F
100
AcDbEntity
  8
0
  6
Continuous
 62
     7
370
    25
100
AcDbLine
 10
-122.1501513449
 20
742.3466092155
 30
0.0
 11
-122.1501513449
 21
748.3466092155
 31
0.0
  0
LINE
  5
6A6
330
1F
100
AcDbEntity
  8
0
  6
Continuous
 62
     7
370
    25
100
AcDbLine
 10
-157.1501513449
 20
742.3466092155
 30
0.0
 11
-122.1501513449
 21
742.3466092155
 31
0.0
  0
LINE
  5
6A7
330
1F
100
AcDbEntity
  8
0
  6
Continuous
 62
     7
370
    25
100
AcDbLine
 10
-157.1501513449
 20
742.3466092155
 30
0.0
 11
-157.1501513449
 21
748.3466092155
 31
0.0
  0
LINE
  5
6A8
330
1F
100
AcDbEntity
  8
0
  6
Continuous
 62
     7
370
    25
100
AcDbLine
 10
-192.1501513449
 20
742.3466092155
 30
0.0
 11
-192.1501513449
 21
748.3466092155
 31
0.0
  0
LINE
  5
6A9
330
1F
100
AcDbEntity
  8
0
  6
Continuous
 62
     7
370
    25
100
AcDbLine
 10
-227.1501513449
 20
742.3466092155
 30
0.0
 11
-192.1501513449
 21
742.3466092155
 31
0.0
  0
LINE
  5
6AA
330
1F
100
AcDbEntity
  8
0
  6
Continuous
 62
     7
370
    25
100
AcDbLine
 10
-227.1501513449
 20
742.3466092155
 30
0.0
 11
-227.1501513449
 21
748.3466092155
 31
0.0
  0
LINE
  5
6AB
330
1F
100
AcDbEntity
  8
0
  6
Continuous
 62
     7
370
    25
100
AcDbLine
 10
-262.1501513449
 20
748.3466092155
 30
0.0
 11
-227.1501513449
 21
748.3466092155
 31
0.0
  0
LINE
  5
6AC
330
1F
100
AcDbEntity
  8
0
  6
Continuous
 62
     7
370
    25
100
AcDbLine
 10
-262.1501513449
 20
742.3466092155
 30
0.0
 11
-262.1501513449
 21
748.3466092155
 31
0.0
  0
LINE
  5
6AD
330
1F
100
AcDbEntity
  8
0
  6
Continuous
 62
     7
370
    25
100
AcDbLine
 10
-297.1501513449
 20
742.3466092155
 30
0.0
 11
-262.1501513449
 21
742.3466092155
 31
0.0
  0
LINE
  5
6AE
330
1F
100
AcDbEntity
  8
0
  6
Continuous
 62
     7
370
    25
100
AcDbLine
 10
-297.1501513449
 20
742.3466092155
 30
0.0
 11
-297.1501513449
 21
748.3466092155
 31
0.0
  0
LINE
  5
6AF
330
1F
100
AcDbEntity
  8
0
  6
Continuous
 62
     7
370
    25
100
AcDbLine
 10
-332.1501513449
 20
748.3466092155
 30
0.0
 11
-297.1501513449
 21
748.3466092155
 31
0.0
  0
LINE
  5
6B0
330
1F
100
AcDbEntity
  8
0
  6
Continuous
 62
     7
370
    25
100
AcDbLine
 10
-332.1501513449
 20
742.3466092155
 30
0.0
 11
-332.1501513449
 21
748.3466092155
 31
0.0
  0
LINE
  5
6B1
330
1F
100
AcDbEntity
  8
0
  6
Continuous
 62
     7
370
    25
100
AcDbLine
 10
-367.1501513449
 20
742.3466092155
 30
0.0
 11
-332.1501513449
 21
742.3466092155
 31
0.0
  0
LINE
  5
6B2
330
1F
100
AcDbEntity
  8
0
  6
Continuous
 62
     7
370
    25
100
AcDbLine
 10
-367.1501513449
 20
742.3466092155
 30
0.0
 11
-367.1501513449
 21
748.3466092155
 31
0.0
  0
LINE
  5
6B3
330
1F
100
AcDbEntity
  8
0
  6
Continuous
 62
     7
370
    25
100
AcDbLine
 10
-402.1501513449
 20
748.3466092155
 30
0.0
 11
-367.1501513449
 21
748.3466092155
 31
0.0
  0
LINE
  5
6B4
330
1F
100
AcDbEntity
  8
0
  6
Continuous
 62
     7
370
    25
100
AcDbLine
 10
-408.1501513449
 20
770.8466092155
 30
0.0
 11
-402.1501513449
 21
770.8466092155
 31
0.0
  0
LINE
  5
6B5
330
1F
100
AcDbEntity
  8
0
  6
Continuous
 62
     7
370
    25
100
AcDbLine
 10
-408.1501513449
 20
770.8466092155
 30
0.0
 11
-408.1501513449
 21
793.3466092155
 31
0.0
  0
LINE
  5
6B6
330
1F
100
AcDbEntity
  8
0
  6
Continuous
 62
     7
370
    25
100
AcDbLine
 10
-408.1501513449
 20
793.3466092155
 30
0.0
 11
-402.1501513449
 21
793.3466092155
 31
0.0
  0
LINE
  5
6B7
330
1F
100
AcDbEntity
  8
0
  6
Continuous
 62
     7
370
    25
100
AcDbLine
 10
-408.1501513449
 20
815.8466092155
 30
0.0
 11
-402.1501513449
 21
815.8466092155
 31
0.0
  0
LINE
  5
6B8
330
1F
100
AcDbEntity
  8
0
  6
Continuous
 62
     7
370
    25
100
AcDbLine
 10
-408.1501513449
 20
815.8466092155
 30
0.0
 11
-408.1501513449
 21
838.3466092155
 31
0.0
  0
LINE
  5
6B9
330
1F
100
AcDbEntity
  8
0
  6
Continuous
 62
     7
370
    25
100
AcDbLine
 10
-408.1501513449
 20
838.3466092155
 30
0.0
 11
-402.1501513449
 21
838.3466092155
 31
0.0
  0
LINE
  5
6BA
330
1F
100
AcDbEntity
  8
0
  6
Continuous
 62
     7
370
    25
100
AcDbLine
 10
-367.1501513449
 20
866.8466092155
 30
0.0
 11
-367.1501513449
 21
860.8466092155
 31
0.0
  0
LINE
  5
6BB
330
1F
100
AcDbEntity
  8
0
  6
Continuous
 62
     7
370
    25
100
AcDbLine
 10
-367.1501513449
 20
866.8466092155
 30
0.0
 11
-332.1501513449
 21
866.8466092155
 31
0.0
  0
LINE
  5
6BC
330
1F
100
AcDbEntity
  8
0
  6
Continuous
 62
     7
370
    25
100
AcDbLine
 10
-332.1501513449
 20
866.8466092155
 30
0.0
 11
-332.1501513449
 21
860.8466092155
 31
0.0
  0
LINE
  5
6BD
330
1F
100
AcDbEntity
  8
0
  6
Continuous
 62
     7
370
    25
100
AcDbLine
 10
-297.1501513449
 20
866.8466092155
 30
0.0
 11
-297.1501513449
 21
860.8466092155
 31
0.0
  0
LINE
  5
6BE
330
1F
100
AcDbEntity
  8
0
  6
Continuous
 62
     7
370
    25
100
AcDbLine
 10
-297.1501513449
 20
866.8466092155
 30
0.0
 11
-262.1501513449
 21
866.8466092155
 31
0.0
  0
LINE
  5
6BF
330
1F
100
AcDbEntity
  8
0
  6
Continuous
 62
     7
370
    25
100
AcDbLine
 10
-262.1501513449
 20
866.8466092155
 30
0.0
 11
-262.1501513449
 21
860.8466092155
 31
0.0
  0
LINE
  5
6C0
330
1F
100
AcDbEntity
  8
0
  6
Continuous
 62
     7
370
    25
100
AcDbLine
 10
-227.1501513449
 20
866.8466092155
 30
0.0
 11
-227.1501513449
 21
860.8466092155
 31
0.0
  0
LINE
  5
6C1
330
1F
100
AcDbEntity
  8
0
  6
Continuous
 62
     7
370
    25
100
AcDbLine
 10
-227.1501513449
 20
866.8466092155
 30
0.0
 11
-192.1501513449
 21
866.8466092155
 31
0.0
  0
LINE
  5
6C2
330
1F
100
AcDbEntity
  8
0
  6
Continuous
 62
     7
370
    25
100
AcDbLine
 10
-192.1501513449
 20
866.8466092155
 30
0.0
 11
-192.1501513449
 21
860.8466092155
 31
0.0
  0
LINE
  5
6C3
330
1F
100
AcDbEntity
  8
0
  6
Continuous
 62
     7
370
    25
100
AcDbLine
 10
-157.1501513449
 20
860.8466092155
 30
0.0
 11
-192.1501513449
 21
860.8466092155
 31
0.0
  0
LINE
  5
6C4
330
1F
100
AcDbEntity
  8
0
  6
Continuous
 62
     7
370
    25
100
AcDbLine
 10
-157.1501513449
 20
866.8466092155
 30
0.0
 11
-157.1501513449
 21
860.8466092155
 31
0.0
  0
LINE
  5
6C5
330
1F
100
AcDbEntity
  8
0
  6
Continuous
 62
     7
370
    25
100
AcDbLine
 10
-157.1501513449
 20
866.8466092155
 30
0.0
 11
-122.1501513449
 21
866.8466092155
 31
0.0
  0
LINE
  5
6C6
330
1F
100
AcDbEntity
  8
0
  6
Continuous
 62
     7
370
    25
100
AcDbLine
 10
-122.1501513449
 20
866.8466092155
 30
0.0
 11
-122.1501513449
 21
860.8466092155
 31
0.0
  0
LINE
  5
6C7
330
1F
100
AcDbEntity
  8
0
  6
Continuous
 62
     7
370
    25
100
AcDbLine
 10
-87.1501513449
 20
866.8466092155
 30
0.0
 11
-87.1501513449
 21
860.8466092155
 31
0.0
  0
LINE
  5
6C8
330
1F
100
AcDbEntity
  8
0
  6
Continuous
 62
     7
370
    25
100
AcDbLine
 10
-87.1501513449
 20
866.8466092155
 30
0.0
 11
-52.1501513449
 21
866.8466092155
 31
0.0
  0
LINE
  5
6C9
330
1F
100
AcDbEntity
  8
0
  6
Continuous
 62
     7
370
    25
100
AcDbLine
 10
-52.1501513449
 20
866.8466092155
 30
0.0
 11
-52.1501513449
 21
860.8466092155
 31
0.0
  0
LINE
  5
6CA
330
1F
100
AcDbEntity
  8
0
  6
Continuous
 62
     7
370
    25
100
AcDbLine
 10
-17.1501513449
 20
860.8466092155
 30
0.0
 11
-52.1501513449
 21
860.8466092155
 31
0.0
  0
LINE
  5
6CB
330
1F
100
AcDbEntity
  8
0
  6
Continuous
 62
     7
370
    25
100
AcDbLine
 10
-11.1501513449
 20
838.3466092155
 30
0.0
 11
-17.1501513449
 21
838.3466092155
 31
0.0
  0
LINE
  5
6CC
330
1F
100
AcDbEntity
  8
0
  6
Continuous
 62
     7
370
    25
100
AcDbLine
 10
-11.1501513449
 20
815.8466092155
 30
0.0
 11
-11.1501513449
 21
838.3466092155
 31
0.0
  0
LINE
  5
6CD
330
1F
100
AcDbEntity
  8
0
  6
Continuous
 62
     7
370
    25
100
AcDbLine
 10
-11.1501513449
 20
815.8466092155
 30
0.0
 11
-17.1501513449
 21
815.8466092155
 31
0.0
  0
LINE
  5
6CE
330
1F
100
AcDbEntity
  8
0
  6
Continuous
 62
     7
370
    25
100
AcDbLine
 10
-11.1501513449
 20
793.3466092155
 30
0.0
 11
-17.1501513449
 21
793.3466092155
 31
0.0
  0
LINE
  5
6CF
330
1F
100
AcDbEntity
  8
0
  6
Continuous
 62
     7
370
    25
100
AcDbLine
 10
-11.1501513449
 20
770.8466092155
 30
0.0
 11
-11.1501513449
 21
793.3466092155
 31
0.0
  0
LINE
  5
6D0
330
1F
100
AcDbEntity
  8
0
  6
Continuous
 62
     7
370
    25
100
AcDbLine
 10
-47.1501513449
 20
815.8466092155
 30
0.0
 11
-47.1501513449
 21
838.3466092155
 31
0.0
  0
LINE
  5
6D1
330
1F
100
AcDbEntity
  8
0
  6
Continuous
 62
     7
370
    25
100
AcDbLine
 10
-41.1501513449
 20
815.8466092155
 30
0.0
 11
-47.1501513449
 21
815.8466092155
 31
0.0
  0
LINE
  5
6D2
330
1F
100
AcDbEntity
  8
0
  6
Continuous
 62
     7
370
    25
100
AcDbLine
 10
-41.1501513449
 20
838.3466092155
 30
0.0
 11
-41.1501513449
 21
815.8466092155
 31
0.0
  0
LINE
  5
6D3
330
1F
100
AcDbEntity
  8
0
  6
Continuous
 62
     7
370
    25
100
AcDbLine
 10
-47.1501513449
 20
838.3466092155
 30
0.0
 11
-41.1501513449
 21
838.3466092155
 31
0.0
  0
LINE
  5
6D4
330
1F
100
AcDbEntity
  8
0
  6
Continuous
 62
     7
370
    25
100
AcDbLine
 10
-41.1501513449
 20
793.3466092155
 30
0.0
 11
-41.1501513449
 21
770.8466092155
 31
0.0
  0
LINE
  5
6D5
330
1F
100
AcDbEntity
  8
0
  6
Continuous
 62
     7
370
    25
100
AcDbLine
 10
-47.1501513449
 20
793.3466092155
 30
0.0
 11
-41.1501513449
 21
793.3466092155
 31
0.0
  0
LINE
  5
6D6
330
1F
100
AcDbEntity
  8
0
  6
Continuous
 62
     7
370
    25
100
AcDbLine
 10
-47.1501513449
 20
770.8466092155
 30
0.0
 11
-47.1501513449
 21
793.3466092155
 31
0.0
  0
LINE
  5
6D7
330
1F
100
AcDbEntity
  8
0
  6
Continuous
 62
     7
370
    25
100
AcDbLine
 10
-41.1501513449
 20
770.8466092155
 30
0.0
 11
-47.1501513449
 21
770.8466092155
 31
0.0
  0
LINE
  5
6D8
330
1F
100
AcDbEntity
  8
0
  6
Continuous
 62
     7
370
    25
100
AcDbLine
 10
-249.6501513449
 20
778.3466092155
 30
0.0
 11
-169.6501513449
 21
778.3466092155
 31
0.0
  0
LINE
  5
6D9
330
1F
100
AcDbEntity
  8
0
  6
Continuous
 62
     7
370
    25
100
AcDbLine
 10
-169.6501513449
 20
830.8466092155
 30
0.0
 11
-249.6501513449
 21
830.8466092155
 31
0.0
  0
LINE
  5
6DA
330
1F
100
AcDbEntity
  8
0
  6
Continuous
 62
     7
370
    25
100
AcDbLine
 10
-402.1501513449
 20
860.8466092155
 30
0.0
 11
-402.1501513449
 21
838.3466092155
 31
0.0
  0
LINE
  5
6DB
330
1F
100
AcDbEntity
  8
0
  6
Continuous
 62
     7
370
    25
100
AcDbLine
 10
-367.1501513449
 20
860.8466092155
 30
0.0
 11
-402.1501513449
 21
860.8466092155
 31
0.0
  0
LINE
  5
6DC
330
1F
100
AcDbEntity
  8
0
  6
Continuous
 62
     7
370
    25
100
AcDbLine
 10
-402.1501513449
 20
815.8466092155
 30
0.0
 11
-402.1501513449
 21
793.3466092155
 31
0.0
  0
LINE
  5
6DD
330
1F
100
AcDbEntity
  8
0
  6
Continuous
 62
     7
370
    25
100
AcDbLine
 10
-402.1501513449
 20
770.8466092155
 30
0.0
 11
-402.1501513449
 21
748.3466092155
 31
0.0
  0
LINE
  5
6DE
330
1F
100
AcDbEntity
  8
0
  6
Continuous
 62
     7
370
    25
100
AcDbLine
 10
-17.1501513449
 20
838.3466092155
 30
0.0
 11
-17.1501513449
 21
860.8466092155
 31
0.0
  0
LINE
  5
6DF
330
1F
100
AcDbEntity
  8
0
  6
Continuous
 62
     7
370
    25
100
AcDbLine
 10
-17.1501513449
 20
793.3466092155
 30
0.0
 11
-17.1501513449
 21
815.8466092155
 31
0.0
  0
LINE
  5
6E0
330
1F
100
AcDbEntity
  8
0
  6
Continuous
 62
     7
370
    25
100
AcDbLine
 10
-17.1501513449
 20
748.3466092155
 30
0.0
 11
-17.1501513449
 21
770.8466092155
 31
0.0
  0
LINE
  5
6E1
330
1F
100
AcDbEntity
  8
0
  6
Continuous
 62
     7
370
    25
100
AcDbLine
 10
-297.1501513449
 20
860.8466092155
 30
0.0
 11
-332.1501513449
 21
860.8466092155
 31
0.0
  0
LINE
  5
6E2
330
1F
100
AcDbEntity
  8
0
  6
Continuous
 62
     7
370
    25
100
AcDbLine
 10
-227.1501513449
 20
860.8466092155
 30
0.0
 11
-262.1501513449
 21
860.8466092155
 31
0.0
  0
LINE
  5
6E3
330
1F
100
AcDbEntity
  8
0
  6
Continuous
 62
     7
370
    25
100
AcDbLine
 10
-87.1501513449
 20
860.8466092155
 30
0.0
 11
-122.1501513449
 21
860.8466092155
 31
0.0
  0
LINE
  5
6E4
330
1F
100
AcDbEntity
  8
0
  6
Continuous
 62
     7
370
    25
100
AcDbLine
 10
-11.1501513449
 20
770.8466092155
 30
0.0
 11
-17.1501513449
 21
770.8466092155
 31
0.0
  0
LINE
  5
6E5
330
1F
100
AcDbEntity
  8
0
  6
Continuous
 62
     7
370
    25
100
AcDbLine
 10
-192.1501513449
 20
748.3466092155
 30
0.0
 11
-157.1501513449
 21
748.3466092155
 31
0.0
  0
ARC
  5
6E6
330
1F
100
AcDbEntity
  8
0
  6
Continuous
 62
     7
370
    25
100
AcDbCircle
 10
-457.891239292
 20
893.3044460291
 30
0.0
 40
3.500000000000114
100
AcDbArc
 50
90.0
 51
270.0
  0
ARC
  5
6E7
330
1F
100
AcDbEntity
  8
0
  6
Continuous
 62
     7
370
    25
100
AcDbCircle
 10
-441.891239292
 20
893.3044460291
 30
0.0
 40
3.500000000000114
100
AcDbArc
 50
270.0
 51
90.0
  0
ARC
  5
6E8
330
1F
100
AcDbEntity
  8
0
  6
Continuous
 62
     7
370
    25
100
AcDbCircle
 10
-449.3098176728
 20
294.932316563
 30
0.0
 40
0.9999999999998863
100
AcDbArc
 50
90.0
 51
180.0
  0
ARC
  5
6E9
330
1F
100
AcDbEntity
  8
0
  6
Continuous
 62
     7
370
    25
100
AcDbCircle
 10
-435.3098176728
 20
279.0273290009
 30
0.0
 40
1.0
100
AcDbArc
 50
360.0
 51
84.2894068625
  0
ARC
  5
6EA
330
1F
100
AcDbEntity
  8
0
  6
Continuous
 62
     7
370
    25
100
AcDbCircle
 10
-435.3098176728
 20
379.8373041251
 30
0.0
 40
0.9999999999999432
100
AcDbArc
 50
275.7105931375
 51
0.0
  0
ARC
  5
6EB
330
1F
100
AcDbEntity
  8
0
  6
Continuous
 62
     7
370
    25
100
AcDbCircle
 10
-445.3098176728
 20
371.932316563
 30
0.0
 40
1.000000000000114
100
AcDbArc
 50
270.0
 51
360.0
  0
ARC
  5
6EC
330
1F
100
AcDbEntity
  8
0
  6
Continuous
 62
     7
370
    25
100
AcDbCircle
 10
-449.3098176728
 20
369.932316563
 30
0.0
 40
0.9999999999998863
100
AcDbArc
 50
90.0
 51
180.0
  0
ARC
  5
6ED
330
1F
100
AcDbEntity
  8
0
  6
Continuous
 62
     7
370
    25
100
AcDbCircle
 10
-449.3098176728
 20
363.932316563
 30
0.0
 40
1.0
100
AcDbArc
 50
180.0
 51
270.0
  0
ARC
  5
6EE
330
1F
100
AcDbEntity
  8
0
  6
Continuous
 62
     7
370
    25
100
AcDbCircle
 10
-445.3098176728
 20
361.932316563
 30
0.0
 40
1.0
100
AcDbArc
 50
0.0
 51
90.0
  0
ARC
  5
6EF
330
1F
100
AcDbEntity
  8
0
  6
Continuous
 62
     7
370
    25
100
AcDbCircle
 10
-435.3098176728
 20
354.0273290009
 30
0.0
 40
1.00000000000011
100
AcDbArc
 50
0.0
 51
84.2894068625
  0
ARC
  5
6F0
330
1F
100
AcDbEntity
  8
0
  6
Continuous
 62
     7
370
    25
100
AcDbCircle
 10
-435.3098176728
 20
342.3373041251
 30
0.0
 40
1.000000000000057
100
AcDbArc
 50
275.7105931375
 51
360.0
  0
ARC
  5
6F1
330
1F
100
AcDbEntity
  8
0
  6
Continuous
 62
     7
370
    25
100
AcDbCircle
 10
-445.3098176728
 20
334.432316563
 30
0.0
 40
1.0
100
AcDbArc
 50
270.0
 51
0.0
  0
ARC
  5
6F2
330
1F
100
AcDbEntity
  8
0
  6
Continuous
 62
     7
370
    25
100
AcDbCircle
 10
-449.3098176728
 20
332.432316563
 30
0.0
 40
1.0
100
AcDbArc
 50
90.0
 51
180.0
  0
ARC
  5
6F3
330
1F
100
AcDbEntity
  8
0
  6
Continuous
 62
     7
370
    25
100
AcDbCircle
 10
-449.3098176728
 20
326.432316563
 30
0.0
 40
0.9999999999999432
100
AcDbArc
 50
180.0
 51
270.0
  0
ARC
  5
6F4
330
1F
100
AcDbEntity
  8
0
  6
Continuous
 62
     7
370
    25
100
AcDbCircle
 10
-445.3098176728
 20
324.432316563
 30
0.0
 40
1.000000000000057
100
AcDbArc
 50
0.0
 51
90.0
  0
ARC
  5
6F5
330
1F
100
AcDbEntity
  8
0
  6
Continuous
 62
     7
370
    25
100
AcDbCircle
 10
-435.3098176728
 20
316.5273290009
 30
0.0
 40
1.0
100
AcDbArc
 50
0.0
 51
84.2894068625
  0
ARC
  5
6F6
330
1F
100
AcDbEntity
  8
0
  6
Continuous
 62
     7
370
    25
100
AcDbCircle
 10
-435.3098176728
 20
304.8373041251
 30
0.0
 40
0.9999999999998863
100
AcDbArc
 50
275.7105931375
 51
0.0
  0
ARC
  5
6F7
330
1F
100
AcDbEntity
  8
0
  6
Continuous
 62
     7
370
    25
100
AcDbCircle
 10
-449.3098176728
 20
288.932316563
 30
0.0
 40
1.0
100
AcDbArc
 50
180.0
 51
270.0
  0
ARC
  5
6F8
330
1F
100
AcDbEntity
  8
0
  6
Continuous
 62
     7
370
    25
100
AcDbCircle
 10
-445.3098176728
 20
286.932316563
 30
0.0
 40
1.000000000000057
100
AcDbArc
 50
0.0
 51
90.0
  0
ARC
  5
6F9
330
1F
100
AcDbEntity
  8
0
  6
Continuous
 62
     7
370
    25
100
AcDbCircle
 10
-445.3098176728
 20
296.932316563
 30
0.0
 40
1.000000000000057
100
AcDbArc
 50
270.0
 51
360.0
  0
ARC
  5
6FA
330
1F
100
AcDbEntity
  8
0
  6
Continuous
 62
     7
370
    25
100
AcDbCircle
 10
-495.9915496768
 20
417.8710198905
 30
0.0
 40
0.9999999999999432
100
AcDbArc
 50
270.0
 51
0.0
  0
ARC
  5
6FB
330
1F
100
AcDbEntity
  8
0
  6
Continuous
 62
     7
370
    25
100
AcDbCircle
 10
-485.9915496768
 20
425.7760074526
 30
0.0
 40
1.000000000000057
100
AcDbArc
 50
275.7105931375
 51
360.0
  0
ARC
  5
6FC
330
1F
100
AcDbEntity
  8
0
  6
Continuous
 62
     7
370
    25
100
AcDbCircle
 10
-485.9915496768
 20
437.4660323283
 30
0.0
 40
1.000000000000042
100
AcDbArc
 50
360.0
 51
84.2894068625
  0
ARC
  5
6FD
330
1F
100
AcDbEntity
  8
0
  6
Continuous
 62
     7
370
    25
100
AcDbCircle
 10
-499.9915496768
 20
484.8710198905
 30
0.0
 40
1.0
100
AcDbArc
 50
180.0
 51
270.0
  0
ARC
  5
6FE
330
1F
100
AcDbEntity
  8
0
  6
Continuous
 62
     7
370
    25
100
AcDbCircle
 10
-495.9915496768
 20
482.8710198905
 30
0.0
 40
1.0
100
AcDbArc
 50
0.0
 51
90.0
  0
ARC
  5
6FF
330
1F
100
AcDbEntity
  8
0
  6
Continuous
 62
     7
370
    25
100
AcDbCircle
 10
-495.9915496768
 20
492.8710198905
 30
0.0
 40
0.9999999999999432
100
AcDbArc
 50
270.0
 51
0.0
  0
ARC
  5
700
330
1F
100
AcDbEntity
  8
0
  6
Continuous
 62
     7
370
    25
100
AcDbCircle
 10
-499.9915496768
 20
490.8710198905
 30
0.0
 40
1.000000000000057
100
AcDbArc
 50
90.0
 51
180.0
  0
ARC
  5
701
330
1F
100
AcDbEntity
  8
0
  6
Continuous
 62
     7
370
    25
100
AcDbCircle
 10
-485.9915496768
 20
474.9660323283
 30
0.0
 40
1.000000000000057
100
AcDbArc
 50
0.0
 51
84.2894068625
  0
ARC
  5
702
330
1F
100
AcDbEntity
  8
0
  6
Continuous
 62
     7
370
    25
100
AcDbCircle
 10
-485.9915496768
 20
500.7760074526
 30
0.0
 40
1.0
100
AcDbArc
 50
275.7105931375
 51
0.0
  0
ARC
  5
703
330
1F
100
AcDbEntity
  8
0
  6
Continuous
 62
     7
370
    25
100
AcDbCircle
 10
-499.9915496768
 20
409.8710198905
 30
0.0
 40
1.000000000000057
100
AcDbArc
 50
180.0
 51
270.0
  0
ARC
  5
704
330
1F
100
AcDbEntity
  8
0
  6
Continuous
 62
     7
370
    25
100
AcDbCircle
 10
-495.9915496768
 20
407.8710198905
 30
0.0
 40
1.0
100
AcDbArc
 50
360.0
 51
90.0
  0
ARC
  5
705
330
1F
100
AcDbEntity
  8
0
  6
Continuous
 62
     7
370
    25
100
AcDbCircle
 10
-499.9915496768
 20
415.8710198905
 30
0.0
 40
1.000000000000057
100
AcDbArc
 50
90.0
 51
180.0
  0
ARC
  5
706
330
1F
100
AcDbEntity
  8
0
  6
Continuous
 62
     7
370
    25
100
AcDbCircle
 10
-485.9915496768
 20
399.9660323283
 30
0.0
 40
1.000000000000059
100
AcDbArc
 50
0.0
 51
84.2894068625
  0
ARC
  5
707
330
1F
100
AcDbEntity
  8
0
  6
Continuous
 62
     7
370
    25
100
AcDbCircle
 10
-499.9915496768
 20
447.3710198905
 30
0.0
 40
1.000000000000114
100
AcDbArc
 50
180.0
 51
270.0
  0
ARC
  5
708
330
1F
100
AcDbEntity
  8
0
  6
Continuous
 62
     7
370
    25
100
AcDbCircle
 10
-495.9915496768
 20
445.3710198905
 30
0.0
 40
0.9999999999998863
100
AcDbArc
 50
360.0
 51
90.0
  0
ARC
  5
709
330
1F
100
AcDbEntity
  8
0
  6
Continuous
 62
     7
370
    25
100
AcDbCircle
 10
-495.9915496768
 20
455.3710198905
 30
0.0
 40
0.9999999999999432
100
AcDbArc
 50
270.0
 51
0.0
  0
ARC
  5
70A
330
1F
100
AcDbEntity
  8
0
  6
Continuous
 62
     7
370
    25
100
AcDbCircle
 10
-499.9915496768
 20
453.3710198905
 30
0.0
 40
1.0
100
AcDbArc
 50
90.0
 51
180.0
  0
ARC
  5
70B
330
1F
100
AcDbEntity
  8
0
  6
Continuous
 62
     7
370
    25
100
AcDbCircle
 10
-485.9915496768
 20
463.2760074526
 30
0.0
 40
1.000000000000057
100
AcDbArc
 50
275.7105931375
 51
360.0
  0
ARC
  5
70C
330
1F
100
AcDbEntity
  8
0
  6
Continuous
 62
     7
370
    25
100
AcDbCircle
 10
-337.733597789
 20
280.9792345404
 30
0.0
 40
20.00000000000011
100
AcDbArc
 50
203.5781784782
 51
270.0
  0
ARC
  5
70D
330
1F
100
AcDbEntity
  8
0
  6
Continuous
 62
     7
370
    25
100
AcDbCircle
 10
-97.3942033486
 20
280.9792345404
 30
0.0
 40
20.00000000000011
100
AcDbArc
 50
270.0
 51
336.4218215218
  0
ARC
  5
70E
330
1F
100
AcDbEntity
  8
0
  6
Continuous
 62
     7
370
    25
100
AcDbCircle
 10
-339.3375913804
 20
551.7680705807
 30
0.0
 40
20.00000000000034
100
AcDbArc
 50
203.5781784782
 51
270.0
  0
ARC
  5
70F
330
1F
100
AcDbEntity
  8
0
  6
Continuous
 62
     7
370
    25
100
AcDbCircle
 10
-98.99819694
 20
551.7680705807
 30
0.0
 40
20.00000000000006
100
AcDbArc
 50
270.0
 51
336.4218215218
  0
ARC
  5
710
330
1F
100
AcDbEntity
  8
0
  6
Continuous
 62
     7
370
    25
100
AcDbCircle
 10
-249.6501513449
 20
804.5966092155
 30
0.0
 40
26.25
100
AcDbArc
 50
90.0
 51
270.0
  0
ARC
  5
711
330
1F
100
AcDbEntity
  8
0
  6
Continuous
 62
     7
370
    25
100
AcDbCircle
 10
-169.6501513449
 20
804.5966092155
 30
0.0
 40
26.25
100
AcDbArc
 50
270.0
 51
90.0
  0
ENDSEC
  0
SECTION
  2
OBJECTS
  0
DICTIONARY
  5
C
330
0
100
AcDbDictionary
281
     1
  3
ACAD_GROUP
350
D
  3
ACAD_LAYOUT
350
1A
  3
ACAD_MLINESTYLE
350
17
  3
ACAD_PLOTSETTINGS
350
19
  3
ACAD_PLOTSTYLENAME
350
E
  3
ACAD_SCALELIST
350
47
  3
DWGPROPS
350
712
  0
DICTIONARY
  5
D
102
{ACAD_REACTORS
330
C
102
}
330
C
100
AcDbDictionary
281
     1
  0
DICTIONARY
  5
1A
102
{ACAD_REACTORS
330
C
102
}
330
C
100
AcDbDictionary
281
     1
  3
Layout1
350
1E
  3
Layout2
350
26
  3
Model
350
22
  0
DICTIONARY
  5
17
102
{ACAD_REACTORS
330
C
102
}
330
C
100
AcDbDictionary
281
     1
  3
Standard
350
18
  0
DICTIONARY
  5
19
102
{ACAD_REACTORS
330
C
102
}
330
C
100
AcDbDictionary
281
     1
  0
ACDBDICTIONARYWDFLT
  5
E
102
{ACAD_REACTORS
330
C
102
}
330
C
100
AcDbDictionary
281
     1
  3
Normal
350
F
100
AcDbDictionaryWithDefault
340
F
  0
DICTIONARY
  5
47
102
{ACAD_REACTORS
330
C
102
}
330
C
100
AcDbDictionary
281
     1
  3
A0
350
48
  3
A1
350
49
  3
A2
350
4A
  3
A3
350
4B
  3
A4
350
4C
  3
A5
350
4D
  3
A6
350
4E
  3
A7
350
4F
  3
A8
350
50
  3
A9
350
51
  3
B0
350
52
  3
B1
350
53
  3
B2
350
54
  3
B3
350
55
  3
B4
350
56
  3
B5
350
57
  3
B6
350
58
  0
XRECORD
  5
712
102
{ACAD_REACTORS
330
C
102
}
330
C
100
AcDbXrecord
280
     1
  1
DWGPROPS COOKIE
  2

  3

  4

  6

  7

  8
bartboogmans
  9

300
=
301
=
302
=
303
=
304
=
305
=
306
=
307
=
308
=
309
=
 40
0.0
 41
2460532.461192755
 42
2460532.461219155
  1

 90
        0
  0
LAYOUT
  5
1E
102
{ACAD_REACTORS
330
1A
102
}
330
1A
100
AcDbPlotSettings
  1

  2
none_device
  4

  6

 40
0.0
 41
0.0
 42
0.0
 43
0.0
 44
0.0
 45
0.0
 46
0.0
 47
0.0
 48
0.0
 49
0.0
140
0.0
141
0.0
142
1.0
143
1.0
 70
   688
 72
     1
 73
     0
 74
     5
  7

 75
    16
147
1.0
148
0.0
149
0.0
100
AcDbLayout
  1
Layout1
 70
     1
 71
     1
 10
0.0
 20
0.0
 11
420.0
 21
297.0
 12
0.0
 22
0.0
 32
0.0
 14
1.0000000000E+20
 24
1.0000000000E+20
 34
1.0000000000E+20
 15
-1.0000000000E+20
 25
-1.0000000000E+20
 35
-1.0000000000E+20
146
0.0
 13
0.0
 23
0.0
 33
0.0
 16
1.0
 26
0.0
 36
0.0
 17
0.0
 27
1.0
 37
0.0
 76
     0
330
1B
  0
LAYOUT
  5
26
102
{ACAD_REACTORS
330
1A
102
}
330
1A
100
AcDbPlotSettings
  1

  2
none_device
  4

  6

 40
0.0
 41
0.0
 42
0.0
 43
0.0
 44
0.0
 45
0.0
 46
0.0
 47
0.0
 48
0.0
 49
0.0
140
0.0
141
0.0
142
1.0
143
1.0
 70
   688
 72
     1
 73
     0
 74
     5
  7

 75
    16
147
1.0
148
0.0
149
0.0
100
AcDbLayout
  1
Layout2
 70
     1
 71
     2
 10
0.0
 20
0.0
 11
0.0
 21
0.0
 12
0.0
 22
0.0
 32
0.0
 14
0.0
 24
0.0
 34
0.0
 15
0.0
 25
0.0
 35
0.0
146
0.0
 13
0.0
 23
0.0
 33
0.0
 16
1.0
 26
0.0
 36
0.0
 17
0.0
 27
1.0
 37
0.0
 76
     0
330
23
  0
LAYOUT
  5
22
102
{ACAD_REACTORS
330
1A
102
}
330
1A
100
AcDbPlotSettings
  1

  2
none_device
  4
ANSI_A_(11.00_x_8.50_Inches)
  6

 40
6.35
 41
19.05
 42
6.35000508
 43
19.05000254
 44
279.4
 45
215.9
 46
198.4094875688
 47
-19.6471311863
 48
0.0
 49
0.0
140
0.0
141
0.0
142
0.0073513006
143
1.0
 70
  1696
 72
     0
 73
     0
 74
     0
  7

 75
     0
147
0.0179189148
148
-1300.4909072572
149
0.0
100
AcDbLayout
  1
Model
 70
     1
 71
     0
 10
0.0
 20
0.0
 11
420.0
 21
297.0
 12
0.0
 22
0.0
 32
0.0
 14
-695.0344230674
 24
8.9792345404
 34
0.0
 15
-1.8211144447
 25
1153.6746448054
 35
0.0
146
0.0
 13
0.0
 23
0.0
 33
0.0
 16
1.0
 26
0.0
 36
0.0
 17
0.0
 27
1.0
 37
0.0
 76
     0
330
1F
331
29
  0
MLINESTYLE
  5
18
102
{ACAD_REACTORS
330
17
102
}
330
17
100
AcDbMlineStyle
  2
Standard
 70
     0
  3

 62
   256
 51
90.0
 52
90.0
 71
     2
 49
0.5
 62
   256
  6
BYLAYER
 49
-0.5
 62
   256
  6
BYLAYER
  0
ACDBPLACEHOLDER
  5
F
102
{ACAD_REACTORS
330
E
102
}
330
E
  0
SCALE
  5
48
102
{ACAD_REACTORS
330
47
102
}
330
47
100
AcDbScale
 70
     0
300
1:1
140
1.0
141
1.0
290
     1
  0
SCALE
  5
49
102
{ACAD_REACTORS
330
47
102
}
330
47
100
AcDbScale
 70
     0
300
1:2
140
1.0
141
2.0
290
     0
  0
SCALE
  5
4A
102
{ACAD_REACTORS
330
47
102
}
330
47
100
AcDbScale
 70
     0
300
1:4
140
1.0
141
4.0
290
     0
  0
SCALE
  5
4B
102
{ACAD_REACTORS
330
47
102
}
330
47
100
AcDbScale
 70
     0
300
1:5
140
1.0
141
5.0
290
     0
  0
SCALE
  5
4C
102
{ACAD_REACTORS
330
47
102
}
330
47
100
AcDbScale
 70
     0
300
1:8
140
1.0
141
8.0
290
     0
  0
SCALE
  5
4D
102
{ACAD_REACTORS
330
47
102
}
330
47
100
AcDbScale
 70
     0
300
1:10
140
1.0
141
10.0
290
     0
  0
SCALE
  5
4E
102
{ACAD_REACTORS
330
47
102
}
330
47
100
AcDbScale
 70
     0
300
1:16
140
1.0
141
16.0
290
     0
  0
SCALE
  5
4F
102
{ACAD_REACTORS
330
47
102
}
330
47
100
AcDbScale
 70
     0
300
1:20
140
1.0
141
20.0
290
     0
  0
SCALE
  5
50
102
{ACAD_REACTORS
330
47
102
}
330
47
100
AcDbScale
 70
     0
300
1:30
140
1.0
141
30.0
290
     0
  0
SCALE
  5
51
102
{ACAD_REACTORS
330
47
102
}
330
47
100
AcDbScale
 70
     0
300
1:40
140
1.0
141
40.0
290
     0
  0
SCALE
  5
52
102
{ACAD_REACTORS
330
47
102
}
330
47
100
AcDbScale
 70
     0
300
1:50
140
1.0
141
50.0
290
     0
  0
SCALE
  5
53
102
{ACAD_REACTORS
330
47
102
}
330
47
100
AcDbScale
 70
     0
300
1:100
140
1.0
141
100.0
290
     0
  0
SCALE
  5
54
102
{ACAD_REACTORS
330
47
102
}
330
47
100
AcDbScale
 70
     0
300
2:1
140
2.0
141
1.0
290
     0
  0
SCALE
  5
55
102
{ACAD_REACTORS
330
47
102
}
330
47
100
AcDbScale
 70
     0
300
4:1
140
4.0
141
1.0
290
     0
  0
SCALE
  5
56
102
{ACAD_REACTORS
330
47
102
}
330
47
100
AcDbScale
 70
     0
300
8:1
140
8.0
141
1.0
290
     0
  0
SCALE
  5
57
102
{ACAD_REACTORS
330
47
102
}
330
47
100
AcDbScale
 70
     0
300
10:1
140
10.0
141
1.0
290
     0
  0
SCALE
  5
58
102
{ACAD_REACTORS
330
47
102
}
330
47
100
AcDbScale
 70
     0
300
100:1
140
100.0
141
1.0
290
     0
  0
ENDSEC
  0
EOF
