  0
SECTION
  2
HEADER
  9
$ACADVER
  1
AC1015
  9
$ACADMAINTVER
 70
     6
  9
$DWGCODEPAGE
  3
ANSI_1252
  9
$INSBASE
 10
0.0
 20
0.0
 30
0.0
  9
$EXTMIN
 10
-708.9973211797
 20
8.9792345404
 30
0.0
  9
$EXTMAX
 10
47.1883299669
 20
1153.6746448054
 30
0.0
  9
$LIMMIN
 10
0.0
 20
0.0
  9
$LIMMAX
 10
420.0
 20
297.0
  9
$ORTHOMODE
 70
     0
  9
$REGENMODE
 70
     1
  9
$FILLMODE
 70
     1
  9
$QTEXTMODE
 70
     0
  9
$MIRRTEXT
 70
     1
  9
$LTSCALE
 40
1.0
  9
$ATTMODE
 70
     1
  9
$TEXTSIZE
 40
3.5
  9
$TRACEWID
 40
1.0
  9
$TEXTSTYLE
  7
Standard
  9
$CLAYER
  8
0
  9
$CELTYPE
  6
ByLayer
  9
$CECOLOR
 62
   256
  9
$CELTSCALE
 40
1.0
  9
$DISPSILH
 70
     0
  9
$DIMSCALE
 40
1.0
  9
$DIMASZ
 40
3.302
  9
$DIMEXO
 40
0.0
  9
$DIMDLI
 40
3.75
  9
$DIMRND
 40
0.0
  9
$DIMDLE
 40
0.0
  9
$DIMEXE
 40
1.0
  9
$DIMTP
 40
0.0
  9
$DIMTM
 40
0.0
  9
$DIMTXT
 40
3.5
  9
$DIMCEN
 40
2.5
  9
$DIMTSZ
 40
0.0
  9
$DIMTOL
 70
     0
  9
$DIMLIM
 70
     0
  9
$DIMTIH
 70
     1
  9
$DIMTOH
 70
     1
  9
$DIMSE1
 70
     0
  9
$DIMSE2
 70
     0
  9
$DIMTAD
 70
     1
  9
$DIMZIN
 70
     0
  9
$DIMBLK
  1

  9
$DIMASO
 70
     1
  9
$DIMSHO
 70
     1
  9
$DIMPOST
  1

  9
$DIMAPOST
  1

  9
$DIMALT
 70
     0
  9
$DIMALTD
 70
     3
  9
$DIMALTF
 40
0.0393700787
  9
$DIMLFAC
 40
1.0
  9
$DIMTOFL
 70
     1
  9
$DIMTVP
 40
0.0
  9
$DIMTIX
 70
     0
  9
$DIMSOXD
 70
     0
  9
$DIMSAH
 70
     0
  9
$DIMBLK1
  1

  9
$DIMBLK2
  1

  9
$DIMSTYLE
  2
ISO-25
  9
$DIMCLRD
 70
     0
  9
$DIMCLRE
 70
     0
  9
$DIMCLRT
 70
     0
  9
$DIMTFAC
 40
1.0
  9
$DIMGAP
 40
1.524
  9
$DIMJUST
 70
     0
  9
$DIMSD1
 70
     0
  9
$DIMSD2
 70
     0
  9
$DIMTOLJ
 70
     0
  9
$DIMTZIN
 70
     0
  9
$DIMALTZ
 70
     0
  9
$DIMALTTZ
 70
     0
  9
$DIMUPT
 70
     0
  9
$DIMDEC
 70
     2
  9
$DIMTDEC
 70
     2
  9
$DIMALTU
 70
     2
  9
$DIMALTTD
 70
     3
  9
$DIMTXSTY
  7
Standard
  9
$DIMAUNIT
 70
     0
  9
$DIMADEC
 70
     2
  9
$DIMALTRND
 40
0.0
  9
$DIMAZIN
 70
     0
  9
$DIMDSEP
 70
    44
  9
$DIMATFIT
 70
     3
  9
$DIMFRAC
 70
     0
  9
$DIMLDRBLK
  1

  9
$DIMLUNIT
 70
     2
  9
$DIMLWD
 70
    -2
  9
$DIMLWE
 70
    -2
  9
$DIMTMOVE
 70
     0
  9
$LUNITS
 70
     2
  9
$LUPREC
 70
     2
  9
$SKETCHINC
 40
1.0
  9
$FILLETRAD
 40
0.0
  9
$AUNITS
 70
     0
  9
$AUPREC
 70
     2
  9
$MENU
  1
.
  9
$ELEVATION
 40
0.0
  9
$PELEVATION
 40
0.0
  9
$THICKNESS
 40
0.0
  9
$LIMCHECK
 70
     0
  9
$CHAMFERA
 40
0.0
  9
$CHAMFERB
 40
0.0
  9
$CHAMFERC
 40
0.0
  9
$CHAMFERD
 40
0.0
  9
$SKPOLY
 70
     0
  9
$TDCREATE
 40
2460570.718909364
  9
$TDUCREATE
 40
2460570.63557603
  9
$TDUPDATE
 40
2460570.71893897
  9
$TDUUPDATE
 40
2460570.635605637
  9
$TDINDWG
 40
0.0000000116
  9
$TDUSRTIMER
 40
0.0000000116
  9
$USRTIMER
 70
     1
  9
$ANGBASE
 50
0.0
  9
$ANGDIR
 70
     0
  9
$PDMODE
 70
     0
  9
$PDSIZE
 40
-1.0
  9
$PLINEWID
 40
0.0
  9
$SPLFRAME
 70
     0
  9
$SPLINETYPE
 70
     6
  9
$SPLINESEGS
 70
     8
  9
$HANDSEED
  5
7B3
  9
$SURFTAB1
 70
     6
  9
$SURFTAB2
 70
     6
  9
$SURFTYPE
 70
     6
  9
$SURFU
 70
     6
  9
$SURFV
 70
     6
  9
$UCSBASE
  2

  9
$UCSNAME
  2

  9
$UCSORG
 10
0.0
 20
0.0
 30
0.0
  9
$UCSXDIR
 10
1.0
 20
0.0
 30
0.0
  9
$UCSYDIR
 10
0.0
 20
1.0
 30
0.0
  9
$UCSORTHOREF
  2

  9
$UCSORTHOVIEW
 70
     0
  9
$UCSORGTOP
 10
0.0
 20
0.0
 30
0.0
  9
$UCSORGBOTTOM
 10
0.0
 20
0.0
 30
0.0
  9
$UCSORGLEFT
 10
0.0
 20
0.0
 30
0.0
  9
$UCSORGRIGHT
 10
0.0
 20
0.0
 30
0.0
  9
$UCSORGFRONT
 10
0.0
 20
0.0
 30
0.0
  9
$UCSORGBACK
 10
0.0
 20
0.0
 30
0.0
  9
$PUCSBASE
  2

  9
$PUCSNAME
  2

  9
$PUCSORG
 10
0.0
 20
0.0
 30
0.0
  9
$PUCSXDIR
 10
1.0
 20
0.0
 30
0.0
  9
$PUCSYDIR
 10
0.0
 20
1.0
 30
0.0
  9
$PUCSORTHOREF
  2

  9
$PUCSORTHOVIEW
 70
     0
  9
$PUCSORGTOP
 10
0.0
 20
0.0
 30
0.0
  9
$PUCSORGBOTTOM
 10
0.0
 20
0.0
 30
0.0
  9
$PUCSORGLEFT
 10
0.0
 20
0.0
 30
0.0
  9
$PUCSORGRIGHT
 10
0.0
 20
0.0
 30
0.0
  9
$PUCSORGFRONT
 10
0.0
 20
0.0
 30
0.0
  9
$PUCSORGBACK
 10
0.0
 20
0.0
 30
0.0
  9
$USERI1
 70
     0
  9
$USERI2
 70
     0
  9
$USERI3
 70
     0
  9
$USERI4
 70
     0
  9
$USERI5
 70
     0
  9
$USERR1
 40
0.0
  9
$USERR2
 40
0.0
  9
$USERR3
 40
0.0
  9
$USERR4
 40
0.0
  9
$USERR5
 40
0.0
  9
$WORLDVIEW
 70
     1
  9
$SHADEDGE
 70
     3
  9
$SHADEDIF
 70
    70
  9
$TILEMODE
 70
     1
  9
$MAXACTVP
 70
    64
  9
$PINSBASE
 10
0.0
 20
0.0
 30
0.0
  9
$PLIMCHECK
 70
     0
  9
$PEXTMIN
 10
1.0000000000E+20
 20
1.0000000000E+20
 30
1.0000000000E+20
  9
$PEXTMAX
 10
-1.0000000000E+20
 20
-1.0000000000E+20
 30
-1.0000000000E+20
  9
$PLIMMIN
 10
0.0
 20
0.0
  9
$PLIMMAX
 10
420.0
 20
297.0
  9
$UNITMODE
 70
     0
  9
$VISRETAIN
 70
     1
  9
$PLINEGEN
 70
     0
  9
$PSLTSCALE
 70
     1
  9
$TREEDEPTH
 70
  3020
  9
$CMLSTYLE
  2
Standard
  9
$CMLJUST
 70
     0
  9
$CMLSCALE
 40
20.0
  9
$PROXYGRAPHICS
 70
     1
  9
$MEASUREMENT
 70
     1
  9
$CELWEIGHT
370
    -1
  9
$ENDCAPS
280
     0
  9
$JOINSTYLE
280
     0
  9
$LWDISPLAY
290
     1
  9
$INSUNITS
 70
     4
  9
$HYPERLINKBASE
  1

  9
$STYLESHEET
  1

  9
$XEDIT
290
     1
  9
$CEPSNTYPE
380
     0
  9
$PSTYLEMODE
290
     1
  9
$FINGERPRINTGUID
  2
{f223f198-1e91-46e9-88dd-494f0bcadc6c}
  9
$VERSIONGUID
  2
{FAEB1C32-E019-11D5-929B-00C0DF256EC4}
  9
$EXTNAMES
290
     1
  9
$PSVPSCALE
 40
0.0
  9
$OLESTARTUP
290
     0
  0
ENDSEC
  0
SECTION
  2
CLASSES
  0
CLASS
  1
ACDBDICTIONARYWDFLT
  2
AcDbDictionaryWithDefault
  3
ObjectDBX Classes
 90
        0
280
     0
281
     0
  0
CLASS
  1
VISUALSTYLE
  2
AcDbVisualStyle
  3
ObjectDBX Classes
 90
     4095
280
     0
281
     0
  0
CLASS
  1
MATERIAL
  2
AcDbMaterial
  3
ObjectDBX Classes
 90
     1153
280
     0
281
     0
  0
CLASS
  1
SCALE
  2
AcDbScale
  3
ObjectDBX Classes
 90
     1153
280
     0
281
     0
  0
CLASS
  1
TABLESTYLE
  2
AcDbTableStyle
  3
ObjectDBX Classes
 90
     4095
280
     0
281
     0
  0
CLASS
  1
MLEADERSTYLE
  2
AcDbMLeaderStyle
  3
ACDB_MLEADERSTYLE_CLASS
 90
     4095
280
     0
281
     0
  0
CLASS
  1
SUN
  2
AcDbSun
  3
SCENEOE
 90
     1153
280
     0
281
     0
  0
CLASS
  1
ACDBPLACEHOLDER
  2
AcDbPlaceHolder
  3
ObjectDBX Classes
 90
        0
280
     0
281
     0
  0
CLASS
  1
LAYOUT
  2
AcDbLayout
  3
ObjectDBX Classes
 90
        0
280
     0
281
     0
  0
ENDSEC
  0
SECTION
  2
TABLES
  0
TABLE
  2
VPORT
  5
8
330
0
100
AcDbSymbolTable
 70
     1
  0
VPORT
  5
29
330
8
100
AcDbSymbolTableRecord
100
AcDbViewportTableRecord
  2
*Active
 70
     0
 10
0.0
 20
0.0
 11
1.0
 21
1.0
 12
-330.9044956064
 22
581.3269396729
 13
0.0
 23
0.0
 14
10.0
 24
10.0
 15
10.0
 25
10.0
 16
0.0
 26
0.0
 36
1.0
 17
0.0
 27
0.0
 37
0.0
 40
1167.5893184703
 41
0.6605998804
 42
50.0
 43
0.0
 44
0.0
 50
0.0
 51
0.0
 71
     0
 72
   100
 73
     1
 74
     3
 75
     0
 76
     0
 77
     0
 78
     0
281
     0
 65
     1
110
0.0
120
0.0
130
0.0
111
1.0
121
0.0
131
0.0
112
0.0
122
1.0
132
0.0
 79
     0
146
0.0
  0
ENDTAB
  0
TABLE
  2
LTYPE
  5
5
330
0
100
AcDbSymbolTable
 70
     6
  0
LTYPE
  5
14
330
5
100
AcDbSymbolTableRecord
100
AcDbLinetypeTableRecord
  2
ByBlock
 70
     0
  3

 72
    65
 73
     0
 40
0.0
  0
LTYPE
  5
15
330
5
100
AcDbSymbolTableRecord
100
AcDbLinetypeTableRecord
  2
ByLayer
 70
     0
  3

 72
    65
 73
     0
 40
0.0
  0
LTYPE
  5
16
330
5
100
AcDbSymbolTableRecord
100
AcDbLinetypeTableRecord
  2
Continuous
 70
     0
  3
Solid line
 72
    65
 73
     0
 40
0.0
  0
LTYPE
  5
5E
330
5
100
AcDbSymbolTableRecord
100
AcDbLinetypeTableRecord
  2
HIDDEN
 70
     0
  3
Hidden __ __ __ __ __ __ __ __ __ __ __ __ __ __
 72
    65
 73
     2
 40
1.905
 49
1.27
 74
     0
 49
-0.635
 74
     0
  0
LTYPE
  5
5F
330
5
100
AcDbSymbolTableRecord
100
AcDbLinetypeTableRecord
  2
PHANTOM
 70
     0
  3
Phantom ______  __  __  ______  __  __  ______
 72
    65
 73
     6
 40
12.7
 49
6.35
 74
     0
 49
-1.27
 74
     0
 49
1.27
 74
     0
 49
-1.27
 74
     0
 49
1.27
 74
     0
 49
-1.27
 74
     0
  0
LTYPE
  5
60
330
5
100
AcDbSymbolTableRecord
100
AcDbLinetypeTableRecord
  2
CENTER
 70
     0
  3
Center ____ _ ____ _ ____ _ ____ _ ____ _ ____
 72
    65
 73
     4
 40
10.16
 49
6.35
 74
     0
 49
-1.27
 74
     0
 49
1.27
 74
     0
 49
-1.27
 74
     0
  0
LTYPE
  5
61
330
5
100
AcDbSymbolTableRecord
100
AcDbLinetypeTableRecord
  2
CENTERX2
 70
     0
  3
Center (2x) ________  __  ________  __  _____
 72
    65
 73
     4
 40
20.32
 49
12.7
 74
     0
 49
-2.54
 74
     0
 49
2.54
 74
     0
 49
-2.54
 74
     0
  0
LTYPE
  5
62
330
5
100
AcDbSymbolTableRecord
100
AcDbLinetypeTableRecord
  2
DOT2
 70
     0
  3
Dot (.5x) ........................................
 72
    65
 73
     2
 40
0.635
 49
0.0
 74
     0
 49
-0.635
 74
     0
  0
ENDTAB
  0
TABLE
  2
LAYER
  5
2
330
0
100
AcDbSymbolTable
 70
     1
  0
LAYER
  5
10
330
2
100
AcDbSymbolTableRecord
100
AcDbLayerTableRecord
  2
0
 70
     0
 62
     7
  6
Continuous
370
    -3
390
F
  0
ENDTAB
  0
TABLE
  2
STYLE
  5
3
330
0
100
AcDbSymbolTable
 70
     1
  0
STYLE
  5
11
330
3
100
AcDbSymbolTableRecord
100
AcDbTextStyleTableRecord
  2
Standard
 70
     0
 40
0.0
 41
1.0
 50
0.0
 71
     0
 42
3.5
  3
txt
  4

  0
ENDTAB
  0
TABLE
  2
VIEW
  5
6
330
0
100
AcDbSymbolTable
 70
     0
  0
ENDTAB
  0
TABLE
  2
UCS
  5
7
330
0
100
AcDbSymbolTable
 70
     0
  0
ENDTAB
  0
TABLE
  2
APPID
  5
9
330
0
100
AcDbSymbolTable
 70
     1
  0
APPID
  5
12
330
9
100
AcDbSymbolTableRecord
100
AcDbRegAppTableRecord
  2
ACAD
 70
     0
  0
ENDTAB
  0
TABLE
  2
DIMSTYLE
  5
A
330
0
100
AcDbSymbolTable
 70
     1
100
AcDbDimStyleTable
  0
DIMSTYLE
105
27
330
A
100
AcDbSymbolTableRecord
100
AcDbDimStyleTableRecord
  2
ISO-25
 70
     0
 41
2.5
 42
0.625
 43
3.75
 44
1.25
 73
     0
 74
     0
 77
     1
 78
     8
140
2.5
141
2.5
143
0.0393700787
147
0.625
171
     3
172
     1
178
     0
271
     2
272
     2
274
     3
278
    44
283
     0
284
     8
340
11
  0
ENDTAB
  0
TABLE
  2
BLOCK_RECORD
  5
1
330
0
100
AcDbSymbolTable
 70
     1
  0
BLOCK_RECORD
  5
1F
330
1
100
AcDbSymbolTableRecord
100
AcDbBlockTableRecord
  2
*Model_Space
340
22
  0
BLOCK_RECORD
  5
1B
330
1
100
AcDbSymbolTableRecord
100
AcDbBlockTableRecord
  2
*Paper_Space
340
1E
  0
BLOCK_RECORD
  5
23
330
1
100
AcDbSymbolTableRecord
100
AcDbBlockTableRecord
  2
*Paper_Space0
340
26
  0
ENDTAB
  0
ENDSEC
  0
SECTION
  2
BLOCKS
  0
BLOCK
  5
20
330
1F
100
AcDbEntity
  8
0
100
AcDbBlockBegin
  2
*Model_Space
 70
     0
 10
0.0
 20
0.0
 30
0.0
  3
*Model_Space
  1

  0
ENDBLK
  5
21
330
1F
100
AcDbEntity
  8
0
100
AcDbBlockEnd
  0
BLOCK
  5
1C
330
1B
100
AcDbEntity
 67
     1
  8
0
100
AcDbBlockBegin
  2
*Paper_Space
 70
     0
 10
0.0
 20
0.0
 30
0.0
  3
*Paper_Space
  1

  0
ENDBLK
  5
1D
330
1B
100
AcDbEntity
 67
     1
  8
0
100
AcDbBlockEnd
  0
BLOCK
  5
24
330
23
100
AcDbEntity
  8
0
100
AcDbBlockBegin
  2
*Paper_Space0
 70
     0
 10
0.0
 20
0.0
 30
0.0
  3
*Paper_Space0
  1

  0
ENDBLK
  5
25
330
23
100
AcDbEntity
  8
0
100
AcDbBlockEnd
  0
ENDSEC
  0
SECTION
  2
ENTITIES
  0
CIRCLE
  5
17B
330
1F
100
AcDbEntity
  8
0
  6
Continuous
 62
     7
370
    25
100
AcDbCircle
 10
-347.5211144447
 20
930.5751507058
 30
0.0
 40
15.00000000000034
  0
CIRCLE
  5
2B4
330
1F
100
AcDbEntity
  8
0
  6
Continuous
 62
     7
370
    25
100
AcDbCircle
 10
-549.1200800751
 20
787.6687909658
 30
0.0
 40
1.400000000000205
  0
CIRCLE
  5
2B5
330
1F
100
AcDbEntity
  8
0
  6
Continuous
 62
     7
370
    25
100
AcDbCircle
 10
-549.1200800751
 20
783.1687909658
 30
0.0
 40
1.399999999999977
  0
CIRCLE
  5
2B6
330
1F
100
AcDbEntity
  8
0
  6
Continuous
 62
     7
370
    25
100
AcDbCircle
 10
-540.1200800751
 20
787.6687909658
 30
0.0
 40
1.400000000000205
  0
CIRCLE
  5
2B7
330
1F
100
AcDbEntity
  8
0
  6
Continuous
 62
     7
370
    25
100
AcDbCircle
 10
-540.1200800751
 20
783.1687909658
 30
0.0
 40
1.399999999999864
  0
CIRCLE
  5
2B8
330
1F
100
AcDbEntity
  8
0
  6
Continuous
 62
     7
370
    25
100
AcDbCircle
 10
-540.1200800751
 20
778.6687909658
 30
0.0
 40
1.399999999999864
  0
CIRCLE
  5
2BC
330
1F
100
AcDbEntity
  8
0
  6
Continuous
 62
     7
370
    25
100
AcDbCircle
 10
-561.5906428236
 20
783.1687909658
 30
0.0
 40
30.97056274847716
  0
CIRCLE
  5
2BD
330
1F
100
AcDbEntity
  8
0
  6
Continuous
 62
     7
370
    25
100
AcDbCircle
 10
-549.1200800751
 20
778.6687909658
 30
0.0
 40
1.399999999999977
  0
CIRCLE
  5
2BE
330
1F
100
AcDbEntity
  8
0
  6
Continuous
 62
     7
370
    25
100
AcDbCircle
 10
-578.561205572
 20
783.1687909658
 30
0.0
 40
9.999999999999773
  0
CIRCLE
  5
2BF
330
1F
100
AcDbEntity
  8
0
  6
Continuous
 62
     7
370
    25
100
AcDbCircle
 10
-544.6200800751
 20
778.6687909658
 30
0.0
 40
1.399999999999977
  0
CIRCLE
  5
2C0
330
1F
100
AcDbEntity
  8
0
  6
Continuous
 62
     7
370
    25
100
AcDbCircle
 10
-544.6200800751
 20
787.6687909658
 30
0.0
 40
1.400000000000205
  0
CIRCLE
  5
2C1
330
1F
100
AcDbEntity
  8
0
  6
Continuous
 62
     7
370
    25
100
AcDbCircle
 10
-544.6200800751
 20
783.1687909658
 30
0.0
 40
1.399999999999977
  0
CIRCLE
  5
2C3
330
1F
100
AcDbEntity
  8
0
  6
Continuous
 62
     7
370
    25
100
AcDbCircle
 10
-561.5906428236
 20
783.1687909658
 30
0.0
 40
1.75
  0
CIRCLE
  5
3EC
330
1F
100
AcDbEntity
  8
0
  6
Continuous
 62
     7
370
    25
100
AcDbCircle
 10
-654.1380105864
 20
73.6714304746
 30
0.0
 40
0.7499999999999858
  0
CIRCLE
  5
3ED
330
1F
100
AcDbEntity
  8
0
  6
Continuous
 62
     7
370
    25
100
AcDbCircle
 10
-671.1085733349
 20
73.6714304746
 30
0.0
 40
10.00000000000024
  0
LINE
  5
412
330
1F
100
AcDbEntity
  8
0
  6
Continuous
 62
     7
370
    25
100
AcDbLine
 10
-48.187449536
 20
1043.4409824139
 30
0.0
 11
20.0982647497
 21
1043.4409824139
 31
0.0
  0
LINE
  5
413
330
1F
100
AcDbEntity
  8
0
  6
Continuous
 62
     7
370
    25
100
AcDbLine
 10
-48.187449536
 20
1043.4409824139
 30
0.0
 11
-48.187449536
 21
1049.4409824139
 31
0.0
  0
LINE
  5
414
330
1F
100
AcDbEntity
  8
0
  6
Continuous
 62
     7
370
    25
100
AcDbLine
 10
-48.187449536
 20
1049.4409824139
 30
0.0
 11
-116.4731638217
 21
1049.4409824139
 31
0.0
  0
LINE
  5
415
330
1F
100
AcDbEntity
  8
0
  6
Continuous
 62
     7
370
    25
100
AcDbLine
 10
-116.4731638217
 20
1043.4409824139
 30
0.0
 11
-116.4731638217
 21
1049.4409824139
 31
0.0
  0
LINE
  5
416
330
1F
100
AcDbEntity
  8
0
  6
Continuous
 62
     7
370
    25
100
AcDbLine
 10
-116.4731638217
 20
1043.4409824139
 30
0.0
 11
-184.7588781074
 21
1043.4409824139
 31
0.0
  0
LINE
  5
417
330
1F
100
AcDbEntity
  8
0
  6
Continuous
 62
     7
370
    25
100
AcDbLine
 10
-184.7588781074
 20
1043.4409824139
 30
0.0
 11
-184.7588781074
 21
1049.4409824139
 31
0.0
  0
LINE
  5
418
330
1F
100
AcDbEntity
  8
0
  6
Continuous
 62
     7
370
    25
100
AcDbLine
 10
-184.7588781074
 20
1049.4409824139
 30
0.0
 11
-253.0445923931
 21
1049.4409824139
 31
0.0
  0
LINE
  5
419
330
1F
100
AcDbEntity
  8
0
  6
Continuous
 62
     7
370
    25
100
AcDbLine
 10
-253.0445923931
 20
1043.4409824139
 30
0.0
 11
-253.0445923931
 21
1049.4409824139
 31
0.0
  0
LINE
  5
41A
330
1F
100
AcDbEntity
  8
0
  6
Continuous
 62
     7
370
    25
100
AcDbLine
 10
-253.0445923931
 20
1043.4409824139
 30
0.0
 11
-321.3303066788
 21
1043.4409824139
 31
0.0
  0
LINE
  5
41B
330
1F
100
AcDbEntity
  8
0
  6
Continuous
 62
     7
370
    25
100
AcDbLine
 10
-321.3303066788
 20
1043.4409824139
 30
0.0
 11
-321.3303066788
 21
1049.4409824139
 31
0.0
  0
LINE
  5
41C
330
1F
100
AcDbEntity
  8
0
  6
Continuous
 62
     7
370
    25
100
AcDbLine
 10
-321.3303066788
 20
1049.4409824139
 30
0.0
 11
-389.6160209646
 21
1049.4409824139
 31
0.0
  0
LINE
  5
41D
330
1F
100
AcDbEntity
  8
0
  6
Continuous
 62
     7
370
    25
100
AcDbLine
 10
-389.6160209646
 20
1043.4409824139
 30
0.0
 11
-389.6160209646
 21
1049.4409824139
 31
0.0
  0
LINE
  5
41E
330
1F
100
AcDbEntity
  8
0
  6
Continuous
 62
     7
370
    25
100
AcDbLine
 10
-389.6160209646
 20
1043.4409824139
 30
0.0
 11
-457.9017352503
 21
1043.4409824139
 31
0.0
  0
LINE
  5
41F
330
1F
100
AcDbEntity
  8
0
  6
Continuous
 62
     7
370
    25
100
AcDbLine
 10
-457.9017352503
 20
1062.7743157472
 30
0.0
 11
-457.9017352503
 21
1043.4409824139
 31
0.0
  0
LINE
  5
420
330
1F
100
AcDbEntity
  8
0
  6
Continuous
 62
     7
370
    25
100
AcDbLine
 10
-451.9017352503
 20
1062.7743157472
 30
0.0
 11
-457.9017352503
 21
1062.7743157472
 31
0.0
  0
LINE
  5
421
330
1F
100
AcDbEntity
  8
0
  6
Continuous
 62
     7
370
    25
100
AcDbLine
 10
-451.9017352503
 20
1076.1076490806
 30
0.0
 11
-451.9017352503
 21
1062.7743157472
 31
0.0
  0
LINE
  5
422
330
1F
100
AcDbEntity
  8
0
  6
Continuous
 62
     7
370
    25
100
AcDbLine
 10
-457.9017352503
 20
1076.1076490806
 30
0.0
 11
-451.9017352503
 21
1076.1076490806
 31
0.0
  0
LINE
  5
423
330
1F
100
AcDbEntity
  8
0
  6
Continuous
 62
     7
370
    25
100
AcDbLine
 10
-457.9017352503
 20
1089.4409824139
 30
0.0
 11
-457.9017352503
 21
1076.1076490806
 31
0.0
  0
LINE
  5
424
330
1F
100
AcDbEntity
  8
0
  6
Continuous
 62
     7
370
    25
100
AcDbLine
 10
20.0982647497
 20
1089.4409824139
 30
0.0
 11
-457.9017352503
 21
1089.4409824139
 31
0.0
  0
LINE
  5
425
330
1F
100
AcDbEntity
  8
0
  6
Continuous
 62
     7
370
    25
100
AcDbLine
 10
20.0982647497
 20
1089.4409824139
 30
0.0
 11
20.0982647497
 21
1076.1076490806
 31
0.0
  0
LINE
  5
426
330
1F
100
AcDbEntity
  8
0
  6
Continuous
 62
     7
370
    25
100
AcDbLine
 10
20.0982647497
 20
1076.1076490806
 30
0.0
 11
14.0982647497
 21
1076.1076490806
 31
0.0
  0
LINE
  5
427
330
1F
100
AcDbEntity
  8
0
  6
Continuous
 62
     7
370
    25
100
AcDbLine
 10
14.0982647497
 20
1076.1076490806
 30
0.0
 11
14.0982647497
 21
1062.7743157472
 31
0.0
  0
LINE
  5
428
330
1F
100
AcDbEntity
  8
0
  6
Continuous
 62
     7
370
    25
100
AcDbLine
 10
14.0982647497
 20
1062.7743157472
 30
0.0
 11
20.0982647497
 21
1062.7743157472
 31
0.0
  0
LINE
  5
429
330
1F
100
AcDbEntity
  8
0
  6
Continuous
 62
     7
370
    25
100
AcDbLine
 10
20.0982647497
 20
1062.7743157472
 30
0.0
 11
20.0982647497
 21
1043.4409824139
 31
0.0
  0
LINE
  5
42A
330
1F
100
AcDbEntity
  8
0
  6
Continuous
 62
     7
370
    25
100
AcDbLine
 10
-45.7988595743
 20
993.9868370817
 30
0.0
 11
22.4868547114
 21
993.9868370817
 31
0.0
  0
LINE
  5
42B
330
1F
100
AcDbEntity
  8
0
  6
Continuous
 62
     7
370
    25
100
AcDbLine
 10
-45.7988595743
 20
993.9868370817
 30
0.0
 11
-45.7988595743
 21
999.9868370817
 31
0.0
  0
LINE
  5
42C
330
1F
100
AcDbEntity
  8
0
  6
Continuous
 62
     7
370
    25
100
AcDbLine
 10
-45.7988595743
 20
999.9868370817
 30
0.0
 11
-114.08457386
 21
999.9868370817
 31
0.0
  0
LINE
  5
42D
330
1F
100
AcDbEntity
  8
0
  6
Continuous
 62
     7
370
    25
100
AcDbLine
 10
-114.08457386
 20
993.9868370817
 30
0.0
 11
-114.08457386
 21
999.9868370817
 31
0.0
  0
LINE
  5
42E
330
1F
100
AcDbEntity
  8
0
  6
Continuous
 62
     7
370
    25
100
AcDbLine
 10
-114.08457386
 20
993.9868370817
 30
0.0
 11
-182.3702881458
 21
993.9868370817
 31
0.0
  0
LINE
  5
42F
330
1F
100
AcDbEntity
  8
0
  6
Continuous
 62
     7
370
    25
100
AcDbLine
 10
-182.3702881458
 20
993.9868370817
 30
0.0
 11
-182.3702881458
 21
999.9868370817
 31
0.0
  0
LINE
  5
430
330
1F
100
AcDbEntity
  8
0
  6
Continuous
 62
     7
370
    25
100
AcDbLine
 10
-182.3702881458
 20
999.9868370817
 30
0.0
 11
-250.6560024315
 21
999.9868370817
 31
0.0
  0
LINE
  5
431
330
1F
100
AcDbEntity
  8
0
  6
Continuous
 62
     7
370
    25
100
AcDbLine
 10
-250.6560024315
 20
993.9868370817
 30
0.0
 11
-250.6560024315
 21
999.9868370817
 31
0.0
  0
LINE
  5
432
330
1F
100
AcDbEntity
  8
0
  6
Continuous
 62
     7
370
    25
100
AcDbLine
 10
-250.6560024315
 20
993.9868370817
 30
0.0
 11
-318.9417167172
 21
993.9868370817
 31
0.0
  0
LINE
  5
433
330
1F
100
AcDbEntity
  8
0
  6
Continuous
 62
     7
370
    25
100
AcDbLine
 10
-318.9417167172
 20
993.9868370817
 30
0.0
 11
-318.9417167172
 21
999.9868370817
 31
0.0
  0
LINE
  5
434
330
1F
100
AcDbEntity
  8
0
  6
Continuous
 62
     7
370
    25
100
AcDbLine
 10
-318.9417167172
 20
999.9868370817
 30
0.0
 11
-387.2274310029
 21
999.9868370817
 31
0.0
  0
LINE
  5
435
330
1F
100
AcDbEntity
  8
0
  6
Continuous
 62
     7
370
    25
100
AcDbLine
 10
-387.2274310029
 20
993.9868370817
 30
0.0
 11
-387.2274310029
 21
999.9868370817
 31
0.0
  0
LINE
  5
436
330
1F
100
AcDbEntity
  8
0
  6
Continuous
 62
     7
370
    25
100
AcDbLine
 10
-387.2274310029
 20
993.9868370817
 30
0.0
 11
-455.5131452886
 21
993.9868370817
 31
0.0
  0
LINE
  5
437
330
1F
100
AcDbEntity
  8
0
  6
Continuous
 62
     7
370
    25
100
AcDbLine
 10
-455.5131452886
 20
1013.3201704151
 30
0.0
 11
-455.5131452886
 21
993.9868370817
 31
0.0
  0
LINE
  5
438
330
1F
100
AcDbEntity
  8
0
  6
Continuous
 62
     7
370
    25
100
AcDbLine
 10
-449.5131452886
 20
1013.3201704151
 30
0.0
 11
-455.5131452886
 21
1013.3201704151
 31
0.0
  0
LINE
  5
439
330
1F
100
AcDbEntity
  8
0
  6
Continuous
 62
     7
370
    25
100
AcDbLine
 10
-449.5131452886
 20
1026.6535037484
 30
0.0
 11
-449.5131452886
 21
1013.3201704151
 31
0.0
  0
LINE
  5
43A
330
1F
100
AcDbEntity
  8
0
  6
Continuous
 62
     7
370
    25
100
AcDbLine
 10
-455.5131452886
 20
1026.6535037484
 30
0.0
 11
-449.5131452886
 21
1026.6535037484
 31
0.0
  0
LINE
  5
43B
330
1F
100
AcDbEntity
  8
0
  6
Continuous
 62
     7
370
    25
100
AcDbLine
 10
-455.5131452886
 20
1039.9868370817
 30
0.0
 11
-455.5131452886
 21
1026.6535037484
 31
0.0
  0
LINE
  5
43C
330
1F
100
AcDbEntity
  8
0
  6
Continuous
 62
     7
370
    25
100
AcDbLine
 10
22.4868547114
 20
1039.9868370817
 30
0.0
 11
-455.5131452886
 21
1039.9868370817
 31
0.0
  0
LINE
  5
43D
330
1F
100
AcDbEntity
  8
0
  6
Continuous
 62
     7
370
    25
100
AcDbLine
 10
22.4868547114
 20
1039.9868370817
 30
0.0
 11
22.4868547114
 21
1026.6535037484
 31
0.0
  0
LINE
  5
43E
330
1F
100
AcDbEntity
  8
0
  6
Continuous
 62
     7
370
    25
100
AcDbLine
 10
22.4868547114
 20
1026.6535037484
 30
0.0
 11
16.4868547114
 21
1026.6535037484
 31
0.0
  0
LINE
  5
43F
330
1F
100
AcDbEntity
  8
0
  6
Continuous
 62
     7
370
    25
100
AcDbLine
 10
16.4868547114
 20
1026.6535037484
 30
0.0
 11
16.4868547114
 21
1013.320170415
 31
0.0
  0
LINE
  5
440
330
1F
100
AcDbEntity
  8
0
  6
Continuous
 62
     7
370
    25
100
AcDbLine
 10
16.4868547114
 20
1013.320170415
 30
0.0
 11
22.4868547114
 21
1013.320170415
 31
0.0
  0
LINE
  5
441
330
1F
100
AcDbEntity
  8
0
  6
Continuous
 62
     7
370
    25
100
AcDbLine
 10
22.4868547114
 20
1013.320170415
 30
0.0
 11
22.4868547114
 21
993.9868370817
 31
0.0
  0
LINE
  5
442
330
1F
100
AcDbEntity
  8
0
  6
Continuous
 62
     7
370
    25
100
AcDbLine
 10
-105.6688128903
 20
1095.8375491457
 30
0.0
 11
-105.6688128903
 21
1101.8375491457
 31
0.0
  0
LINE
  5
443
330
1F
100
AcDbEntity
  8
0
  6
Continuous
 62
     7
370
    25
100
AcDbLine
 10
-105.6688128903
 20
1095.8375491457
 30
0.0
 11
-179.0973843189
 21
1095.8375491457
 31
0.0
  0
LINE
  5
444
330
1F
100
AcDbEntity
  8
0
  6
Continuous
 62
     7
370
    25
100
AcDbLine
 10
-179.0973843189
 20
1095.8375491457
 30
0.0
 11
-179.0973843189
 21
1101.8375491457
 31
0.0
  0
LINE
  5
445
330
1F
100
AcDbEntity
  8
0
  6
Continuous
 62
     7
370
    25
100
AcDbLine
 10
-179.0973843189
 20
1101.8375491457
 30
0.0
 11
-252.5259557474
 21
1101.8375491457
 31
0.0
  0
LINE
  5
446
330
1F
100
AcDbEntity
  8
0
  6
Continuous
 62
     7
370
    25
100
AcDbLine
 10
-252.5259557474
 20
1095.8375491457
 30
0.0
 11
-252.5259557474
 21
1101.8375491457
 31
0.0
  0
LINE
  5
447
330
1F
100
AcDbEntity
  8
0
  6
Continuous
 62
     7
370
    25
100
AcDbLine
 10
-252.5259557474
 20
1095.8375491457
 30
0.0
 11
-325.954527176
 21
1095.8375491457
 31
0.0
  0
LINE
  5
448
330
1F
100
AcDbEntity
  8
0
  6
Continuous
 62
     7
370
    25
100
AcDbLine
 10
-325.954527176
 20
1095.8375491457
 30
0.0
 11
-325.954527176
 21
1101.8375491457
 31
0.0
  0
LINE
  5
449
330
1F
100
AcDbEntity
  8
0
  6
Continuous
 62
     7
370
    25
100
AcDbLine
 10
-325.954527176
 20
1101.8375491457
 30
0.0
 11
-399.3830986046
 21
1101.8375491457
 31
0.0
  0
LINE
  5
44A
330
1F
100
AcDbEntity
  8
0
  6
Continuous
 62
     7
370
    25
100
AcDbLine
 10
-399.3830986046
 20
1095.8375491457
 30
0.0
 11
-399.3830986046
 21
1101.8375491457
 31
0.0
  0
LINE
  5
44B
330
1F
100
AcDbEntity
  8
0
  6
Continuous
 62
     7
370
    25
100
AcDbLine
 10
-399.3830986046
 20
1095.8375491457
 30
0.0
 11
-472.8116700331
 21
1095.8375491457
 31
0.0
  0
LINE
  5
44C
330
1F
100
AcDbEntity
  8
0
  6
Continuous
 62
     7
370
    25
100
AcDbLine
 10
-472.8116700331
 20
1108.5042158124
 30
0.0
 11
-472.8116700331
 21
1095.8375491457
 31
0.0
  0
LINE
  5
44D
330
1F
100
AcDbEntity
  8
0
  6
Continuous
 62
     7
370
    25
100
AcDbLine
 10
-478.8116700331
 20
1108.5042158124
 30
0.0
 11
-472.8116700331
 21
1108.5042158124
 31
0.0
  0
LINE
  5
44E
330
1F
100
AcDbEntity
  8
0
  6
Continuous
 62
     7
370
    25
100
AcDbLine
 10
-478.8116700331
 20
1108.5042158124
 30
0.0
 11
-478.8116700331
 21
1115.1708824791
 31
0.0
  0
LINE
  5
44F
330
1F
100
AcDbEntity
  8
0
  6
Continuous
 62
     7
370
    25
100
AcDbLine
 10
-478.8116700331
 20
1115.1708824791
 30
0.0
 11
-472.8116700331
 21
1115.1708824791
 31
0.0
  0
LINE
  5
450
330
1F
100
AcDbEntity
  8
0
  6
Continuous
 62
     7
370
    25
100
AcDbLine
 10
-472.8116700331
 20
1121.8375491457
 30
0.0
 11
-472.8116700331
 21
1115.1708824791
 31
0.0
  0
LINE
  5
451
330
1F
100
AcDbEntity
  8
0
  6
Continuous
 62
     7
370
    25
100
AcDbLine
 10
41.1883299669
 20
1121.8375491457
 30
0.0
 11
-472.8116700331
 21
1121.8375491457
 31
0.0
  0
LINE
  5
452
330
1F
100
AcDbEntity
  8
0
  6
Continuous
 62
     7
370
    25
100
AcDbLine
 10
41.1883299669
 20
1121.8375491457
 30
0.0
 11
41.1883299669
 21
1115.1708824791
 31
0.0
  0
LINE
  5
453
330
1F
100
AcDbEntity
  8
0
  6
Continuous
 62
     7
370
    25
100
AcDbLine
 10
47.1883299669
 20
1115.1708824791
 30
0.0
 11
41.1883299669
 21
1115.1708824791
 31
0.0
  0
LINE
  5
454
330
1F
100
AcDbEntity
  8
0
  6
Continuous
 62
     7
370
    25
100
AcDbLine
 10
47.1883299669
 20
1108.5042158124
 30
0.0
 11
47.1883299669
 21
1115.1708824791
 31
0.0
  0
LINE
  5
455
330
1F
100
AcDbEntity
  8
0
  6
Continuous
 62
     7
370
    25
100
AcDbLine
 10
47.1883299669
 20
1108.5042158124
 30
0.0
 11
41.1883299669
 21
1108.5042158124
 31
0.0
  0
LINE
  5
456
330
1F
100
AcDbEntity
  8
0
  6
Continuous
 62
     7
370
    25
100
AcDbLine
 10
41.1883299669
 20
1108.5042158124
 30
0.0
 11
41.1883299669
 21
1095.8375491457
 31
0.0
  0
LINE
  5
457
330
1F
100
AcDbEntity
  8
0
  6
Continuous
 62
     7
370
    25
100
AcDbLine
 10
41.1883299669
 20
1095.8375491457
 30
0.0
 11
-32.2402414617
 21
1095.8375491457
 31
0.0
  0
LINE
  5
458
330
1F
100
AcDbEntity
  8
0
  6
Continuous
 62
     7
370
    25
100
AcDbLine
 10
-32.2402414617
 20
1095.8375491457
 30
0.0
 11
-32.2402414617
 21
1101.8375491457
 31
0.0
  0
LINE
  5
459
330
1F
100
AcDbEntity
  8
0
  6
Continuous
 62
     7
370
    25
100
AcDbLine
 10
-32.2402414617
 20
1101.8375491457
 30
0.0
 11
-105.6688128903
 21
1101.8375491457
 31
0.0
  0
LINE
  5
45A
330
1F
100
AcDbEntity
  8
0
  6
Continuous
 62
     7
370
    25
100
AcDbLine
 10
-133.3835945887
 20
1127.6746448054
 30
0.0
 11
-133.3835945887
 21
1133.6746448054
 31
0.0
  0
LINE
  5
45B
330
1F
100
AcDbEntity
  8
0
  6
Continuous
 62
     7
370
    25
100
AcDbLine
 10
-133.3835945887
 20
1127.6746448054
 30
0.0
 11
-206.8121660172
 21
1127.6746448054
 31
0.0
  0
LINE
  5
45C
330
1F
100
AcDbEntity
  8
0
  6
Continuous
 62
     7
370
    25
100
AcDbLine
 10
-206.8121660172
 20
1127.6746448054
 30
0.0
 11
-206.8121660172
 21
1133.6746448054
 31
0.0
  0
LINE
  5
45D
330
1F
100
AcDbEntity
  8
0
  6
Continuous
 62
     7
370
    25
100
AcDbLine
 10
-206.8121660172
 20
1133.6746448054
 30
0.0
 11
-280.2407374458
 21
1133.6746448054
 31
0.0
  0
LINE
  5
45E
330
1F
100
AcDbEntity
  8
0
  6
Continuous
 62
     7
370
    25
100
AcDbLine
 10
-280.2407374458
 20
1127.6746448054
 30
0.0
 11
-280.2407374458
 21
1133.6746448054
 31
0.0
  0
LINE
  5
45F
330
1F
100
AcDbEntity
  8
0
  6
Continuous
 62
     7
370
    25
100
AcDbLine
 10
-280.2407374458
 20
1127.6746448054
 30
0.0
 11
-353.6693088744
 21
1127.6746448054
 31
0.0
  0
LINE
  5
460
330
1F
100
AcDbEntity
  8
0
  6
Continuous
 62
     7
370
    25
100
AcDbLine
 10
-353.6693088744
 20
1127.6746448054
 30
0.0
 11
-353.6693088744
 21
1133.6746448054
 31
0.0
  0
LINE
  5
461
330
1F
100
AcDbEntity
  8
0
  6
Continuous
 62
     7
370
    25
100
AcDbLine
 10
-353.6693088744
 20
1133.6746448054
 30
0.0
 11
-427.097880303
 21
1133.6746448054
 31
0.0
  0
LINE
  5
462
330
1F
100
AcDbEntity
  8
0
  6
Continuous
 62
     7
370
    25
100
AcDbLine
 10
-427.097880303
 20
1127.6746448054
 30
0.0
 11
-427.097880303
 21
1133.6746448054
 31
0.0
  0
LINE
  5
463
330
1F
100
AcDbEntity
  8
0
  6
Continuous
 62
     7
370
    25
100
AcDbLine
 10
-427.097880303
 20
1127.6746448054
 30
0.0
 11
-500.5264517315
 21
1127.6746448054
 31
0.0
  0
LINE
  5
464
330
1F
100
AcDbEntity
  8
0
  6
Continuous
 62
     7
370
    25
100
AcDbLine
 10
-500.5264517315
 20
1140.341311472
 30
0.0
 11
-500.5264517315
 21
1127.6746448054
 31
0.0
  0
LINE
  5
465
330
1F
100
AcDbEntity
  8
0
  6
Continuous
 62
     7
370
    25
100
AcDbLine
 10
-506.5264517315
 20
1140.341311472
 30
0.0
 11
-500.5264517315
 21
1140.341311472
 31
0.0
  0
LINE
  5
466
330
1F
100
AcDbEntity
  8
0
  6
Continuous
 62
     7
370
    25
100
AcDbLine
 10
-506.5264517315
 20
1140.341311472
 30
0.0
 11
-506.5264517315
 21
1147.0079781387
 31
0.0
  0
LINE
  5
467
330
1F
100
AcDbEntity
  8
0
  6
Continuous
 62
     7
370
    25
100
AcDbLine
 10
-506.5264517315
 20
1147.0079781387
 30
0.0
 11
-500.5264517315
 21
1147.0079781387
 31
0.0
  0
LINE
  5
468
330
1F
100
AcDbEntity
  8
0
  6
Continuous
 62
     7
370
    25
100
AcDbLine
 10
-500.5264517315
 20
1153.6746448054
 30
0.0
 11
-500.5264517315
 21
1147.0079781387
 31
0.0
  0
LINE
  5
469
330
1F
100
AcDbEntity
  8
0
  6
Continuous
 62
     7
370
    25
100
AcDbLine
 10
13.4735482685
 20
1153.6746448054
 30
0.0
 11
-500.5264517315
 21
1153.6746448054
 31
0.0
  0
LINE
  5
46A
330
1F
100
AcDbEntity
  8
0
  6
Continuous
 62
     7
370
    25
100
AcDbLine
 10
13.4735482685
 20
1153.6746448054
 30
0.0
 11
13.4735482685
 21
1147.0079781387
 31
0.0
  0
LINE
  5
46B
330
1F
100
AcDbEntity
  8
0
  6
Continuous
 62
     7
370
    25
100
AcDbLine
 10
19.4735482685
 20
1147.0079781387
 30
0.0
 11
13.4735482685
 21
1147.0079781387
 31
0.0
  0
LINE
  5
46C
330
1F
100
AcDbEntity
  8
0
  6
Continuous
 62
     7
370
    25
100
AcDbLine
 10
19.4735482685
 20
1140.341311472
 30
0.0
 11
19.4735482685
 21
1147.0079781387
 31
0.0
  0
LINE
  5
46D
330
1F
100
AcDbEntity
  8
0
  6
Continuous
 62
     7
370
    25
100
AcDbLine
 10
19.4735482685
 20
1140.341311472
 30
0.0
 11
13.4735482685
 21
1140.341311472
 31
0.0
  0
LINE
  5
46E
330
1F
100
AcDbEntity
  8
0
  6
Continuous
 62
     7
370
    25
100
AcDbLine
 10
13.4735482685
 20
1140.341311472
 30
0.0
 11
13.4735482685
 21
1127.6746448054
 31
0.0
  0
LINE
  5
46F
330
1F
100
AcDbEntity
  8
0
  6
Continuous
 62
     7
370
    25
100
AcDbLine
 10
13.4735482685
 20
1127.6746448054
 30
0.0
 11
-59.9550231601
 21
1127.6746448054
 31
0.0
  0
LINE
  5
470
330
1F
100
AcDbEntity
  8
0
  6
Continuous
 62
     7
370
    25
100
AcDbLine
 10
-59.9550231601
 20
1127.6746448054
 30
0.0
 11
-59.9550231601
 21
1133.6746448054
 31
0.0
  0
LINE
  5
471
330
1F
100
AcDbEntity
  8
0
  6
Continuous
 62
     7
370
    25
100
AcDbLine
 10
-59.9550231601
 20
1133.6746448054
 30
0.0
 11
-133.3835945887
 21
1133.6746448054
 31
0.0
  0
LINE
  5
472
330
1F
100
AcDbEntity
  8
0
  6
Continuous
 62
     7
370
    25
100
AcDbLine
 10
-530.8697093341
 20
737.212094539
 30
0.0
 11
-524.2030426674
 21
737.212094539
 31
0.0
  0
LINE
  5
473
330
1F
100
AcDbEntity
  8
0
  6
Continuous
 62
     7
370
    25
100
AcDbLine
 10
-524.2030426674
 20
737.212094539
 30
0.0
 11
-524.2030426674
 21
699.912094539
 31
0.0
  0
LINE
  5
474
330
1F
100
AcDbEntity
  8
0
  6
Continuous
 62
     7
370
    25
100
AcDbLine
 10
-518.2030426674
 20
699.912094539
 30
0.0
 11
-524.2030426674
 21
699.912094539
 31
0.0
  0
LINE
  5
475
330
1F
100
AcDbEntity
  8
0
  6
Continuous
 62
     7
370
    25
100
AcDbLine
 10
-518.2030426674
 20
699.912094539
 30
0.0
 11
-518.2030426674
 21
662.612094539
 31
0.0
  0
LINE
  5
476
330
1F
100
AcDbEntity
  8
0
  6
Continuous
 62
     7
370
    25
100
AcDbLine
 10
-518.2030426674
 20
662.612094539
 30
0.0
 11
-524.2030426674
 21
662.612094539
 31
0.0
  0
LINE
  5
477
330
1F
100
AcDbEntity
  8
0
  6
Continuous
 62
     7
370
    25
100
AcDbLine
 10
-524.2030426674
 20
662.612094539
 30
0.0
 11
-524.2030426674
 21
625.312094539
 31
0.0
  0
LINE
  5
478
330
1F
100
AcDbEntity
  8
0
  6
Continuous
 62
     7
370
    25
100
AcDbLine
 10
-518.2030426674
 20
625.312094539
 30
0.0
 11
-524.2030426674
 21
625.312094539
 31
0.0
  0
LINE
  5
479
330
1F
100
AcDbEntity
  8
0
  6
Continuous
 62
     7
370
    25
100
AcDbLine
 10
-518.2030426674
 20
625.312094539
 30
0.0
 11
-518.2030426674
 21
588.012094539
 31
0.0
  0
LINE
  5
47A
330
1F
100
AcDbEntity
  8
0
  6
Continuous
 62
     7
370
    25
100
AcDbLine
 10
-518.2030426674
 20
588.012094539
 30
0.0
 11
-524.2030426674
 21
588.012094539
 31
0.0
  0
LINE
  5
47B
330
1F
100
AcDbEntity
  8
0
  6
Continuous
 62
     7
370
    25
100
AcDbLine
 10
-524.2030426674
 20
588.012094539
 30
0.0
 11
-524.2030426674
 21
550.712094539
 31
0.0
  0
LINE
  5
47C
330
1F
100
AcDbEntity
  8
0
  6
Continuous
 62
     7
370
    25
100
AcDbLine
 10
-530.8697093341
 20
550.712094539
 30
0.0
 11
-524.2030426674
 21
550.712094539
 31
0.0
  0
LINE
  5
47D
330
1F
100
AcDbEntity
  8
0
  6
Continuous
 62
     7
370
    25
100
AcDbLine
 10
-530.8697093341
 20
556.712094539
 30
0.0
 11
-537.5363760008
 21
556.712094539
 31
0.0
  0
LINE
  5
47E
330
1F
100
AcDbEntity
  8
0
  6
Continuous
 62
     7
370
    25
100
AcDbLine
 10
-537.5363760008
 20
556.712094539
 30
0.0
 11
-537.5363760008
 21
550.712094539
 31
0.0
  0
LINE
  5
47F
330
1F
100
AcDbEntity
  8
0
  6
Continuous
 62
     7
370
    25
100
AcDbLine
 10
-544.2030426674
 20
550.712094539
 30
0.0
 11
-537.5363760008
 21
550.712094539
 31
0.0
  0
LINE
  5
480
330
1F
100
AcDbEntity
  8
0
  6
Continuous
 62
     7
370
    25
100
AcDbLine
 10
-544.2030426674
 20
737.212094539
 30
0.0
 11
-537.5363760008
 21
737.212094539
 31
0.0
  0
LINE
  5
481
330
1F
100
AcDbEntity
  8
0
  6
Continuous
 62
     7
370
    25
100
AcDbLine
 10
-537.5363760008
 20
731.212094539
 30
0.0
 11
-537.5363760008
 21
737.212094539
 31
0.0
  0
LINE
  5
482
330
1F
100
AcDbEntity
  8
0
  6
Continuous
 62
     7
370
    25
100
AcDbLine
 10
-530.8697093341
 20
731.212094539
 30
0.0
 11
-537.5363760008
 21
731.212094539
 31
0.0
  0
LINE
  5
483
330
1F
100
AcDbEntity
  8
0
  6
Continuous
 62
     7
370
    25
100
AcDbLine
 10
-530.8697093341
 20
731.212094539
 30
0.0
 11
-530.8697093341
 21
737.212094539
 31
0.0
  0
LINE
  5
484
330
1F
100
AcDbEntity
  8
0
  6
Continuous
 62
     7
370
    25
100
AcDbLine
 10
-530.8697093341
 20
556.712094539
 30
0.0
 11
-530.8697093341
 21
550.712094539
 31
0.0
  0
LINE
  5
485
330
1F
100
AcDbEntity
  8
0
  6
Continuous
 62
     7
370
    25
100
AcDbLine
 10
-544.2030426674
 20
737.212094539
 30
0.0
 11
-544.2030426674
 21
550.712094539
 31
0.0
  0
LINE
  5
486
330
1F
100
AcDbEntity
  8
0
  6
Continuous
 62
     7
370
    25
100
AcDbLine
 10
-507.7916555545
 20
929.2657481985
 30
0.0
 11
-501.1249888878
 21
929.2657481985
 31
0.0
  0
LINE
  5
487
330
1F
100
AcDbEntity
  8
0
  6
Continuous
 62
     7
370
    25
100
AcDbLine
 10
-501.1249888878
 20
929.2657481985
 30
0.0
 11
-501.1249888878
 21
891.9657481985
 31
0.0
  0
LINE
  5
488
330
1F
100
AcDbEntity
  8
0
  6
Continuous
 62
     7
370
    25
100
AcDbLine
 10
-495.1249888878
 20
891.9657481985
 30
0.0
 11
-501.1249888878
 21
891.9657481985
 31
0.0
  0
LINE
  5
489
330
1F
100
AcDbEntity
  8
0
  6
Continuous
 62
     7
370
    25
100
AcDbLine
 10
-495.1249888878
 20
891.9657481985
 30
0.0
 11
-495.1249888878
 21
854.6657481985
 31
0.0
  0
LINE
  5
48A
330
1F
100
AcDbEntity
  8
0
  6
Continuous
 62
     7
370
    25
100
AcDbLine
 10
-495.1249888878
 20
854.6657481985
 30
0.0
 11
-501.1249888878
 21
854.6657481985
 31
0.0
  0
LINE
  5
48B
330
1F
100
AcDbEntity
  8
0
  6
Continuous
 62
     7
370
    25
100
AcDbLine
 10
-501.1249888878
 20
854.6657481985
 30
0.0
 11
-501.1249888878
 21
817.3657481985
 31
0.0
  0
LINE
  5
48C
330
1F
100
AcDbEntity
  8
0
  6
Continuous
 62
     7
370
    25
100
AcDbLine
 10
-495.1249888878
 20
817.3657481985
 30
0.0
 11
-501.1249888878
 21
817.3657481985
 31
0.0
  0
LINE
  5
48D
330
1F
100
AcDbEntity
  8
0
  6
Continuous
 62
     7
370
    25
100
AcDbLine
 10
-495.1249888878
 20
817.3657481985
 30
0.0
 11
-495.1249888878
 21
780.0657481985
 31
0.0
  0
LINE
  5
48E
330
1F
100
AcDbEntity
  8
0
  6
Continuous
 62
     7
370
    25
100
AcDbLine
 10
-495.1249888878
 20
780.0657481985
 30
0.0
 11
-501.1249888878
 21
780.0657481985
 31
0.0
  0
LINE
  5
48F
330
1F
100
AcDbEntity
  8
0
  6
Continuous
 62
     7
370
    25
100
AcDbLine
 10
-507.7916555545
 20
742.7657481985
 30
0.0
 11
-501.1249888878
 21
742.7657481985
 31
0.0
  0
LINE
  5
490
330
1F
100
AcDbEntity
  8
0
  6
Continuous
 62
     7
370
    25
100
AcDbLine
 10
-507.7916555545
 20
748.7657481985
 30
0.0
 11
-507.7916555545
 21
742.7657481985
 31
0.0
  0
LINE
  5
491
330
1F
100
AcDbEntity
  8
0
  6
Continuous
 62
     7
370
    25
100
AcDbLine
 10
-507.7916555545
 20
748.7657481985
 30
0.0
 11
-514.4583222212
 21
748.7657481985
 31
0.0
  0
LINE
  5
492
330
1F
100
AcDbEntity
  8
0
  6
Continuous
 62
     7
370
    25
100
AcDbLine
 10
-514.4583222212
 20
748.7657481985
 30
0.0
 11
-514.4583222212
 21
742.7657481985
 31
0.0
  0
LINE
  5
493
330
1F
100
AcDbEntity
  8
0
  6
Continuous
 62
     7
370
    25
100
AcDbLine
 10
-521.1249888878
 20
742.7657481985
 30
0.0
 11
-514.4583222212
 21
742.7657481985
 31
0.0
  0
LINE
  5
494
330
1F
100
AcDbEntity
  8
0
  6
Continuous
 62
     7
370
    25
100
AcDbLine
 10
-521.1249888878
 20
929.2657481985
 30
0.0
 11
-521.1249888878
 21
742.7657481985
 31
0.0
  0
LINE
  5
495
330
1F
100
AcDbEntity
  8
0
  6
Continuous
 62
     7
370
    25
100
AcDbLine
 10
-521.1249888878
 20
929.2657481985
 30
0.0
 11
-514.4583222212
 21
929.2657481985
 31
0.0
  0
LINE
  5
496
330
1F
100
AcDbEntity
  8
0
  6
Continuous
 62
     7
370
    25
100
AcDbLine
 10
-514.4583222212
 20
923.2657481985
 30
0.0
 11
-514.4583222212
 21
929.2657481985
 31
0.0
  0
LINE
  5
497
330
1F
100
AcDbEntity
  8
0
  6
Continuous
 62
     7
370
    25
100
AcDbLine
 10
-507.7916555545
 20
923.2657481985
 30
0.0
 11
-514.4583222212
 21
923.2657481985
 31
0.0
  0
LINE
  5
498
330
1F
100
AcDbEntity
  8
0
  6
Continuous
 62
     7
370
    25
100
AcDbLine
 10
-507.7916555545
 20
923.2657481985
 30
0.0
 11
-507.7916555545
 21
929.2657481985
 31
0.0
  0
LINE
  5
499
330
1F
100
AcDbEntity
  8
0
  6
Continuous
 62
     7
370
    25
100
AcDbLine
 10
-501.1249888878
 20
780.0657481985
 30
0.0
 11
-501.1249888878
 21
742.7657481985
 31
0.0
  0
LINE
  5
49A
330
1F
100
AcDbEntity
  8
0
  6
Continuous
 62
     7
370
    25
100
AcDbLine
 10
-519.1907619627
 20
959.5967364325
 30
0.0
 11
-505.8574286294
 21
959.5967364325
 31
0.0
  0
LINE
  5
49B
330
1F
100
AcDbEntity
  8
0
  6
Continuous
 62
     7
370
    25
100
AcDbLine
 10
-492.524095296
 20
959.5967364325
 30
0.0
 11
-479.1907619627
 21
959.5967364325
 31
0.0
  0
LINE
  5
49C
330
1F
100
AcDbEntity
  8
0
  6
Continuous
 62
     7
370
    25
100
AcDbLine
 10
-519.1907619627
 20
1086.0967364325
 30
0.0
 11
-505.8574286294
 21
1086.0967364325
 31
0.0
  0
LINE
  5
49D
330
1F
100
AcDbEntity
  8
0
  6
Continuous
 62
     7
370
    25
100
AcDbLine
 10
-492.524095296
 20
1092.0967364325
 30
0.0
 11
-492.524095296
 21
1086.0967364325
 31
0.0
  0
LINE
  5
49E
330
1F
100
AcDbEntity
  8
0
  6
Continuous
 62
     7
370
    25
100
AcDbLine
 10
-473.1907619627
 20
1060.7967364325
 30
0.0
 11
-479.1907619627
 21
1060.7967364325
 31
0.0
  0
LINE
  5
49F
330
1F
100
AcDbEntity
  8
0
  6
Continuous
 62
     7
370
    25
100
AcDbLine
 10
-492.524095296
 20
953.5967364325
 30
0.0
 11
-492.524095296
 21
959.5967364325
 31
0.0
  0
LINE
  5
4A0
330
1F
100
AcDbEntity
  8
0
  6
Continuous
 62
     7
370
    25
100
AcDbLine
 10
-479.1907619627
 20
1086.0967364325
 30
0.0
 11
-479.1907619627
 21
1060.7967364325
 31
0.0
  0
LINE
  5
4A1
330
1F
100
AcDbEntity
  8
0
  6
Continuous
 62
     7
370
    25
100
AcDbLine
 10
-505.8574286294
 20
1092.0967364325
 30
0.0
 11
-505.8574286294
 21
1086.0967364325
 31
0.0
  0
LINE
  5
4A2
330
1F
100
AcDbEntity
  8
0
  6
Continuous
 62
     7
370
    25
100
AcDbLine
 10
-492.524095296
 20
1092.0967364325
 30
0.0
 11
-505.8574286294
 21
1092.0967364325
 31
0.0
  0
LINE
  5
4A3
330
1F
100
AcDbEntity
  8
0
  6
Continuous
 62
     7
370
    25
100
AcDbLine
 10
-473.1907619627
 20
1010.1967364325
 30
0.0
 11
-479.1907619627
 21
1010.1967364325
 31
0.0
  0
LINE
  5
4A4
330
1F
100
AcDbEntity
  8
0
  6
Continuous
 62
     7
370
    25
100
AcDbLine
 10
-492.524095296
 20
953.5967364325
 30
0.0
 11
-505.8574286294
 21
953.5967364325
 31
0.0
  0
LINE
  5
4A5
330
1F
100
AcDbEntity
  8
0
  6
Continuous
 62
     7
370
    25
100
AcDbLine
 10
-473.1907619627
 20
1060.7967364325
 30
0.0
 11
-473.1907619627
 21
1035.4967364325
 31
0.0
  0
LINE
  5
4A6
330
1F
100
AcDbEntity
  8
0
  6
Continuous
 62
     7
370
    25
100
AcDbLine
 10
-473.1907619627
 20
1035.4967364325
 30
0.0
 11
-479.1907619627
 21
1035.4967364325
 31
0.0
  0
LINE
  5
4A7
330
1F
100
AcDbEntity
  8
0
  6
Continuous
 62
     7
370
    25
100
AcDbLine
 10
-473.1907619627
 20
984.8967364325
 30
0.0
 11
-479.1907619627
 21
984.8967364325
 31
0.0
  0
LINE
  5
4A8
330
1F
100
AcDbEntity
  8
0
  6
Continuous
 62
     7
370
    25
100
AcDbLine
 10
-519.1907619627
 20
1086.0967364325
 30
0.0
 11
-519.1907619627
 21
959.5967364325
 31
0.0
  0
LINE
  5
4A9
330
1F
100
AcDbEntity
  8
0
  6
Continuous
 62
     7
370
    25
100
AcDbLine
 10
-492.524095296
 20
1086.0967364325
 30
0.0
 11
-479.1907619627
 21
1086.0967364325
 31
0.0
  0
LINE
  5
4AA
330
1F
100
AcDbEntity
  8
0
  6
Continuous
 62
     7
370
    25
100
AcDbLine
 10
-479.1907619627
 20
1035.4967364325
 30
0.0
 11
-479.1907619627
 21
1010.1967364325
 31
0.0
  0
LINE
  5
4AB
330
1F
100
AcDbEntity
  8
0
  6
Continuous
 62
     7
370
    25
100
AcDbLine
 10
-505.8574286294
 20
953.5967364325
 30
0.0
 11
-505.8574286294
 21
959.5967364325
 31
0.0
  0
LINE
  5
4AC
330
1F
100
AcDbEntity
  8
0
  6
Continuous
 62
     7
370
    25
100
AcDbLine
 10
-473.1907619627
 20
1010.1967364325
 30
0.0
 11
-473.1907619627
 21
984.8967364325
 31
0.0
  0
LINE
  5
4AD
330
1F
100
AcDbEntity
  8
0
  6
Continuous
 62
     7
370
    25
100
AcDbLine
 10
-479.1907619627
 20
984.8967364325
 30
0.0
 11
-479.1907619627
 21
959.5967364325
 31
0.0
  0
LINE
  5
4AE
330
1F
100
AcDbEntity
  8
0
  6
Continuous
 62
     7
370
    25
100
AcDbLine
 10
-439.35588275
 20
848.1127126169
 30
0.0
 11
-445.35588275
 21
848.1127126169
 31
0.0
  0
LINE
  5
4AF
330
1F
100
AcDbEntity
  8
0
  6
Continuous
 62
     7
370
    25
100
AcDbLine
 10
-439.35588275
 20
848.1127126169
 30
0.0
 11
-439.35588275
 21
822.8127126169
 31
0.0
  0
LINE
  5
4B0
330
1F
100
AcDbEntity
  8
0
  6
Continuous
 62
     7
370
    25
100
AcDbLine
 10
-439.35588275
 20
822.8127126169
 30
0.0
 11
-445.35588275
 21
822.8127126169
 31
0.0
  0
LINE
  5
4B1
330
1F
100
AcDbEntity
  8
0
  6
Continuous
 62
     7
370
    25
100
AcDbLine
 10
-445.35588275
 20
822.8127126169
 30
0.0
 11
-445.35588275
 21
797.5127126169
 31
0.0
  0
LINE
  5
4B2
330
1F
100
AcDbEntity
  8
0
  6
Continuous
 62
     7
370
    25
100
AcDbLine
 10
-439.35588275
 20
797.5127126169
 30
0.0
 11
-445.35588275
 21
797.5127126169
 31
0.0
  0
LINE
  5
4B3
330
1F
100
AcDbEntity
  8
0
  6
Continuous
 62
     7
370
    25
100
AcDbLine
 10
-439.35588275
 20
797.5127126169
 30
0.0
 11
-439.35588275
 21
772.2127126169
 31
0.0
  0
LINE
  5
4B4
330
1F
100
AcDbEntity
  8
0
  6
Continuous
 62
     7
370
    25
100
AcDbLine
 10
-439.35588275
 20
772.2127126169
 30
0.0
 11
-445.35588275
 21
772.2127126169
 31
0.0
  0
LINE
  5
4B5
330
1F
100
AcDbEntity
  8
0
  6
Continuous
 62
     7
370
    25
100
AcDbLine
 10
-445.35588275
 20
772.2127126169
 30
0.0
 11
-445.35588275
 21
746.9127126169
 31
0.0
  0
LINE
  5
4B6
330
1F
100
AcDbEntity
  8
0
  6
Continuous
 62
     7
370
    25
100
AcDbLine
 10
-458.6892160834
 20
746.9127126169
 30
0.0
 11
-445.35588275
 21
746.9127126169
 31
0.0
  0
LINE
  5
4B7
330
1F
100
AcDbEntity
  8
0
  6
Continuous
 62
     7
370
    25
100
AcDbLine
 10
-458.6892160834
 20
740.9127126169
 30
0.0
 11
-458.6892160834
 21
746.9127126169
 31
0.0
  0
LINE
  5
4B8
330
1F
100
AcDbEntity
  8
0
  6
Continuous
 62
     7
370
    25
100
AcDbLine
 10
-458.6892160834
 20
740.9127126169
 30
0.0
 11
-472.0225494167
 21
740.9127126169
 31
0.0
  0
LINE
  5
4B9
330
1F
100
AcDbEntity
  8
0
  6
Continuous
 62
     7
370
    25
100
AcDbLine
 10
-472.0225494167
 20
740.9127126169
 30
0.0
 11
-472.0225494167
 21
746.9127126169
 31
0.0
  0
LINE
  5
4BA
330
1F
100
AcDbEntity
  8
0
  6
Continuous
 62
     7
370
    25
100
AcDbLine
 10
-485.35588275
 20
746.9127126169
 30
0.0
 11
-472.0225494167
 21
746.9127126169
 31
0.0
  0
LINE
  5
4BB
330
1F
100
AcDbEntity
  8
0
  6
Continuous
 62
     7
370
    25
100
AcDbLine
 10
-485.35588275
 20
873.4127126169
 30
0.0
 11
-485.35588275
 21
746.9127126169
 31
0.0
  0
LINE
  5
4BC
330
1F
100
AcDbEntity
  8
0
  6
Continuous
 62
     7
370
    25
100
AcDbLine
 10
-485.35588275
 20
873.4127126169
 30
0.0
 11
-472.0225494167
 21
873.4127126169
 31
0.0
  0
LINE
  5
4BD
330
1F
100
AcDbEntity
  8
0
  6
Continuous
 62
     7
370
    25
100
AcDbLine
 10
-472.0225494167
 20
879.4127126169
 30
0.0
 11
-472.0225494167
 21
873.4127126169
 31
0.0
  0
LINE
  5
4BE
330
1F
100
AcDbEntity
  8
0
  6
Continuous
 62
     7
370
    25
100
AcDbLine
 10
-458.6892160834
 20
879.4127126169
 30
0.0
 11
-472.0225494167
 21
879.4127126169
 31
0.0
  0
LINE
  5
4BF
330
1F
100
AcDbEntity
  8
0
  6
Continuous
 62
     7
370
    25
100
AcDbLine
 10
-458.6892160834
 20
879.4127126169
 30
0.0
 11
-458.6892160834
 21
873.4127126169
 31
0.0
  0
LINE
  5
4C0
330
1F
100
AcDbEntity
  8
0
  6
Continuous
 62
     7
370
    25
100
AcDbLine
 10
-458.6892160834
 20
873.4127126169
 30
0.0
 11
-445.35588275
 21
873.4127126169
 31
0.0
  0
LINE
  5
4C1
330
1F
100
AcDbEntity
  8
0
  6
Continuous
 62
     7
370
    25
100
AcDbLine
 10
-445.35588275
 20
873.4127126169
 30
0.0
 11
-445.35588275
 21
848.1127126169
 31
0.0
  0
LINE
  5
4C2
330
1F
100
AcDbEntity
  8
0
  6
Continuous
 62
     7
370
    25
100
AcDbLine
 10
-506.971249533
 20
557.5304440979
 30
0.0
 11
-506.971249533
 21
551.5304440979
 31
0.0
  0
LINE
  5
4C3
330
1F
100
AcDbEntity
  8
0
  6
Continuous
 62
     7
370
    25
100
AcDbLine
 10
-512.971249533
 20
551.5304440979
 30
0.0
 11
-506.971249533
 21
551.5304440979
 31
0.0
  0
LINE
  5
4C4
330
1F
100
AcDbEntity
  8
0
  6
Continuous
 62
     7
370
    25
100
AcDbLine
 10
-512.971249533
 20
588.8304440979
 30
0.0
 11
-512.971249533
 21
551.5304440979
 31
0.0
  0
LINE
  5
4C5
330
1F
100
AcDbEntity
  8
0
  6
Continuous
 62
     7
370
    25
100
AcDbLine
 10
-506.971249533
 20
588.8304440979
 30
0.0
 11
-512.971249533
 21
588.8304440979
 31
0.0
  0
LINE
  5
4C6
330
1F
100
AcDbEntity
  8
0
  6
Continuous
 62
     7
370
    25
100
AcDbLine
 10
-506.971249533
 20
626.1304440979
 30
0.0
 11
-506.971249533
 21
588.8304440979
 31
0.0
  0
LINE
  5
4C7
330
1F
100
AcDbEntity
  8
0
  6
Continuous
 62
     7
370
    25
100
AcDbLine
 10
-512.971249533
 20
626.1304440979
 30
0.0
 11
-506.971249533
 21
626.1304440979
 31
0.0
  0
LINE
  5
4C8
330
1F
100
AcDbEntity
  8
0
  6
Continuous
 62
     7
370
    25
100
AcDbLine
 10
-512.971249533
 20
663.4304440979
 30
0.0
 11
-512.971249533
 21
626.1304440979
 31
0.0
  0
LINE
  5
4C9
330
1F
100
AcDbEntity
  8
0
  6
Continuous
 62
     7
370
    25
100
AcDbLine
 10
-506.971249533
 20
663.4304440979
 30
0.0
 11
-512.971249533
 21
663.4304440979
 31
0.0
  0
LINE
  5
4CA
330
1F
100
AcDbEntity
  8
0
  6
Continuous
 62
     7
370
    25
100
AcDbLine
 10
-506.971249533
 20
700.7304440979
 30
0.0
 11
-506.971249533
 21
663.4304440979
 31
0.0
  0
LINE
  5
4CB
330
1F
100
AcDbEntity
  8
0
  6
Continuous
 62
     7
370
    25
100
AcDbLine
 10
-512.971249533
 20
700.7304440979
 30
0.0
 11
-506.971249533
 21
700.7304440979
 31
0.0
  0
LINE
  5
4CC
330
1F
100
AcDbEntity
  8
0
  6
Continuous
 62
     7
370
    25
100
AcDbLine
 10
-512.971249533
 20
738.0304440979
 30
0.0
 11
-512.971249533
 21
700.7304440979
 31
0.0
  0
LINE
  5
4CD
330
1F
100
AcDbEntity
  8
0
  6
Continuous
 62
     7
370
    25
100
AcDbLine
 10
-512.971249533
 20
738.0304440979
 30
0.0
 11
-506.971249533
 21
738.0304440979
 31
0.0
  0
LINE
  5
4CE
330
1F
100
AcDbEntity
  8
0
  6
Continuous
 62
     7
370
    25
100
AcDbLine
 10
-506.971249533
 20
738.0304440979
 30
0.0
 11
-506.971249533
 21
732.0304440979
 31
0.0
  0
LINE
  5
4CF
330
1F
100
AcDbEntity
  8
0
  6
Continuous
 62
     7
370
    25
100
AcDbLine
 10
-433.5426781045
 20
732.0304440979
 30
0.0
 11
-506.971249533
 21
732.0304440979
 31
0.0
  0
LINE
  5
4D0
330
1F
100
AcDbEntity
  8
0
  6
Continuous
 62
     7
370
    25
100
AcDbLine
 10
-433.5426781045
 20
738.0304440979
 30
0.0
 11
-433.5426781045
 21
732.0304440979
 31
0.0
  0
LINE
  5
4D1
330
1F
100
AcDbEntity
  8
0
  6
Continuous
 62
     7
370
    25
100
AcDbLine
 10
-360.1141066759
 20
738.0304440979
 30
0.0
 11
-433.5426781045
 21
738.0304440979
 31
0.0
  0
LINE
  5
4D2
330
1F
100
AcDbEntity
  8
0
  6
Continuous
 62
     7
370
    25
100
AcDbLine
 10
-360.1141066759
 20
732.0304440979
 30
0.0
 11
-360.1141066759
 21
738.0304440979
 31
0.0
  0
LINE
  5
4D3
330
1F
100
AcDbEntity
  8
0
  6
Continuous
 62
     7
370
    25
100
AcDbLine
 10
-286.6855352473
 20
732.0304440979
 30
0.0
 11
-360.1141066759
 21
732.0304440979
 31
0.0
  0
LINE
  5
4D4
330
1F
100
AcDbEntity
  8
0
  6
Continuous
 62
     7
370
    25
100
AcDbLine
 10
-286.6855352473
 20
738.0304440979
 30
0.0
 11
-286.6855352473
 21
732.0304440979
 31
0.0
  0
LINE
  5
4D5
330
1F
100
AcDbEntity
  8
0
  6
Continuous
 62
     7
370
    25
100
AcDbLine
 10
-213.2569638187
 20
738.0304440979
 30
0.0
 11
-286.6855352473
 21
738.0304440979
 31
0.0
  0
LINE
  5
4D6
330
1F
100
AcDbEntity
  8
0
  6
Continuous
 62
     7
370
    25
100
AcDbLine
 10
-213.2569638187
 20
732.0304440979
 30
0.0
 11
-213.2569638187
 21
738.0304440979
 31
0.0
  0
LINE
  5
4D7
330
1F
100
AcDbEntity
  8
0
  6
Continuous
 62
     7
370
    25
100
AcDbLine
 10
-139.8283923902
 20
732.0304440979
 30
0.0
 11
-213.2569638187
 21
732.0304440979
 31
0.0
  0
LINE
  5
4D8
330
1F
100
AcDbEntity
  8
0
  6
Continuous
 62
     7
370
    25
100
AcDbLine
 10
-139.8283923902
 20
738.0304440979
 30
0.0
 11
-139.8283923902
 21
732.0304440979
 31
0.0
  0
LINE
  5
4D9
330
1F
100
AcDbEntity
  8
0
  6
Continuous
 62
     7
370
    25
100
AcDbLine
 10
-66.3998209616
 20
738.0304440979
 30
0.0
 11
-139.8283923902
 21
738.0304440979
 31
0.0
  0
LINE
  5
4DA
330
1F
100
AcDbEntity
  8
0
  6
Continuous
 62
     7
370
    25
100
AcDbLine
 10
-66.3998209616
 20
732.0304440979
 30
0.0
 11
-66.3998209616
 21
738.0304440979
 31
0.0
  0
LINE
  5
4DB
330
1F
100
AcDbEntity
  8
0
  6
Continuous
 62
     7
370
    25
100
AcDbLine
 10
7.028750467
 20
732.0304440979
 30
0.0
 11
-66.3998209616
 21
732.0304440979
 31
0.0
  0
LINE
  5
4DC
330
1F
100
AcDbEntity
  8
0
  6
Continuous
 62
     7
370
    25
100
AcDbLine
 10
7.028750467
 20
663.4304440979
 30
0.0
 11
13.028750467
 21
663.4304440979
 31
0.0
  0
LINE
  5
4DD
330
1F
100
AcDbEntity
  8
0
  6
Continuous
 62
     7
370
    25
100
AcDbLine
 10
7.028750467
 20
588.8304440979
 30
0.0
 11
13.028750467
 21
588.8304440979
 31
0.0
  0
LINE
  5
4DE
330
1F
100
AcDbEntity
  8
0
  6
Continuous
 62
     7
370
    25
100
AcDbLine
 10
-66.3998209616
 20
557.5304440979
 30
0.0
 11
-66.3998209616
 21
551.5304440979
 31
0.0
  0
LINE
  5
4DF
330
1F
100
AcDbEntity
  8
0
  6
Continuous
 62
     7
370
    25
100
AcDbLine
 10
-66.3998209616
 20
551.5304440979
 30
0.0
 11
-139.8283923902
 21
551.5304440979
 31
0.0
  0
LINE
  5
4E0
330
1F
100
AcDbEntity
  8
0
  6
Continuous
 62
     7
370
    25
100
AcDbLine
 10
-139.8283923902
 20
551.5304440979
 30
0.0
 11
-139.8283923902
 21
557.5304440979
 31
0.0
  0
LINE
  5
4E1
330
1F
100
AcDbEntity
  8
0
  6
Continuous
 62
     7
370
    25
100
AcDbLine
 10
-213.2569638187
 20
557.5304440979
 30
0.0
 11
-213.2569638187
 21
551.5304440979
 31
0.0
  0
LINE
  5
4E2
330
1F
100
AcDbEntity
  8
0
  6
Continuous
 62
     7
370
    25
100
AcDbLine
 10
-213.2569638187
 20
551.5304440979
 30
0.0
 11
-286.6855352473
 21
551.5304440979
 31
0.0
  0
LINE
  5
4E3
330
1F
100
AcDbEntity
  8
0
  6
Continuous
 62
     7
370
    25
100
AcDbLine
 10
-286.6855352473
 20
551.5304440979
 30
0.0
 11
-286.6855352473
 21
557.5304440979
 31
0.0
  0
LINE
  5
4E4
330
1F
100
AcDbEntity
  8
0
  6
Continuous
 62
     7
370
    25
100
AcDbLine
 10
-360.1141066759
 20
557.5304440979
 30
0.0
 11
-360.1141066759
 21
551.5304440979
 31
0.0
  0
LINE
  5
4E5
330
1F
100
AcDbEntity
  8
0
  6
Continuous
 62
     7
370
    25
100
AcDbLine
 10
-360.1141066759
 20
551.5304440979
 30
0.0
 11
-433.5426781045
 21
551.5304440979
 31
0.0
  0
LINE
  5
4E6
330
1F
100
AcDbEntity
  8
0
  6
Continuous
 62
     7
370
    25
100
AcDbLine
 10
-433.5426781045
 20
551.5304440979
 30
0.0
 11
-433.5426781045
 21
557.5304440979
 31
0.0
  0
LINE
  5
4E7
330
1F
100
AcDbEntity
  8
0
  6
Continuous
 62
     7
370
    25
100
AcDbLine
 10
-10.971249533
 20
714.0304440979
 30
0.0
 11
-79.2569638187
 21
714.0304440979
 31
0.0
  0
LINE
  5
4E8
330
1F
100
AcDbEntity
  8
0
  6
Continuous
 62
     7
370
    25
100
AcDbLine
 10
-79.2569638187
 20
714.0304440979
 30
0.0
 11
-79.2569638187
 21
708.0304440979
 31
0.0
  0
LINE
  5
4E9
330
1F
100
AcDbEntity
  8
0
  6
Continuous
 62
     7
370
    25
100
AcDbLine
 10
-284.1141066759
 20
714.0304440979
 30
0.0
 11
-352.3998209616
 21
714.0304440979
 31
0.0
  0
LINE
  5
4EA
330
1F
100
AcDbEntity
  8
0
  6
Continuous
 62
     7
370
    25
100
AcDbLine
 10
-352.3998209616
 20
714.0304440979
 30
0.0
 11
-352.3998209616
 21
708.0304440979
 31
0.0
  0
LINE
  5
4EB
330
1F
100
AcDbEntity
  8
0
  6
Continuous
 62
     7
370
    25
100
AcDbLine
 10
-284.1141066759
 20
714.0304440979
 30
0.0
 11
-284.1141066759
 21
708.0304440979
 31
0.0
  0
LINE
  5
4EC
330
1F
100
AcDbEntity
  8
0
  6
Continuous
 62
     7
370
    25
100
AcDbLine
 10
-147.5426781045
 20
714.0304440979
 30
0.0
 11
-215.8283923902
 21
714.0304440979
 31
0.0
  0
LINE
  5
4ED
330
1F
100
AcDbEntity
  8
0
  6
Continuous
 62
     7
370
    25
100
AcDbLine
 10
-215.8283923902
 20
714.0304440979
 30
0.0
 11
-215.8283923902
 21
708.0304440979
 31
0.0
  0
LINE
  5
4EE
330
1F
100
AcDbEntity
  8
0
  6
Continuous
 62
     7
370
    25
100
AcDbLine
 10
-147.5426781045
 20
714.0304440979
 30
0.0
 11
-147.5426781045
 21
708.0304440979
 31
0.0
  0
LINE
  5
4EF
330
1F
100
AcDbEntity
  8
0
  6
Continuous
 62
     7
370
    25
100
AcDbLine
 10
-420.6855352473
 20
714.0304440979
 30
0.0
 11
-420.6855352473
 21
708.0304440979
 31
0.0
  0
LINE
  5
4F0
330
1F
100
AcDbEntity
  8
0
  6
Continuous
 62
     7
370
    25
100
AcDbLine
 10
-420.6855352473
 20
714.0304440979
 30
0.0
 11
-488.971249533
 21
714.0304440979
 31
0.0
  0
LINE
  5
4F1
330
1F
100
AcDbEntity
  8
0
  6
Continuous
 62
     7
370
    25
100
AcDbLine
 10
-488.971249533
 20
708.0304440979
 30
0.0
 11
-488.971249533
 21
714.0304440979
 31
0.0
  0
LINE
  5
4F2
330
1F
100
AcDbEntity
  8
0
  6
Continuous
 62
     7
370
    25
100
AcDbLine
 10
-10.971249533
 20
632.1304440979
 30
0.0
 11
-16.971249533
 21
632.1304440979
 31
0.0
  0
LINE
  5
4F3
330
1F
100
AcDbEntity
  8
0
  6
Continuous
 62
     7
370
    25
100
AcDbLine
 10
-79.2569638187
 20
575.5304440979
 30
0.0
 11
-79.2569638187
 21
581.5304440979
 31
0.0
  0
LINE
  5
4F4
330
1F
100
AcDbEntity
  8
0
  6
Continuous
 62
     7
370
    25
100
AcDbLine
 10
-79.2569638187
 20
575.5304440979
 30
0.0
 11
-10.971249533
 21
575.5304440979
 31
0.0
  0
LINE
  5
4F5
330
1F
100
AcDbEntity
  8
0
  6
Continuous
 62
     7
370
    25
100
AcDbLine
 10
-147.5426781045
 20
575.5304440979
 30
0.0
 11
-147.5426781045
 21
581.5304440979
 31
0.0
  0
LINE
  5
4F6
330
1F
100
AcDbEntity
  8
0
  6
Continuous
 62
     7
370
    25
100
AcDbLine
 10
-215.8283923902
 20
575.5304440979
 30
0.0
 11
-215.8283923902
 21
581.5304440979
 31
0.0
  0
LINE
  5
4F7
330
1F
100
AcDbEntity
  8
0
  6
Continuous
 62
     7
370
    25
100
AcDbLine
 10
-284.1141066759
 20
575.5304440979
 30
0.0
 11
-284.1141066759
 21
581.5304440979
 31
0.0
  0
LINE
  5
4F8
330
1F
100
AcDbEntity
  8
0
  6
Continuous
 62
     7
370
    25
100
AcDbLine
 10
-352.3998209616
 20
575.5304440979
 30
0.0
 11
-352.3998209616
 21
581.5304440979
 31
0.0
  0
LINE
  5
4F9
330
1F
100
AcDbEntity
  8
0
  6
Continuous
 62
     7
370
    25
100
AcDbLine
 10
-420.6855352473
 20
575.5304440979
 30
0.0
 11
-420.6855352473
 21
581.5304440979
 31
0.0
  0
LINE
  5
4FA
330
1F
100
AcDbEntity
  8
0
  6
Continuous
 62
     7
370
    25
100
AcDbLine
 10
-488.971249533
 20
575.5304440979
 30
0.0
 11
-488.971249533
 21
581.5304440979
 31
0.0
  0
LINE
  5
4FB
330
1F
100
AcDbEntity
  8
0
  6
Continuous
 62
     7
370
    25
100
AcDbLine
 10
-482.971249533
 20
606.8304440979
 30
0.0
 11
-488.971249533
 21
606.8304440979
 31
0.0
  0
LINE
  5
4FC
330
1F
100
AcDbEntity
  8
0
  6
Continuous
 62
     7
370
    25
100
AcDbLine
 10
-488.971249533
 20
632.1304440979
 30
0.0
 11
-482.971249533
 21
632.1304440979
 31
0.0
  0
LINE
  5
4FD
330
1F
100
AcDbEntity
  8
0
  6
Continuous
 62
     7
370
    25
100
AcDbLine
 10
-488.971249533
 20
606.8304440979
 30
0.0
 11
-488.971249533
 21
632.1304440979
 31
0.0
  0
LINE
  5
4FE
330
1F
100
AcDbEntity
  8
0
  6
Continuous
 62
     7
370
    25
100
AcDbLine
 10
-482.971249533
 20
657.4304440979
 30
0.0
 11
-488.971249533
 21
657.4304440979
 31
0.0
  0
LINE
  5
4FF
330
1F
100
AcDbEntity
  8
0
  6
Continuous
 62
     7
370
    25
100
AcDbLine
 10
-488.971249533
 20
682.7304440979
 30
0.0
 11
-482.971249533
 21
682.7304440979
 31
0.0
  0
LINE
  5
500
330
1F
100
AcDbEntity
  8
0
  6
Continuous
 62
     7
370
    25
100
AcDbLine
 10
-488.971249533
 20
657.4304440979
 30
0.0
 11
-488.971249533
 21
682.7304440979
 31
0.0
  0
LINE
  5
501
330
1F
100
AcDbEntity
  8
0
  6
Continuous
 62
     7
370
    25
100
AcDbLine
 10
-79.2569638187
 20
581.5304440979
 30
0.0
 11
-10.971249533
 21
581.5304440979
 31
0.0
  0
LINE
  5
502
330
1F
100
AcDbEntity
  8
0
  6
Continuous
 62
     7
370
    25
100
AcDbLine
 10
-482.971249533
 20
632.1304440979
 30
0.0
 11
-482.971249533
 21
606.8304440979
 31
0.0
  0
LINE
  5
503
330
1F
100
AcDbEntity
  8
0
  6
Continuous
 62
     7
370
    25
100
AcDbLine
 10
-420.6855352473
 20
708.0304440979
 30
0.0
 11
-488.971249533
 21
708.0304440979
 31
0.0
  0
LINE
  5
504
330
1F
100
AcDbEntity
  8
0
  6
Continuous
 62
     7
370
    25
100
AcDbLine
 10
-482.971249533
 20
682.7304440979
 30
0.0
 11
-482.971249533
 21
657.4304440979
 31
0.0
  0
LINE
  5
505
330
1F
100
AcDbEntity
  8
0
  6
Continuous
 62
     7
370
    25
100
AcDbLine
 10
-284.1141066759
 20
708.0304440979
 30
0.0
 11
-352.3998209616
 21
708.0304440979
 31
0.0
  0
LINE
  5
506
330
1F
100
AcDbEntity
  8
0
  6
Continuous
 62
     7
370
    25
100
AcDbLine
 10
-147.5426781045
 20
708.0304440979
 30
0.0
 11
-215.8283923902
 21
708.0304440979
 31
0.0
  0
LINE
  5
507
330
1F
100
AcDbEntity
  8
0
  6
Continuous
 62
     7
370
    25
100
AcDbLine
 10
-10.971249533
 20
708.0304440979
 30
0.0
 11
-79.2569638187
 21
708.0304440979
 31
0.0
  0
LINE
  5
508
330
1F
100
AcDbEntity
  8
0
  6
Continuous
 62
     7
370
    25
100
AcDbLine
 10
-215.8283923902
 20
575.5304440979
 30
0.0
 11
-147.5426781045
 21
575.5304440979
 31
0.0
  0
LINE
  5
509
330
1F
100
AcDbEntity
  8
0
  6
Continuous
 62
     7
370
    25
100
AcDbLine
 10
-352.3998209616
 20
575.5304440979
 30
0.0
 11
-284.1141066759
 21
575.5304440979
 31
0.0
  0
LINE
  5
50A
330
1F
100
AcDbEntity
  8
0
  6
Continuous
 62
     7
370
    25
100
AcDbLine
 10
-488.971249533
 20
575.5304440979
 30
0.0
 11
-420.6855352473
 21
575.5304440979
 31
0.0
  0
LINE
  5
50B
330
1F
100
AcDbEntity
  8
0
  6
Continuous
 62
     7
370
    25
100
AcDbLine
 10
-506.971249533
 20
557.5304440979
 30
0.0
 11
-433.5426781045
 21
557.5304440979
 31
0.0
  0
LINE
  5
50C
330
1F
100
AcDbEntity
  8
0
  6
Continuous
 62
     7
370
    25
100
AcDbLine
 10
-360.1141066759
 20
557.5304440979
 30
0.0
 11
-286.6855352473
 21
557.5304440979
 31
0.0
  0
LINE
  5
50D
330
1F
100
AcDbEntity
  8
0
  6
Continuous
 62
     7
370
    25
100
AcDbLine
 10
-213.2569638187
 20
557.5304440979
 30
0.0
 11
-139.8283923902
 21
557.5304440979
 31
0.0
  0
LINE
  5
50E
330
1F
100
AcDbEntity
  8
0
  6
Continuous
 62
     7
370
    25
100
AcDbLine
 10
-66.3998209616
 20
557.5304440979
 30
0.0
 11
7.028750467
 21
557.5304440979
 31
0.0
  0
LINE
  5
50F
330
1F
100
AcDbEntity
  8
0
  6
Continuous
 62
     7
370
    25
100
AcDbLine
 10
-215.8283923902
 20
581.5304440979
 30
0.0
 11
-147.5426781045
 21
581.5304440979
 31
0.0
  0
LINE
  5
510
330
1F
100
AcDbEntity
  8
0
  6
Continuous
 62
     7
370
    25
100
AcDbLine
 10
-352.3998209616
 20
581.5304440979
 30
0.0
 11
-284.1141066759
 21
581.5304440979
 31
0.0
  0
LINE
  5
511
330
1F
100
AcDbEntity
  8
0
  6
Continuous
 62
     7
370
    25
100
AcDbLine
 10
-488.971249533
 20
581.5304440979
 30
0.0
 11
-420.6855352473
 21
581.5304440979
 31
0.0
  0
LINE
  5
512
330
1F
100
AcDbEntity
  8
0
  6
Continuous
 62
     7
370
    25
100
AcDbLine
 10
-10.971249533
 20
708.0304440979
 30
0.0
 11
-10.971249533
 21
714.0304440979
 31
0.0
  0
LINE
  5
513
330
1F
100
AcDbEntity
  8
0
  6
Continuous
 62
     7
370
    25
100
AcDbLine
 10
-10.971249533
 20
657.4304440979
 30
0.0
 11
-10.971249533
 21
682.7304440979
 31
0.0
  0
LINE
  5
514
330
1F
100
AcDbEntity
  8
0
  6
Continuous
 62
     7
370
    25
100
AcDbLine
 10
-10.971249533
 20
606.8304440979
 30
0.0
 11
-10.971249533
 21
632.1304440979
 31
0.0
  0
LINE
  5
515
330
1F
100
AcDbEntity
  8
0
  6
Continuous
 62
     7
370
    25
100
AcDbLine
 10
7.028750467
 20
588.8304440979
 30
0.0
 11
7.028750467
 21
626.1304440979
 31
0.0
  0
LINE
  5
516
330
1F
100
AcDbEntity
  8
0
  6
Continuous
 62
     7
370
    25
100
AcDbLine
 10
7.028750467
 20
663.4304440979
 30
0.0
 11
7.028750467
 21
700.7304440979
 31
0.0
  0
LINE
  5
517
330
1F
100
AcDbEntity
  8
0
  6
Continuous
 62
     7
370
    25
100
AcDbLine
 10
-16.971249533
 20
657.4304440979
 30
0.0
 11
-16.971249533
 21
682.7304440979
 31
0.0
  0
LINE
  5
518
330
1F
100
AcDbEntity
  8
0
  6
Continuous
 62
     7
370
    25
100
AcDbLine
 10
-16.971249533
 20
606.8304440979
 30
0.0
 11
-16.971249533
 21
632.1304440979
 31
0.0
  0
LINE
  5
519
330
1F
100
AcDbEntity
  8
0
  6
Continuous
 62
     7
370
    25
100
AcDbLine
 10
13.028750467
 20
700.7304440979
 30
0.0
 11
7.028750467
 21
700.7304440979
 31
0.0
  0
LINE
  5
51A
330
1F
100
AcDbEntity
  8
0
  6
Continuous
 62
     7
370
    25
100
AcDbLine
 10
13.028750467
 20
738.0304440979
 30
0.0
 11
13.028750467
 21
700.7304440979
 31
0.0
  0
LINE
  5
51B
330
1F
100
AcDbEntity
  8
0
  6
Continuous
 62
     7
370
    25
100
AcDbLine
 10
-16.971249533
 20
657.4304440979
 30
0.0
 11
-10.971249533
 21
657.4304440979
 31
0.0
  0
LINE
  5
51C
330
1F
100
AcDbEntity
  8
0
  6
Continuous
 62
     7
370
    25
100
AcDbLine
 10
-16.971249533
 20
606.8304440979
 30
0.0
 11
-10.971249533
 21
606.8304440979
 31
0.0
  0
LINE
  5
51D
330
1F
100
AcDbEntity
  8
0
  6
Continuous
 62
     7
370
    25
100
AcDbLine
 10
7.028750467
 20
557.5304440979
 30
0.0
 11
7.028750467
 21
551.5304440979
 31
0.0
  0
LINE
  5
51E
330
1F
100
AcDbEntity
  8
0
  6
Continuous
 62
     7
370
    25
100
AcDbLine
 10
13.028750467
 20
551.5304440979
 30
0.0
 11
7.028750467
 21
551.5304440979
 31
0.0
  0
LINE
  5
51F
330
1F
100
AcDbEntity
  8
0
  6
Continuous
 62
     7
370
    25
100
AcDbLine
 10
-10.971249533
 20
682.7304440979
 30
0.0
 11
-16.971249533
 21
682.7304440979
 31
0.0
  0
LINE
  5
520
330
1F
100
AcDbEntity
  8
0
  6
Continuous
 62
     7
370
    25
100
AcDbLine
 10
13.028750467
 20
626.1304440979
 30
0.0
 11
7.028750467
 21
626.1304440979
 31
0.0
  0
LINE
  5
521
330
1F
100
AcDbEntity
  8
0
  6
Continuous
 62
     7
370
    25
100
AcDbLine
 10
13.028750467
 20
738.0304440979
 30
0.0
 11
7.028750467
 21
738.0304440979
 31
0.0
  0
LINE
  5
522
330
1F
100
AcDbEntity
  8
0
  6
Continuous
 62
     7
370
    25
100
AcDbLine
 10
7.028750467
 20
738.0304440979
 30
0.0
 11
7.028750467
 21
732.0304440979
 31
0.0
  0
LINE
  5
523
330
1F
100
AcDbEntity
  8
0
  6
Continuous
 62
     7
370
    25
100
AcDbLine
 10
13.028750467
 20
588.8304440979
 30
0.0
 11
13.028750467
 21
551.5304440979
 31
0.0
  0
LINE
  5
524
330
1F
100
AcDbEntity
  8
0
  6
Continuous
 62
     7
370
    25
100
AcDbLine
 10
13.028750467
 20
663.4304440979
 30
0.0
 11
13.028750467
 21
626.1304440979
 31
0.0
  0
LINE
  5
525
330
1F
100
AcDbEntity
  8
0
  6
Continuous
 62
     7
370
    25
100
AcDbLine
 10
-10.971249533
 20
575.5304440979
 30
0.0
 11
-10.971249533
 21
581.5304440979
 31
0.0
  0
LINE
  5
526
330
1F
100
AcDbEntity
  8
0
  6
Continuous
 62
     7
370
    25
100
AcDbLine
 10
23.6788855553
 20
868.3251507058
 30
0.0
 11
23.6788855553
 21
992.8251507058
 31
0.0
  0
LINE
  5
527
330
1F
100
AcDbEntity
  8
0
  6
Continuous
 62
     7
370
    25
100
AcDbLine
 10
-440.3211144447
 20
868.3251507058
 30
0.0
 11
23.6788855553
 21
868.3251507058
 31
0.0
  0
LINE
  5
528
330
1F
100
AcDbEntity
  8
0
  6
Continuous
 62
     7
370
    25
100
AcDbLine
 10
-440.3211144447
 20
992.8251507058
 30
0.0
 11
-440.3211144447
 21
868.3251507058
 31
0.0
  0
LINE
  5
529
330
1F
100
AcDbEntity
  8
0
  6
Continuous
 62
     7
370
    25
100
AcDbLine
 10
23.6788855553
 20
992.8251507058
 30
0.0
 11
-440.3211144447
 21
992.8251507058
 31
0.0
  0
LINE
  5
52A
330
1F
100
AcDbEntity
  8
0
  6
Continuous
 62
     7
370
    25
100
AcDbLine
 10
-31.2865149813
 20
742.3466092155
 30
0.0
 11
-31.2865149813
 21
748.3466092155
 31
0.0
  0
LINE
  5
52B
330
1F
100
AcDbEntity
  8
0
  6
Continuous
 62
     7
370
    25
100
AcDbLine
 10
-70.9228786176
 20
742.3466092155
 30
0.0
 11
-31.2865149813
 21
742.3466092155
 31
0.0
  0
LINE
  5
52C
330
1F
100
AcDbEntity
  8
0
  6
Continuous
 62
     7
370
    25
100
AcDbLine
 10
-70.9228786176
 20
742.3466092155
 30
0.0
 11
-70.9228786176
 21
748.3466092155
 31
0.0
  0
LINE
  5
52D
330
1F
100
AcDbEntity
  8
0
  6
Continuous
 62
     7
370
    25
100
AcDbLine
 10
-110.559242254
 20
742.3466092155
 30
0.0
 11
-110.559242254
 21
748.3466092155
 31
0.0
  0
LINE
  5
52E
330
1F
100
AcDbEntity
  8
0
  6
Continuous
 62
     7
370
    25
100
AcDbLine
 10
-150.1956058904
 20
742.3466092155
 30
0.0
 11
-110.559242254
 21
742.3466092155
 31
0.0
  0
LINE
  5
52F
330
1F
100
AcDbEntity
  8
0
  6
Continuous
 62
     7
370
    25
100
AcDbLine
 10
-150.1956058904
 20
742.3466092155
 30
0.0
 11
-150.1956058904
 21
748.3466092155
 31
0.0
  0
LINE
  5
530
330
1F
100
AcDbEntity
  8
0
  6
Continuous
 62
     7
370
    25
100
AcDbLine
 10
-229.4683331631
 20
742.3466092155
 30
0.0
 11
-189.8319695267
 21
742.3466092155
 31
0.0
  0
LINE
  5
531
330
1F
100
AcDbEntity
  8
0
  6
Continuous
 62
     7
370
    25
100
AcDbLine
 10
-229.4683331631
 20
742.3466092155
 30
0.0
 11
-229.4683331631
 21
748.3466092155
 31
0.0
  0
LINE
  5
532
330
1F
100
AcDbEntity
  8
0
  6
Continuous
 62
     7
370
    25
100
AcDbLine
 10
-269.1046967995
 20
742.3466092155
 30
0.0
 11
-269.1046967995
 21
748.3466092155
 31
0.0
  0
LINE
  5
533
330
1F
100
AcDbEntity
  8
0
  6
Continuous
 62
     7
370
    25
100
AcDbLine
 10
-308.7410604358
 20
742.3466092155
 30
0.0
 11
-269.1046967995
 21
742.3466092155
 31
0.0
  0
LINE
  5
534
330
1F
100
AcDbEntity
  8
0
  6
Continuous
 62
     7
370
    25
100
AcDbLine
 10
-308.7410604358
 20
742.3466092155
 30
0.0
 11
-308.7410604358
 21
748.3466092155
 31
0.0
  0
LINE
  5
535
330
1F
100
AcDbEntity
  8
0
  6
Continuous
 62
     7
370
    25
100
AcDbLine
 10
-388.0137877085
 20
742.3466092155
 30
0.0
 11
-348.3774240722
 21
742.3466092155
 31
0.0
  0
LINE
  5
536
330
1F
100
AcDbEntity
  8
0
  6
Continuous
 62
     7
370
    25
100
AcDbLine
 10
-388.0137877085
 20
742.3466092155
 30
0.0
 11
-388.0137877085
 21
748.3466092155
 31
0.0
  0
LINE
  5
537
330
1F
100
AcDbEntity
  8
0
  6
Continuous
 62
     7
370
    25
100
AcDbLine
 10
-433.6501513449
 20
770.8466092155
 30
0.0
 11
-427.6501513449
 21
770.8466092155
 31
0.0
  0
LINE
  5
538
330
1F
100
AcDbEntity
  8
0
  6
Continuous
 62
     7
370
    25
100
AcDbLine
 10
-433.6501513449
 20
770.8466092155
 30
0.0
 11
-433.6501513449
 21
793.3466092155
 31
0.0
  0
LINE
  5
539
330
1F
100
AcDbEntity
  8
0
  6
Continuous
 62
     7
370
    25
100
AcDbLine
 10
-433.6501513449
 20
793.3466092155
 30
0.0
 11
-427.6501513449
 21
793.3466092155
 31
0.0
  0
LINE
  5
53A
330
1F
100
AcDbEntity
  8
0
  6
Continuous
 62
     7
370
    25
100
AcDbLine
 10
-433.6501513449
 20
815.8466092155
 30
0.0
 11
-427.6501513449
 21
815.8466092155
 31
0.0
  0
LINE
  5
53B
330
1F
100
AcDbEntity
  8
0
  6
Continuous
 62
     7
370
    25
100
AcDbLine
 10
-433.6501513449
 20
815.8466092155
 30
0.0
 11
-433.6501513449
 21
838.3466092155
 31
0.0
  0
LINE
  5
53C
330
1F
100
AcDbEntity
  8
0
  6
Continuous
 62
     7
370
    25
100
AcDbLine
 10
-433.6501513449
 20
838.3466092155
 30
0.0
 11
-427.6501513449
 21
838.3466092155
 31
0.0
  0
LINE
  5
53D
330
1F
100
AcDbEntity
  8
0
  6
Continuous
 62
     7
370
    25
100
AcDbLine
 10
-21.6501513449
 20
815.8466092155
 30
0.0
 11
-21.6501513449
 21
838.3466092155
 31
0.0
  0
LINE
  5
53E
330
1F
100
AcDbEntity
  8
0
  6
Continuous
 62
     7
370
    25
100
AcDbLine
 10
-15.6501513449
 20
815.8466092155
 30
0.0
 11
-21.6501513449
 21
815.8466092155
 31
0.0
  0
LINE
  5
53F
330
1F
100
AcDbEntity
  8
0
  6
Continuous
 62
     7
370
    25
100
AcDbLine
 10
-15.6501513449
 20
838.3466092155
 30
0.0
 11
-15.6501513449
 21
815.8466092155
 31
0.0
  0
LINE
  5
540
330
1F
100
AcDbEntity
  8
0
  6
Continuous
 62
     7
370
    25
100
AcDbLine
 10
-21.6501513449
 20
838.3466092155
 30
0.0
 11
-15.6501513449
 21
838.3466092155
 31
0.0
  0
LINE
  5
541
330
1F
100
AcDbEntity
  8
0
  6
Continuous
 62
     7
370
    25
100
AcDbLine
 10
-15.6501513449
 20
793.3466092155
 30
0.0
 11
-15.6501513449
 21
770.8466092155
 31
0.0
  0
LINE
  5
542
330
1F
100
AcDbEntity
  8
0
  6
Continuous
 62
     7
370
    25
100
AcDbLine
 10
-21.6501513449
 20
793.3466092155
 30
0.0
 11
-15.6501513449
 21
793.3466092155
 31
0.0
  0
LINE
  5
543
330
1F
100
AcDbEntity
  8
0
  6
Continuous
 62
     7
370
    25
100
AcDbLine
 10
-21.6501513449
 20
770.8466092155
 30
0.0
 11
-21.6501513449
 21
793.3466092155
 31
0.0
  0
LINE
  5
544
330
1F
100
AcDbEntity
  8
0
  6
Continuous
 62
     7
370
    25
100
AcDbLine
 10
-15.6501513449
 20
770.8466092155
 30
0.0
 11
-21.6501513449
 21
770.8466092155
 31
0.0
  0
LINE
  5
545
330
1F
100
AcDbEntity
  8
0
  6
Continuous
 62
     7
370
    25
100
AcDbLine
 10
-234.4501513449
 20
825.7466092155
 30
0.0
 11
-264.4501513449
 21
825.7466092155
 31
0.0
  0
LINE
  5
546
330
1F
100
AcDbEntity
  8
0
  6
Continuous
 62
     7
370
    25
100
AcDbLine
 10
-264.4501513449
 20
823.9466092155
 30
0.0
 11
-234.4501513449
 21
823.9466092155
 31
0.0
  0
LINE
  5
547
330
1F
100
AcDbEntity
  8
0
  6
Continuous
 62
     7
370
    25
100
AcDbLine
 10
-184.8501513449
 20
790.1966092155
 30
0.0
 11
-154.8501513449
 21
790.1966092155
 31
0.0
  0
LINE
  5
548
330
1F
100
AcDbEntity
  8
0
  6
Continuous
 62
     7
370
    25
100
AcDbLine
 10
-154.8501513449
 20
791.9966092155
 30
0.0
 11
-184.8501513449
 21
791.9966092155
 31
0.0
  0
LINE
  5
549
330
1F
100
AcDbEntity
  8
0
  6
Continuous
 62
     7
370
    25
100
AcDbLine
 10
-234.4501513449
 20
785.2466092155
 30
0.0
 11
-264.4501513449
 21
785.2466092155
 31
0.0
  0
LINE
  5
54A
330
1F
100
AcDbEntity
  8
0
  6
Continuous
 62
     7
370
    25
100
AcDbLine
 10
-264.4501513449
 20
783.4466092155
 30
0.0
 11
-234.4501513449
 21
783.4466092155
 31
0.0
  0
LINE
  5
54B
330
1F
100
AcDbEntity
  8
0
  6
Continuous
 62
     7
370
    25
100
AcDbLine
 10
-194.6501513449
 20
785.2466092155
 30
0.0
 11
-224.6501513449
 21
785.2466092155
 31
0.0
  0
LINE
  5
54C
330
1F
100
AcDbEntity
  8
0
  6
Continuous
 62
     7
370
    25
100
AcDbLine
 10
-224.6501513449
 20
783.4466092155
 30
0.0
 11
-194.6501513449
 21
783.4466092155
 31
0.0
  0
LINE
  5
54D
330
1F
100
AcDbEntity
  8
0
  6
Continuous
 62
     7
370
    25
100
AcDbLine
 10
-184.8501513449
 20
783.4466092155
 30
0.0
 11
-154.8501513449
 21
783.4466092155
 31
0.0
  0
LINE
  5
54E
330
1F
100
AcDbEntity
  8
0
  6
Continuous
 62
     7
370
    25
100
AcDbLine
 10
-154.8501513449
 20
785.2466092155
 30
0.0
 11
-184.8501513449
 21
785.2466092155
 31
0.0
  0
LINE
  5
54F
330
1F
100
AcDbEntity
  8
0
  6
Continuous
 62
     7
370
    25
100
AcDbLine
 10
-234.4501513449
 20
798.7466092155
 30
0.0
 11
-264.4501513449
 21
798.7466092155
 31
0.0
  0
LINE
  5
550
330
1F
100
AcDbEntity
  8
0
  6
Continuous
 62
     7
370
    25
100
AcDbLine
 10
-264.4501513449
 20
796.9466092155
 30
0.0
 11
-234.4501513449
 21
796.9466092155
 31
0.0
  0
LINE
  5
551
330
1F
100
AcDbEntity
  8
0
  6
Continuous
 62
     7
370
    25
100
AcDbLine
 10
-184.8501513449
 20
803.6966092155
 30
0.0
 11
-154.8501513449
 21
803.6966092155
 31
0.0
  0
LINE
  5
552
330
1F
100
AcDbEntity
  8
0
  6
Continuous
 62
     7
370
    25
100
AcDbLine
 10
-154.8501513449
 20
805.4966092155
 30
0.0
 11
-184.8501513449
 21
805.4966092155
 31
0.0
  0
LINE
  5
553
330
1F
100
AcDbEntity
  8
0
  6
Continuous
 62
     7
370
    25
100
AcDbLine
 10
-194.6501513449
 20
805.4966092155
 30
0.0
 11
-224.6501513449
 21
805.4966092155
 31
0.0
  0
LINE
  5
554
330
1F
100
AcDbEntity
  8
0
  6
Continuous
 62
     7
370
    25
100
AcDbLine
 10
-224.6501513449
 20
803.6966092155
 30
0.0
 11
-194.6501513449
 21
803.6966092155
 31
0.0
  0
LINE
  5
555
330
1F
100
AcDbEntity
  8
0
  6
Continuous
 62
     7
370
    25
100
AcDbLine
 10
-234.4501513449
 20
805.4966092155
 30
0.0
 11
-264.4501513449
 21
805.4966092155
 31
0.0
  0
LINE
  5
556
330
1F
100
AcDbEntity
  8
0
  6
Continuous
 62
     7
370
    25
100
AcDbLine
 10
-264.4501513449
 20
803.6966092155
 30
0.0
 11
-234.4501513449
 21
803.6966092155
 31
0.0
  0
LINE
  5
557
330
1F
100
AcDbEntity
  8
0
  6
Continuous
 62
     7
370
    25
100
AcDbLine
 10
-194.6501513449
 20
798.7466092155
 30
0.0
 11
-224.6501513449
 21
798.7466092155
 31
0.0
  0
LINE
  5
558
330
1F
100
AcDbEntity
  8
0
  6
Continuous
 62
     7
370
    25
100
AcDbLine
 10
-184.8501513449
 20
796.9466092155
 30
0.0
 11
-154.8501513449
 21
796.9466092155
 31
0.0
  0
LINE
  5
559
330
1F
100
AcDbEntity
  8
0
  6
Continuous
 62
     7
370
    25
100
AcDbLine
 10
-234.4501513449
 20
791.9966092155
 30
0.0
 11
-264.4501513449
 21
791.9966092155
 31
0.0
  0
LINE
  5
55A
330
1F
100
AcDbEntity
  8
0
  6
Continuous
 62
     7
370
    25
100
AcDbLine
 10
-194.6501513449
 20
791.9966092155
 30
0.0
 11
-224.6501513449
 21
791.9966092155
 31
0.0
  0
LINE
  5
55B
330
1F
100
AcDbEntity
  8
0
  6
Continuous
 62
     7
370
    25
100
AcDbLine
 10
-224.6501513449
 20
790.1966092155
 30
0.0
 11
-194.6501513449
 21
790.1966092155
 31
0.0
  0
LINE
  5
55C
330
1F
100
AcDbEntity
  8
0
  6
Continuous
 62
     7
370
    25
100
AcDbLine
 10
-194.6501513449
 20
825.7466092155
 30
0.0
 11
-224.6501513449
 21
825.7466092155
 31
0.0
  0
LINE
  5
55D
330
1F
100
AcDbEntity
  8
0
  6
Continuous
 62
     7
370
    25
100
AcDbLine
 10
-224.6501513449
 20
823.9466092155
 30
0.0
 11
-194.6501513449
 21
823.9466092155
 31
0.0
  0
LINE
  5
55E
330
1F
100
AcDbEntity
  8
0
  6
Continuous
 62
     7
370
    25
100
AcDbLine
 10
-184.8501513449
 20
823.9466092155
 30
0.0
 11
-154.8501513449
 21
823.9466092155
 31
0.0
  0
LINE
  5
55F
330
1F
100
AcDbEntity
  8
0
  6
Continuous
 62
     7
370
    25
100
AcDbLine
 10
-154.8501513449
 20
825.7466092155
 30
0.0
 11
-184.8501513449
 21
825.7466092155
 31
0.0
  0
LINE
  5
560
330
1F
100
AcDbEntity
  8
0
  6
Continuous
 62
     7
370
    25
100
AcDbLine
 10
-234.4501513449
 20
818.9966092155
 30
0.0
 11
-264.4501513449
 21
818.9966092155
 31
0.0
  0
LINE
  5
561
330
1F
100
AcDbEntity
  8
0
  6
Continuous
 62
     7
370
    25
100
AcDbLine
 10
-264.4501513449
 20
817.1966092155
 30
0.0
 11
-234.4501513449
 21
817.1966092155
 31
0.0
  0
LINE
  5
562
330
1F
100
AcDbEntity
  8
0
  6
Continuous
 62
     7
370
    25
100
AcDbLine
 10
-194.6501513449
 20
818.9966092155
 30
0.0
 11
-224.6501513449
 21
818.9966092155
 31
0.0
  0
LINE
  5
563
330
1F
100
AcDbEntity
  8
0
  6
Continuous
 62
     7
370
    25
100
AcDbLine
 10
-224.6501513449
 20
817.1966092155
 30
0.0
 11
-194.6501513449
 21
817.1966092155
 31
0.0
  0
LINE
  5
564
330
1F
100
AcDbEntity
  8
0
  6
Continuous
 62
     7
370
    25
100
AcDbLine
 10
-184.8501513449
 20
810.4466092155
 30
0.0
 11
-154.8501513449
 21
810.4466092155
 31
0.0
  0
LINE
  5
565
330
1F
100
AcDbEntity
  8
0
  6
Continuous
 62
     7
370
    25
100
AcDbLine
 10
-224.6501513449
 20
810.4466092155
 30
0.0
 11
-194.6501513449
 21
810.4466092155
 31
0.0
  0
LINE
  5
566
330
1F
100
AcDbEntity
  8
0
  6
Continuous
 62
     7
370
    25
100
AcDbLine
 10
-234.4501513449
 20
812.2466092155
 30
0.0
 11
-264.4501513449
 21
812.2466092155
 31
0.0
  0
LINE
  5
567
330
1F
100
AcDbEntity
  8
0
  6
Continuous
 62
     7
370
    25
100
AcDbLine
 10
-264.4501513449
 20
810.4466092155
 30
0.0
 11
-234.4501513449
 21
810.4466092155
 31
0.0
  0
LINE
  5
568
330
1F
100
AcDbEntity
  8
0
  6
Continuous
 62
     7
370
    25
100
AcDbLine
 10
-184.8501513449
 20
817.1966092155
 30
0.0
 11
-154.8501513449
 21
817.1966092155
 31
0.0
  0
LINE
  5
569
330
1F
100
AcDbEntity
  8
0
  6
Continuous
 62
     7
370
    25
100
AcDbLine
 10
-154.8501513449
 20
818.9966092155
 30
0.0
 11
-184.8501513449
 21
818.9966092155
 31
0.0
  0
LINE
  5
56A
330
1F
100
AcDbEntity
  8
0
  6
Continuous
 62
     7
370
    25
100
AcDbLine
 10
-427.6501513449
 20
860.8466092155
 30
0.0
 11
-427.6501513449
 21
838.3466092155
 31
0.0
  0
LINE
  5
56B
330
1F
100
AcDbEntity
  8
0
  6
Continuous
 62
     7
370
    25
100
AcDbLine
 10
-388.0137877085
 20
860.8466092155
 30
0.0
 11
-427.6501513449
 21
860.8466092155
 31
0.0
  0
LINE
  5
56C
330
1F
100
AcDbEntity
  8
0
  6
Continuous
 62
     7
370
    25
100
AcDbLine
 10
-427.6501513449
 20
815.8466092155
 30
0.0
 11
-427.6501513449
 21
793.3466092155
 31
0.0
  0
LINE
  5
56D
330
1F
100
AcDbEntity
  8
0
  6
Continuous
 62
     7
370
    25
100
AcDbLine
 10
-427.6501513449
 20
770.8466092155
 30
0.0
 11
-427.6501513449
 21
748.3466092155
 31
0.0
  0
LINE
  5
56E
330
1F
100
AcDbEntity
  8
0
  6
Continuous
 62
     7
370
    25
100
AcDbLine
 10
8.3498486551
 20
793.3466092155
 30
0.0
 11
8.3498486551
 21
815.8466092155
 31
0.0
  0
LINE
  5
56F
330
1F
100
AcDbEntity
  8
0
  6
Continuous
 62
     7
370
    25
100
AcDbLine
 10
8.3498486551
 20
748.3466092155
 30
0.0
 11
8.3498486551
 21
770.8466092155
 31
0.0
  0
LINE
  5
570
330
1F
100
AcDbEntity
  8
0
  6
Continuous
 62
     7
370
    25
100
AcDbLine
 10
-308.7410604358
 20
860.8466092155
 30
0.0
 11
-348.3774240722
 21
860.8466092155
 31
0.0
  0
LINE
  5
571
330
1F
100
AcDbEntity
  8
0
  6
Continuous
 62
     7
370
    25
100
AcDbLine
 10
-229.4683331631
 20
860.8466092155
 30
0.0
 11
-269.1046967995
 21
860.8466092155
 31
0.0
  0
LINE
  5
572
330
1F
100
AcDbEntity
  8
0
  6
Continuous
 62
     7
370
    25
100
AcDbLine
 10
-150.1956058904
 20
860.8466092155
 30
0.0
 11
-189.8319695267
 21
860.8466092155
 31
0.0
  0
LINE
  5
573
330
1F
100
AcDbEntity
  8
0
  6
Continuous
 62
     7
370
    25
100
AcDbLine
 10
-70.9228786176
 20
860.8466092155
 30
0.0
 11
-110.559242254
 21
860.8466092155
 31
0.0
  0
LINE
  5
574
330
1F
100
AcDbEntity
  8
0
  6
Continuous
 62
     7
370
    25
100
AcDbLine
 10
8.3498486551
 20
860.8466092155
 30
0.0
 11
-31.2865149813
 21
860.8466092155
 31
0.0
  0
LINE
  5
575
330
1F
100
AcDbEntity
  8
0
  6
Continuous
 62
     7
370
    25
100
AcDbLine
 10
-427.6501513449
 20
748.3466092155
 30
0.0
 11
-388.0137877085
 21
748.3466092155
 31
0.0
  0
LINE
  5
576
330
1F
100
AcDbEntity
  8
0
  6
Continuous
 62
     7
370
    25
100
AcDbLine
 10
-348.3774240722
 20
748.3466092155
 30
0.0
 11
-308.7410604358
 21
748.3466092155
 31
0.0
  0
LINE
  5
577
330
1F
100
AcDbEntity
  8
0
  6
Continuous
 62
     7
370
    25
100
AcDbLine
 10
-264.4501513449
 20
790.1966092155
 30
0.0
 11
-234.4501513449
 21
790.1966092155
 31
0.0
  0
LINE
  5
578
330
1F
100
AcDbEntity
  8
0
  6
Continuous
 62
     7
370
    25
100
AcDbLine
 10
-154.8501513449
 20
798.7466092155
 30
0.0
 11
-184.8501513449
 21
798.7466092155
 31
0.0
  0
LINE
  5
579
330
1F
100
AcDbEntity
  8
0
  6
Continuous
 62
     7
370
    25
100
AcDbLine
 10
-224.6501513449
 20
796.9466092155
 30
0.0
 11
-194.6501513449
 21
796.9466092155
 31
0.0
  0
LINE
  5
57A
330
1F
100
AcDbEntity
  8
0
  6
Continuous
 62
     7
370
    25
100
AcDbLine
 10
-154.8501513449
 20
812.2466092155
 30
0.0
 11
-184.8501513449
 21
812.2466092155
 31
0.0
  0
LINE
  5
57B
330
1F
100
AcDbEntity
  8
0
  6
Continuous
 62
     7
370
    25
100
AcDbLine
 10
8.3498486551
 20
838.3466092155
 30
0.0
 11
8.3498486551
 21
860.8466092155
 31
0.0
  0
LINE
  5
57C
330
1F
100
AcDbEntity
  8
0
  6
Continuous
 62
     7
370
    25
100
AcDbLine
 10
-269.1046967995
 20
748.3466092155
 30
0.0
 11
-229.4683331631
 21
748.3466092155
 31
0.0
  0
LINE
  5
57D
330
1F
100
AcDbEntity
  8
0
  6
Continuous
 62
     7
370
    25
100
AcDbLine
 10
-189.8319695267
 20
748.3466092155
 30
0.0
 11
-150.1956058904
 21
748.3466092155
 31
0.0
  0
LINE
  5
57E
330
1F
100
AcDbEntity
  8
0
  6
Continuous
 62
     7
370
    25
100
AcDbLine
 10
-110.559242254
 20
748.3466092155
 30
0.0
 11
-70.9228786176
 21
748.3466092155
 31
0.0
  0
LINE
  5
57F
330
1F
100
AcDbEntity
  8
0
  6
Continuous
 62
     7
370
    25
100
AcDbLine
 10
-31.2865149813
 20
748.3466092155
 30
0.0
 11
8.3498486551
 21
748.3466092155
 31
0.0
  0
LINE
  5
580
330
1F
100
AcDbEntity
  8
0
  6
Continuous
 62
     7
370
    25
100
AcDbLine
 10
-229.4683331631
 20
866.8466092155
 30
0.0
 11
-229.4683331631
 21
860.8466092155
 31
0.0
  0
LINE
  5
581
330
1F
100
AcDbEntity
  8
0
  6
Continuous
 62
     7
370
    25
100
AcDbLine
 10
-189.8319695267
 20
866.8466092155
 30
0.0
 11
-189.8319695267
 21
860.8466092155
 31
0.0
  0
LINE
  5
582
330
1F
100
AcDbEntity
  8
0
  6
Continuous
 62
     7
370
    25
100
AcDbLine
 10
-308.7410604358
 20
866.8466092155
 30
0.0
 11
-269.1046967995
 21
866.8466092155
 31
0.0
  0
LINE
  5
583
330
1F
100
AcDbEntity
  8
0
  6
Continuous
 62
     7
370
    25
100
AcDbLine
 10
14.3498486551
 20
770.8466092155
 30
0.0
 11
8.3498486551
 21
770.8466092155
 31
0.0
  0
LINE
  5
584
330
1F
100
AcDbEntity
  8
0
  6
Continuous
 62
     7
370
    25
100
AcDbLine
 10
14.3498486551
 20
815.8466092155
 30
0.0
 11
14.3498486551
 21
838.3466092155
 31
0.0
  0
LINE
  5
585
330
1F
100
AcDbEntity
  8
0
  6
Continuous
 62
     7
370
    25
100
AcDbLine
 10
14.3498486551
 20
838.3466092155
 30
0.0
 11
8.3498486551
 21
838.3466092155
 31
0.0
  0
LINE
  5
586
330
1F
100
AcDbEntity
  8
0
  6
Continuous
 62
     7
370
    25
100
AcDbLine
 10
14.3498486551
 20
815.8466092155
 30
0.0
 11
8.3498486551
 21
815.8466092155
 31
0.0
  0
LINE
  5
587
330
1F
100
AcDbEntity
  8
0
  6
Continuous
 62
     7
370
    25
100
AcDbLine
 10
-31.2865149813
 20
866.8466092155
 30
0.0
 11
-31.2865149813
 21
860.8466092155
 31
0.0
  0
LINE
  5
588
330
1F
100
AcDbEntity
  8
0
  6
Continuous
 62
     7
370
    25
100
AcDbLine
 10
-150.1956058904
 20
866.8466092155
 30
0.0
 11
-110.559242254
 21
866.8466092155
 31
0.0
  0
LINE
  5
589
330
1F
100
AcDbEntity
  8
0
  6
Continuous
 62
     7
370
    25
100
AcDbLine
 10
-150.1956058904
 20
866.8466092155
 30
0.0
 11
-150.1956058904
 21
860.8466092155
 31
0.0
  0
LINE
  5
58A
330
1F
100
AcDbEntity
  8
0
  6
Continuous
 62
     7
370
    25
100
AcDbLine
 10
-110.559242254
 20
866.8466092155
 30
0.0
 11
-110.559242254
 21
860.8466092155
 31
0.0
  0
LINE
  5
58B
330
1F
100
AcDbEntity
  8
0
  6
Continuous
 62
     7
370
    25
100
AcDbLine
 10
-229.4683331631
 20
866.8466092155
 30
0.0
 11
-189.8319695267
 21
866.8466092155
 31
0.0
  0
LINE
  5
58C
330
1F
100
AcDbEntity
  8
0
  6
Continuous
 62
     7
370
    25
100
AcDbLine
 10
14.3498486551
 20
793.3466092155
 30
0.0
 11
8.3498486551
 21
793.3466092155
 31
0.0
  0
LINE
  5
58D
330
1F
100
AcDbEntity
  8
0
  6
Continuous
 62
     7
370
    25
100
AcDbLine
 10
-308.7410604358
 20
866.8466092155
 30
0.0
 11
-308.7410604358
 21
860.8466092155
 31
0.0
  0
LINE
  5
58E
330
1F
100
AcDbEntity
  8
0
  6
Continuous
 62
     7
370
    25
100
AcDbLine
 10
-269.1046967995
 20
866.8466092155
 30
0.0
 11
-269.1046967995
 21
860.8466092155
 31
0.0
  0
LINE
  5
58F
330
1F
100
AcDbEntity
  8
0
  6
Continuous
 62
     7
370
    25
100
AcDbLine
 10
-388.0137877085
 20
866.8466092155
 30
0.0
 11
-348.3774240722
 21
866.8466092155
 31
0.0
  0
LINE
  5
590
330
1F
100
AcDbEntity
  8
0
  6
Continuous
 62
     7
370
    25
100
AcDbLine
 10
-388.0137877085
 20
866.8466092155
 30
0.0
 11
-388.0137877085
 21
860.8466092155
 31
0.0
  0
LINE
  5
591
330
1F
100
AcDbEntity
  8
0
  6
Continuous
 62
     7
370
    25
100
AcDbLine
 10
-348.3774240722
 20
866.8466092155
 30
0.0
 11
-348.3774240722
 21
860.8466092155
 31
0.0
  0
LINE
  5
592
330
1F
100
AcDbEntity
  8
0
  6
Continuous
 62
     7
370
    25
100
AcDbLine
 10
14.3498486551
 20
770.8466092155
 30
0.0
 11
14.3498486551
 21
793.3466092155
 31
0.0
  0
LINE
  5
593
330
1F
100
AcDbEntity
  8
0
  6
Continuous
 62
     7
370
    25
100
AcDbLine
 10
-189.8319695267
 20
742.3466092155
 30
0.0
 11
-189.8319695267
 21
748.3466092155
 31
0.0
  0
LINE
  5
594
330
1F
100
AcDbEntity
  8
0
  6
Continuous
 62
     7
370
    25
100
AcDbLine
 10
-348.3774240722
 20
742.3466092155
 30
0.0
 11
-348.3774240722
 21
748.3466092155
 31
0.0
  0
LINE
  5
595
330
1F
100
AcDbEntity
  8
0
  6
Continuous
 62
     7
370
    25
100
AcDbLine
 10
-70.9228786176
 20
866.8466092155
 30
0.0
 11
-31.2865149813
 21
866.8466092155
 31
0.0
  0
LINE
  5
596
330
1F
100
AcDbEntity
  8
0
  6
Continuous
 62
     7
370
    25
100
AcDbLine
 10
-70.9228786176
 20
866.8466092155
 30
0.0
 11
-70.9228786176
 21
860.8466092155
 31
0.0
  0
LINE
  5
597
330
1F
100
AcDbEntity
  8
0
  6
Continuous
 62
     7
370
    25
100
AcDbLine
 10
-194.6501513449
 20
812.2466092155
 30
0.0
 11
-224.6501513449
 21
812.2466092155
 31
0.0
  0
LINE
  5
598
330
1F
100
AcDbEntity
  8
0
  6
Continuous
 62
     7
370
    25
100
AcDbLine
 10
-356.2911732961
 20
246.9792345404
 30
0.0
 11
-395.9275369324
 21
246.9792345404
 31
0.0
  0
LINE
  5
599
330
1F
100
AcDbEntity
  8
0
  6
Continuous
 62
     7
370
    25
100
AcDbLine
 10
-19.5639005688
 20
210.9792345404
 30
0.0
 11
-29.5639005688
 21
210.9792345404
 31
0.0
  0
LINE
  5
59A
330
1F
100
AcDbEntity
  8
0
  6
Continuous
 62
     7
370
    25
100
AcDbLine
 10
-19.5639005688
 20
216.9792345404
 30
0.0
 11
-19.5639005688
 21
210.9792345404
 31
0.0
  0
LINE
  5
59B
330
1F
100
AcDbEntity
  8
0
  6
Continuous
 62
     7
370
    25
100
AcDbLine
 10
-29.5639005688
 20
216.9792345404
 30
0.0
 11
-19.5639005688
 21
216.9792345404
 31
0.0
  0
LINE
  5
59C
330
1F
100
AcDbEntity
  8
0
  6
Continuous
 62
     7
370
    25
100
AcDbLine
 10
-29.5639005688
 20
210.9792345404
 30
0.0
 11
-29.5639005688
 21
216.9792345404
 31
0.0
  0
LINE
  5
59D
330
1F
100
AcDbEntity
  8
0
  6
Continuous
 62
     7
370
    25
100
AcDbLine
 10
-23.5639005688
 20
178.9792345404
 30
0.0
 11
-29.5639005688
 21
178.9792345404
 31
0.0
  0
LINE
  5
59E
330
1F
100
AcDbEntity
  8
0
  6
Continuous
 62
     7
370
    25
100
AcDbLine
 10
-23.5639005688
 20
190.9792345404
 30
0.0
 11
-23.5639005688
 21
178.9792345404
 31
0.0
  0
LINE
  5
59F
330
1F
100
AcDbEntity
  8
0
  6
Continuous
 62
     7
370
    25
100
AcDbLine
 10
-29.5639005688
 20
190.9792345404
 30
0.0
 11
-23.5639005688
 21
190.9792345404
 31
0.0
  0
LINE
  5
5A0
330
1F
100
AcDbEntity
  8
0
  6
Continuous
 62
     7
370
    25
100
AcDbLine
 10
-29.5639005688
 20
178.9792345404
 30
0.0
 11
-29.5639005688
 21
190.9792345404
 31
0.0
  0
LINE
  5
5A1
330
1F
100
AcDbEntity
  8
0
  6
Continuous
 62
     7
370
    25
100
AcDbLine
 10
-23.5639005688
 20
107.4792345404
 30
0.0
 11
-29.5639005688
 21
107.4792345404
 31
0.0
  0
LINE
  5
5A2
330
1F
100
AcDbEntity
  8
0
  6
Continuous
 62
     7
370
    25
100
AcDbLine
 10
-23.5639005688
 20
119.4792345404
 30
0.0
 11
-23.5639005688
 21
107.4792345404
 31
0.0
  0
LINE
  5
5A3
330
1F
100
AcDbEntity
  8
0
  6
Continuous
 62
     7
370
    25
100
AcDbLine
 10
-29.5639005688
 20
119.4792345404
 30
0.0
 11
-23.5639005688
 21
119.4792345404
 31
0.0
  0
LINE
  5
5A4
330
1F
100
AcDbEntity
  8
0
  6
Continuous
 62
     7
370
    25
100
AcDbLine
 10
-29.5639005688
 20
107.4792345404
 30
0.0
 11
-29.5639005688
 21
119.4792345404
 31
0.0
  0
LINE
  5
5A5
330
1F
100
AcDbEntity
  8
0
  6
Continuous
 62
     7
370
    25
100
AcDbLine
 10
-23.5639005688
 20
35.9792345404
 30
0.0
 11
-29.5639005688
 21
35.9792345404
 31
0.0
  0
LINE
  5
5A6
330
1F
100
AcDbEntity
  8
0
  6
Continuous
 62
     7
370
    25
100
AcDbLine
 10
-23.5639005688
 20
47.9792345404
 30
0.0
 11
-23.5639005688
 21
35.9792345404
 31
0.0
  0
LINE
  5
5A7
330
1F
100
AcDbEntity
  8
0
  6
Continuous
 62
     7
370
    25
100
AcDbLine
 10
-29.5639005688
 20
47.9792345404
 30
0.0
 11
-23.5639005688
 21
47.9792345404
 31
0.0
  0
LINE
  5
5A8
330
1F
100
AcDbEntity
  8
0
  6
Continuous
 62
     7
370
    25
100
AcDbLine
 10
-29.5639005688
 20
35.9792345404
 30
0.0
 11
-29.5639005688
 21
47.9792345404
 31
0.0
  0
LINE
  5
5A9
330
1F
100
AcDbEntity
  8
0
  6
Continuous
 62
     7
370
    25
100
AcDbLine
 10
-277.0184460233
 20
246.9792345404
 30
0.0
 11
-316.6548096597
 21
246.9792345404
 31
0.0
  0
LINE
  5
5AA
330
1F
100
AcDbEntity
  8
0
  6
Continuous
 62
     7
370
    25
100
AcDbLine
 10
-197.7457187506
 20
246.9792345404
 30
0.0
 11
-237.382082387
 21
246.9792345404
 31
0.0
  0
LINE
  5
5AB
330
1F
100
AcDbEntity
  8
0
  6
Continuous
 62
     7
370
    25
100
AcDbLine
 10
-118.4729914779
 20
246.9792345404
 30
0.0
 11
-158.1093551142
 21
246.9792345404
 31
0.0
  0
LINE
  5
5AC
330
1F
100
AcDbEntity
  8
0
  6
Continuous
 62
     7
370
    25
100
AcDbLine
 10
-39.2002642051
 20
246.9792345404
 30
0.0
 11
-78.8366278415
 21
246.9792345404
 31
0.0
  0
LINE
  5
5AD
330
1F
100
AcDbEntity
  8
0
  6
Continuous
 62
     7
370
    25
100
AcDbLine
 10
0.4360994312
 20
212.9792345404
 30
0.0
 11
0.4360994312
 21
178.9792345404
 31
0.0
  0
LINE
  5
5AE
330
1F
100
AcDbEntity
  8
0
  6
Continuous
 62
     7
370
    25
100
AcDbLine
 10
6.4360994312
 20
178.9792345404
 30
0.0
 11
0.4360994312
 21
178.9792345404
 31
0.0
  0
LINE
  5
5AF
330
1F
100
AcDbEntity
  8
0
  6
Continuous
 62
     7
370
    25
100
AcDbLine
 10
6.4360994312
 20
212.9792345404
 30
0.0
 11
0.4360994312
 21
212.9792345404
 31
0.0
  0
LINE
  5
5B0
330
1F
100
AcDbEntity
  8
0
  6
Continuous
 62
     7
370
    25
100
AcDbLine
 10
0.4360994312
 20
144.9792345404
 30
0.0
 11
0.4360994312
 21
110.9792345404
 31
0.0
  0
LINE
  5
5B1
330
1F
100
AcDbEntity
  8
0
  6
Continuous
 62
     7
370
    25
100
AcDbLine
 10
6.4360994312
 20
110.9792345404
 30
0.0
 11
0.4360994312
 21
110.9792345404
 31
0.0
  0
LINE
  5
5B2
330
1F
100
AcDbEntity
  8
0
  6
Continuous
 62
     7
370
    25
100
AcDbLine
 10
6.4360994312
 20
144.9792345404
 30
0.0
 11
0.4360994312
 21
144.9792345404
 31
0.0
  0
LINE
  5
5B3
330
1F
100
AcDbEntity
  8
0
  6
Continuous
 62
     7
370
    25
100
AcDbLine
 10
0.4360994312
 20
76.9792345404
 30
0.0
 11
0.4360994312
 21
42.9792345404
 31
0.0
  0
LINE
  5
5B4
330
1F
100
AcDbEntity
  8
0
  6
Continuous
 62
     7
370
    25
100
AcDbLine
 10
6.4360994312
 20
42.9792345404
 30
0.0
 11
0.4360994312
 21
42.9792345404
 31
0.0
  0
LINE
  5
5B5
330
1F
100
AcDbEntity
  8
0
  6
Continuous
 62
     7
370
    25
100
AcDbLine
 10
6.4360994312
 20
76.9792345404
 30
0.0
 11
0.4360994312
 21
76.9792345404
 31
0.0
  0
LINE
  5
5B6
330
1F
100
AcDbEntity
  8
0
  6
Continuous
 62
     7
370
    25
100
AcDbLine
 10
-435.5639005688
 20
212.9792345404
 30
0.0
 11
-435.5639005688
 21
178.9792345404
 31
0.0
  0
LINE
  5
5B7
330
1F
100
AcDbEntity
  8
0
  6
Continuous
 62
     7
370
    25
100
AcDbLine
 10
-441.5639005688
 20
110.9792345404
 30
0.0
 11
-435.5639005688
 21
110.9792345404
 31
0.0
  0
LINE
  5
5B8
330
1F
100
AcDbEntity
  8
0
  6
Continuous
 62
     7
370
    25
100
AcDbLine
 10
-435.5639005688
 20
144.9792345404
 30
0.0
 11
-435.5639005688
 21
110.9792345404
 31
0.0
  0
LINE
  5
5B9
330
1F
100
AcDbEntity
  8
0
  6
Continuous
 62
     7
370
    25
100
AcDbLine
 10
-441.5639005688
 20
42.9792345404
 30
0.0
 11
-435.5639005688
 21
42.9792345404
 31
0.0
  0
LINE
  5
5BA
330
1F
100
AcDbEntity
  8
0
  6
Continuous
 62
     7
370
    25
100
AcDbLine
 10
14.4360994312
 20
8.9792345404
 30
0.0
 11
-449.5639005688
 21
8.9792345404
 31
0.0
  0
LINE
  5
5BB
330
1F
100
AcDbEntity
  8
0
  6
Continuous
 62
     7
370
    25
100
AcDbLine
 10
-435.5639005688
 20
76.9792345404
 30
0.0
 11
-435.5639005688
 21
42.9792345404
 31
0.0
  0
LINE
  5
5BC
330
1F
100
AcDbEntity
  8
0
  6
Continuous
 62
     7
370
    25
100
AcDbLine
 10
-118.4729914779
 20
252.9792345404
 30
0.0
 11
-118.4729914779
 21
246.9792345404
 31
0.0
  0
LINE
  5
5BD
330
1F
100
AcDbEntity
  8
0
  6
Continuous
 62
     7
370
    25
100
AcDbLine
 10
-39.2002642051
 20
252.9792345404
 30
0.0
 11
-39.2002642051
 21
246.9792345404
 31
0.0
  0
LINE
  5
5BE
330
1F
100
AcDbEntity
  8
0
  6
Continuous
 62
     7
370
    25
100
AcDbLine
 10
-441.5639005688
 20
212.9792345404
 30
0.0
 11
-435.5639005688
 21
212.9792345404
 31
0.0
  0
LINE
  5
5BF
330
1F
100
AcDbEntity
  8
0
  6
Continuous
 62
     7
370
    25
100
AcDbLine
 10
-441.5639005688
 20
144.9792345404
 30
0.0
 11
-435.5639005688
 21
144.9792345404
 31
0.0
  0
LINE
  5
5C0
330
1F
100
AcDbEntity
  8
0
  6
Continuous
 62
     7
370
    25
100
AcDbLine
 10
-441.5639005688
 20
178.9792345404
 30
0.0
 11
-435.5639005688
 21
178.9792345404
 31
0.0
  0
LINE
  5
5C1
330
1F
100
AcDbEntity
  8
0
  6
Continuous
 62
     7
370
    25
100
AcDbLine
 10
-441.5639005688
 20
76.9792345404
 30
0.0
 11
-435.5639005688
 21
76.9792345404
 31
0.0
  0
LINE
  5
5C2
330
1F
100
AcDbEntity
  8
0
  6
Continuous
 62
     7
370
    25
100
AcDbLine
 10
-441.5639005688
 20
212.9792345404
 30
0.0
 11
-441.5639005688
 21
178.9792345404
 31
0.0
  0
LINE
  5
5C3
330
1F
100
AcDbEntity
  8
0
  6
Continuous
 62
     7
370
    25
100
AcDbLine
 10
-441.5639005688
 20
144.9792345404
 30
0.0
 11
-441.5639005688
 21
110.9792345404
 31
0.0
  0
LINE
  5
5C4
330
1F
100
AcDbEntity
  8
0
  6
Continuous
 62
     7
370
    25
100
AcDbLine
 10
-441.5639005688
 20
76.9792345404
 30
0.0
 11
-441.5639005688
 21
42.9792345404
 31
0.0
  0
LINE
  5
5C5
330
1F
100
AcDbEntity
  8
0
  6
Continuous
 62
     7
370
    25
100
AcDbLine
 10
-71.8942033486
 20
260.9792345404
 30
0.0
 11
-363.233597789
 21
260.9792345404
 31
0.0
  0
LINE
  5
5C6
330
1F
100
AcDbEntity
  8
0
  6
Continuous
 62
     7
370
    25
100
AcDbLine
 10
14.4360994312
 20
272.9792345404
 30
0.0
 11
-53.5639005688
 21
272.9792345404
 31
0.0
  0
LINE
  5
5C7
330
1F
100
AcDbEntity
  8
0
  6
Continuous
 62
     7
370
    25
100
AcDbLine
 10
-356.2911732961
 20
252.9792345404
 30
0.0
 11
-395.9275369324
 21
252.9792345404
 31
0.0
  0
LINE
  5
5C8
330
1F
100
AcDbEntity
  8
0
  6
Continuous
 62
     7
370
    25
100
AcDbLine
 10
-277.0184460233
 20
252.9792345404
 30
0.0
 11
-316.6548096597
 21
252.9792345404
 31
0.0
  0
LINE
  5
5C9
330
1F
100
AcDbEntity
  8
0
  6
Continuous
 62
     7
370
    25
100
AcDbLine
 10
-411.5639005688
 20
35.9792345404
 30
0.0
 11
-405.5639005688
 21
35.9792345404
 31
0.0
  0
LINE
  5
5CA
330
1F
100
AcDbEntity
  8
0
  6
Continuous
 62
     7
370
    25
100
AcDbLine
 10
-411.5639005688
 20
35.9792345404
 30
0.0
 11
-411.5639005688
 21
47.9792345404
 31
0.0
  0
LINE
  5
5CB
330
1F
100
AcDbEntity
  8
0
  6
Continuous
 62
     7
370
    25
100
AcDbLine
 10
-411.5639005688
 20
47.9792345404
 30
0.0
 11
-405.5639005688
 21
47.9792345404
 31
0.0
  0
LINE
  5
5CC
330
1F
100
AcDbEntity
  8
0
  6
Continuous
 62
     7
370
    25
100
AcDbLine
 10
-405.5639005688
 20
35.9792345404
 30
0.0
 11
-405.5639005688
 21
47.9792345404
 31
0.0
  0
LINE
  5
5CD
330
1F
100
AcDbEntity
  8
0
  6
Continuous
 62
     7
370
    25
100
AcDbLine
 10
-411.5639005688
 20
125.4792345404
 30
0.0
 11
-405.5639005688
 21
125.4792345404
 31
0.0
  0
LINE
  5
5CE
330
1F
100
AcDbEntity
  8
0
  6
Continuous
 62
     7
370
    25
100
AcDbLine
 10
-411.5639005688
 20
125.4792345404
 30
0.0
 11
-411.5639005688
 21
137.4792345404
 31
0.0
  0
LINE
  5
5CF
330
1F
100
AcDbEntity
  8
0
  6
Continuous
 62
     7
370
    25
100
AcDbLine
 10
-411.5639005688
 20
137.4792345404
 30
0.0
 11
-405.5639005688
 21
137.4792345404
 31
0.0
  0
LINE
  5
5D0
330
1F
100
AcDbEntity
  8
0
  6
Continuous
 62
     7
370
    25
100
AcDbLine
 10
-405.5639005688
 20
125.4792345404
 30
0.0
 11
-405.5639005688
 21
137.4792345404
 31
0.0
  0
LINE
  5
5D1
330
1F
100
AcDbEntity
  8
0
  6
Continuous
 62
     7
370
    25
100
AcDbLine
 10
-411.5639005688
 20
214.9792345404
 30
0.0
 11
-405.5639005688
 21
214.9792345404
 31
0.0
  0
LINE
  5
5D2
330
1F
100
AcDbEntity
  8
0
  6
Continuous
 62
     7
370
    25
100
AcDbLine
 10
-411.5639005688
 20
214.9792345404
 30
0.0
 11
-411.5639005688
 21
226.9792345404
 31
0.0
  0
LINE
  5
5D3
330
1F
100
AcDbEntity
  8
0
  6
Continuous
 62
     7
370
    25
100
AcDbLine
 10
-411.5639005688
 20
226.9792345404
 30
0.0
 11
-405.5639005688
 21
226.9792345404
 31
0.0
  0
LINE
  5
5D4
330
1F
100
AcDbEntity
  8
0
  6
Continuous
 62
     7
370
    25
100
AcDbLine
 10
-405.5639005688
 20
214.9792345404
 30
0.0
 11
-405.5639005688
 21
226.9792345404
 31
0.0
  0
LINE
  5
5D5
330
1F
100
AcDbEntity
  8
0
  6
Continuous
 62
     7
370
    25
100
AcDbLine
 10
-449.5639005688
 20
272.9792345404
 30
0.0
 11
-449.5639005688
 21
8.9792345404
 31
0.0
  0
LINE
  5
5D6
330
1F
100
AcDbEntity
  8
0
  6
Continuous
 62
     7
370
    25
100
AcDbLine
 10
6.4360994312
 20
76.9792345404
 30
0.0
 11
6.4360994312
 21
42.9792345404
 31
0.0
  0
LINE
  5
5D7
330
1F
100
AcDbEntity
  8
0
  6
Continuous
 62
     7
370
    25
100
AcDbLine
 10
14.4360994312
 20
272.9792345404
 30
0.0
 11
14.4360994312
 21
8.9792345404
 31
0.0
  0
LINE
  5
5D8
330
1F
100
AcDbEntity
  8
0
  6
Continuous
 62
     7
370
    25
100
AcDbLine
 10
6.4360994312
 20
212.9792345404
 30
0.0
 11
6.4360994312
 21
178.9792345404
 31
0.0
  0
LINE
  5
5D9
330
1F
100
AcDbEntity
  8
0
  6
Continuous
 62
     7
370
    25
100
AcDbLine
 10
6.4360994312
 20
144.9792345404
 30
0.0
 11
6.4360994312
 21
110.9792345404
 31
0.0
  0
LINE
  5
5DA
330
1F
100
AcDbEntity
  8
0
  6
Continuous
 62
     7
370
    25
100
AcDbLine
 10
-197.7457187506
 20
252.9792345404
 30
0.0
 11
-237.382082387
 21
252.9792345404
 31
0.0
  0
LINE
  5
5DB
330
1F
100
AcDbEntity
  8
0
  6
Continuous
 62
     7
370
    25
100
AcDbLine
 10
-118.4729914779
 20
252.9792345404
 30
0.0
 11
-158.1093551142
 21
252.9792345404
 31
0.0
  0
LINE
  5
5DC
330
1F
100
AcDbEntity
  8
0
  6
Continuous
 62
     7
370
    25
100
AcDbLine
 10
-39.2002642051
 20
252.9792345404
 30
0.0
 11
-78.8366278415
 21
252.9792345404
 31
0.0
  0
LINE
  5
5DD
330
1F
100
AcDbEntity
  8
0
  6
Continuous
 62
     7
370
    25
100
AcDbLine
 10
-395.9275369324
 20
252.9792345404
 30
0.0
 11
-395.9275369324
 21
246.9792345404
 31
0.0
  0
LINE
  5
5DE
330
1F
100
AcDbEntity
  8
0
  6
Continuous
 62
     7
370
    25
100
AcDbLine
 10
-316.6548096597
 20
252.9792345404
 30
0.0
 11
-316.6548096597
 21
246.9792345404
 31
0.0
  0
LINE
  5
5DF
330
1F
100
AcDbEntity
  8
0
  6
Continuous
 62
     7
370
    25
100
AcDbLine
 10
-356.2911732961
 20
252.9792345404
 30
0.0
 11
-356.2911732961
 21
246.9792345404
 31
0.0
  0
LINE
  5
5E0
330
1F
100
AcDbEntity
  8
0
  6
Continuous
 62
     7
370
    25
100
AcDbLine
 10
-237.382082387
 20
252.9792345404
 30
0.0
 11
-237.382082387
 21
246.9792345404
 31
0.0
  0
LINE
  5
5E1
330
1F
100
AcDbEntity
  8
0
  6
Continuous
 62
     7
370
    25
100
AcDbLine
 10
-277.0184460233
 20
252.9792345404
 30
0.0
 11
-277.0184460233
 21
246.9792345404
 31
0.0
  0
LINE
  5
5E2
330
1F
100
AcDbEntity
  8
0
  6
Continuous
 62
     7
370
    25
100
AcDbLine
 10
-158.1093551142
 20
252.9792345404
 30
0.0
 11
-158.1093551142
 21
246.9792345404
 31
0.0
  0
LINE
  5
5E3
330
1F
100
AcDbEntity
  8
0
  6
Continuous
 62
     7
370
    25
100
AcDbLine
 10
-197.7457187506
 20
252.9792345404
 30
0.0
 11
-197.7457187506
 21
246.9792345404
 31
0.0
  0
LINE
  5
5E4
330
1F
100
AcDbEntity
  8
0
  6
Continuous
 62
     7
370
    25
100
AcDbLine
 10
-78.8366278415
 20
252.9792345404
 30
0.0
 11
-78.8366278415
 21
246.9792345404
 31
0.0
  0
LINE
  5
5E5
330
1F
100
AcDbEntity
  8
0
  6
Continuous
 62
     7
370
    25
100
AcDbLine
 10
-449.5639005688
 20
272.9792345404
 30
0.0
 11
-381.5639005688
 21
272.9792345404
 31
0.0
  0
LINE
  5
5E6
330
1F
100
AcDbEntity
  8
0
  6
Continuous
 62
     7
370
    25
100
AcDbLine
 10
-25.1678941602
 20
306.7680705807
 30
0.0
 11
-31.1678941602
 21
306.7680705807
 31
0.0
  0
LINE
  5
5E7
330
1F
100
AcDbEntity
  8
0
  6
Continuous
 62
     7
370
    25
100
AcDbLine
 10
-25.1678941602
 20
306.7680705807
 30
0.0
 11
-25.1678941602
 21
318.7680705807
 31
0.0
  0
LINE
  5
5E8
330
1F
100
AcDbEntity
  8
0
  6
Continuous
 62
     7
370
    25
100
AcDbLine
 10
-25.1678941602
 20
318.7680705807
 30
0.0
 11
-31.1678941602
 21
318.7680705807
 31
0.0
  0
LINE
  5
5E9
330
1F
100
AcDbEntity
  8
0
  6
Continuous
 62
     7
370
    25
100
AcDbLine
 10
-31.1678941602
 20
306.7680705807
 30
0.0
 11
-31.1678941602
 21
318.7680705807
 31
0.0
  0
LINE
  5
5EA
330
1F
100
AcDbEntity
  8
0
  6
Continuous
 62
     7
370
    25
100
AcDbLine
 10
-25.1678941602
 20
485.7680705807
 30
0.0
 11
-31.1678941602
 21
485.7680705807
 31
0.0
  0
LINE
  5
5EB
330
1F
100
AcDbEntity
  8
0
  6
Continuous
 62
     7
370
    25
100
AcDbLine
 10
-25.1678941602
 20
485.7680705807
 30
0.0
 11
-25.1678941602
 21
497.7680705807
 31
0.0
  0
LINE
  5
5EC
330
1F
100
AcDbEntity
  8
0
  6
Continuous
 62
     7
370
    25
100
AcDbLine
 10
-25.1678941602
 20
497.7680705807
 30
0.0
 11
-31.1678941602
 21
497.7680705807
 31
0.0
  0
LINE
  5
5ED
330
1F
100
AcDbEntity
  8
0
  6
Continuous
 62
     7
370
    25
100
AcDbLine
 10
-31.1678941602
 20
485.7680705807
 30
0.0
 11
-31.1678941602
 21
497.7680705807
 31
0.0
  0
LINE
  5
5EE
330
1F
100
AcDbEntity
  8
0
  6
Continuous
 62
     7
370
    25
100
AcDbLine
 10
4.8321058398
 20
347.7680705807
 30
0.0
 11
-1.1678941602
 21
347.7680705807
 31
0.0
  0
LINE
  5
5EF
330
1F
100
AcDbEntity
  8
0
  6
Continuous
 62
     7
370
    25
100
AcDbLine
 10
-1.1678941602
 20
347.7680705807
 30
0.0
 11
-1.1678941602
 21
313.7680705807
 31
0.0
  0
LINE
  5
5F0
330
1F
100
AcDbEntity
  8
0
  6
Continuous
 62
     7
370
    25
100
AcDbLine
 10
4.8321058398
 20
313.7680705807
 30
0.0
 11
-1.1678941602
 21
313.7680705807
 31
0.0
  0
LINE
  5
5F1
330
1F
100
AcDbEntity
  8
0
  6
Continuous
 62
     7
370
    25
100
AcDbLine
 10
4.8321058398
 20
313.7680705807
 30
0.0
 11
4.8321058398
 21
347.7680705807
 31
0.0
  0
LINE
  5
5F2
330
1F
100
AcDbEntity
  8
0
  6
Continuous
 62
     7
370
    25
100
AcDbLine
 10
4.8321058398
 20
415.7680705807
 30
0.0
 11
-1.1678941602
 21
415.7680705807
 31
0.0
  0
LINE
  5
5F3
330
1F
100
AcDbEntity
  8
0
  6
Continuous
 62
     7
370
    25
100
AcDbLine
 10
-1.1678941602
 20
415.7680705807
 30
0.0
 11
-1.1678941602
 21
381.7680705807
 31
0.0
  0
LINE
  5
5F4
330
1F
100
AcDbEntity
  8
0
  6
Continuous
 62
     7
370
    25
100
AcDbLine
 10
4.8321058398
 20
381.7680705807
 30
0.0
 11
-1.1678941602
 21
381.7680705807
 31
0.0
  0
LINE
  5
5F5
330
1F
100
AcDbEntity
  8
0
  6
Continuous
 62
     7
370
    25
100
AcDbLine
 10
4.8321058398
 20
381.7680705807
 30
0.0
 11
4.8321058398
 21
415.7680705807
 31
0.0
  0
LINE
  5
5F6
330
1F
100
AcDbEntity
  8
0
  6
Continuous
 62
     7
370
    25
100
AcDbLine
 10
4.8321058398
 20
483.7680705807
 30
0.0
 11
-1.1678941602
 21
483.7680705807
 31
0.0
  0
LINE
  5
5F7
330
1F
100
AcDbEntity
  8
0
  6
Continuous
 62
     7
370
    25
100
AcDbLine
 10
-1.1678941602
 20
483.7680705807
 30
0.0
 11
-1.1678941602
 21
449.7680705807
 31
0.0
  0
LINE
  5
5F8
330
1F
100
AcDbEntity
  8
0
  6
Continuous
 62
     7
370
    25
100
AcDbLine
 10
4.8321058398
 20
449.7680705807
 30
0.0
 11
-1.1678941602
 21
449.7680705807
 31
0.0
  0
LINE
  5
5F9
330
1F
100
AcDbEntity
  8
0
  6
Continuous
 62
     7
370
    25
100
AcDbLine
 10
4.8321058398
 20
449.7680705807
 30
0.0
 11
4.8321058398
 21
483.7680705807
 31
0.0
  0
LINE
  5
5FA
330
1F
100
AcDbEntity
  8
0
  6
Continuous
 62
     7
370
    25
100
AcDbLine
 10
-437.1678941602
 20
347.7680705807
 30
0.0
 11
-437.1678941602
 21
313.7680705807
 31
0.0
  0
LINE
  5
5FB
330
1F
100
AcDbEntity
  8
0
  6
Continuous
 62
     7
370
    25
100
AcDbLine
 10
-443.1678941602
 20
347.7680705807
 30
0.0
 11
-437.1678941602
 21
347.7680705807
 31
0.0
  0
LINE
  5
5FC
330
1F
100
AcDbEntity
  8
0
  6
Continuous
 62
     7
370
    25
100
AcDbLine
 10
-443.1678941602
 20
313.7680705807
 30
0.0
 11
-443.1678941602
 21
347.7680705807
 31
0.0
  0
LINE
  5
5FD
330
1F
100
AcDbEntity
  8
0
  6
Continuous
 62
     7
370
    25
100
AcDbLine
 10
-443.1678941602
 20
313.7680705807
 30
0.0
 11
-437.1678941602
 21
313.7680705807
 31
0.0
  0
LINE
  5
5FE
330
1F
100
AcDbEntity
  8
0
  6
Continuous
 62
     7
370
    25
100
AcDbLine
 10
-437.1678941602
 20
415.7680705807
 30
0.0
 11
-437.1678941602
 21
381.7680705807
 31
0.0
  0
LINE
  5
5FF
330
1F
100
AcDbEntity
  8
0
  6
Continuous
 62
     7
370
    25
100
AcDbLine
 10
-443.1678941602
 20
415.7680705807
 30
0.0
 11
-437.1678941602
 21
415.7680705807
 31
0.0
  0
LINE
  5
600
330
1F
100
AcDbEntity
  8
0
  6
Continuous
 62
     7
370
    25
100
AcDbLine
 10
-443.1678941602
 20
381.7680705807
 30
0.0
 11
-443.1678941602
 21
415.7680705807
 31
0.0
  0
LINE
  5
601
330
1F
100
AcDbEntity
  8
0
  6
Continuous
 62
     7
370
    25
100
AcDbLine
 10
-443.1678941602
 20
381.7680705807
 30
0.0
 11
-437.1678941602
 21
381.7680705807
 31
0.0
  0
LINE
  5
602
330
1F
100
AcDbEntity
  8
0
  6
Continuous
 62
     7
370
    25
100
AcDbLine
 10
-437.1678941602
 20
483.7680705807
 30
0.0
 11
-437.1678941602
 21
449.7680705807
 31
0.0
  0
LINE
  5
603
330
1F
100
AcDbEntity
  8
0
  6
Continuous
 62
     7
370
    25
100
AcDbLine
 10
-443.1678941602
 20
483.7680705807
 30
0.0
 11
-437.1678941602
 21
483.7680705807
 31
0.0
  0
LINE
  5
604
330
1F
100
AcDbEntity
  8
0
  6
Continuous
 62
     7
370
    25
100
AcDbLine
 10
-443.1678941602
 20
449.7680705807
 30
0.0
 11
-443.1678941602
 21
483.7680705807
 31
0.0
  0
LINE
  5
605
330
1F
100
AcDbEntity
  8
0
  6
Continuous
 62
     7
370
    25
100
AcDbLine
 10
-443.1678941602
 20
449.7680705807
 30
0.0
 11
-437.1678941602
 21
449.7680705807
 31
0.0
  0
LINE
  5
606
330
1F
100
AcDbEntity
  8
0
  6
Continuous
 62
     7
370
    25
100
AcDbLine
 10
-397.5315305238
 20
517.7680705807
 30
0.0
 11
-357.8951668875
 21
517.7680705807
 31
0.0
  0
LINE
  5
607
330
1F
100
AcDbEntity
  8
0
  6
Continuous
 62
     7
370
    25
100
AcDbLine
 10
-357.8951668875
 20
523.7680705807
 30
0.0
 11
-357.8951668875
 21
517.7680705807
 31
0.0
  0
LINE
  5
608
330
1F
100
AcDbEntity
  8
0
  6
Continuous
 62
     7
370
    25
100
AcDbLine
 10
-397.5315305238
 20
523.7680705807
 30
0.0
 11
-357.8951668875
 21
523.7680705807
 31
0.0
  0
LINE
  5
609
330
1F
100
AcDbEntity
  8
0
  6
Continuous
 62
     7
370
    25
100
AcDbLine
 10
-397.5315305238
 20
523.7680705807
 30
0.0
 11
-397.5315305238
 21
517.7680705807
 31
0.0
  0
LINE
  5
60A
330
1F
100
AcDbEntity
  8
0
  6
Continuous
 62
     7
370
    25
100
AcDbLine
 10
-318.2588032511
 20
517.7680705807
 30
0.0
 11
-278.6224396148
 21
517.7680705807
 31
0.0
  0
LINE
  5
60B
330
1F
100
AcDbEntity
  8
0
  6
Continuous
 62
     7
370
    25
100
AcDbLine
 10
-278.6224396148
 20
523.7680705807
 30
0.0
 11
-278.6224396148
 21
517.7680705807
 31
0.0
  0
LINE
  5
60C
330
1F
100
AcDbEntity
  8
0
  6
Continuous
 62
     7
370
    25
100
AcDbLine
 10
-318.2588032511
 20
523.7680705807
 30
0.0
 11
-278.6224396148
 21
523.7680705807
 31
0.0
  0
LINE
  5
60D
330
1F
100
AcDbEntity
  8
0
  6
Continuous
 62
     7
370
    25
100
AcDbLine
 10
-318.2588032511
 20
523.7680705807
 30
0.0
 11
-318.2588032511
 21
517.7680705807
 31
0.0
  0
LINE
  5
60E
330
1F
100
AcDbEntity
  8
0
  6
Continuous
 62
     7
370
    25
100
AcDbLine
 10
-238.9860759784
 20
517.7680705807
 30
0.0
 11
-199.349712342
 21
517.7680705807
 31
0.0
  0
LINE
  5
60F
330
1F
100
AcDbEntity
  8
0
  6
Continuous
 62
     7
370
    25
100
AcDbLine
 10
-199.349712342
 20
523.7680705807
 30
0.0
 11
-199.349712342
 21
517.7680705807
 31
0.0
  0
LINE
  5
610
330
1F
100
AcDbEntity
  8
0
  6
Continuous
 62
     7
370
    25
100
AcDbLine
 10
-238.9860759784
 20
523.7680705807
 30
0.0
 11
-199.349712342
 21
523.7680705807
 31
0.0
  0
LINE
  5
611
330
1F
100
AcDbEntity
  8
0
  6
Continuous
 62
     7
370
    25
100
AcDbLine
 10
-238.9860759784
 20
523.7680705807
 30
0.0
 11
-238.9860759784
 21
517.7680705807
 31
0.0
  0
LINE
  5
612
330
1F
100
AcDbEntity
  8
0
  6
Continuous
 62
     7
370
    25
100
AcDbLine
 10
-159.7133487057
 20
517.7680705807
 30
0.0
 11
-120.0769850693
 21
517.7680705807
 31
0.0
  0
LINE
  5
613
330
1F
100
AcDbEntity
  8
0
  6
Continuous
 62
     7
370
    25
100
AcDbLine
 10
-120.0769850693
 20
523.7680705807
 30
0.0
 11
-120.0769850693
 21
517.7680705807
 31
0.0
  0
LINE
  5
614
330
1F
100
AcDbEntity
  8
0
  6
Continuous
 62
     7
370
    25
100
AcDbLine
 10
-159.7133487057
 20
523.7680705807
 30
0.0
 11
-120.0769850693
 21
523.7680705807
 31
0.0
  0
LINE
  5
615
330
1F
100
AcDbEntity
  8
0
  6
Continuous
 62
     7
370
    25
100
AcDbLine
 10
-159.7133487057
 20
523.7680705807
 30
0.0
 11
-159.7133487057
 21
517.7680705807
 31
0.0
  0
LINE
  5
616
330
1F
100
AcDbEntity
  8
0
  6
Continuous
 62
     7
370
    25
100
AcDbLine
 10
-80.4406214329
 20
517.7680705807
 30
0.0
 11
-40.8042577966
 21
517.7680705807
 31
0.0
  0
LINE
  5
617
330
1F
100
AcDbEntity
  8
0
  6
Continuous
 62
     7
370
    25
100
AcDbLine
 10
-40.8042577966
 20
523.7680705807
 30
0.0
 11
-40.8042577966
 21
517.7680705807
 31
0.0
  0
LINE
  5
618
330
1F
100
AcDbEntity
  8
0
  6
Continuous
 62
     7
370
    25
100
AcDbLine
 10
-80.4406214329
 20
523.7680705807
 30
0.0
 11
-40.8042577966
 21
523.7680705807
 31
0.0
  0
LINE
  5
619
330
1F
100
AcDbEntity
  8
0
  6
Continuous
 62
     7
370
    25
100
AcDbLine
 10
-80.4406214329
 20
523.7680705807
 30
0.0
 11
-80.4406214329
 21
517.7680705807
 31
0.0
  0
LINE
  5
61A
330
1F
100
AcDbEntity
  8
0
  6
Continuous
 62
     7
370
    25
100
AcDbLine
 10
-413.1678941602
 20
318.7680705807
 30
0.0
 11
-413.1678941602
 21
306.7680705807
 31
0.0
  0
LINE
  5
61B
330
1F
100
AcDbEntity
  8
0
  6
Continuous
 62
     7
370
    25
100
AcDbLine
 10
-413.1678941602
 20
306.7680705807
 30
0.0
 11
-407.1678941602
 21
306.7680705807
 31
0.0
  0
LINE
  5
61C
330
1F
100
AcDbEntity
  8
0
  6
Continuous
 62
     7
370
    25
100
AcDbLine
 10
-407.1678941602
 20
306.7680705807
 30
0.0
 11
-407.1678941602
 21
318.7680705807
 31
0.0
  0
LINE
  5
61D
330
1F
100
AcDbEntity
  8
0
  6
Continuous
 62
     7
370
    25
100
AcDbLine
 10
-407.1678941602
 20
318.7680705807
 30
0.0
 11
-413.1678941602
 21
318.7680705807
 31
0.0
  0
LINE
  5
61E
330
1F
100
AcDbEntity
  8
0
  6
Continuous
 62
     7
370
    25
100
AcDbLine
 10
-413.1678941602
 20
390.2680705807
 30
0.0
 11
-413.1678941602
 21
378.2680705807
 31
0.0
  0
LINE
  5
61F
330
1F
100
AcDbEntity
  8
0
  6
Continuous
 62
     7
370
    25
100
AcDbLine
 10
-413.1678941602
 20
378.2680705807
 30
0.0
 11
-407.1678941602
 21
378.2680705807
 31
0.0
  0
LINE
  5
620
330
1F
100
AcDbEntity
  8
0
  6
Continuous
 62
     7
370
    25
100
AcDbLine
 10
-407.1678941602
 20
378.2680705807
 30
0.0
 11
-407.1678941602
 21
390.2680705807
 31
0.0
  0
LINE
  5
621
330
1F
100
AcDbEntity
  8
0
  6
Continuous
 62
     7
370
    25
100
AcDbLine
 10
-407.1678941602
 20
390.2680705807
 30
0.0
 11
-413.1678941602
 21
390.2680705807
 31
0.0
  0
LINE
  5
622
330
1F
100
AcDbEntity
  8
0
  6
Continuous
 62
     7
370
    25
100
AcDbLine
 10
-413.1678941602
 20
461.7680705807
 30
0.0
 11
-413.1678941602
 21
449.7680705807
 31
0.0
  0
LINE
  5
623
330
1F
100
AcDbEntity
  8
0
  6
Continuous
 62
     7
370
    25
100
AcDbLine
 10
-413.1678941602
 20
449.7680705807
 30
0.0
 11
-407.1678941602
 21
449.7680705807
 31
0.0
  0
LINE
  5
624
330
1F
100
AcDbEntity
  8
0
  6
Continuous
 62
     7
370
    25
100
AcDbLine
 10
-407.1678941602
 20
449.7680705807
 30
0.0
 11
-407.1678941602
 21
461.7680705807
 31
0.0
  0
LINE
  5
625
330
1F
100
AcDbEntity
  8
0
  6
Continuous
 62
     7
370
    25
100
AcDbLine
 10
-407.1678941602
 20
461.7680705807
 30
0.0
 11
-413.1678941602
 21
461.7680705807
 31
0.0
  0
LINE
  5
626
330
1F
100
AcDbEntity
  8
0
  6
Continuous
 62
     7
370
    25
100
AcDbLine
 10
-417.1678941602
 20
487.7680705807
 30
0.0
 11
-417.1678941602
 21
481.7680705807
 31
0.0
  0
LINE
  5
627
330
1F
100
AcDbEntity
  8
0
  6
Continuous
 62
     7
370
    25
100
AcDbLine
 10
-417.1678941602
 20
481.7680705807
 30
0.0
 11
-407.1678941602
 21
481.7680705807
 31
0.0
  0
LINE
  5
628
330
1F
100
AcDbEntity
  8
0
  6
Continuous
 62
     7
370
    25
100
AcDbLine
 10
-407.1678941602
 20
481.7680705807
 30
0.0
 11
-407.1678941602
 21
487.7680705807
 31
0.0
  0
LINE
  5
629
330
1F
100
AcDbEntity
  8
0
  6
Continuous
 62
     7
370
    25
100
AcDbLine
 10
-407.1678941602
 20
487.7680705807
 30
0.0
 11
-417.1678941602
 21
487.7680705807
 31
0.0
  0
LINE
  5
62A
330
1F
100
AcDbEntity
  8
0
  6
Continuous
 62
     7
370
    25
100
AcDbLine
 10
-364.8375913804
 20
531.7680705807
 30
0.0
 11
-73.49819694
 21
531.7680705807
 31
0.0
  0
LINE
  5
62B
330
1F
100
AcDbEntity
  8
0
  6
Continuous
 62
     7
370
    25
100
AcDbLine
 10
12.8321058398
 20
543.7680705807
 30
0.0
 11
-55.1678941602
 21
543.7680705807
 31
0.0
  0
LINE
  5
62C
330
1F
100
AcDbEntity
  8
0
  6
Continuous
 62
     7
370
    25
100
AcDbLine
 10
12.8321058398
 20
279.7680705807
 30
0.0
 11
12.8321058398
 21
543.7680705807
 31
0.0
  0
LINE
  5
62D
330
1F
100
AcDbEntity
  8
0
  6
Continuous
 62
     7
370
    25
100
AcDbLine
 10
-451.1678941602
 20
279.7680705807
 30
0.0
 11
12.8321058398
 21
279.7680705807
 31
0.0
  0
LINE
  5
62E
330
1F
100
AcDbEntity
  8
0
  6
Continuous
 62
     7
370
    25
100
AcDbLine
 10
-451.1678941602
 20
279.7680705807
 30
0.0
 11
-451.1678941602
 21
543.7680705807
 31
0.0
  0
LINE
  5
62F
330
1F
100
AcDbEntity
  8
0
  6
Continuous
 62
     7
370
    25
100
AcDbLine
 10
-451.1678941602
 20
543.7680705807
 30
0.0
 11
-383.1678941602
 21
543.7680705807
 31
0.0
  0
LINE
  5
630
330
1F
100
AcDbEntity
  8
0
  6
Continuous
 62
     7
370
    25
100
AcDbLine
 10
-25.1678941602
 20
396.2680705807
 30
0.0
 11
-31.1678941602
 21
396.2680705807
 31
0.0
  0
LINE
  5
631
330
1F
100
AcDbEntity
  8
0
  6
Continuous
 62
     7
370
    25
100
AcDbLine
 10
-25.1678941602
 20
396.2680705807
 30
0.0
 11
-25.1678941602
 21
408.2680705807
 31
0.0
  0
LINE
  5
632
330
1F
100
AcDbEntity
  8
0
  6
Continuous
 62
     7
370
    25
100
AcDbLine
 10
-25.1678941602
 20
408.2680705807
 30
0.0
 11
-31.1678941602
 21
408.2680705807
 31
0.0
  0
LINE
  5
633
330
1F
100
AcDbEntity
  8
0
  6
Continuous
 62
     7
370
    25
100
AcDbLine
 10
-31.1678941602
 20
396.2680705807
 30
0.0
 11
-31.1678941602
 21
408.2680705807
 31
0.0
  0
LINE
  5
634
330
1F
100
AcDbEntity
  8
0
  6
Continuous
 62
     7
370
    25
100
AcDbLine
 10
-569.5906428236
 20
768.8482282174
 30
0.0
 11
-553.5906428236
 21
768.8482282174
 31
0.0
  0
LINE
  5
635
330
1F
100
AcDbEntity
  8
0
  6
Continuous
 62
     7
370
    25
100
AcDbLine
 10
-553.5906428236
 20
763.5482282174
 30
0.0
 11
-569.5906428236
 21
763.5482282174
 31
0.0
  0
LINE
  5
636
330
1F
100
AcDbEntity
  8
0
  6
Continuous
 62
     7
370
    25
100
AcDbLine
 10
-481.3175754376
 20
232.2602759285
 30
0.0
 11
-475.3175754376
 21
232.2602759285
 31
0.0
  0
LINE
  5
637
330
1F
100
AcDbEntity
  8
0
  6
Continuous
 62
     7
370
    25
100
AcDbLine
 10
-475.3175754376
 20
244.2602759285
 30
0.0
 11
-475.3175754376
 21
232.2602759285
 31
0.0
  0
LINE
  5
638
330
1F
100
AcDbEntity
  8
0
  6
Continuous
 62
     7
370
    25
100
AcDbLine
 10
-481.3175754376
 20
244.2602759285
 30
0.0
 11
-475.3175754376
 21
244.2602759285
 31
0.0
  0
LINE
  5
639
330
1F
100
AcDbEntity
  8
0
  6
Continuous
 62
     7
370
    25
100
AcDbLine
 10
-481.3175754376
 20
244.2602759285
 30
0.0
 11
-481.3175754376
 21
232.2602759285
 31
0.0
  0
LINE
  5
63A
330
1F
100
AcDbEntity
  8
0
  6
Continuous
 62
     7
370
    25
100
AcDbLine
 10
-690.3175754376
 20
166.2602759285
 30
0.0
 11
-690.3175754376
 21
188.7602759285
 31
0.0
  0
LINE
  5
63B
330
1F
100
AcDbEntity
  8
0
  6
Continuous
 62
     7
370
    25
100
AcDbLine
 10
-696.3175754376
 20
166.2602759285
 30
0.0
 11
-696.3175754376
 21
188.7602759285
 31
0.0
  0
LINE
  5
63C
330
1F
100
AcDbEntity
  8
0
  6
Continuous
 62
     7
370
    25
100
AcDbLine
 10
-475.3175754376
 20
155.7602759285
 30
0.0
 11
-481.3175754376
 21
155.7602759285
 31
0.0
  0
LINE
  5
63D
330
1F
100
AcDbEntity
  8
0
  6
Continuous
 62
     7
370
    25
100
AcDbLine
 10
-475.3175754376
 20
167.7602759285
 30
0.0
 11
-475.3175754376
 21
155.7602759285
 31
0.0
  0
LINE
  5
63E
330
1F
100
AcDbEntity
  8
0
  6
Continuous
 62
     7
370
    25
100
AcDbLine
 10
-475.3175754376
 20
167.7602759285
 30
0.0
 11
-481.3175754376
 21
167.7602759285
 31
0.0
  0
LINE
  5
63F
330
1F
100
AcDbEntity
  8
0
  6
Continuous
 62
     7
370
    25
100
AcDbLine
 10
-481.3175754376
 20
167.7602759285
 30
0.0
 11
-481.3175754376
 21
155.7602759285
 31
0.0
  0
LINE
  5
640
330
1F
100
AcDbEntity
  8
0
  6
Continuous
 62
     7
370
    25
100
AcDbLine
 10
-690.3175754376
 20
211.2602759285
 30
0.0
 11
-690.3175754376
 21
233.7602759285
 31
0.0
  0
LINE
  5
641
330
1F
100
AcDbEntity
  8
0
  6
Continuous
 62
     7
370
    25
100
AcDbLine
 10
-696.3175754376
 20
233.7602759285
 30
0.0
 11
-690.3175754376
 21
233.7602759285
 31
0.0
  0
LINE
  5
642
330
1F
100
AcDbEntity
  8
0
  6
Continuous
 62
     7
370
    25
100
AcDbLine
 10
-696.3175754376
 20
211.2602759285
 30
0.0
 11
-696.3175754376
 21
233.7602759285
 31
0.0
  0
LINE
  5
643
330
1F
100
AcDbEntity
  8
0
  6
Continuous
 62
     7
370
    25
100
AcDbLine
 10
-656.3175754376
 20
262.2602759285
 30
0.0
 11
-656.3175754376
 21
256.2602759285
 31
0.0
  0
LINE
  5
644
330
1F
100
AcDbEntity
  8
0
  6
Continuous
 62
     7
370
    25
100
AcDbLine
 10
-622.3175754376
 20
256.2602759285
 30
0.0
 11
-588.3175754376
 21
256.2602759285
 31
0.0
  0
LINE
  5
645
330
1F
100
AcDbEntity
  8
0
  6
Continuous
 62
     7
370
    25
100
AcDbLine
 10
-588.3175754376
 20
262.2602759285
 30
0.0
 11
-588.3175754376
 21
256.2602759285
 31
0.0
  0
LINE
  5
646
330
1F
100
AcDbEntity
  8
0
  6
Continuous
 62
     7
370
    25
100
AcDbLine
 10
-554.3175754376
 20
256.2602759285
 30
0.0
 11
-520.3175754376
 21
256.2602759285
 31
0.0
  0
LINE
  5
647
330
1F
100
AcDbEntity
  8
0
  6
Continuous
 62
     7
370
    25
100
AcDbLine
 10
-520.3175754376
 20
262.2602759285
 30
0.0
 11
-520.3175754376
 21
256.2602759285
 31
0.0
  0
LINE
  5
648
330
1F
100
AcDbEntity
  8
0
  6
Continuous
 62
     7
370
    25
100
AcDbLine
 10
-520.3175754376
 20
262.2602759285
 30
0.0
 11
-486.3175754376
 21
262.2602759285
 31
0.0
  0
LINE
  5
649
330
1F
100
AcDbEntity
  8
0
  6
Continuous
 62
     7
370
    25
100
AcDbLine
 10
-486.3175754376
 20
256.2602759285
 30
0.0
 11
-452.3175754376
 21
256.2602759285
 31
0.0
  0
LINE
  5
64A
330
1F
100
AcDbEntity
  8
0
  6
Continuous
 62
     7
370
    25
100
AcDbLine
 10
-452.3175754376
 20
143.7602759285
 30
0.0
 11
-486.3175754376
 21
143.7602759285
 31
0.0
  0
LINE
  5
64B
330
1F
100
AcDbEntity
  8
0
  6
Continuous
 62
     7
370
    25
100
AcDbLine
 10
-486.3175754376
 20
137.7602759285
 30
0.0
 11
-486.3175754376
 21
143.7602759285
 31
0.0
  0
LINE
  5
64C
330
1F
100
AcDbEntity
  8
0
  6
Continuous
 62
     7
370
    25
100
AcDbLine
 10
-520.3175754376
 20
137.7602759285
 30
0.0
 11
-486.3175754376
 21
137.7602759285
 31
0.0
  0
LINE
  5
64D
330
1F
100
AcDbEntity
  8
0
  6
Continuous
 62
     7
370
    25
100
AcDbLine
 10
-520.3175754376
 20
143.7602759285
 30
0.0
 11
-554.3175754376
 21
143.7602759285
 31
0.0
  0
LINE
  5
64E
330
1F
100
AcDbEntity
  8
0
  6
Continuous
 62
     7
370
    25
100
AcDbLine
 10
-554.3175754376
 20
137.7602759285
 30
0.0
 11
-554.3175754376
 21
143.7602759285
 31
0.0
  0
LINE
  5
64F
330
1F
100
AcDbEntity
  8
0
  6
Continuous
 62
     7
370
    25
100
AcDbLine
 10
-588.3175754376
 20
137.7602759285
 30
0.0
 11
-554.3175754376
 21
137.7602759285
 31
0.0
  0
LINE
  5
650
330
1F
100
AcDbEntity
  8
0
  6
Continuous
 62
     7
370
    25
100
AcDbLine
 10
-588.3175754376
 20
137.7602759285
 30
0.0
 11
-588.3175754376
 21
143.7602759285
 31
0.0
  0
LINE
  5
651
330
1F
100
AcDbEntity
  8
0
  6
Continuous
 62
     7
370
    25
100
AcDbLine
 10
-588.3175754376
 20
143.7602759285
 30
0.0
 11
-622.3175754376
 21
143.7602759285
 31
0.0
  0
LINE
  5
652
330
1F
100
AcDbEntity
  8
0
  6
Continuous
 62
     7
370
    25
100
AcDbLine
 10
-622.3175754376
 20
137.7602759285
 30
0.0
 11
-622.3175754376
 21
143.7602759285
 31
0.0
  0
LINE
  5
653
330
1F
100
AcDbEntity
  8
0
  6
Continuous
 62
     7
370
    25
100
AcDbLine
 10
-656.3175754376
 20
137.7602759285
 30
0.0
 11
-622.3175754376
 21
137.7602759285
 31
0.0
  0
LINE
  5
654
330
1F
100
AcDbEntity
  8
0
  6
Continuous
 62
     7
370
    25
100
AcDbLine
 10
-656.3175754376
 20
137.7602759285
 30
0.0
 11
-656.3175754376
 21
143.7602759285
 31
0.0
  0
LINE
  5
655
330
1F
100
AcDbEntity
  8
0
  6
Continuous
 62
     7
370
    25
100
AcDbLine
 10
-704.3175754376
 20
143.7602759285
 30
0.0
 11
-704.3175754376
 21
256.2602759285
 31
0.0
  0
LINE
  5
656
330
1F
100
AcDbEntity
  8
0
  6
Continuous
 62
     7
370
    25
100
AcDbLine
 10
-704.3175754376
 20
256.2602759285
 30
0.0
 11
-656.3175754376
 21
256.2602759285
 31
0.0
  0
LINE
  5
657
330
1F
100
AcDbEntity
  8
0
  6
Continuous
 62
     7
370
    25
100
AcDbLine
 10
-486.3175754376
 20
262.2602759285
 30
0.0
 11
-486.3175754376
 21
256.2602759285
 31
0.0
  0
LINE
  5
658
330
1F
100
AcDbEntity
  8
0
  6
Continuous
 62
     7
370
    25
100
AcDbLine
 10
-588.3175754376
 20
262.2602759285
 30
0.0
 11
-554.3175754376
 21
262.2602759285
 31
0.0
  0
LINE
  5
659
330
1F
100
AcDbEntity
  8
0
  6
Continuous
 62
     7
370
    25
100
AcDbLine
 10
-554.3175754376
 20
262.2602759285
 30
0.0
 11
-554.3175754376
 21
256.2602759285
 31
0.0
  0
LINE
  5
65A
330
1F
100
AcDbEntity
  8
0
  6
Continuous
 62
     7
370
    25
100
AcDbLine
 10
-656.3175754376
 20
262.2602759285
 30
0.0
 11
-622.3175754376
 21
262.2602759285
 31
0.0
  0
LINE
  5
65B
330
1F
100
AcDbEntity
  8
0
  6
Continuous
 62
     7
370
    25
100
AcDbLine
 10
-622.3175754376
 20
262.2602759285
 30
0.0
 11
-622.3175754376
 21
256.2602759285
 31
0.0
  0
LINE
  5
65C
330
1F
100
AcDbEntity
  8
0
  6
Continuous
 62
     7
370
    25
100
AcDbLine
 10
-696.3175754376
 20
166.2602759285
 30
0.0
 11
-690.3175754376
 21
166.2602759285
 31
0.0
  0
LINE
  5
65D
330
1F
100
AcDbEntity
  8
0
  6
Continuous
 62
     7
370
    25
100
AcDbLine
 10
-696.3175754376
 20
188.7602759285
 30
0.0
 11
-690.3175754376
 21
188.7602759285
 31
0.0
  0
LINE
  5
65E
330
1F
100
AcDbEntity
  8
0
  6
Continuous
 62
     7
370
    25
100
AcDbLine
 10
-696.3175754376
 20
211.2602759285
 30
0.0
 11
-690.3175754376
 21
211.2602759285
 31
0.0
  0
LINE
  5
65F
330
1F
100
AcDbEntity
  8
0
  6
Continuous
 62
     7
370
    25
100
AcDbLine
 10
-656.3175754376
 20
143.7602759285
 30
0.0
 11
-704.3175754376
 21
143.7602759285
 31
0.0
  0
LINE
  5
660
330
1F
100
AcDbEntity
  8
0
  6
Continuous
 62
     7
370
    25
100
AcDbLine
 10
-452.3175754376
 20
256.2602759285
 30
0.0
 11
-452.3175754376
 21
143.7602759285
 31
0.0
  0
LINE
  5
661
330
1F
100
AcDbEntity
  8
0
  6
Continuous
 62
     7
370
    25
100
AcDbLine
 10
-520.3175754376
 20
137.7602759285
 30
0.0
 11
-520.3175754376
 21
143.7602759285
 31
0.0
  0
LINE
  5
662
330
1F
100
AcDbEntity
  8
0
  6
Continuous
 62
     7
370
    25
100
AcDbLine
 10
-493.9973211797
 20
303.0351388043
 30
0.0
 11
-487.9973211797
 21
303.0351388043
 31
0.0
  0
LINE
  5
663
330
1F
100
AcDbEntity
  8
0
  6
Continuous
 62
     7
370
    25
100
AcDbLine
 10
-487.9973211797
 20
303.0351388043
 30
0.0
 11
-487.9973211797
 21
311.0351388043
 31
0.0
  0
LINE
  5
664
330
1F
100
AcDbEntity
  8
0
  6
Continuous
 62
     7
370
    25
100
AcDbLine
 10
-493.9973211797
 20
311.0351388043
 30
0.0
 11
-487.9973211797
 21
311.0351388043
 31
0.0
  0
LINE
  5
665
330
1F
100
AcDbEntity
  8
0
  6
Continuous
 62
     7
370
    25
100
AcDbLine
 10
-493.9973211797
 20
303.0351388043
 30
0.0
 11
-493.9973211797
 21
311.0351388043
 31
0.0
  0
LINE
  5
666
330
1F
100
AcDbEntity
  8
0
  6
Continuous
 62
     7
370
    25
100
AcDbLine
 10
-491.9973211797
 20
263.5351388043
 30
0.0
 11
-491.9973211797
 21
269.5351388043
 31
0.0
  0
LINE
  5
667
330
1F
100
AcDbEntity
  8
0
  6
Continuous
 62
     7
370
    25
100
AcDbLine
 10
-503.9973211797
 20
263.5351388043
 30
0.0
 11
-491.9973211797
 21
263.5351388043
 31
0.0
  0
LINE
  5
668
330
1F
100
AcDbEntity
  8
0
  6
Continuous
 62
     7
370
    25
100
AcDbLine
 10
-503.9973211797
 20
263.5351388043
 30
0.0
 11
-503.9973211797
 21
269.5351388043
 31
0.0
  0
LINE
  5
669
330
1F
100
AcDbEntity
  8
0
  6
Continuous
 62
     7
370
    25
100
AcDbLine
 10
-593.4973211797
 20
263.5351388043
 30
0.0
 11
-593.4973211797
 21
269.5351388043
 31
0.0
  0
LINE
  5
66A
330
1F
100
AcDbEntity
  8
0
  6
Continuous
 62
     7
370
    25
100
AcDbLine
 10
-702.9973211797
 20
269.5351388043
 30
0.0
 11
-702.9973211797
 21
292.0351388043
 31
0.0
  0
LINE
  5
66B
330
1F
100
AcDbEntity
  8
0
  6
Continuous
 62
     7
370
    25
100
AcDbLine
 10
-702.9973211797
 20
382.0351388043
 30
0.0
 11
-682.9973211797
 21
382.0351388043
 31
0.0
  0
LINE
  5
66C
330
1F
100
AcDbEntity
  8
0
  6
Continuous
 62
     7
370
    25
100
AcDbLine
 10
-682.9973211797
 20
388.0351388043
 30
0.0
 11
-682.9973211797
 21
382.0351388043
 31
0.0
  0
LINE
  5
66D
330
1F
100
AcDbEntity
  8
0
  6
Continuous
 62
     7
370
    25
100
AcDbLine
 10
-682.9973211797
 20
388.0351388043
 30
0.0
 11
-670.9973211797
 21
388.0351388043
 31
0.0
  0
LINE
  5
66E
330
1F
100
AcDbEntity
  8
0
  6
Continuous
 62
     7
370
    25
100
AcDbLine
 10
-670.9973211797
 20
388.0351388043
 30
0.0
 11
-670.9973211797
 21
382.0351388043
 31
0.0
  0
LINE
  5
66F
330
1F
100
AcDbEntity
  8
0
  6
Continuous
 62
     7
370
    25
100
AcDbLine
 10
-670.9973211797
 20
382.0351388043
 30
0.0
 11
-593.4973211797
 21
382.0351388043
 31
0.0
  0
LINE
  5
670
330
1F
100
AcDbEntity
  8
0
  6
Continuous
 62
     7
370
    25
100
AcDbLine
 10
-593.4973211797
 20
388.0351388043
 30
0.0
 11
-593.4973211797
 21
382.0351388043
 31
0.0
  0
LINE
  5
671
330
1F
100
AcDbEntity
  8
0
  6
Continuous
 62
     7
370
    25
100
AcDbLine
 10
-593.4973211797
 20
388.0351388043
 30
0.0
 11
-581.4973211797
 21
388.0351388043
 31
0.0
  0
LINE
  5
672
330
1F
100
AcDbEntity
  8
0
  6
Continuous
 62
     7
370
    25
100
AcDbLine
 10
-581.4973211797
 20
382.0351388043
 30
0.0
 11
-503.9973211797
 21
382.0351388043
 31
0.0
  0
LINE
  5
673
330
1F
100
AcDbEntity
  8
0
  6
Continuous
 62
     7
370
    25
100
AcDbLine
 10
-491.9973211797
 20
382.0351388043
 30
0.0
 11
-471.9973211797
 21
382.0351388043
 31
0.0
  0
LINE
  5
674
330
1F
100
AcDbEntity
  8
0
  6
Continuous
 62
     7
370
    25
100
AcDbLine
 10
-486.9973211797
 20
367.2851388043
 30
0.0
 11
-482.9973211797
 21
367.2851388043
 31
0.0
  0
LINE
  5
675
330
1F
100
AcDbEntity
  8
0
  6
Continuous
 62
     7
370
    25
100
AcDbLine
 10
-487.9973211797
 20
360.2851388043
 30
0.0
 11
-487.9973211797
 21
366.2851388043
 31
0.0
  0
LINE
  5
676
330
1F
100
AcDbEntity
  8
0
  6
Continuous
 62
     7
370
    25
100
AcDbLine
 10
-493.9973211797
 20
340.5351388043
 30
0.0
 11
-487.9973211797
 21
340.5351388043
 31
0.0
  0
LINE
  5
677
330
1F
100
AcDbEntity
  8
0
  6
Continuous
 62
     7
370
    25
100
AcDbLine
 10
-487.9973211797
 20
340.5351388043
 30
0.0
 11
-487.9973211797
 21
348.5351388043
 31
0.0
  0
LINE
  5
678
330
1F
100
AcDbEntity
  8
0
  6
Continuous
 62
     7
370
    25
100
AcDbLine
 10
-493.9973211797
 20
348.5351388043
 30
0.0
 11
-487.9973211797
 21
348.5351388043
 31
0.0
  0
LINE
  5
679
330
1F
100
AcDbEntity
  8
0
  6
Continuous
 62
     7
370
    25
100
AcDbLine
 10
-493.9973211797
 20
340.5351388043
 30
0.0
 11
-493.9973211797
 21
348.5351388043
 31
0.0
  0
LINE
  5
67A
330
1F
100
AcDbEntity
  8
0
  6
Continuous
 62
     7
370
    25
100
AcDbLine
 10
-670.9973211797
 20
269.5351388043
 30
0.0
 11
-593.4973211797
 21
269.5351388043
 31
0.0
  0
LINE
  5
67B
330
1F
100
AcDbEntity
  8
0
  6
Continuous
 62
     7
370
    25
100
AcDbLine
 10
-581.4973211797
 20
269.5351388043
 30
0.0
 11
-503.9973211797
 21
269.5351388043
 31
0.0
  0
LINE
  5
67C
330
1F
100
AcDbEntity
  8
0
  6
Continuous
 62
     7
370
    25
100
AcDbLine
 10
-702.9973211797
 20
269.5351388043
 30
0.0
 11
-682.9973211797
 21
269.5351388043
 31
0.0
  0
LINE
  5
67D
330
1F
100
AcDbEntity
  8
0
  6
Continuous
 62
     7
370
    25
100
AcDbLine
 10
-702.9973211797
 20
314.5351388043
 30
0.0
 11
-702.9973211797
 21
337.0351388043
 31
0.0
  0
LINE
  5
67E
330
1F
100
AcDbEntity
  8
0
  6
Continuous
 62
     7
370
    25
100
AcDbLine
 10
-486.9973211797
 20
284.2851388043
 30
0.0
 11
-482.9973211797
 21
284.2851388043
 31
0.0
  0
LINE
  5
67F
330
1F
100
AcDbEntity
  8
0
  6
Continuous
 62
     7
370
    25
100
AcDbLine
 10
-481.9973211797
 20
330.7851388043
 30
0.0
 11
-481.9973211797
 21
336.7851388043
 31
0.0
  0
LINE
  5
680
330
1F
100
AcDbEntity
  8
0
  6
Continuous
 62
     7
370
    25
100
AcDbLine
 10
-486.9973211797
 20
321.7851388043
 30
0.0
 11
-482.9973211797
 21
321.7851388043
 31
0.0
  0
LINE
  5
681
330
1F
100
AcDbEntity
  8
0
  6
Continuous
 62
     7
370
    25
100
AcDbLine
 10
-708.9973211797
 20
292.0351388043
 30
0.0
 11
-708.9973211797
 21
314.5351388043
 31
0.0
  0
LINE
  5
682
330
1F
100
AcDbEntity
  8
0
  6
Continuous
 62
     7
370
    25
100
AcDbLine
 10
-708.9973211797
 20
314.5351388043
 30
0.0
 11
-702.9973211797
 21
314.5351388043
 31
0.0
  0
LINE
  5
683
330
1F
100
AcDbEntity
  8
0
  6
Continuous
 62
     7
370
    25
100
AcDbLine
 10
-708.9973211797
 20
292.0351388043
 30
0.0
 11
-702.9973211797
 21
292.0351388043
 31
0.0
  0
LINE
  5
684
330
1F
100
AcDbEntity
  8
0
  6
Continuous
 62
     7
370
    25
100
AcDbLine
 10
-708.9973211797
 20
337.0351388043
 30
0.0
 11
-708.9973211797
 21
359.5351388043
 31
0.0
  0
LINE
  5
685
330
1F
100
AcDbEntity
  8
0
  6
Continuous
 62
     7
370
    25
100
AcDbLine
 10
-708.9973211797
 20
359.5351388043
 30
0.0
 11
-702.9973211797
 21
359.5351388043
 31
0.0
  0
LINE
  5
686
330
1F
100
AcDbEntity
  8
0
  6
Continuous
 62
     7
370
    25
100
AcDbLine
 10
-708.9973211797
 20
337.0351388043
 30
0.0
 11
-702.9973211797
 21
337.0351388043
 31
0.0
  0
LINE
  5
687
330
1F
100
AcDbEntity
  8
0
  6
Continuous
 62
     7
370
    25
100
AcDbLine
 10
-682.9973211797
 20
263.5351388043
 30
0.0
 11
-670.9973211797
 21
263.5351388043
 31
0.0
  0
LINE
  5
688
330
1F
100
AcDbEntity
  8
0
  6
Continuous
 62
     7
370
    25
100
AcDbLine
 10
-670.9973211797
 20
263.5351388043
 30
0.0
 11
-670.9973211797
 21
269.5351388043
 31
0.0
  0
LINE
  5
689
330
1F
100
AcDbEntity
  8
0
  6
Continuous
 62
     7
370
    25
100
AcDbLine
 10
-682.9973211797
 20
263.5351388043
 30
0.0
 11
-682.9973211797
 21
269.5351388043
 31
0.0
  0
LINE
  5
68A
330
1F
100
AcDbEntity
  8
0
  6
Continuous
 62
     7
370
    25
100
AcDbLine
 10
-593.4973211797
 20
263.5351388043
 30
0.0
 11
-581.4973211797
 21
263.5351388043
 31
0.0
  0
LINE
  5
68B
330
1F
100
AcDbEntity
  8
0
  6
Continuous
 62
     7
370
    25
100
AcDbLine
 10
-581.4973211797
 20
263.5351388043
 30
0.0
 11
-581.4973211797
 21
269.5351388043
 31
0.0
  0
LINE
  5
68C
330
1F
100
AcDbEntity
  8
0
  6
Continuous
 62
     7
370
    25
100
AcDbLine
 10
-472.8978174607
 20
351.3751884324
 30
0.0
 11
-481.9973211797
 21
352.2851388043
 31
0.0
  0
LINE
  5
68D
330
1F
100
AcDbEntity
  8
0
  6
Continuous
 62
     7
370
    25
100
AcDbLine
 10
-481.9973211797
 20
352.2851388043
 30
0.0
 11
-481.9973211797
 21
358.2851388043
 31
0.0
  0
LINE
  5
68E
330
1F
100
AcDbEntity
  8
0
  6
Continuous
 62
     7
370
    25
100
AcDbLine
 10
-486.9973211797
 20
359.2851388043
 30
0.0
 11
-482.9973211797
 21
359.2851388043
 31
0.0
  0
LINE
  5
68F
330
1F
100
AcDbEntity
  8
0
  6
Continuous
 62
     7
370
    25
100
AcDbLine
 10
-481.9973211797
 20
293.2851388043
 30
0.0
 11
-481.9973211797
 21
299.2851388043
 31
0.0
  0
LINE
  5
690
330
1F
100
AcDbEntity
  8
0
  6
Continuous
 62
     7
370
    25
100
AcDbLine
 10
-481.9973211797
 20
299.2851388043
 30
0.0
 11
-472.8978174607
 21
300.1950891762
 31
0.0
  0
LINE
  5
691
330
1F
100
AcDbEntity
  8
0
  6
Continuous
 62
     7
370
    25
100
AcDbLine
 10
-491.9973211797
 20
269.5351388043
 30
0.0
 11
-471.9973211797
 21
269.5351388043
 31
0.0
  0
LINE
  5
692
330
1F
100
AcDbEntity
  8
0
  6
Continuous
 62
     7
370
    25
100
AcDbLine
 10
-471.9973211797
 20
269.5351388043
 30
0.0
 11
-471.9973211797
 21
275.3801512422
 31
0.0
  0
LINE
  5
693
330
1F
100
AcDbEntity
  8
0
  6
Continuous
 62
     7
370
    25
100
AcDbLine
 10
-472.8978174607
 20
276.3751884324
 30
0.0
 11
-481.9973211797
 21
277.2851388043
 31
0.0
  0
LINE
  5
694
330
1F
100
AcDbEntity
  8
0
  6
Continuous
 62
     7
370
    25
100
AcDbLine
 10
-481.9973211797
 20
277.2851388043
 30
0.0
 11
-481.9973211797
 21
283.2851388043
 31
0.0
  0
LINE
  5
695
330
1F
100
AcDbEntity
  8
0
  6
Continuous
 62
     7
370
    25
100
AcDbLine
 10
-487.9973211797
 20
285.2851388043
 30
0.0
 11
-487.9973211797
 21
291.2851388043
 31
0.0
  0
LINE
  5
696
330
1F
100
AcDbEntity
  8
0
  6
Continuous
 62
     7
370
    25
100
AcDbLine
 10
-486.9973211797
 20
292.2851388043
 30
0.0
 11
-482.9973211797
 21
292.2851388043
 31
0.0
  0
LINE
  5
697
330
1F
100
AcDbEntity
  8
0
  6
Continuous
 62
     7
370
    25
100
AcDbLine
 10
-481.9973211797
 20
336.7851388043
 30
0.0
 11
-472.8978174607
 21
337.6950891762
 31
0.0
  0
LINE
  5
698
330
1F
100
AcDbEntity
  8
0
  6
Continuous
 62
     7
370
    25
100
AcDbLine
 10
-471.9973211797
 20
301.1901263664
 30
0.0
 11
-471.9973211797
 21
312.8801512422
 31
0.0
  0
LINE
  5
699
330
1F
100
AcDbEntity
  8
0
  6
Continuous
 62
     7
370
    25
100
AcDbLine
 10
-481.9973211797
 20
314.7851388043
 30
0.0
 11
-481.9973211797
 21
320.7851388043
 31
0.0
  0
LINE
  5
69A
330
1F
100
AcDbEntity
  8
0
  6
Continuous
 62
     7
370
    25
100
AcDbLine
 10
-581.4973211797
 20
388.0351388043
 30
0.0
 11
-581.4973211797
 21
382.0351388043
 31
0.0
  0
LINE
  5
69B
330
1F
100
AcDbEntity
  8
0
  6
Continuous
 62
     7
370
    25
100
AcDbLine
 10
-503.9973211797
 20
388.0351388043
 30
0.0
 11
-491.9973211797
 21
388.0351388043
 31
0.0
  0
LINE
  5
69C
330
1F
100
AcDbEntity
  8
0
  6
Continuous
 62
     7
370
    25
100
AcDbLine
 10
-503.9973211797
 20
388.0351388043
 30
0.0
 11
-503.9973211797
 21
382.0351388043
 31
0.0
  0
LINE
  5
69D
330
1F
100
AcDbEntity
  8
0
  6
Continuous
 62
     7
370
    25
100
AcDbLine
 10
-491.9973211797
 20
388.0351388043
 30
0.0
 11
-491.9973211797
 21
382.0351388043
 31
0.0
  0
LINE
  5
69E
330
1F
100
AcDbEntity
  8
0
  6
Continuous
 62
     7
370
    25
100
AcDbLine
 10
-481.9973211797
 20
374.2851388043
 30
0.0
 11
-472.8978174607
 21
375.1950891762
 31
0.0
  0
LINE
  5
69F
330
1F
100
AcDbEntity
  8
0
  6
Continuous
 62
     7
370
    25
100
AcDbLine
 10
-487.9973211797
 20
322.7851388043
 30
0.0
 11
-487.9973211797
 21
328.7851388043
 31
0.0
  0
LINE
  5
6A0
330
1F
100
AcDbEntity
  8
0
  6
Continuous
 62
     7
370
    25
100
AcDbLine
 10
-486.9973211797
 20
329.7851388043
 30
0.0
 11
-482.9973211797
 21
329.7851388043
 31
0.0
  0
LINE
  5
6A1
330
1F
100
AcDbEntity
  8
0
  6
Continuous
 62
     7
370
    25
100
AcDbLine
 10
-481.9973211797
 20
368.2851388043
 30
0.0
 11
-481.9973211797
 21
374.2851388043
 31
0.0
  0
LINE
  5
6A2
330
1F
100
AcDbEntity
  8
0
  6
Continuous
 62
     7
370
    25
100
AcDbLine
 10
-471.9973211797
 20
376.1901263664
 30
0.0
 11
-471.9973211797
 21
382.0351388043
 31
0.0
  0
LINE
  5
6A3
330
1F
100
AcDbEntity
  8
0
  6
Continuous
 62
     7
370
    25
100
AcDbLine
 10
-702.9973211797
 20
359.5351388043
 30
0.0
 11
-702.9973211797
 21
382.0351388043
 31
0.0
  0
LINE
  5
6A4
330
1F
100
AcDbEntity
  8
0
  6
Continuous
 62
     7
370
    25
100
AcDbLine
 10
-472.8978174607
 20
313.8751884324
 30
0.0
 11
-481.9973211797
 21
314.7851388043
 31
0.0
  0
LINE
  5
6A5
330
1F
100
AcDbEntity
  8
0
  6
Continuous
 62
     7
370
    25
100
AcDbLine
 10
-471.9973211797
 20
338.6901263664
 30
0.0
 11
-471.9973211797
 21
350.3801512422
 31
0.0
  0
LINE
  5
6A6
330
1F
100
AcDbEntity
  8
0
  6
Continuous
 62
     7
370
    25
100
AcDbLine
 10
-599.7488482917
 20
515.9780159884
 30
0.0
 11
-599.7488482917
 21
521.9780159884
 31
0.0
  0
LINE
  5
6A7
330
1F
100
AcDbEntity
  8
0
  6
Continuous
 62
     7
370
    25
100
AcDbLine
 10
-622.2488482917
 20
521.9780159884
 30
0.0
 11
-599.7488482917
 21
521.9780159884
 31
0.0
  0
LINE
  5
6A8
330
1F
100
AcDbEntity
  8
0
  6
Continuous
 62
     7
370
    25
100
AcDbLine
 10
-622.2488482917
 20
515.9780159884
 30
0.0
 11
-622.2488482917
 21
521.9780159884
 31
0.0
  0
LINE
  5
6A9
330
1F
100
AcDbEntity
  8
0
  6
Continuous
 62
     7
370
    25
100
AcDbLine
 10
-622.2488482917
 20
515.9780159884
 30
0.0
 11
-644.7488482917
 21
515.9780159884
 31
0.0
  0
LINE
  5
6AA
330
1F
100
AcDbEntity
  8
0
  6
Continuous
 62
     7
370
    25
100
AcDbLine
 10
-644.7488482917
 20
515.9780159884
 30
0.0
 11
-644.7488482917
 21
521.9780159884
 31
0.0
  0
LINE
  5
6AB
330
1F
100
AcDbEntity
  8
0
  6
Continuous
 62
     7
370
    25
100
AcDbLine
 10
-667.2488482917
 20
521.9780159884
 30
0.0
 11
-644.7488482917
 21
521.9780159884
 31
0.0
  0
LINE
  5
6AC
330
1F
100
AcDbEntity
  8
0
  6
Continuous
 62
     7
370
    25
100
AcDbLine
 10
-667.2488482917
 20
515.9780159884
 30
0.0
 11
-667.2488482917
 21
521.9780159884
 31
0.0
  0
LINE
  5
6AD
330
1F
100
AcDbEntity
  8
0
  6
Continuous
 62
     7
370
    25
100
AcDbLine
 10
-695.7488482917
 20
525.9780159884
 30
0.0
 11
-695.7488482917
 21
515.9780159884
 31
0.0
  0
LINE
  5
6AE
330
1F
100
AcDbEntity
  8
0
  6
Continuous
 62
     7
370
    25
100
AcDbLine
 10
-689.7488482917
 20
545.9780159884
 30
0.0
 11
-689.7488482917
 21
525.9780159884
 31
0.0
  0
LINE
  5
6AF
330
1F
100
AcDbEntity
  8
0
  6
Continuous
 62
     7
370
    25
100
AcDbLine
 10
-677.7488482917
 20
545.9780159884
 30
0.0
 11
-689.7488482917
 21
545.9780159884
 31
0.0
  0
LINE
  5
6B0
330
1F
100
AcDbEntity
  8
0
  6
Continuous
 62
     7
370
    25
100
AcDbLine
 10
-677.7488482917
 20
551.9780159884
 30
0.0
 11
-677.7488482917
 21
545.9780159884
 31
0.0
  0
LINE
  5
6B1
330
1F
100
AcDbEntity
  8
0
  6
Continuous
 62
     7
370
    25
100
AcDbLine
 10
-677.7488482917
 20
551.9780159884
 30
0.0
 11
-665.7488482917
 21
551.9780159884
 31
0.0
  0
LINE
  5
6B2
330
1F
100
AcDbEntity
  8
0
  6
Continuous
 62
     7
370
    25
100
AcDbLine
 10
-665.7488482917
 20
551.9780159884
 30
0.0
 11
-665.7488482917
 21
545.9780159884
 31
0.0
  0
LINE
  5
6B3
330
1F
100
AcDbEntity
  8
0
  6
Continuous
 62
     7
370
    25
100
AcDbLine
 10
-601.2488482917
 20
545.9780159884
 30
0.0
 11
-665.7488482917
 21
545.9780159884
 31
0.0
  0
LINE
  5
6B4
330
1F
100
AcDbEntity
  8
0
  6
Continuous
 62
     7
370
    25
100
AcDbLine
 10
-601.2488482917
 20
551.9780159884
 30
0.0
 11
-601.2488482917
 21
545.9780159884
 31
0.0
  0
LINE
  5
6B5
330
1F
100
AcDbEntity
  8
0
  6
Continuous
 62
     7
370
    25
100
AcDbLine
 10
-601.2488482917
 20
551.9780159884
 30
0.0
 11
-589.2488482917
 21
551.9780159884
 31
0.0
  0
LINE
  5
6B6
330
1F
100
AcDbEntity
  8
0
  6
Continuous
 62
     7
370
    25
100
AcDbLine
 10
-589.2488482917
 20
551.9780159884
 30
0.0
 11
-589.2488482917
 21
545.9780159884
 31
0.0
  0
LINE
  5
6B7
330
1F
100
AcDbEntity
  8
0
  6
Continuous
 62
     7
370
    25
100
AcDbLine
 10
-577.2488482917
 20
545.9780159884
 30
0.0
 11
-589.2488482917
 21
545.9780159884
 31
0.0
  0
LINE
  5
6B8
330
1F
100
AcDbEntity
  8
0
  6
Continuous
 62
     7
370
    25
100
AcDbLine
 10
-667.2488482917
 20
515.9780159884
 30
0.0
 11
-695.7488482917
 21
515.9780159884
 31
0.0
  0
LINE
  5
6B9
330
1F
100
AcDbEntity
  8
0
  6
Continuous
 62
     7
370
    25
100
AcDbLine
 10
-571.2488482917
 20
525.9780159884
 30
0.0
 11
-577.2488482917
 21
525.9780159884
 31
0.0
  0
LINE
  5
6BA
330
1F
100
AcDbEntity
  8
0
  6
Continuous
 62
     7
370
    25
100
AcDbLine
 10
-695.7488482917
 20
525.9780159884
 30
0.0
 11
-689.7488482917
 21
525.9780159884
 31
0.0
  0
LINE
  5
6BB
330
1F
100
AcDbEntity
  8
0
  6
Continuous
 62
     7
370
    25
100
AcDbLine
 10
-571.2488482917
 20
525.9780159884
 30
0.0
 11
-571.2488482917
 21
515.9780159884
 31
0.0
  0
LINE
  5
6BC
330
1F
100
AcDbEntity
  8
0
  6
Continuous
 62
     7
370
    25
100
AcDbLine
 10
-571.2488482917
 20
515.9780159884
 30
0.0
 11
-599.7488482917
 21
515.9780159884
 31
0.0
  0
LINE
  5
6BD
330
1F
100
AcDbEntity
  8
0
  6
Continuous
 62
     7
370
    25
100
AcDbLine
 10
-577.2488482917
 20
525.9780159884
 30
0.0
 11
-577.2488482917
 21
545.9780159884
 31
0.0
  0
LINE
  5
6BE
330
1F
100
AcDbEntity
  8
0
  6
Continuous
 62
     7
370
    25
100
AcDbLine
 10
-466.2277134588
 20
511.231314619
 30
0.0
 11
-466.2277134588
 21
517.231314619
 31
0.0
  0
LINE
  5
6BF
330
1F
100
AcDbEntity
  8
0
  6
Continuous
 62
     7
370
    25
100
AcDbLine
 10
-466.2277134588
 20
511.231314619
 30
0.0
 11
-478.2277134588
 21
511.231314619
 31
0.0
  0
LINE
  5
6C0
330
1F
100
AcDbEntity
  8
0
  6
Continuous
 62
     7
370
    25
100
AcDbLine
 10
-478.2277134588
 20
511.231314619
 30
0.0
 11
-478.2277134588
 21
517.231314619
 31
0.0
  0
LINE
  5
6C1
330
1F
100
AcDbEntity
  8
0
  6
Continuous
 62
     7
370
    25
100
AcDbLine
 10
-542.7277134588
 20
517.231314619
 30
0.0
 11
-478.2277134588
 21
517.231314619
 31
0.0
  0
LINE
  5
6C2
330
1F
100
AcDbEntity
  8
0
  6
Continuous
 62
     7
370
    25
100
AcDbLine
 10
-542.7277134588
 20
511.231314619
 30
0.0
 11
-554.7277134588
 21
511.231314619
 31
0.0
  0
LINE
  5
6C3
330
1F
100
AcDbEntity
  8
0
  6
Continuous
 62
     7
370
    25
100
AcDbLine
 10
-533.2277134588
 20
547.231314619
 30
0.0
 11
-533.2277134588
 21
541.231314619
 31
0.0
  0
LINE
  5
6C4
330
1F
100
AcDbEntity
  8
0
  6
Continuous
 62
     7
370
    25
100
AcDbLine
 10
-533.2277134588
 20
547.231314619
 30
0.0
 11
-525.2277134588
 21
547.231314619
 31
0.0
  0
LINE
  5
6C5
330
1F
100
AcDbEntity
  8
0
  6
Continuous
 62
     7
370
    25
100
AcDbLine
 10
-495.7277134588
 20
547.231314619
 30
0.0
 11
-487.7277134588
 21
547.231314619
 31
0.0
  0
LINE
  5
6C6
330
1F
100
AcDbEntity
  8
0
  6
Continuous
 62
     7
370
    25
100
AcDbLine
 10
-454.2277134588
 20
541.231314619
 30
0.0
 11
-487.7277134588
 21
541.231314619
 31
0.0
  0
LINE
  5
6C7
330
1F
100
AcDbEntity
  8
0
  6
Continuous
 62
     7
370
    25
100
AcDbLine
 10
-566.7277134588
 20
517.231314619
 30
0.0
 11
-554.7277134588
 21
517.231314619
 31
0.0
  0
LINE
  5
6C8
330
1F
100
AcDbEntity
  8
0
  6
Continuous
 62
     7
370
    25
100
AcDbLine
 10
-566.7277134588
 20
541.231314619
 30
0.0
 11
-566.7277134588
 21
517.231314619
 31
0.0
  0
LINE
  5
6C9
330
1F
100
AcDbEntity
  8
0
  6
Continuous
 62
     7
370
    25
100
AcDbLine
 10
-495.7277134588
 20
541.231314619
 30
0.0
 11
-525.2277134588
 21
541.231314619
 31
0.0
  0
LINE
  5
6CA
330
1F
100
AcDbEntity
  8
0
  6
Continuous
 62
     7
370
    25
100
AcDbLine
 10
-454.2277134588
 20
517.231314619
 30
0.0
 11
-454.2277134588
 21
541.231314619
 31
0.0
  0
LINE
  5
6CB
330
1F
100
AcDbEntity
  8
0
  6
Continuous
 62
     7
370
    25
100
AcDbLine
 10
-554.7277134588
 20
511.231314619
 30
0.0
 11
-554.7277134588
 21
517.231314619
 31
0.0
  0
LINE
  5
6CC
330
1F
100
AcDbEntity
  8
0
  6
Continuous
 62
     7
370
    25
100
AcDbLine
 10
-533.2277134588
 20
541.231314619
 30
0.0
 11
-566.7277134588
 21
541.231314619
 31
0.0
  0
LINE
  5
6CD
330
1F
100
AcDbEntity
  8
0
  6
Continuous
 62
     7
370
    25
100
AcDbLine
 10
-542.7277134588
 20
511.231314619
 30
0.0
 11
-542.7277134588
 21
517.231314619
 31
0.0
  0
LINE
  5
6CE
330
1F
100
AcDbEntity
  8
0
  6
Continuous
 62
     7
370
    25
100
AcDbLine
 10
-466.2277134588
 20
517.231314619
 30
0.0
 11
-454.2277134588
 21
517.231314619
 31
0.0
  0
LINE
  5
6CF
330
1F
100
AcDbEntity
  8
0
  6
Continuous
 62
     7
370
    25
100
AcDbLine
 10
-525.2277134588
 20
547.231314619
 30
0.0
 11
-525.2277134588
 21
541.231314619
 31
0.0
  0
LINE
  5
6D0
330
1F
100
AcDbEntity
  8
0
  6
Continuous
 62
     7
370
    25
100
AcDbLine
 10
-495.7277134588
 20
547.231314619
 30
0.0
 11
-495.7277134588
 21
541.231314619
 31
0.0
  0
LINE
  5
6D1
330
1F
100
AcDbEntity
  8
0
  6
Continuous
 62
     7
370
    25
100
AcDbLine
 10
-487.7277134588
 20
547.231314619
 30
0.0
 11
-487.7277134588
 21
541.231314619
 31
0.0
  0
LINE
  5
6D2
330
1F
100
AcDbEntity
  8
0
  6
Continuous
 62
     7
370
    25
100
AcDbLine
 10
-569.1918264108
 20
553.8921201609
 30
0.0
 11
-557.1918264108
 21
553.8921201609
 31
0.0
  0
LINE
  5
6D3
330
1F
100
AcDbEntity
  8
0
  6
Continuous
 62
     7
370
    25
100
AcDbLine
 10
-569.1918264108
 20
547.8921201609
 30
0.0
 11
-569.1918264108
 21
553.8921201609
 31
0.0
  0
LINE
  5
6D4
330
1F
100
AcDbEntity
  8
0
  6
Continuous
 62
     7
370
    25
100
AcDbLine
 10
-598.6918264108
 20
583.8921201609
 30
0.0
 11
-598.6918264108
 21
577.8921201609
 31
0.0
  0
LINE
  5
6D5
330
1F
100
AcDbEntity
  8
0
  6
Continuous
 62
     7
370
    25
100
AcDbLine
 10
-598.6918264108
 20
583.8921201609
 30
0.0
 11
-590.6918264108
 21
583.8921201609
 31
0.0
  0
LINE
  5
6D6
330
1F
100
AcDbEntity
  8
0
  6
Continuous
 62
     7
370
    25
100
AcDbLine
 10
-590.6918264108
 20
583.8921201609
 30
0.0
 11
-590.6918264108
 21
577.8921201609
 31
0.0
  0
LINE
  5
6D7
330
1F
100
AcDbEntity
  8
0
  6
Continuous
 62
     7
370
    25
100
AcDbLine
 10
-557.1918264108
 20
577.8921201609
 30
0.0
 11
-590.6918264108
 21
577.8921201609
 31
0.0
  0
LINE
  5
6D8
330
1F
100
AcDbEntity
  8
0
  6
Continuous
 62
     7
370
    25
100
AcDbLine
 10
-669.6918264108
 20
553.8921201609
 30
0.0
 11
-657.6918264108
 21
553.8921201609
 31
0.0
  0
LINE
  5
6D9
330
1F
100
AcDbEntity
  8
0
  6
Continuous
 62
     7
370
    25
100
AcDbLine
 10
-598.6918264108
 20
577.8921201609
 30
0.0
 11
-628.1918264108
 21
577.8921201609
 31
0.0
  0
LINE
  5
6DA
330
1F
100
AcDbEntity
  8
0
  6
Continuous
 62
     7
370
    25
100
AcDbLine
 10
-581.1918264108
 20
547.8921201609
 30
0.0
 11
-581.1918264108
 21
553.8921201609
 31
0.0
  0
LINE
  5
6DB
330
1F
100
AcDbEntity
  8
0
  6
Continuous
 62
     7
370
    25
100
AcDbLine
 10
-636.1918264108
 20
583.8921201609
 30
0.0
 11
-636.1918264108
 21
577.8921201609
 31
0.0
  0
LINE
  5
6DC
330
1F
100
AcDbEntity
  8
0
  6
Continuous
 62
     7
370
    25
100
AcDbLine
 10
-645.6918264108
 20
547.8921201609
 30
0.0
 11
-657.6918264108
 21
547.8921201609
 31
0.0
  0
LINE
  5
6DD
330
1F
100
AcDbEntity
  8
0
  6
Continuous
 62
     7
370
    25
100
AcDbLine
 10
-645.6918264108
 20
553.8921201609
 30
0.0
 11
-581.1918264108
 21
553.8921201609
 31
0.0
  0
LINE
  5
6DE
330
1F
100
AcDbEntity
  8
0
  6
Continuous
 62
     7
370
    25
100
AcDbLine
 10
-657.6918264108
 20
547.8921201609
 30
0.0
 11
-657.6918264108
 21
553.8921201609
 31
0.0
  0
LINE
  5
6DF
330
1F
100
AcDbEntity
  8
0
  6
Continuous
 62
     7
370
    25
100
AcDbLine
 10
-636.1918264108
 20
583.8921201609
 30
0.0
 11
-628.1918264108
 21
583.8921201609
 31
0.0
  0
LINE
  5
6E0
330
1F
100
AcDbEntity
  8
0
  6
Continuous
 62
     7
370
    25
100
AcDbLine
 10
-628.1918264108
 20
583.8921201609
 30
0.0
 11
-628.1918264108
 21
577.8921201609
 31
0.0
  0
LINE
  5
6E1
330
1F
100
AcDbEntity
  8
0
  6
Continuous
 62
     7
370
    25
100
AcDbLine
 10
-669.6918264108
 20
577.8921201609
 30
0.0
 11
-669.6918264108
 21
553.8921201609
 31
0.0
  0
LINE
  5
6E2
330
1F
100
AcDbEntity
  8
0
  6
Continuous
 62
     7
370
    25
100
AcDbLine
 10
-569.1918264108
 20
547.8921201609
 30
0.0
 11
-581.1918264108
 21
547.8921201609
 31
0.0
  0
LINE
  5
6E3
330
1F
100
AcDbEntity
  8
0
  6
Continuous
 62
     7
370
    25
100
AcDbLine
 10
-557.1918264108
 20
553.8921201609
 30
0.0
 11
-557.1918264108
 21
577.8921201609
 31
0.0
  0
LINE
  5
6E4
330
1F
100
AcDbEntity
  8
0
  6
Continuous
 62
     7
370
    25
100
AcDbLine
 10
-645.6918264108
 20
547.8921201609
 30
0.0
 11
-645.6918264108
 21
553.8921201609
 31
0.0
  0
LINE
  5
6E5
330
1F
100
AcDbEntity
  8
0
  6
Continuous
 62
     7
370
    25
100
AcDbLine
 10
-636.1918264108
 20
577.8921201609
 30
0.0
 11
-669.6918264108
 21
577.8921201609
 31
0.0
  0
LINE
  5
6E6
330
1F
100
AcDbEntity
  8
0
  6
Continuous
 62
     7
370
    25
100
AcDbLine
 10
-505.3431625654
 20
430.2584392688
 30
0.0
 11
-499.3431625654
 21
430.2584392688
 31
0.0
  0
LINE
  5
6E7
330
1F
100
AcDbEntity
  8
0
  6
Continuous
 62
     7
370
    25
100
AcDbLine
 10
-499.3431625654
 20
430.2584392688
 30
0.0
 11
-499.3431625654
 21
438.2584392688
 31
0.0
  0
LINE
  5
6E8
330
1F
100
AcDbEntity
  8
0
  6
Continuous
 62
     7
370
    25
100
AcDbLine
 10
-505.3431625654
 20
438.2584392688
 30
0.0
 11
-499.3431625654
 21
438.2584392688
 31
0.0
  0
LINE
  5
6E9
330
1F
100
AcDbEntity
  8
0
  6
Continuous
 62
     7
370
    25
100
AcDbLine
 10
-505.3431625654
 20
430.2584392688
 30
0.0
 11
-505.3431625654
 21
438.2584392688
 31
0.0
  0
LINE
  5
6EA
330
1F
100
AcDbEntity
  8
0
  6
Continuous
 62
     7
370
    25
100
AcDbLine
 10
-493.3431625654
 20
420.5084392688
 30
0.0
 11
-493.3431625654
 21
426.5084392688
 31
0.0
  0
LINE
  5
6EB
330
1F
100
AcDbEntity
  8
0
  6
Continuous
 62
     7
370
    25
100
AcDbLine
 10
-498.3431625654
 20
419.5084392688
 30
0.0
 11
-494.3431625654
 21
419.5084392688
 31
0.0
  0
LINE
  5
6EC
330
1F
100
AcDbEntity
  8
0
  6
Continuous
 62
     7
370
    25
100
AcDbLine
 10
-499.3431625654
 20
412.5084392688
 30
0.0
 11
-499.3431625654
 21
418.5084392688
 31
0.0
  0
LINE
  5
6ED
330
1F
100
AcDbEntity
  8
0
  6
Continuous
 62
     7
370
    25
100
AcDbLine
 10
-498.3431625654
 20
411.5084392688
 30
0.0
 11
-494.3431625654
 21
411.5084392688
 31
0.0
  0
LINE
  5
6EE
330
1F
100
AcDbEntity
  8
0
  6
Continuous
 62
     7
370
    25
100
AcDbLine
 10
-493.3431625654
 20
404.5084392688
 30
0.0
 11
-493.3431625654
 21
410.5084392688
 31
0.0
  0
LINE
  5
6EF
330
1F
100
AcDbEntity
  8
0
  6
Continuous
 62
     7
370
    25
100
AcDbLine
 10
-484.2436588463
 20
403.5984888969
 30
0.0
 11
-493.3431625654
 21
404.5084392688
 31
0.0
  0
LINE
  5
6F0
330
1F
100
AcDbEntity
  8
0
  6
Continuous
 62
     7
370
    25
100
AcDbLine
 10
-483.3431625654
 20
396.7584392688
 30
0.0
 11
-483.3431625654
 21
402.6034517067
 31
0.0
  0
LINE
  5
6F1
330
1F
100
AcDbEntity
  8
0
  6
Continuous
 62
     7
370
    25
100
AcDbLine
 10
-503.3431625654
 20
396.7584392688
 30
0.0
 11
-483.3431625654
 21
396.7584392688
 31
0.0
  0
LINE
  5
6F2
330
1F
100
AcDbEntity
  8
0
  6
Continuous
 62
     7
370
    25
100
AcDbLine
 10
-503.3431625654
 20
390.7584392688
 30
0.0
 11
-503.3431625654
 21
396.7584392688
 31
0.0
  0
LINE
  5
6F3
330
1F
100
AcDbEntity
  8
0
  6
Continuous
 62
     7
370
    25
100
AcDbLine
 10
-515.3431625654
 20
390.7584392688
 30
0.0
 11
-503.3431625654
 21
390.7584392688
 31
0.0
  0
LINE
  5
6F4
330
1F
100
AcDbEntity
  8
0
  6
Continuous
 62
     7
370
    25
100
AcDbLine
 10
-515.3431625654
 20
390.7584392688
 30
0.0
 11
-515.3431625654
 21
396.7584392688
 31
0.0
  0
LINE
  5
6F5
330
1F
100
AcDbEntity
  8
0
  6
Continuous
 62
     7
370
    25
100
AcDbLine
 10
-574.8431625654
 20
390.7584392688
 30
0.0
 11
-574.8431625654
 21
396.7584392688
 31
0.0
  0
LINE
  5
6F6
330
1F
100
AcDbEntity
  8
0
  6
Continuous
 62
     7
370
    25
100
AcDbLine
 10
-586.8431625654
 20
390.7584392688
 30
0.0
 11
-574.8431625654
 21
390.7584392688
 31
0.0
  0
LINE
  5
6F7
330
1F
100
AcDbEntity
  8
0
  6
Continuous
 62
     7
370
    25
100
AcDbLine
 10
-586.8431625654
 20
390.7584392688
 30
0.0
 11
-586.8431625654
 21
396.7584392688
 31
0.0
  0
LINE
  5
6F8
330
1F
100
AcDbEntity
  8
0
  6
Continuous
 62
     7
370
    25
100
AcDbLine
 10
-646.3431625654
 20
390.7584392688
 30
0.0
 11
-646.3431625654
 21
396.7584392688
 31
0.0
  0
LINE
  5
6F9
330
1F
100
AcDbEntity
  8
0
  6
Continuous
 62
     7
370
    25
100
AcDbLine
 10
-658.3431625654
 20
390.7584392688
 30
0.0
 11
-646.3431625654
 21
390.7584392688
 31
0.0
  0
LINE
  5
6FA
330
1F
100
AcDbEntity
  8
0
  6
Continuous
 62
     7
370
    25
100
AcDbLine
 10
-658.3431625654
 20
390.7584392688
 30
0.0
 11
-658.3431625654
 21
396.7584392688
 31
0.0
  0
LINE
  5
6FB
330
1F
100
AcDbEntity
  8
0
  6
Continuous
 62
     7
370
    25
100
AcDbLine
 10
-684.3431625654
 20
419.2584392688
 30
0.0
 11
-678.3431625654
 21
419.2584392688
 31
0.0
  0
LINE
  5
6FC
330
1F
100
AcDbEntity
  8
0
  6
Continuous
 62
     7
370
    25
100
AcDbLine
 10
-684.3431625654
 20
419.2584392688
 30
0.0
 11
-684.3431625654
 21
441.7584392688
 31
0.0
  0
LINE
  5
6FD
330
1F
100
AcDbEntity
  8
0
  6
Continuous
 62
     7
370
    25
100
AcDbLine
 10
-684.3431625654
 20
441.7584392688
 30
0.0
 11
-678.3431625654
 21
441.7584392688
 31
0.0
  0
LINE
  5
6FE
330
1F
100
AcDbEntity
  8
0
  6
Continuous
 62
     7
370
    25
100
AcDbLine
 10
-684.3431625654
 20
464.2584392688
 30
0.0
 11
-678.3431625654
 21
464.2584392688
 31
0.0
  0
LINE
  5
6FF
330
1F
100
AcDbEntity
  8
0
  6
Continuous
 62
     7
370
    25
100
AcDbLine
 10
-684.3431625654
 20
464.2584392688
 30
0.0
 11
-684.3431625654
 21
486.7584392688
 31
0.0
  0
LINE
  5
700
330
1F
100
AcDbEntity
  8
0
  6
Continuous
 62
     7
370
    25
100
AcDbLine
 10
-684.3431625654
 20
486.7584392688
 30
0.0
 11
-678.3431625654
 21
486.7584392688
 31
0.0
  0
LINE
  5
701
330
1F
100
AcDbEntity
  8
0
  6
Continuous
 62
     7
370
    25
100
AcDbLine
 10
-678.3431625654
 20
486.7584392688
 30
0.0
 11
-678.3431625654
 21
509.2584392688
 31
0.0
  0
LINE
  5
702
330
1F
100
AcDbEntity
  8
0
  6
Continuous
 62
     7
370
    25
100
AcDbLine
 10
-678.3431625654
 20
509.2584392688
 30
0.0
 11
-658.3431625654
 21
509.2584392688
 31
0.0
  0
LINE
  5
703
330
1F
100
AcDbEntity
  8
0
  6
Continuous
 62
     7
370
    25
100
AcDbLine
 10
-646.3431625654
 20
515.2584392688
 30
0.0
 11
-646.3431625654
 21
509.2584392688
 31
0.0
  0
LINE
  5
704
330
1F
100
AcDbEntity
  8
0
  6
Continuous
 62
     7
370
    25
100
AcDbLine
 10
-646.3431625654
 20
509.2584392688
 30
0.0
 11
-586.8431625654
 21
509.2584392688
 31
0.0
  0
LINE
  5
705
330
1F
100
AcDbEntity
  8
0
  6
Continuous
 62
     7
370
    25
100
AcDbLine
 10
-586.8431625654
 20
515.2584392688
 30
0.0
 11
-586.8431625654
 21
509.2584392688
 31
0.0
  0
LINE
  5
706
330
1F
100
AcDbEntity
  8
0
  6
Continuous
 62
     7
370
    25
100
AcDbLine
 10
-574.8431625654
 20
509.2584392688
 30
0.0
 11
-515.3431625654
 21
509.2584392688
 31
0.0
  0
LINE
  5
707
330
1F
100
AcDbEntity
  8
0
  6
Continuous
 62
     7
370
    25
100
AcDbLine
 10
-503.3431625654
 20
509.2584392688
 30
0.0
 11
-483.3431625654
 21
509.2584392688
 31
0.0
  0
LINE
  5
708
330
1F
100
AcDbEntity
  8
0
  6
Continuous
 62
     7
370
    25
100
AcDbLine
 10
-483.3431625654
 20
503.4134268309
 30
0.0
 11
-483.3431625654
 21
509.2584392688
 31
0.0
  0
LINE
  5
709
330
1F
100
AcDbEntity
  8
0
  6
Continuous
 62
     7
370
    25
100
AcDbLine
 10
-493.3431625654
 20
501.5084392688
 30
0.0
 11
-484.2436588463
 21
502.4183896407
 31
0.0
  0
LINE
  5
70A
330
1F
100
AcDbEntity
  8
0
  6
Continuous
 62
     7
370
    25
100
AcDbLine
 10
-493.3431625654
 20
495.5084392688
 30
0.0
 11
-493.3431625654
 21
501.5084392688
 31
0.0
  0
LINE
  5
70B
330
1F
100
AcDbEntity
  8
0
  6
Continuous
 62
     7
370
    25
100
AcDbLine
 10
-498.3431625654
 20
494.5084392688
 30
0.0
 11
-494.3431625654
 21
494.5084392688
 31
0.0
  0
LINE
  5
70C
330
1F
100
AcDbEntity
  8
0
  6
Continuous
 62
     7
370
    25
100
AcDbLine
 10
-499.3431625654
 20
487.5084392688
 30
0.0
 11
-499.3431625654
 21
493.5084392688
 31
0.0
  0
LINE
  5
70D
330
1F
100
AcDbEntity
  8
0
  6
Continuous
 62
     7
370
    25
100
AcDbLine
 10
-498.3431625654
 20
486.5084392688
 30
0.0
 11
-494.3431625654
 21
486.5084392688
 31
0.0
  0
LINE
  5
70E
330
1F
100
AcDbEntity
  8
0
  6
Continuous
 62
     7
370
    25
100
AcDbLine
 10
-493.3431625654
 20
479.5084392688
 30
0.0
 11
-493.3431625654
 21
485.5084392688
 31
0.0
  0
LINE
  5
70F
330
1F
100
AcDbEntity
  8
0
  6
Continuous
 62
     7
370
    25
100
AcDbLine
 10
-484.2436588463
 20
478.5984888969
 30
0.0
 11
-493.3431625654
 21
479.5084392688
 31
0.0
  0
LINE
  5
710
330
1F
100
AcDbEntity
  8
0
  6
Continuous
 62
     7
370
    25
100
AcDbLine
 10
-483.3431625654
 20
465.9134268309
 30
0.0
 11
-483.3431625654
 21
477.6034517067
 31
0.0
  0
LINE
  5
711
330
1F
100
AcDbEntity
  8
0
  6
Continuous
 62
     7
370
    25
100
AcDbLine
 10
-493.3431625654
 20
464.0084392688
 30
0.0
 11
-484.2436588463
 21
464.9183896407
 31
0.0
  0
LINE
  5
712
330
1F
100
AcDbEntity
  8
0
  6
Continuous
 62
     7
370
    25
100
AcDbLine
 10
-493.3431625654
 20
458.0084392688
 30
0.0
 11
-493.3431625654
 21
464.0084392688
 31
0.0
  0
LINE
  5
713
330
1F
100
AcDbEntity
  8
0
  6
Continuous
 62
     7
370
    25
100
AcDbLine
 10
-498.3431625654
 20
457.0084392688
 30
0.0
 11
-494.3431625654
 21
457.0084392688
 31
0.0
  0
LINE
  5
714
330
1F
100
AcDbEntity
  8
0
  6
Continuous
 62
     7
370
    25
100
AcDbLine
 10
-499.3431625654
 20
450.0084392688
 30
0.0
 11
-499.3431625654
 21
456.0084392688
 31
0.0
  0
LINE
  5
715
330
1F
100
AcDbEntity
  8
0
  6
Continuous
 62
     7
370
    25
100
AcDbLine
 10
-498.3431625654
 20
449.0084392688
 30
0.0
 11
-494.3431625654
 21
449.0084392688
 31
0.0
  0
LINE
  5
716
330
1F
100
AcDbEntity
  8
0
  6
Continuous
 62
     7
370
    25
100
AcDbLine
 10
-493.3431625654
 20
442.0084392688
 30
0.0
 11
-493.3431625654
 21
448.0084392688
 31
0.0
  0
LINE
  5
717
330
1F
100
AcDbEntity
  8
0
  6
Continuous
 62
     7
370
    25
100
AcDbLine
 10
-484.2436588463
 20
441.0984888969
 30
0.0
 11
-493.3431625654
 21
442.0084392688
 31
0.0
  0
LINE
  5
718
330
1F
100
AcDbEntity
  8
0
  6
Continuous
 62
     7
370
    25
100
AcDbLine
 10
-483.3431625654
 20
428.4134268309
 30
0.0
 11
-483.3431625654
 21
440.1034517067
 31
0.0
  0
LINE
  5
719
330
1F
100
AcDbEntity
  8
0
  6
Continuous
 62
     7
370
    25
100
AcDbLine
 10
-493.3431625654
 20
426.5084392688
 30
0.0
 11
-484.2436588463
 21
427.4183896407
 31
0.0
  0
LINE
  5
71A
330
1F
100
AcDbEntity
  8
0
  6
Continuous
 62
     7
370
    25
100
AcDbLine
 10
-505.3431625654
 20
467.7584392688
 30
0.0
 11
-499.3431625654
 21
467.7584392688
 31
0.0
  0
LINE
  5
71B
330
1F
100
AcDbEntity
  8
0
  6
Continuous
 62
     7
370
    25
100
AcDbLine
 10
-499.3431625654
 20
467.7584392688
 30
0.0
 11
-499.3431625654
 21
475.7584392688
 31
0.0
  0
LINE
  5
71C
330
1F
100
AcDbEntity
  8
0
  6
Continuous
 62
     7
370
    25
100
AcDbLine
 10
-505.3431625654
 20
475.7584392688
 30
0.0
 11
-499.3431625654
 21
475.7584392688
 31
0.0
  0
LINE
  5
71D
330
1F
100
AcDbEntity
  8
0
  6
Continuous
 62
     7
370
    25
100
AcDbLine
 10
-646.3431625654
 20
396.7584392688
 30
0.0
 11
-586.8431625654
 21
396.7584392688
 31
0.0
  0
LINE
  5
71E
330
1F
100
AcDbEntity
  8
0
  6
Continuous
 62
     7
370
    25
100
AcDbLine
 10
-574.8431625654
 20
396.7584392688
 30
0.0
 11
-515.3431625654
 21
396.7584392688
 31
0.0
  0
LINE
  5
71F
330
1F
100
AcDbEntity
  8
0
  6
Continuous
 62
     7
370
    25
100
AcDbLine
 10
-678.3431625654
 20
396.7584392688
 30
0.0
 11
-658.3431625654
 21
396.7584392688
 31
0.0
  0
LINE
  5
720
330
1F
100
AcDbEntity
  8
0
  6
Continuous
 62
     7
370
    25
100
AcDbLine
 10
-678.3431625654
 20
441.7584392688
 30
0.0
 11
-678.3431625654
 21
464.2584392688
 31
0.0
  0
LINE
  5
721
330
1F
100
AcDbEntity
  8
0
  6
Continuous
 62
     7
370
    25
100
AcDbLine
 10
-678.3431625654
 20
396.7584392688
 30
0.0
 11
-678.3431625654
 21
419.2584392688
 31
0.0
  0
LINE
  5
722
330
1F
100
AcDbEntity
  8
0
  6
Continuous
 62
     7
370
    25
100
AcDbLine
 10
-505.3431625654
 20
467.7584392688
 30
0.0
 11
-505.3431625654
 21
475.7584392688
 31
0.0
  0
LINE
  5
723
330
1F
100
AcDbEntity
  8
0
  6
Continuous
 62
     7
370
    25
100
AcDbLine
 10
-658.3431625654
 20
515.2584392688
 30
0.0
 11
-646.3431625654
 21
515.2584392688
 31
0.0
  0
LINE
  5
724
330
1F
100
AcDbEntity
  8
0
  6
Continuous
 62
     7
370
    25
100
AcDbLine
 10
-658.3431625654
 20
515.2584392688
 30
0.0
 11
-658.3431625654
 21
509.2584392688
 31
0.0
  0
LINE
  5
725
330
1F
100
AcDbEntity
  8
0
  6
Continuous
 62
     7
370
    25
100
AcDbLine
 10
-586.8431625654
 20
515.2584392688
 30
0.0
 11
-574.8431625654
 21
515.2584392688
 31
0.0
  0
LINE
  5
726
330
1F
100
AcDbEntity
  8
0
  6
Continuous
 62
     7
370
    25
100
AcDbLine
 10
-574.8431625654
 20
515.2584392688
 30
0.0
 11
-574.8431625654
 21
509.2584392688
 31
0.0
  0
LINE
  5
727
330
1F
100
AcDbEntity
  8
0
  6
Continuous
 62
     7
370
    25
100
AcDbLine
 10
-515.3431625654
 20
515.2584392688
 30
0.0
 11
-503.3431625654
 21
515.2584392688
 31
0.0
  0
LINE
  5
728
330
1F
100
AcDbEntity
  8
0
  6
Continuous
 62
     7
370
    25
100
AcDbLine
 10
-515.3431625654
 20
515.2584392688
 30
0.0
 11
-515.3431625654
 21
509.2584392688
 31
0.0
  0
LINE
  5
729
330
1F
100
AcDbEntity
  8
0
  6
Continuous
 62
     7
370
    25
100
AcDbLine
 10
-503.3431625654
 20
515.2584392688
 30
0.0
 11
-503.3431625654
 21
509.2584392688
 31
0.0
  0
LINE
  5
72A
330
1F
100
AcDbEntity
  8
0
  6
Continuous
 62
     7
370
    25
100
AcDbLine
 10
-482.1085733349
 20
41.4214304746
 30
0.0
 11
-476.1085733349
 21
41.4214304746
 31
0.0
  0
LINE
  5
72B
330
1F
100
AcDbEntity
  8
0
  6
Continuous
 62
     7
370
    25
100
AcDbLine
 10
-482.1085733349
 20
41.4214304746
 30
0.0
 11
-482.1085733349
 21
29.4214304746
 31
0.0
  0
LINE
  5
72C
330
1F
100
AcDbEntity
  8
0
  6
Continuous
 62
     7
370
    25
100
AcDbLine
 10
-482.1085733349
 20
29.4214304746
 30
0.0
 11
-476.1085733349
 21
29.4214304746
 31
0.0
  0
LINE
  5
72D
330
1F
100
AcDbEntity
  8
0
  6
Continuous
 62
     7
370
    25
100
AcDbLine
 10
-476.1085733349
 20
41.4214304746
 30
0.0
 11
-476.1085733349
 21
29.4214304746
 31
0.0
  0
LINE
  5
72E
330
1F
100
AcDbEntity
  8
0
  6
Continuous
 62
     7
370
    25
100
AcDbLine
 10
-482.1085733349
 20
117.9214304746
 30
0.0
 11
-476.1085733349
 21
117.9214304746
 31
0.0
  0
LINE
  5
72F
330
1F
100
AcDbEntity
  8
0
  6
Continuous
 62
     7
370
    25
100
AcDbLine
 10
-482.1085733349
 20
117.9214304746
 30
0.0
 11
-482.1085733349
 21
105.9214304746
 31
0.0
  0
LINE
  5
730
330
1F
100
AcDbEntity
  8
0
  6
Continuous
 62
     7
370
    25
100
AcDbLine
 10
-482.1085733349
 20
105.9214304746
 30
0.0
 11
-476.1085733349
 21
105.9214304746
 31
0.0
  0
LINE
  5
731
330
1F
100
AcDbEntity
  8
0
  6
Continuous
 62
     7
370
    25
100
AcDbLine
 10
-476.1085733349
 20
117.9214304746
 30
0.0
 11
-476.1085733349
 21
105.9214304746
 31
0.0
  0
LINE
  5
732
330
1F
100
AcDbEntity
  8
0
  6
Continuous
 62
     7
370
    25
100
AcDbLine
 10
-655.1085733349
 20
29.4214304746
 30
0.0
 11
-661.1085733349
 21
29.4214304746
 31
0.0
  0
LINE
  5
733
330
1F
100
AcDbEntity
  8
0
  6
Continuous
 62
     7
370
    25
100
AcDbLine
 10
-655.1085733349
 20
29.4214304746
 30
0.0
 11
-655.1085733349
 21
41.4214304746
 31
0.0
  0
LINE
  5
734
330
1F
100
AcDbEntity
  8
0
  6
Continuous
 62
     7
370
    25
100
AcDbLine
 10
-655.1085733349
 20
41.4214304746
 30
0.0
 11
-661.1085733349
 21
41.4214304746
 31
0.0
  0
LINE
  5
735
330
1F
100
AcDbEntity
  8
0
  6
Continuous
 62
     7
370
    25
100
AcDbLine
 10
-661.1085733349
 20
29.4214304746
 30
0.0
 11
-661.1085733349
 21
41.4214304746
 31
0.0
  0
LINE
  5
736
330
1F
100
AcDbEntity
  8
0
  6
Continuous
 62
     7
370
    25
100
AcDbLine
 10
-697.1085733349
 20
39.9214304746
 30
0.0
 11
-691.1085733349
 21
39.9214304746
 31
0.0
  0
LINE
  5
737
330
1F
100
AcDbEntity
  8
0
  6
Continuous
 62
     7
370
    25
100
AcDbLine
 10
-691.1085733349
 20
39.9214304746
 30
0.0
 11
-691.1085733349
 21
62.4214304746
 31
0.0
  0
LINE
  5
738
330
1F
100
AcDbEntity
  8
0
  6
Continuous
 62
     7
370
    25
100
AcDbLine
 10
-697.1085733349
 20
62.4214304746
 30
0.0
 11
-691.1085733349
 21
62.4214304746
 31
0.0
  0
LINE
  5
739
330
1F
100
AcDbEntity
  8
0
  6
Continuous
 62
     7
370
    25
100
AcDbLine
 10
-697.1085733349
 20
39.9214304746
 30
0.0
 11
-697.1085733349
 21
62.4214304746
 31
0.0
  0
LINE
  5
73A
330
1F
100
AcDbEntity
  8
0
  6
Continuous
 62
     7
370
    25
100
AcDbLine
 10
-661.1085733349
 20
105.9214304746
 30
0.0
 11
-655.1085733349
 21
105.9214304746
 31
0.0
  0
LINE
  5
73B
330
1F
100
AcDbEntity
  8
0
  6
Continuous
 62
     7
370
    25
100
AcDbLine
 10
-655.1085733349
 20
105.9214304746
 30
0.0
 11
-655.1085733349
 21
117.9214304746
 31
0.0
  0
LINE
  5
73C
330
1F
100
AcDbEntity
  8
0
  6
Continuous
 62
     7
370
    25
100
AcDbLine
 10
-661.1085733349
 20
117.9214304746
 30
0.0
 11
-655.1085733349
 21
117.9214304746
 31
0.0
  0
LINE
  5
73D
330
1F
100
AcDbEntity
  8
0
  6
Continuous
 62
     7
370
    25
100
AcDbLine
 10
-661.1085733349
 20
105.9214304746
 30
0.0
 11
-661.1085733349
 21
117.9214304746
 31
0.0
  0
LINE
  5
73E
330
1F
100
AcDbEntity
  8
0
  6
Continuous
 62
     7
370
    25
100
AcDbLine
 10
-691.1085733349
 20
84.9214304746
 30
0.0
 11
-691.1085733349
 21
107.4214304746
 31
0.0
  0
LINE
  5
73F
330
1F
100
AcDbEntity
  8
0
  6
Continuous
 62
     7
370
    25
100
AcDbLine
 10
-697.1085733349
 20
107.4214304746
 30
0.0
 11
-691.1085733349
 21
107.4214304746
 31
0.0
  0
LINE
  5
740
330
1F
100
AcDbEntity
  8
0
  6
Continuous
 62
     7
370
    25
100
AcDbLine
 10
-697.1085733349
 20
84.9214304746
 30
0.0
 11
-697.1085733349
 21
107.4214304746
 31
0.0
  0
LINE
  5
741
330
1F
100
AcDbEntity
  8
0
  6
Continuous
 62
     7
370
    25
100
AcDbLine
 10
-697.1085733349
 20
84.9214304746
 30
0.0
 11
-691.1085733349
 21
84.9214304746
 31
0.0
  0
LINE
  5
742
330
1F
100
AcDbEntity
  8
0
  6
Continuous
 62
     7
370
    25
100
AcDbLine
 10
-657.1085733349
 20
135.9214304746
 30
0.0
 11
-657.1085733349
 21
129.9214304746
 31
0.0
  0
LINE
  5
743
330
1F
100
AcDbEntity
  8
0
  6
Continuous
 62
     7
370
    25
100
AcDbLine
 10
-657.1085733349
 20
135.9214304746
 30
0.0
 11
-623.1085733349
 21
135.9214304746
 31
0.0
  0
LINE
  5
744
330
1F
100
AcDbEntity
  8
0
  6
Continuous
 62
     7
370
    25
100
AcDbLine
 10
-623.1085733349
 20
135.9214304746
 30
0.0
 11
-623.1085733349
 21
129.9214304746
 31
0.0
  0
LINE
  5
745
330
1F
100
AcDbEntity
  8
0
  6
Continuous
 62
     7
370
    25
100
AcDbLine
 10
-589.1085733349
 20
135.9214304746
 30
0.0
 11
-589.1085733349
 21
129.9214304746
 31
0.0
  0
LINE
  5
746
330
1F
100
AcDbEntity
  8
0
  6
Continuous
 62
     7
370
    25
100
AcDbLine
 10
-589.1085733349
 20
135.9214304746
 30
0.0
 11
-555.1085733349
 21
135.9214304746
 31
0.0
  0
LINE
  5
747
330
1F
100
AcDbEntity
  8
0
  6
Continuous
 62
     7
370
    25
100
AcDbLine
 10
-555.1085733349
 20
135.9214304746
 30
0.0
 11
-555.1085733349
 21
129.9214304746
 31
0.0
  0
LINE
  5
748
330
1F
100
AcDbEntity
  8
0
  6
Continuous
 62
     7
370
    25
100
AcDbLine
 10
-521.1085733349
 20
135.9214304746
 30
0.0
 11
-521.1085733349
 21
129.9214304746
 31
0.0
  0
LINE
  5
749
330
1F
100
AcDbEntity
  8
0
  6
Continuous
 62
     7
370
    25
100
AcDbLine
 10
-521.1085733349
 20
135.9214304746
 30
0.0
 11
-487.1085733349
 21
135.9214304746
 31
0.0
  0
LINE
  5
74A
330
1F
100
AcDbEntity
  8
0
  6
Continuous
 62
     7
370
    25
100
AcDbLine
 10
-487.1085733349
 20
135.9214304746
 30
0.0
 11
-487.1085733349
 21
129.9214304746
 31
0.0
  0
LINE
  5
74B
330
1F
100
AcDbEntity
  8
0
  6
Continuous
 62
     7
370
    25
100
AcDbLine
 10
-453.1085733349
 20
129.9214304746
 30
0.0
 11
-453.1085733349
 21
17.4214304746
 31
0.0
  0
LINE
  5
74C
330
1F
100
AcDbEntity
  8
0
  6
Continuous
 62
     7
370
    25
100
AcDbLine
 10
-453.1085733349
 20
17.4214304746
 30
0.0
 11
-487.1085733349
 21
17.4214304746
 31
0.0
  0
LINE
  5
74D
330
1F
100
AcDbEntity
  8
0
  6
Continuous
 62
     7
370
    25
100
AcDbLine
 10
-487.1085733349
 20
11.4214304746
 30
0.0
 11
-487.1085733349
 21
17.4214304746
 31
0.0
  0
LINE
  5
74E
330
1F
100
AcDbEntity
  8
0
  6
Continuous
 62
     7
370
    25
100
AcDbLine
 10
-521.1085733349
 20
11.4214304746
 30
0.0
 11
-487.1085733349
 21
11.4214304746
 31
0.0
  0
LINE
  5
74F
330
1F
100
AcDbEntity
  8
0
  6
Continuous
 62
     7
370
    25
100
AcDbLine
 10
-521.1085733349
 20
11.4214304746
 30
0.0
 11
-521.1085733349
 21
17.4214304746
 31
0.0
  0
LINE
  5
750
330
1F
100
AcDbEntity
  8
0
  6
Continuous
 62
     7
370
    25
100
AcDbLine
 10
-555.1085733349
 20
11.4214304746
 30
0.0
 11
-555.1085733349
 21
17.4214304746
 31
0.0
  0
LINE
  5
751
330
1F
100
AcDbEntity
  8
0
  6
Continuous
 62
     7
370
    25
100
AcDbLine
 10
-589.1085733349
 20
11.4214304746
 30
0.0
 11
-555.1085733349
 21
11.4214304746
 31
0.0
  0
LINE
  5
752
330
1F
100
AcDbEntity
  8
0
  6
Continuous
 62
     7
370
    25
100
AcDbLine
 10
-589.1085733349
 20
11.4214304746
 30
0.0
 11
-589.1085733349
 21
17.4214304746
 31
0.0
  0
LINE
  5
753
330
1F
100
AcDbEntity
  8
0
  6
Continuous
 62
     7
370
    25
100
AcDbLine
 10
-623.1085733349
 20
11.4214304746
 30
0.0
 11
-623.1085733349
 21
17.4214304746
 31
0.0
  0
LINE
  5
754
330
1F
100
AcDbEntity
  8
0
  6
Continuous
 62
     7
370
    25
100
AcDbLine
 10
-657.1085733349
 20
11.4214304746
 30
0.0
 11
-623.1085733349
 21
11.4214304746
 31
0.0
  0
LINE
  5
755
330
1F
100
AcDbEntity
  8
0
  6
Continuous
 62
     7
370
    25
100
AcDbLine
 10
-657.1085733349
 20
11.4214304746
 30
0.0
 11
-657.1085733349
 21
17.4214304746
 31
0.0
  0
LINE
  5
756
330
1F
100
AcDbEntity
  8
0
  6
Continuous
 62
     7
370
    25
100
AcDbLine
 10
-705.1085733349
 20
17.4214304746
 30
0.0
 11
-705.1085733349
 21
129.9214304746
 31
0.0
  0
LINE
  5
757
330
1F
100
AcDbEntity
  8
0
  6
Continuous
 62
     7
370
    25
100
AcDbLine
 10
-487.1085733349
 20
129.9214304746
 30
0.0
 11
-453.1085733349
 21
129.9214304746
 31
0.0
  0
LINE
  5
758
330
1F
100
AcDbEntity
  8
0
  6
Continuous
 62
     7
370
    25
100
AcDbLine
 10
-623.1085733349
 20
129.9214304746
 30
0.0
 11
-589.1085733349
 21
129.9214304746
 31
0.0
  0
LINE
  5
759
330
1F
100
AcDbEntity
  8
0
  6
Continuous
 62
     7
370
    25
100
AcDbLine
 10
-705.1085733349
 20
129.9214304746
 30
0.0
 11
-657.1085733349
 21
129.9214304746
 31
0.0
  0
LINE
  5
75A
330
1F
100
AcDbEntity
  8
0
  6
Continuous
 62
     7
370
    25
100
AcDbLine
 10
-657.1085733349
 20
17.4214304746
 30
0.0
 11
-705.1085733349
 21
17.4214304746
 31
0.0
  0
LINE
  5
75B
330
1F
100
AcDbEntity
  8
0
  6
Continuous
 62
     7
370
    25
100
AcDbLine
 10
-521.1085733349
 20
17.4214304746
 30
0.0
 11
-555.1085733349
 21
17.4214304746
 31
0.0
  0
LINE
  5
75C
330
1F
100
AcDbEntity
  8
0
  6
Continuous
 62
     7
370
    25
100
AcDbLine
 10
-589.1085733349
 20
17.4214304746
 30
0.0
 11
-623.1085733349
 21
17.4214304746
 31
0.0
  0
LINE
  5
75D
330
1F
100
AcDbEntity
  8
0
  6
Continuous
 62
     7
370
    25
100
AcDbLine
 10
-555.1085733349
 20
129.9214304746
 30
0.0
 11
-521.1085733349
 21
129.9214304746
 31
0.0
  0
ARC
  5
75E
330
1F
100
AcDbEntity
  8
0
  6
Continuous
 62
     7
370
    25
100
AcDbCircle
 10
-234.4501513449
 20
824.8466092155
 30
0.0
 40
0.9000000000002046
100
AcDbArc
 50
270.0
 51
90.0
  0
ARC
  5
75F
330
1F
100
AcDbEntity
  8
0
  6
Continuous
 62
     7
370
    25
100
AcDbCircle
 10
-264.4501513449
 20
824.8466092155
 30
0.0
 40
0.9000000000002046
100
AcDbArc
 50
90.0
 51
270.0
  0
ARC
  5
760
330
1F
100
AcDbEntity
  8
0
  6
Continuous
 62
     7
370
    25
100
AcDbCircle
 10
-184.8501513449
 20
791.0966092155
 30
0.0
 40
0.8999999999999773
100
AcDbArc
 50
90.0
 51
270.0
  0
ARC
  5
761
330
1F
100
AcDbEntity
  8
0
  6
Continuous
 62
     7
370
    25
100
AcDbCircle
 10
-154.8501513449
 20
791.0966092155
 30
0.0
 40
0.8999999999999773
100
AcDbArc
 50
270.0
 51
90.0
  0
ARC
  5
762
330
1F
100
AcDbEntity
  8
0
  6
Continuous
 62
     7
370
    25
100
AcDbCircle
 10
-234.4501513449
 20
784.3466092155
 30
0.0
 40
0.900000000000091
100
AcDbArc
 50
270.0
 51
90.0
  0
ARC
  5
763
330
1F
100
AcDbEntity
  8
0
  6
Continuous
 62
     7
370
    25
100
AcDbCircle
 10
-264.4501513449
 20
784.3466092155
 30
0.0
 40
0.900000000000091
100
AcDbArc
 50
90.0
 51
270.0
  0
ARC
  5
764
330
1F
100
AcDbEntity
  8
0
  6
Continuous
 62
     7
370
    25
100
AcDbCircle
 10
-194.6501513449
 20
784.3466092155
 30
0.0
 40
0.900000000000091
100
AcDbArc
 50
270.0
 51
90.0
  0
ARC
  5
765
330
1F
100
AcDbEntity
  8
0
  6
Continuous
 62
     7
370
    25
100
AcDbCircle
 10
-224.6501513449
 20
784.3466092155
 30
0.0
 40
0.900000000000091
100
AcDbArc
 50
90.0
 51
270.0
  0
ARC
  5
766
330
1F
100
AcDbEntity
  8
0
  6
Continuous
 62
     7
370
    25
100
AcDbCircle
 10
-184.8501513449
 20
784.3466092155
 30
0.0
 40
0.900000000000091
100
AcDbArc
 50
90.0
 51
270.0
  0
ARC
  5
767
330
1F
100
AcDbEntity
  8
0
  6
Continuous
 62
     7
370
    25
100
AcDbCircle
 10
-154.8501513449
 20
784.3466092155
 30
0.0
 40
0.900000000000091
100
AcDbArc
 50
270.0
 51
90.0
  0
ARC
  5
768
330
1F
100
AcDbEntity
  8
0
  6
Continuous
 62
     7
370
    25
100
AcDbCircle
 10
-234.4501513449
 20
797.8466092155
 30
0.0
 40
0.8999999999999773
100
AcDbArc
 50
270.0
 51
90.0
  0
ARC
  5
769
330
1F
100
AcDbEntity
  8
0
  6
Continuous
 62
     7
370
    25
100
AcDbCircle
 10
-184.8501513449
 20
804.5966092155
 30
0.0
 40
0.900000000000091
100
AcDbArc
 50
90.0
 51
270.0
  0
ARC
  5
76A
330
1F
100
AcDbEntity
  8
0
  6
Continuous
 62
     7
370
    25
100
AcDbCircle
 10
-154.8501513449
 20
804.5966092155
 30
0.0
 40
0.900000000000091
100
AcDbArc
 50
270.0
 51
90.0
  0
ARC
  5
76B
330
1F
100
AcDbEntity
  8
0
  6
Continuous
 62
     7
370
    25
100
AcDbCircle
 10
-194.6501513449
 20
804.5966092155
 30
0.0
 40
0.900000000000091
100
AcDbArc
 50
270.0
 51
90.0
  0
ARC
  5
76C
330
1F
100
AcDbEntity
  8
0
  6
Continuous
 62
     7
370
    25
100
AcDbCircle
 10
-224.6501513449
 20
804.5966092155
 30
0.0
 40
0.900000000000091
100
AcDbArc
 50
90.0
 51
270.0
  0
ARC
  5
76D
330
1F
100
AcDbEntity
  8
0
  6
Continuous
 62
     7
370
    25
100
AcDbCircle
 10
-234.4501513449
 20
804.5966092155
 30
0.0
 40
0.900000000000091
100
AcDbArc
 50
270.0
 51
90.0
  0
ARC
  5
76E
330
1F
100
AcDbEntity
  8
0
  6
Continuous
 62
     7
370
    25
100
AcDbCircle
 10
-264.4501513449
 20
804.5966092155
 30
0.0
 40
0.900000000000091
100
AcDbArc
 50
90.0
 51
270.0
  0
ARC
  5
76F
330
1F
100
AcDbEntity
  8
0
  6
Continuous
 62
     7
370
    25
100
AcDbCircle
 10
-194.6501513449
 20
797.8466092155
 30
0.0
 40
0.8999999999999773
100
AcDbArc
 50
270.0
 51
90.0
  0
ARC
  5
770
330
1F
100
AcDbEntity
  8
0
  6
Continuous
 62
     7
370
    25
100
AcDbCircle
 10
-224.6501513449
 20
797.8466092155
 30
0.0
 40
0.8999999999999773
100
AcDbArc
 50
90.0
 51
270.0
  0
ARC
  5
771
330
1F
100
AcDbEntity
  8
0
  6
Continuous
 62
     7
370
    25
100
AcDbCircle
 10
-184.8501513449
 20
797.8466092155
 30
0.0
 40
0.8999999999999773
100
AcDbArc
 50
90.0
 51
270.0
  0
ARC
  5
772
330
1F
100
AcDbEntity
  8
0
  6
Continuous
 62
     7
370
    25
100
AcDbCircle
 10
-154.8501513449
 20
797.8466092155
 30
0.0
 40
0.8999999999999773
100
AcDbArc
 50
270.0
 51
90.0
  0
ARC
  5
773
330
1F
100
AcDbEntity
  8
0
  6
Continuous
 62
     7
370
    25
100
AcDbCircle
 10
-234.4501513449
 20
791.0966092155
 30
0.0
 40
0.8999999999999773
100
AcDbArc
 50
270.0
 51
90.0
  0
ARC
  5
774
330
1F
100
AcDbEntity
  8
0
  6
Continuous
 62
     7
370
    25
100
AcDbCircle
 10
-264.4501513449
 20
791.0966092155
 30
0.0
 40
0.8999999999999773
100
AcDbArc
 50
90.0
 51
270.0
  0
ARC
  5
775
330
1F
100
AcDbEntity
  8
0
  6
Continuous
 62
     7
370
    25
100
AcDbCircle
 10
-194.6501513449
 20
791.0966092155
 30
0.0
 40
0.8999999999999773
100
AcDbArc
 50
270.0
 51
90.0
  0
ARC
  5
776
330
1F
100
AcDbEntity
  8
0
  6
Continuous
 62
     7
370
    25
100
AcDbCircle
 10
-224.6501513449
 20
791.0966092155
 30
0.0
 40
0.8999999999999773
100
AcDbArc
 50
90.0
 51
270.0
  0
ARC
  5
777
330
1F
100
AcDbEntity
  8
0
  6
Continuous
 62
     7
370
    25
100
AcDbCircle
 10
-194.6501513449
 20
824.8466092155
 30
0.0
 40
0.9000000000002046
100
AcDbArc
 50
270.0
 51
90.0
  0
ARC
  5
778
330
1F
100
AcDbEntity
  8
0
  6
Continuous
 62
     7
370
    25
100
AcDbCircle
 10
-184.8501513449
 20
824.8466092155
 30
0.0
 40
0.9000000000002046
100
AcDbArc
 50
90.0
 51
270.0
  0
ARC
  5
779
330
1F
100
AcDbEntity
  8
0
  6
Continuous
 62
     7
370
    25
100
AcDbCircle
 10
-154.8501513449
 20
824.8466092155
 30
0.0
 40
0.9000000000002046
100
AcDbArc
 50
270.0
 51
90.0
  0
ARC
  5
77A
330
1F
100
AcDbEntity
  8
0
  6
Continuous
 62
     7
370
    25
100
AcDbCircle
 10
-234.4501513449
 20
818.0966092155
 30
0.0
 40
0.8999999999999773
100
AcDbArc
 50
270.0
 51
90.0
  0
ARC
  5
77B
330
1F
100
AcDbEntity
  8
0
  6
Continuous
 62
     7
370
    25
100
AcDbCircle
 10
-264.4501513449
 20
818.0966092155
 30
0.0
 40
0.8999999999999773
100
AcDbArc
 50
90.0
 51
270.0
  0
ARC
  5
77C
330
1F
100
AcDbEntity
  8
0
  6
Continuous
 62
     7
370
    25
100
AcDbCircle
 10
-224.6501513449
 20
818.0966092155
 30
0.0
 40
0.8999999999999773
100
AcDbArc
 50
90.0
 51
270.0
  0
ARC
  5
77D
330
1F
100
AcDbEntity
  8
0
  6
Continuous
 62
     7
370
    25
100
AcDbCircle
 10
-184.8501513449
 20
811.3466092155
 30
0.0
 40
0.900000000000091
100
AcDbArc
 50
90.0
 51
270.0
  0
ARC
  5
77E
330
1F
100
AcDbEntity
  8
0
  6
Continuous
 62
     7
370
    25
100
AcDbCircle
 10
-154.8501513449
 20
811.3466092155
 30
0.0
 40
0.900000000000091
100
AcDbArc
 50
270.0
 51
90.0
  0
ARC
  5
77F
330
1F
100
AcDbEntity
  8
0
  6
Continuous
 62
     7
370
    25
100
AcDbCircle
 10
-194.6501513449
 20
811.3466092155
 30
0.0
 40
0.900000000000091
100
AcDbArc
 50
270.0
 51
90.0
  0
ARC
  5
780
330
1F
100
AcDbEntity
  8
0
  6
Continuous
 62
     7
370
    25
100
AcDbCircle
 10
-224.6501513449
 20
811.3466092155
 30
0.0
 40
0.900000000000091
100
AcDbArc
 50
90.0
 51
270.0
  0
ARC
  5
781
330
1F
100
AcDbEntity
  8
0
  6
Continuous
 62
     7
370
    25
100
AcDbCircle
 10
-234.4501513449
 20
811.3466092155
 30
0.0
 40
0.900000000000091
100
AcDbArc
 50
270.0
 51
90.0
  0
ARC
  5
782
330
1F
100
AcDbEntity
  8
0
  6
Continuous
 62
     7
370
    25
100
AcDbCircle
 10
-264.4501513449
 20
811.3466092155
 30
0.0
 40
0.900000000000091
100
AcDbArc
 50
90.0
 51
270.0
  0
ARC
  5
783
330
1F
100
AcDbEntity
  8
0
  6
Continuous
 62
     7
370
    25
100
AcDbCircle
 10
-184.8501513449
 20
818.0966092155
 30
0.0
 40
0.8999999999999773
100
AcDbArc
 50
90.0
 51
270.0
  0
ARC
  5
784
330
1F
100
AcDbEntity
  8
0
  6
Continuous
 62
     7
370
    25
100
AcDbCircle
 10
-154.8501513449
 20
818.0966092155
 30
0.0
 40
0.8999999999999773
100
AcDbArc
 50
270.0
 51
90.0
  0
ARC
  5
785
330
1F
100
AcDbEntity
  8
0
  6
Continuous
 62
     7
370
    25
100
AcDbCircle
 10
-194.6501513449
 20
818.0966092155
 30
0.0
 40
0.8999999999999773
100
AcDbArc
 50
270.0
 51
90.0
  0
ARC
  5
786
330
1F
100
AcDbEntity
  8
0
  6
Continuous
 62
     7
370
    25
100
AcDbCircle
 10
-224.6501513449
 20
824.8466092155
 30
0.0
 40
0.9000000000002046
100
AcDbArc
 50
90.0
 51
270.0
  0
ARC
  5
787
330
1F
100
AcDbEntity
  8
0
  6
Continuous
 62
     7
370
    25
100
AcDbCircle
 10
-264.4501513449
 20
797.8466092155
 30
0.0
 40
0.8999999999999773
100
AcDbArc
 50
90.0
 51
270.0
  0
ARC
  5
788
330
1F
100
AcDbEntity
  8
0
  6
Continuous
 62
     7
370
    25
100
AcDbCircle
 10
-71.8942033486
 20
280.9792345404
 30
0.0
 40
19.99999999999994
100
AcDbArc
 50
270.0
 51
336.4218215218
  0
ARC
  5
789
330
1F
100
AcDbEntity
  8
0
  6
Continuous
 62
     7
370
    25
100
AcDbCircle
 10
-363.233597789
 20
280.9792345404
 30
0.0
 40
20.00000000000028
100
AcDbArc
 50
203.5781784782
 51
270.0
  0
ARC
  5
78A
330
1F
100
AcDbEntity
  8
0
  6
Continuous
 62
     7
370
    25
100
AcDbCircle
 10
-364.8375913804
 20
551.7680705807
 30
0.0
 40
20.00000000000023
100
AcDbArc
 50
203.5781784782
 51
270.0
  0
ARC
  5
78B
330
1F
100
AcDbEntity
  8
0
  6
Continuous
 62
     7
370
    25
100
AcDbCircle
 10
-73.49819694
 20
551.7680705807
 30
0.0
 40
19.99999999999983
100
AcDbArc
 50
270.0
 51
336.4218215218
  0
ARC
  5
78C
330
1F
100
AcDbEntity
  8
0
  6
Continuous
 62
     7
370
    25
100
AcDbCircle
 10
-569.5906428236
 20
766.1982282174
 30
0.0
 40
2.650000000000091
100
AcDbArc
 50
90.0
 51
270.0
  0
ARC
  5
78D
330
1F
100
AcDbEntity
  8
0
  6
Continuous
 62
     7
370
    25
100
AcDbCircle
 10
-553.5906428236
 20
766.1982282174
 30
0.0
 40
2.650000000000091
100
AcDbArc
 50
270.0
 51
90.0
  0
ARC
  5
78E
330
1F
100
AcDbEntity
  8
0
  6
Continuous
 62
     7
370
    25
100
AcDbCircle
 10
-486.9973211797
 20
291.2851388043
 30
0.0
 40
0.9999999999999432
100
AcDbArc
 50
90.0
 51
180.0
  0
ARC
  5
78F
330
1F
100
AcDbEntity
  8
0
  6
Continuous
 62
     7
370
    25
100
AcDbCircle
 10
-486.9973211797
 20
322.7851388043
 30
0.0
 40
1.000000000000114
100
AcDbArc
 50
180.0
 51
270.0
  0
ARC
  5
790
330
1F
100
AcDbEntity
  8
0
  6
Continuous
 62
     7
370
    25
100
AcDbCircle
 10
-486.9973211797
 20
285.2851388043
 30
0.0
 40
1.000000000000114
100
AcDbArc
 50
180.0
 51
270.0
  0
ARC
  5
791
330
1F
100
AcDbEntity
  8
0
  6
Continuous
 62
     7
370
    25
100
AcDbCircle
 10
-482.9973211797
 20
283.2851388043
 30
0.0
 40
0.9999999999998863
100
AcDbArc
 50
360.0
 51
90.0
  0
ARC
  5
792
330
1F
100
AcDbEntity
  8
0
  6
Continuous
 62
     7
370
    25
100
AcDbCircle
 10
-482.9973211797
 20
293.2851388043
 30
0.0
 40
1.000000000000057
100
AcDbArc
 50
270.0
 51
0.0
  0
ARC
  5
793
330
1F
100
AcDbEntity
  8
0
  6
Continuous
 62
     7
370
    25
100
AcDbCircle
 10
-472.9973211797
 20
350.3801512422
 30
0.0
 40
1.000000000000057
100
AcDbArc
 50
0.0
 51
84.2894068625
  0
ARC
  5
794
330
1F
100
AcDbEntity
  8
0
  6
Continuous
 62
     7
370
    25
100
AcDbCircle
 10
-472.9973211797
 20
275.3801512422
 30
0.0
 40
1.000000000000114
100
AcDbArc
 50
0.0
 51
84.2894068625
  0
ARC
  5
795
330
1F
100
AcDbEntity
  8
0
  6
Continuous
 62
     7
370
    25
100
AcDbCircle
 10
-472.9973211797
 20
301.1901263664
 30
0.0
 40
0.9999999999999432
100
AcDbArc
 50
275.7105931375
 51
0.0
  0
ARC
  5
796
330
1F
100
AcDbEntity
  8
0
  6
Continuous
 62
     7
370
    25
100
AcDbCircle
 10
-482.9973211797
 20
320.7851388043
 30
0.0
 40
1.0
100
AcDbArc
 50
0.0
 51
90.0
  0
ARC
  5
797
330
1F
100
AcDbEntity
  8
0
  6
Continuous
 62
     7
370
    25
100
AcDbCircle
 10
-482.9973211797
 20
330.7851388043
 30
0.0
 40
1.0
100
AcDbArc
 50
270.0
 51
0.0
  0
ARC
  5
798
330
1F
100
AcDbEntity
  8
0
  6
Continuous
 62
     7
370
    25
100
AcDbCircle
 10
-486.9973211797
 20
328.7851388043
 30
0.0
 40
1.000000000000057
100
AcDbArc
 50
90.0
 51
180.0
  0
ARC
  5
799
330
1F
100
AcDbEntity
  8
0
  6
Continuous
 62
     7
370
    25
100
AcDbCircle
 10
-472.9973211797
 20
312.8801512422
 30
0.0
 40
0.9999999999999432
100
AcDbArc
 50
360.0
 51
84.2894068625
  0
ARC
  5
79A
330
1F
100
AcDbEntity
  8
0
  6
Continuous
 62
     7
370
    25
100
AcDbCircle
 10
-472.9973211797
 20
338.6901263664
 30
0.0
 40
1.0
100
AcDbArc
 50
275.7105931375
 51
0.0
  0
ARC
  5
79B
330
1F
100
AcDbEntity
  8
0
  6
Continuous
 62
     7
370
    25
100
AcDbCircle
 10
-486.9973211797
 20
360.2851388043
 30
0.0
 40
1.0
100
AcDbArc
 50
180.0
 51
270.0
  0
ARC
  5
79C
330
1F
100
AcDbEntity
  8
0
  6
Continuous
 62
     7
370
    25
100
AcDbCircle
 10
-482.9973211797
 20
358.2851388043
 30
0.0
 40
1.0
100
AcDbArc
 50
0.0
 51
90.0
  0
ARC
  5
79D
330
1F
100
AcDbEntity
  8
0
  6
Continuous
 62
     7
370
    25
100
AcDbCircle
 10
-486.9973211797
 20
366.2851388043
 30
0.0
 40
1.000000000000114
100
AcDbArc
 50
90.0
 51
180.0
  0
ARC
  5
79E
330
1F
100
AcDbEntity
  8
0
  6
Continuous
 62
     7
370
    25
100
AcDbCircle
 10
-472.9973211797
 20
376.1901263664
 30
0.0
 40
1.000000000000057
100
AcDbArc
 50
275.7105931375
 51
360.0
  0
ARC
  5
79F
330
1F
100
AcDbEntity
  8
0
  6
Continuous
 62
     7
370
    25
100
AcDbCircle
 10
-482.9973211797
 20
368.2851388043
 30
0.0
 40
0.9999999999999432
100
AcDbArc
 50
270.0
 51
0.0
  0
ARC
  5
7A0
330
1F
100
AcDbEntity
  8
0
  6
Continuous
 62
     7
370
    25
100
AcDbCircle
 10
-498.3431625654
 20
418.5084392688
 30
0.0
 40
1.000000000000114
100
AcDbArc
 50
90.0
 51
180.0
  0
ARC
  5
7A1
330
1F
100
AcDbEntity
  8
0
  6
Continuous
 62
     7
370
    25
100
AcDbCircle
 10
-498.3431625654
 20
412.5084392688
 30
0.0
 40
1.000000000000057
100
AcDbArc
 50
180.0
 51
270.0
  0
ARC
  5
7A2
330
1F
100
AcDbEntity
  8
0
  6
Continuous
 62
     7
370
    25
100
AcDbCircle
 10
-484.3431625654
 20
402.6034517067
 30
0.0
 40
1.000000000000003
100
AcDbArc
 50
0.0
 51
84.2894068625
  0
ARC
  5
7A3
330
1F
100
AcDbEntity
  8
0
  6
Continuous
 62
     7
370
    25
100
AcDbCircle
 10
-484.3431625654
 20
503.4134268309
 30
0.0
 40
0.9999999999999915
100
AcDbArc
 50
275.7105931375
 51
0.0
  0
ARC
  5
7A4
330
1F
100
AcDbEntity
  8
0
  6
Continuous
 62
     7
370
    25
100
AcDbCircle
 10
-494.3431625654
 20
495.5084392688
 30
0.0
 40
1.000000000000114
100
AcDbArc
 50
270.0
 51
360.0
  0
ARC
  5
7A5
330
1F
100
AcDbEntity
  8
0
  6
Continuous
 62
     7
370
    25
100
AcDbCircle
 10
-498.3431625654
 20
493.5084392688
 30
0.0
 40
1.0
100
AcDbArc
 50
90.0
 51
180.0
  0
ARC
  5
7A6
330
1F
100
AcDbEntity
  8
0
  6
Continuous
 62
     7
370
    25
100
AcDbCircle
 10
-498.3431625654
 20
487.5084392688
 30
0.0
 40
1.000000000000057
100
AcDbArc
 50
180.0
 51
270.0
  0
ARC
  5
7A7
330
1F
100
AcDbEntity
  8
0
  6
Continuous
 62
     7
370
    25
100
AcDbCircle
 10
-494.3431625654
 20
485.5084392688
 30
0.0
 40
1.000000000000114
100
AcDbArc
 50
0.0
 51
90.0
  0
ARC
  5
7A8
330
1F
100
AcDbEntity
  8
0
  6
Continuous
 62
     7
370
    25
100
AcDbCircle
 10
-484.3431625654
 20
477.6034517067
 30
0.0
 40
0.9999999999999432
100
AcDbArc
 50
360.0
 51
84.2894068625
  0
ARC
  5
7A9
330
1F
100
AcDbEntity
  8
0
  6
Continuous
 62
     7
370
    25
100
AcDbCircle
 10
-484.3431625654
 20
465.9134268309
 30
0.0
 40
1.000000000000114
100
AcDbArc
 50
275.7105931375
 51
360.0
  0
ARC
  5
7AA
330
1F
100
AcDbEntity
  8
0
  6
Continuous
 62
     7
370
    25
100
AcDbCircle
 10
-494.3431625654
 20
458.0084392688
 30
0.0
 40
1.0
100
AcDbArc
 50
270.0
 51
0.0
  0
ARC
  5
7AB
330
1F
100
AcDbEntity
  8
0
  6
Continuous
 62
     7
370
    25
100
AcDbCircle
 10
-498.3431625654
 20
456.0084392688
 30
0.0
 40
1.000000000000114
100
AcDbArc
 50
90.0
 51
180.0
  0
ARC
  5
7AC
330
1F
100
AcDbEntity
  8
0
  6
Continuous
 62
     7
370
    25
100
AcDbCircle
 10
-498.3431625654
 20
450.0084392688
 30
0.0
 40
1.000000000000114
100
AcDbArc
 50
180.0
 51
270.0
  0
ARC
  5
7AD
330
1F
100
AcDbEntity
  8
0
  6
Continuous
 62
     7
370
    25
100
AcDbCircle
 10
-494.3431625654
 20
448.0084392688
 30
0.0
 40
1.0
100
AcDbArc
 50
0.0
 51
90.0
  0
ARC
  5
7AE
330
1F
100
AcDbEntity
  8
0
  6
Continuous
 62
     7
370
    25
100
AcDbCircle
 10
-484.3431625654
 20
440.1034517067
 30
0.0
 40
0.9999999999998863
100
AcDbArc
 50
360.0
 51
84.2894068625
  0
ARC
  5
7AF
330
1F
100
AcDbEntity
  8
0
  6
Continuous
 62
     7
370
    25
100
AcDbCircle
 10
-484.3431625654
 20
428.4134268309
 30
0.0
 40
0.9999999999998863
100
AcDbArc
 50
275.7105931375
 51
0.0
  0
ARC
  5
7B0
330
1F
100
AcDbEntity
  8
0
  6
Continuous
 62
     7
370
    25
100
AcDbCircle
 10
-494.3431625654
 20
410.5084392688
 30
0.0
 40
1.000000000000057
100
AcDbArc
 50
0.0
 51
90.0
  0
ARC
  5
7B1
330
1F
100
AcDbEntity
  8
0
  6
Continuous
 62
     7
370
    25
100
AcDbCircle
 10
-494.3431625654
 20
420.5084392688
 30
0.0
 40
1.000000000000057
100
AcDbArc
 50
270.0
 51
360.0
  0
ENDSEC
  0
SECTION
  2
OBJECTS
  0
DICTIONARY
  5
C
330
0
100
AcDbDictionary
281
     1
  3
ACAD_GROUP
350
D
  3
ACAD_LAYOUT
350
1A
  3
ACAD_MLINESTYLE
350
17
  3
ACAD_PLOTSETTINGS
350
19
  3
ACAD_PLOTSTYLENAME
350
E
  3
ACAD_SCALELIST
350
47
  3
DWGPROPS
350
7B2
  0
DICTIONARY
  5
D
102
{ACAD_REACTORS
330
C
102
}
330
C
100
AcDbDictionary
281
     1
  0
DICTIONARY
  5
1A
102
{ACAD_REACTORS
330
C
102
}
330
C
100
AcDbDictionary
281
     1
  3
Layout1
350
1E
  3
Layout2
350
26
  3
Model
350
22
  0
DICTIONARY
  5
17
102
{ACAD_REACTORS
330
C
102
}
330
C
100
AcDbDictionary
281
     1
  3
Standard
350
18
  0
DICTIONARY
  5
19
102
{ACAD_REACTORS
330
C
102
}
330
C
100
AcDbDictionary
281
     1
  0
ACDBDICTIONARYWDFLT
  5
E
102
{ACAD_REACTORS
330
C
102
}
330
C
100
AcDbDictionary
281
     1
  3
Normal
350
F
100
AcDbDictionaryWithDefault
340
F
  0
DICTIONARY
  5
47
102
{ACAD_REACTORS
330
C
102
}
330
C
100
AcDbDictionary
281
     1
  3
A0
350
48
  3
A1
350
49
  3
A2
350
4A
  3
A3
350
4B
  3
A4
350
4C
  3
A5
350
4D
  3
A6
350
4E
  3
A7
350
4F
  3
A8
350
50
  3
A9
350
51
  3
B0
350
52
  3
B1
350
53
  3
B2
350
54
  3
B3
350
55
  3
B4
350
56
  3
B5
350
57
  3
B6
350
58
  0
XRECORD
  5
7B2
102
{ACAD_REACTORS
330
C
102
}
330
C
100
AcDbXrecord
280
     1
  1
DWGPROPS COOKIE
  2

  3

  4

  6

  7

  8
bartboogmans
  9

300
=
301
=
302
=
303
=
304
=
305
=
306
=
307
=
308
=
309
=
 40
0.0
 41
2460570.63557603
 42
2460570.635605637
  1

 90
        0
  0
LAYOUT
  5
1E
102
{ACAD_REACTORS
330
1A
102
}
330
1A
100
AcDbPlotSettings
  1

  2
none_device
  4

  6

 40
0.0
 41
0.0
 42
0.0
 43
0.0
 44
0.0
 45
0.0
 46
0.0
 47
0.0
 48
0.0
 49
0.0
140
0.0
141
0.0
142
1.0
143
1.0
 70
   688
 72
     1
 73
     0
 74
     5
  7

 75
    16
147
1.0
148
0.0
149
0.0
100
AcDbLayout
  1
Layout1
 70
     1
 71
     1
 10
0.0
 20
0.0
 11
420.0
 21
297.0
 12
0.0
 22
0.0
 32
0.0
 14
1.0000000000E+20
 24
1.0000000000E+20
 34
1.0000000000E+20
 15
-1.0000000000E+20
 25
-1.0000000000E+20
 35
-1.0000000000E+20
146
0.0
 13
0.0
 23
0.0
 33
0.0
 16
1.0
 26
0.0
 36
0.0
 17
0.0
 27
1.0
 37
0.0
 76
     0
330
1B
  0
LAYOUT
  5
26
102
{ACAD_REACTORS
330
1A
102
}
330
1A
100
AcDbPlotSettings
  1

  2
none_device
  4

  6

 40
0.0
 41
0.0
 42
0.0
 43
0.0
 44
0.0
 45
0.0
 46
0.0
 47
0.0
 48
0.0
 49
0.0
140
0.0
141
0.0
142
1.0
143
1.0
 70
   688
 72
     1
 73
     0
 74
     5
  7

 75
    16
147
1.0
148
0.0
149
0.0
100
AcDbLayout
  1
Layout2
 70
     1
 71
     2
 10
0.0
 20
0.0
 11
0.0
 21
0.0
 12
0.0
 22
0.0
 32
0.0
 14
0.0
 24
0.0
 34
0.0
 15
0.0
 25
0.0
 35
0.0
146
0.0
 13
0.0
 23
0.0
 33
0.0
 16
1.0
 26
0.0
 36
0.0
 17
0.0
 27
1.0
 37
0.0
 76
     0
330
23
  0
LAYOUT
  5
22
102
{ACAD_REACTORS
330
1A
102
}
330
1A
100
AcDbPlotSettings
  1

  2
none_device
  4
ANSI_A_(11.00_x_8.50_Inches)
  6

 40
6.35
 41
19.05
 42
6.35000508
 43
19.05000254
 44
279.4
 45
215.9
 46
195.1374888408
 47
-19.6471311863
 48
0.0
 49
0.0
140
0.0
141
0.0
142
0.0073513006
143
1.0
 70
  1696
 72
     0
 73
     0
 74
     0
  7

 75
     0
147
0.0179189148
148
-1300.4909072572
149
0.0
100
AcDbLayout
  1
Model
 70
     1
 71
     0
 10
0.0
 20
0.0
 11
420.0
 21
297.0
 12
0.0
 22
0.0
 32
0.0
 14
-708.9973211797
 24
8.9792345404
 34
0.0
 15
47.1883299669
 25
1153.6746448054
 35
0.0
146
0.0
 13
0.0
 23
0.0
 33
0.0
 16
1.0
 26
0.0
 36
0.0
 17
0.0
 27
1.0
 37
0.0
 76
     0
330
1F
331
29
  0
MLINESTYLE
  5
18
102
{ACAD_REACTORS
330
17
102
}
330
17
100
AcDbMlineStyle
  2
Standard
 70
     0
  3

 62
   256
 51
90.0
 52
90.0
 71
     2
 49
0.5
 62
   256
  6
BYLAYER
 49
-0.5
 62
   256
  6
BYLAYER
  0
ACDBPLACEHOLDER
  5
F
102
{ACAD_REACTORS
330
E
102
}
330
E
  0
SCALE
  5
48
102
{ACAD_REACTORS
330
47
102
}
330
47
100
AcDbScale
 70
     0
300
1:1
140
1.0
141
1.0
290
     1
  0
SCALE
  5
49
102
{ACAD_REACTORS
330
47
102
}
330
47
100
AcDbScale
 70
     0
300
1:2
140
1.0
141
2.0
290
     0
  0
SCALE
  5
4A
102
{ACAD_REACTORS
330
47
102
}
330
47
100
AcDbScale
 70
     0
300
1:4
140
1.0
141
4.0
290
     0
  0
SCALE
  5
4B
102
{ACAD_REACTORS
330
47
102
}
330
47
100
AcDbScale
 70
     0
300
1:5
140
1.0
141
5.0
290
     0
  0
SCALE
  5
4C
102
{ACAD_REACTORS
330
47
102
}
330
47
100
AcDbScale
 70
     0
300
1:8
140
1.0
141
8.0
290
     0
  0
SCALE
  5
4D
102
{ACAD_REACTORS
330
47
102
}
330
47
100
AcDbScale
 70
     0
300
1:10
140
1.0
141
10.0
290
     0
  0
SCALE
  5
4E
102
{ACAD_REACTORS
330
47
102
}
330
47
100
AcDbScale
 70
     0
300
1:16
140
1.0
141
16.0
290
     0
  0
SCALE
  5
4F
102
{ACAD_REACTORS
330
47
102
}
330
47
100
AcDbScale
 70
     0
300
1:20
140
1.0
141
20.0
290
     0
  0
SCALE
  5
50
102
{ACAD_REACTORS
330
47
102
}
330
47
100
AcDbScale
 70
     0
300
1:30
140
1.0
141
30.0
290
     0
  0
SCALE
  5
51
102
{ACAD_REACTORS
330
47
102
}
330
47
100
AcDbScale
 70
     0
300
1:40
140
1.0
141
40.0
290
     0
  0
SCALE
  5
52
102
{ACAD_REACTORS
330
47
102
}
330
47
100
AcDbScale
 70
     0
300
1:50
140
1.0
141
50.0
290
     0
  0
SCALE
  5
53
102
{ACAD_REACTORS
330
47
102
}
330
47
100
AcDbScale
 70
     0
300
1:100
140
1.0
141
100.0
290
     0
  0
SCALE
  5
54
102
{ACAD_REACTORS
330
47
102
}
330
47
100
AcDbScale
 70
     0
300
2:1
140
2.0
141
1.0
290
     0
  0
SCALE
  5
55
102
{ACAD_REACTORS
330
47
102
}
330
47
100
AcDbScale
 70
     0
300
4:1
140
4.0
141
1.0
290
     0
  0
SCALE
  5
56
102
{ACAD_REACTORS
330
47
102
}
330
47
100
AcDbScale
 70
     0
300
8:1
140
8.0
141
1.0
290
     0
  0
SCALE
  5
57
102
{ACAD_REACTORS
330
47
102
}
330
47
100
AcDbScale
 70
     0
300
10:1
140
10.0
141
1.0
290
     0
  0
SCALE
  5
58
102
{ACAD_REACTORS
330
47
102
}
330
47
100
AcDbScale
 70
     0
300
100:1
140
100.0
141
1.0
290
     0
  0
ENDSEC
  0
EOF
